<svg width="81" height="81" viewBox="0 0 81 81" fill="none" xmlns="http://www.w3.org/2000/svg">
<rect width="81" height="81" rx="12" fill="white"/>
<path d="M40.7155 20.2624C45.778 20.2624 50.8405 20.2624 55.903 20.25C56.6117 20.25 57.042 20.4107 57.4091 21.1277C57.928 22.1537 58.7 23.0685 59.3708 24.0204C61.0794 26.468 62.8006 28.9157 64.5092 31.3633C64.6484 31.5735 64.7877 31.7713 64.8003 32.0308C64.813 32.2534 64.737 32.3893 64.5598 32.5748C64.003 33.1311 63.4967 33.7491 62.9778 34.3549C56.0675 42.5261 49.1572 50.6725 42.2595 58.819C41.6267 59.5731 40.8041 59.5978 40.1459 58.8684C35.2226 53.4539 30.2994 48.0395 25.3634 42.625C22.4651 39.4356 19.5669 36.2586 16.6559 33.0692C16.0864 32.4388 16.0484 31.9072 16.5547 31.2026C19.0353 27.8402 21.5159 24.4654 23.9712 21.0659C24.3762 20.4972 24.8445 20.25 25.5786 20.25C30.6284 20.2747 35.6783 20.2624 40.7155 20.2624ZM41.2344 54.8261C41.3103 54.6407 41.3483 54.5789 41.3609 54.5047C43.2087 47.5573 45.0439 40.61 46.8791 33.6626C47.0183 33.1311 47.0056 33.1063 46.4487 33.1063C42.6898 33.1063 38.9183 33.1063 35.1594 33.1063C34.2228 33.1063 34.2228 33.0074 34.5266 33.9346C36.0326 38.6197 37.5387 43.3049 39.0448 47.99C39.7662 50.2275 40.4876 52.465 41.2344 54.8261ZM38.7158 54.1833C38.6905 54.0226 38.6905 53.9731 38.6778 53.9361C36.5009 47.1494 34.3241 40.3627 32.1598 33.5637C32.0459 33.2052 31.8561 33.094 31.4764 33.094C27.7175 33.1063 23.9459 33.1063 20.187 33.1063C20.0605 33.1063 19.9086 33.0322 19.7947 33.2176C26.0722 40.1773 32.3497 47.137 38.7158 54.1833ZM43.7023 54.0473C43.7403 54.072 43.7909 54.0968 43.8289 54.1215C43.8542 54.072 43.8795 54.0102 43.9175 53.9608C49.6634 47.137 55.3967 40.3133 61.1427 33.4772C61.2186 33.3907 61.3705 33.3041 61.2945 33.1681C61.2186 33.0322 61.0287 33.1063 60.9022 33.1063C57.2192 33.1063 53.5362 33.1187 49.8406 33.094C49.3217 33.094 49.1319 33.2547 49.018 33.7244C47.5751 39.2749 46.1197 44.8254 44.6642 50.3635C44.3478 51.5997 44.0187 52.8235 43.7023 54.0473ZM46.1197 30.9925C46.107 30.7823 45.9805 30.671 45.8919 30.5474C44.2086 28.211 42.5126 25.887 40.842 23.5383C40.5762 23.1674 40.4623 23.2292 40.2219 23.5506C38.7031 25.6521 37.1591 27.7536 35.6276 29.8428C35.3619 30.2013 35.1214 30.5598 34.8303 30.9801C38.6398 30.9925 42.3734 30.9925 46.1197 30.9925ZM19.3644 30.9677C23.1866 30.9677 26.9075 30.9677 30.6791 30.9677C30.6284 30.8688 30.6031 30.807 30.5651 30.7576C28.8059 28.3347 27.0341 25.8994 25.2748 23.4641C25.0597 23.155 24.9331 23.2539 24.7686 23.4888C23.9333 24.6508 23.0853 25.8128 22.25 26.9625C21.3008 28.2852 20.3642 29.5956 19.3644 30.9677ZM27.2239 22.4133C27.2366 22.4504 27.2366 22.4999 27.2619 22.5369C29.0337 24.997 30.8056 27.457 32.5775 29.917C32.78 30.2013 32.8939 30.1024 33.0584 29.8799C34.7544 27.5188 36.463 25.17 38.1589 22.8089C38.2475 22.6976 38.4373 22.574 38.3234 22.4133C38.2475 22.2897 38.0576 22.3515 37.9184 22.3515C34.4886 22.3515 31.0587 22.3515 27.6416 22.3515C27.5023 22.3639 27.3505 22.3144 27.2239 22.4133ZM61.6489 30.9925C61.5476 30.8317 61.497 30.7329 61.4337 30.6463C59.7505 28.2976 58.0672 25.9365 56.3712 23.5877C56.0675 23.155 56.0548 23.155 55.7384 23.5877C54.0678 25.9117 52.4098 28.2481 50.7519 30.5845C50.6759 30.6958 50.4987 30.807 50.562 30.9306C50.638 31.0913 50.8405 31.0048 50.9923 31.0048C54.3716 31.0048 57.7634 31.0048 61.1427 31.0048C61.2945 31.0172 61.4337 31.0048 61.6489 30.9925ZM42.8797 22.3886C42.8797 22.5864 42.9936 22.6853 43.0695 22.7965C44.7528 25.1577 46.4361 27.5064 48.1067 29.8675C48.3472 30.2137 48.4611 30.1271 48.6636 29.8428C50.3722 27.4446 52.0808 25.0588 53.7894 22.6606C53.84 22.5864 53.9286 22.5246 53.878 22.3886C50.2203 22.3886 46.5626 22.3886 42.8797 22.3886Z" fill="#E04E39"/>
</svg>
