<svg width="40" height="40" viewBox="0 0 40 40" fill="none" xmlns="http://www.w3.org/2000/svg">
<path d="M40 20C40 31.0457 31.0457 40 20 40C8.9543 40 0 31.0457 0 20C0 8.9543 8.9543 0 20 0C31.0457 0 40 8.9543 40 20Z" fill="#D9D9D9"/>
<path d="M40 20C40 31.0457 31.0457 40 20 40C8.9543 40 0 31.0457 0 20C0 8.9543 8.9543 0 20 0C31.0457 0 40 8.9543 40 20Z" fill="#F7F9FA"/>
<path fill-rule="evenodd" clip-rule="evenodd" d="M20 39C30.4934 39 39 30.4934 39 20C39 9.50659 30.4934 1 20 1C9.50659 1 1 9.50659 1 20C1 30.4934 9.50659 39 20 39ZM20 40C31.0457 40 40 31.0457 40 20C40 8.9543 31.0457 0 20 0C8.9543 0 0 8.9543 0 20C0 31.0457 8.9543 40 20 40Z" fill="#E04E39"/>
<path fill-rule="evenodd" clip-rule="evenodd" d="M13 19.75C13 19.3358 13.3358 19 13.75 19L26.8929 19C27.3071 19 27.6429 19.3358 27.6429 19.75C27.6429 20.1642 27.3071 20.5 26.8929 20.5L13.75 20.5C13.3358 20.5 13 20.1642 13 19.75Z" fill="#E04E39"/>
<path fill-rule="evenodd" clip-rule="evenodd" d="M22.3625 15.2197C22.6554 14.9268 23.1303 14.9268 23.4232 15.2197L27.4232 19.2197C27.716 19.5126 27.716 19.9874 27.4232 20.2803L23.4232 24.2803C23.1303 24.5732 22.6554 24.5732 22.3625 24.2803C22.0696 23.9874 22.0696 23.5126 22.3625 23.2197L25.8322 19.75L22.3625 16.2803C22.0696 15.9874 22.0696 15.5126 22.3625 15.2197Z" fill="#E04E39"/>
</svg>
