<svg width="32" height="31" viewBox="0 0 32 31" fill="none" xmlns="http://www.w3.org/2000/svg">
<path d="M31.4875 15.4146C31.4875 23.9279 24.5861 30.8293 16.0728 30.8293C7.55957 30.8293 0.658203 23.9279 0.658203 15.4146C0.658203 6.90137 7.55957 0 16.0728 0C24.5861 0 31.4875 6.90137 31.4875 15.4146Z" fill="#D1D9DD"/>
<path d="M16.0706 23.12C14.894 23.0879 13.7093 23.136 12.5327 23.0559C10.2034 22.9118 8.5545 21.2547 8.43443 18.9171C8.32237 16.7476 8.3784 14.5781 8.39441 12.4086C8.40241 11.7761 8.49046 11.1517 8.69857 10.5513C9.25888 8.98222 10.4035 8.10961 12.0204 7.82942C12.5087 7.74136 12.9969 7.70934 13.4852 7.70934C15.3182 7.70934 17.1432 7.70133 18.9762 7.71734C19.6326 7.72535 20.2969 7.7974 20.9213 8.02155C22.4981 8.57393 23.3706 9.71872 23.6588 11.3358C23.7468 11.8162 23.7788 12.3045 23.7788 12.8009C23.7788 14.6341 23.7868 16.4594 23.7708 18.2926C23.7628 18.9651 23.6908 19.6296 23.4667 20.27C22.9064 21.8391 21.7617 22.7197 20.1449 22.9919C18.7921 23.208 17.4234 23.0799 16.0706 23.12ZM9.79518 15.0664C9.79518 15.931 9.80318 16.5074 9.79518 17.0838C9.78717 17.6762 9.81919 18.2606 9.85921 18.853C9.93925 20.206 10.6677 21.1426 11.9243 21.4788C12.2605 21.5669 12.6127 21.6149 12.9569 21.6229C15.0461 21.671 17.1352 21.679 19.2243 21.6229C20.1368 21.5989 20.9933 21.3828 21.6177 20.6383C22.1459 20.0138 22.282 19.2533 22.306 18.4768C22.3621 16.4113 22.3701 14.3379 22.306 12.2725C22.282 11.3999 22.0899 10.5673 21.3935 9.93487C20.7932 9.3905 20.0568 9.20637 19.2884 9.19837C17.0792 9.15834 14.87 9.04626 12.6607 9.19036C11.8763 9.23839 11.1479 9.46255 10.5876 10.071C10.0833 10.6153 9.91524 11.2798 9.85121 11.9923C9.75515 13.1051 9.81919 14.2258 9.79518 15.0664Z" fill="white"/>
<path d="M20.0647 15.4108C20.0647 17.6203 18.2798 19.3975 16.0705 19.3975C13.8853 19.3975 12.1004 17.6123 12.1004 15.4188C12.1004 13.2093 13.8854 11.432 16.0946 11.432C18.2878 11.432 20.0647 13.2173 20.0647 15.4108ZM16.1026 12.8971C14.6938 12.8891 13.5812 13.9778 13.5732 15.3788C13.5652 16.7957 14.6458 17.9085 16.0465 17.9245C17.4793 17.9325 18.5919 16.8438 18.5999 15.4268C18.5999 14.0098 17.5113 12.9051 16.1026 12.8971Z" fill="white"/>
<path d="M20.1769 12.2486C19.6326 12.2486 19.2403 11.8483 19.2403 11.2959C19.2403 10.7596 19.6566 10.3433 20.1929 10.3513C20.7051 10.3513 21.1454 10.7996 21.1454 11.3119C21.1374 11.8483 20.7211 12.2486 20.1769 12.2486Z" fill="white"/>
</svg>
