<svg viewBox="0 0 20 21" xmlns="http://www.w3.org/2000/svg">
<path d="M19.6289 20.1491C19.3815 20.4033 19.0853 20.5304 18.7402 20.5304C18.3952 20.5304 18.099 20.4033 17.8516 20.1491L13.9844 16.1755C12.4219 17.3662 10.6771 17.9616 8.75 17.9616C7.5651 17.9616 6.43229 17.7241 5.35156 17.2491C4.27083 16.7742 3.33984 16.1353 2.55859 15.3326C1.77734 14.5298 1.1556 13.5766 0.693359 12.4728C0.23112 11.369 0 10.205 0 8.98079C0 7.7566 0.23112 6.58926 0.693359 5.47879C1.1556 4.36831 1.77734 3.41504 2.55859 2.61898C3.33984 1.82292 4.27083 1.1874 5.35156 0.712443C6.43229 0.237481 7.5651 0 8.75 0C9.9349 0 11.0677 0.237481 12.1484 0.712443C13.2292 1.1874 14.1602 1.82292 14.9414 2.61898C15.7227 3.41504 16.3444 4.36831 16.8066 5.47879C17.2689 6.58926 17.5 7.75325 17.5 8.97076C17.5 10.9643 16.9206 12.7571 15.7617 14.3492L19.6289 18.3228C19.8763 18.577 20 18.8814 20 19.236C20 19.5905 19.8763 19.8949 19.6289 20.1491ZM8.75 2.56881C7.61719 2.56881 6.57227 2.85312 5.61523 3.42173C4.6582 3.99035 3.89974 4.76969 3.33984 5.75975C2.77995 6.74981 2.5 7.82349 2.5 8.98079C2.5 10.1381 2.77995 11.2118 3.33984 12.2018C3.89974 13.1919 4.6582 13.9712 5.61523 14.5399C6.57227 15.1085 7.61719 15.3928 8.75 15.3928C9.88281 15.3928 10.9277 15.1085 11.8848 14.5399C12.8418 13.9712 13.6003 13.1919 14.1602 12.2018C14.7201 11.2118 15 10.1381 15 8.98079C15 7.82349 14.7201 6.74981 14.1602 5.75975C13.6003 4.76969 12.8418 3.99035 11.8848 3.42173C10.9277 2.85312 9.88281 2.56881 8.75 2.56881Z"/>
</svg>
