<svg xmlns="http://www.w3.org/2000/svg" fill="none" viewBox="0 0 50 50" id="icon-block-marker">
    <path d="M0 10C0 4.477 4.477 0 10 0h30c5.523 0 10 4.477 10 10v30c0 5.523-4.477 10-10 10H10C4.477 50 0 45.523 0 40V10z"
          fill="#F7F9FA"/>
    <path fill-rule="evenodd" clip-rule="evenodd"
          d="M34.475 15.525a.885.885 0 01.174 1.004l-8.384 17.7a.885.885 0 01-1.658-.165l-1.734-6.937-6.937-1.734a.885.885 0 01-.164-1.659l17.699-8.383a.885.885 0 011.004.174zm-15.711 8.75l5.053 1.264c.317.079.565.327.644.644l1.264 5.053 6.264-13.225-13.225 6.264z"
          fill="#C9D1D1"/>
    <path fill-rule="evenodd" clip-rule="evenodd"
          d="M33.357 15.11a1.15 1.15 0 011.532 1.533l-8.384 17.699a1.15 1.15 0 01-2.155-.213l-1.696-6.783-6.783-1.696a1.15 1.15 0 01-.213-2.155l17.699-8.384zm.93.602a.62.62 0 00-.703-.121l-17.699 8.383A.62.62 0 0016 25.135l7.092 1.773L24.865 34a.62.62 0 001.16.115l8.384-17.7a.62.62 0 00-.121-.703zm-1.74 1.74l-6.9 14.568-1.443-5.773a.62.62 0 00-.451-.45l-5.773-1.444 14.567-6.9zm-12.999 6.746l4.334 1.083c.412.103.734.425.837.837l1.083 4.334 5.629-11.883-11.883 5.629z"
          fill="#C9D1D1"/>
</svg>