<svg width="80" height="80" viewBox="0 0 80 80" fill="none" xmlns="http://www.w3.org/2000/svg">
<rect width="80" height="80" rx="12" fill="white"/>
<path d="M39.9867 64.7912C31.9562 64.7912 23.9393 64.7912 15.9088 64.7912C15.6361 64.7912 15.3634 64.8051 15.0907 64.7773C14.5863 64.7355 14.2045 64.3458 14.2181 63.8587C14.2181 63.3715 14.5999 62.9818 15.1044 62.9679C16.2224 62.9539 17.354 62.9539 18.472 62.9539C19.3173 62.9539 19.3173 62.9539 19.3173 62.0631C19.3173 61.576 19.3037 61.0888 19.331 60.6017C19.3719 59.7804 19.7127 59.4325 20.5171 59.4186C21.0625 59.4046 21.6079 59.3907 22.1532 59.4186C22.6441 59.4464 22.794 59.2794 22.794 58.7644C22.7804 54.3521 22.7804 49.9259 22.7804 45.5137C22.7804 45.3745 22.7668 45.2353 22.7804 45.0961C22.8349 44.4141 22.7259 43.913 22.126 43.398C20.8034 42.2567 21.117 40.1132 22.6441 39.1945C25.4391 37.5243 28.2477 35.8818 31.0427 34.2255C36.5236 30.9824 42.0182 27.7533 47.4991 24.5102C47.6354 24.4267 47.7582 24.3432 47.8945 24.2736C48.1535 24.1483 48.1399 24.0091 47.9763 23.7864C47.4309 23.0069 46.8856 22.2275 46.3538 21.4341C45.0313 19.4576 45.5494 17.0636 47.5673 15.8527C48.1808 15.4769 48.7943 15.1011 49.4215 14.7531C51.603 13.5143 53.8663 14.2659 54.9161 16.5765C56.7431 20.599 58.57 24.6215 60.3697 28.658C61.1333 30.3422 60.7106 32.082 59.2517 33.279C58.9791 33.5017 58.8836 33.7244 58.8836 34.0724C58.8973 43.4815 58.8973 52.8906 58.8836 62.2998C58.8836 62.8148 59.0609 62.94 59.5381 62.94C61.256 62.9122 62.9739 62.9261 64.7054 62.9261C65.1553 62.9261 65.5234 63.0514 65.6871 63.5107C65.9188 64.1092 65.5234 64.7216 64.8554 64.7495C64.2418 64.7773 63.6283 64.7634 63.0148 64.7634C55.3524 64.7912 47.6627 64.7912 39.9867 64.7912ZM57.1384 48.548C57.1384 45.277 57.1384 42.0061 57.1384 38.7352C57.1384 37.3572 57.1384 35.9932 57.1384 34.6152C57.1384 34.3369 57.1248 34.1142 56.7567 34.0863C55.5296 33.975 54.5889 33.3486 53.8799 32.3186C53.0891 31.1634 52.2847 30.022 51.5075 28.8528C51.3167 28.5745 51.1667 28.491 50.8531 28.6858C49.4488 29.5349 48.0308 30.37 46.6129 31.2051C46.3129 31.3861 46.2175 31.5949 46.272 31.9289C46.4902 33.2651 46.6947 34.6013 46.8992 35.9514C47.7718 41.5886 48.6444 47.2118 49.517 52.8489C50.0078 56.0084 50.4986 59.168 50.9758 62.3276C51.044 62.8008 51.194 63.0096 51.7121 62.9957C53.2936 62.9539 54.8752 62.9818 56.4704 62.9818C57.1521 62.9818 57.1521 62.9818 57.1521 62.2858C57.1384 57.7065 57.1384 53.1273 57.1384 48.548ZM24.5801 51.7493C24.5801 54.0737 24.5801 56.4121 24.5801 58.7365C24.5801 59.4186 24.5801 59.4186 25.2754 59.4186C25.8344 59.4186 26.3934 59.4046 26.9661 59.4186C27.6751 59.4325 28.0295 59.7944 28.0432 60.5181C28.0568 61.1584 28.0432 61.7987 28.0432 62.4529C28.0432 62.7034 28.0432 62.94 28.3977 62.9539C28.7385 62.9679 28.9567 62.8843 29.0112 62.5085C29.0794 62.0214 29.1612 61.5481 29.2293 61.061C29.9929 56.078 30.77 51.109 31.5335 46.1261C31.8471 44.0939 32.1607 42.0757 32.4743 40.0575C32.4879 39.9461 32.5288 39.793 32.4334 39.7095C32.3243 39.6121 32.2016 39.7234 32.1061 39.7791C31.7789 39.9601 31.4517 40.1549 31.1381 40.3498C29.1203 41.5468 27.1024 42.7438 25.0709 43.913C24.7164 44.1079 24.5801 44.2888 24.5801 44.6925C24.5801 47.0587 24.5801 49.4109 24.5801 51.7493ZM40.0003 47.1978C42.0318 47.1978 44.0497 47.1978 46.0812 47.1978C46.7901 47.1978 46.8038 47.1978 46.6947 46.5019C45.9857 41.9505 45.2767 37.4129 44.5814 32.8615C44.5269 32.4857 44.4042 32.4857 44.1315 32.6527C41.0774 34.476 38.0097 36.2855 34.9421 38.0949C34.6421 38.2759 34.5194 38.5125 34.4785 38.8466C34.0831 41.4215 33.6877 43.9965 33.2923 46.5715C33.1969 47.1422 33.2514 47.2118 33.8241 47.2118C35.8828 47.2118 37.9416 47.1978 40.0003 47.1978ZM47.4718 19.1514C47.4718 19.6943 47.6354 20.0701 47.8809 20.418C50.4032 24.0648 52.9255 27.7254 55.4614 31.3722C56.0614 32.249 57.193 32.4857 58.0519 31.9707C58.8973 31.4557 59.1972 30.4118 58.7609 29.4235C58.4746 28.7693 58.1746 28.1291 57.8883 27.4749C56.3477 24.0787 54.8206 20.6825 53.28 17.3002C52.721 16.0754 51.5894 15.7135 50.4304 16.3538C49.7487 16.7296 49.067 17.1471 48.399 17.5647C47.7445 17.9405 47.4855 18.539 47.4718 19.1514ZM47.7718 62.94C47.69 62.8287 47.6627 62.773 47.6218 62.7452C45.2358 60.6713 42.8362 58.6113 40.4775 56.5234C40.0685 56.1616 39.8503 56.259 39.5095 56.5513C37.219 58.5556 34.9284 60.546 32.6379 62.5364C32.5152 62.6477 32.3516 62.7452 32.2834 62.94C37.4507 62.94 42.5635 62.94 47.7718 62.94ZM23.9938 42.3263C24.1983 42.3402 24.3892 42.2427 24.5801 42.1175C26.2844 41.1014 28.0023 40.0853 29.7065 39.0832C36.21 35.2416 42.6999 31.3861 49.2034 27.5445C50.185 26.9599 50.185 26.9877 49.5306 26.0273C49.3124 25.7072 49.1352 25.6933 48.8216 25.8881C47.6763 26.5841 46.5174 27.2522 45.3722 27.9342C38.896 31.748 32.4197 35.5756 25.9435 39.3894C25.1391 39.8626 24.321 40.3498 23.5166 40.8509C23.1758 41.0596 23.0258 41.3937 23.1621 41.7973C23.2985 42.1453 23.5712 42.3402 23.9938 42.3263ZM31.0018 61.4507C31.1518 61.3811 31.1927 61.3533 31.2336 61.3254C33.6059 59.2654 35.9783 57.2194 38.3642 55.1594C38.596 54.9645 38.5415 54.8393 38.337 54.6722C36.6054 53.169 34.8739 51.6519 33.1423 50.1347C32.8833 49.912 32.7742 49.912 32.7197 50.3017C32.3652 52.6679 31.9834 55.0341 31.6153 57.4003C31.4108 58.7226 31.2199 60.0449 31.0018 61.4507ZM47.2128 49.8703C45.3722 51.4709 43.6406 52.9881 41.8955 54.4913C41.4046 54.9228 41.4046 54.9228 41.8955 55.3543C43.9406 57.1359 45.9857 58.9175 48.0445 60.6991C48.3172 60.9357 48.5626 61.228 48.9852 61.4229C48.399 57.5534 47.8263 53.7675 47.2128 49.8703ZM45.3585 49.063C41.7591 49.063 38.2824 49.063 34.7784 49.063C34.8193 49.1465 34.833 49.2021 34.8739 49.23C36.4963 50.6497 38.1324 52.0694 39.7549 53.4891C39.9594 53.6701 40.1094 53.6144 40.2866 53.4613C41.95 52.0277 43.5997 50.594 45.3585 49.063ZM23.7211 62.9679C23.9802 62.9679 24.2256 62.9679 24.4847 62.9679C24.7437 62.9679 24.9891 62.9679 25.2482 62.9679C26.3798 62.9539 26.1889 63.121 26.2435 61.9796C26.2707 61.4925 26.1208 61.2976 25.6163 61.3115C24.4983 61.3394 23.3667 61.3254 22.2487 61.3254C21.1034 61.3254 21.117 61.3254 21.1716 62.5085C21.1852 62.8426 21.2943 62.9818 21.6351 62.9679C22.3305 62.9539 23.0258 62.9679 23.7211 62.9679Z" fill="#E04E39"/>
<path d="M64.0782 65C63.901 65 63.7374 65 63.5601 65C63.3829 65 63.2193 65 63.042 65C63.042 65 63.042 65 63.0284 65H39.9731C31.9425 65 23.9257 65 15.8951 65C15.827 65 15.7588 65 15.6906 65C15.4861 65 15.268 65 15.0635 64.9861C14.4499 64.9443 14 64.4572 14 63.8587C14.0136 63.2601 14.4908 62.773 15.0907 62.7591C15.9088 62.7452 16.7268 62.7452 17.5176 62.7452C17.8312 62.7452 18.1448 62.7452 18.4584 62.7452C18.7447 62.7452 19.0037 62.7452 19.0583 62.7034C19.1128 62.6477 19.1128 62.3693 19.1128 62.0631C19.1128 61.9239 19.1128 61.7848 19.1128 61.6316C19.1128 61.2837 19.1128 60.9357 19.1264 60.5877C19.1673 59.6552 19.59 59.2237 20.5035 59.2098H20.7353C21.1988 59.1959 21.676 59.1959 22.1532 59.2237C22.3305 59.2376 22.4395 59.2098 22.4941 59.168C22.5486 59.1123 22.5759 58.9871 22.5759 58.7922C22.5622 55.396 22.5622 51.9302 22.5622 48.5897V45.5415C22.5622 45.4997 22.5622 45.458 22.5622 45.4162C22.5622 45.3188 22.5622 45.2214 22.5622 45.11C22.6031 44.4976 22.535 44.0522 21.976 43.579C21.3352 43.0222 21.008 42.2149 21.0761 41.338C21.1579 40.3915 21.7033 39.5286 22.5213 39.0275C24.4983 37.8444 26.5298 36.6474 28.4795 35.506C29.2975 35.0328 30.1156 34.5456 30.92 34.0724L47.4173 24.3571C47.4582 24.3292 47.4991 24.3014 47.5536 24.2736C47.6491 24.2179 47.7309 24.1622 47.84 24.1065C47.8809 24.0787 47.9081 24.0648 47.9218 24.0648C47.9218 24.0509 47.8945 24.0091 47.8536 23.9395C47.2673 23.1044 46.7356 22.3388 46.2311 21.5872C45.5631 20.5851 45.3176 19.4298 45.5631 18.3441C45.7948 17.2585 46.4902 16.3259 47.5127 15.7135L47.7309 15.5882C48.2626 15.2681 48.8216 14.934 49.3806 14.6139C50.485 13.9876 51.6848 13.8344 52.721 14.1824C53.7572 14.5304 54.6298 15.3655 55.1615 16.5347C56.784 20.1118 58.5291 23.9534 60.6152 28.6162C61.4196 30.3978 60.9696 32.2212 59.4426 33.4878C59.2245 33.6688 59.1427 33.8358 59.1427 34.1142C59.1427 42.4515 59.1563 52.3339 59.1427 62.3415C59.1427 62.5225 59.1699 62.6477 59.2108 62.7034C59.2654 62.7591 59.3881 62.773 59.579 62.773C60.7106 62.7591 61.8422 62.7591 62.9602 62.7591C63.5601 62.7591 64.1464 62.7591 64.7463 62.7591C65.3462 62.7591 65.728 62.9957 65.9188 63.4689C66.0552 63.8169 66.0143 64.1788 65.837 64.4711C65.6462 64.7773 65.3053 64.9722 64.9099 64.9861C64.61 65 64.3373 65 64.0782 65ZM63.042 64.5824C63.2193 64.5824 63.3829 64.5824 63.5601 64.5824C63.9828 64.5824 64.4327 64.5824 64.869 64.5685C65.1281 64.5546 65.3462 64.4433 65.4689 64.2484C65.578 64.0674 65.6053 63.8447 65.5234 63.622C65.4007 63.3019 65.169 63.1766 64.7327 63.1766C64.1328 63.1766 63.5329 63.1766 62.9466 63.1766C61.8422 63.1766 60.697 63.1766 59.579 63.1906C59.3472 63.1906 59.0881 63.1766 58.9245 62.9957C58.7473 62.8148 58.7336 62.5503 58.7336 62.3415C58.7473 52.32 58.7473 42.4515 58.7336 34.1142C58.7336 33.7105 58.87 33.4182 59.1836 33.1538C60.5743 32.0124 60.9696 30.37 60.247 28.7833C58.1474 24.1204 56.4158 20.2789 54.7934 16.7017C54.3025 15.6161 53.539 14.8784 52.5983 14.5721C51.6575 14.252 50.6077 14.3912 49.5851 14.9758C49.0398 15.282 48.4808 15.6161 47.949 15.9362L47.7309 16.0615C46.8038 16.6182 46.1902 17.4533 45.9721 18.4277C45.7539 19.402 45.9721 20.432 46.5856 21.3506C47.0764 22.0883 47.6082 22.8538 48.1944 23.689C48.2899 23.8142 48.3853 23.9813 48.3308 24.1622C48.2762 24.3571 48.0854 24.4545 48.0308 24.4823C47.949 24.5241 47.8809 24.5659 47.7991 24.6215C47.7582 24.6494 47.7036 24.6772 47.6491 24.705L31.1927 34.4204C30.3746 34.9075 29.5566 35.3808 28.7521 35.854C26.8025 37.0093 24.771 38.1924 22.794 39.3755C22.0851 39.8069 21.6215 40.5446 21.5533 41.3659C21.4851 42.1036 21.7715 42.7856 22.3032 43.2449C22.9849 43.8295 23.0803 44.4141 23.0258 45.1239C23.0258 45.2075 23.0258 45.291 23.0258 45.3884C23.0258 45.4302 23.0258 45.4858 23.0258 45.5276V48.5758C23.0258 51.9163 23.0258 55.3821 23.0394 58.7783C23.0394 59.001 23.0122 59.2794 22.8349 59.4603C22.6441 59.6413 22.3714 59.6413 22.1805 59.6273C21.7306 59.5995 21.2534 59.6134 20.8034 59.6134H20.5717C19.8763 59.6273 19.6173 59.8779 19.59 60.5877C19.5764 60.9218 19.5764 61.2698 19.5764 61.6177C19.5764 61.7569 19.5764 61.8961 19.5764 62.0492C19.5764 63.0514 19.4809 63.1488 18.5265 63.1488C18.213 63.1488 17.8994 63.1488 17.5858 63.1488C16.795 63.1488 15.9633 63.1488 15.1589 63.1627C14.7771 63.1627 14.4772 63.4689 14.4636 63.8447C14.4636 64.2206 14.7499 64.5128 15.1453 64.5407C15.3361 64.5546 15.527 64.5546 15.7315 64.5546C15.7997 64.5546 15.8679 64.5546 15.936 64.5546C23.9666 64.5546 31.9834 64.5546 40.014 64.5546L63.042 64.5824ZM51.6575 63.1906C51.0167 63.1906 50.8395 62.8565 50.7577 62.3554C50.3486 59.5717 49.8987 56.7461 49.4761 54.0181L49.2988 52.8767C48.6853 48.9238 48.0717 44.9848 47.4582 41.0318L46.6811 35.9793C46.6265 35.6035 46.572 35.2416 46.5038 34.8658C46.3538 33.9193 46.2039 32.9311 46.0539 31.9707C45.9857 31.5392 46.1221 31.2469 46.4902 31.0242C48.0445 30.1195 49.4215 29.2982 50.7304 28.5049C51.2212 28.2126 51.4666 28.4492 51.6575 28.7276C52.0665 29.34 52.5028 29.9524 52.9119 30.5509C53.28 31.0799 53.6617 31.6366 54.0299 32.1794C54.7252 33.2094 55.6114 33.7523 56.7567 33.8636C57.3293 33.9193 57.3293 34.3647 57.3293 34.6013C57.3293 35.5896 57.3293 36.5778 57.3293 37.566V48.534C57.3293 51.109 57.3293 53.6979 57.3293 56.2729V62.258C57.3293 63.0653 57.2339 63.1488 56.4431 63.1627C55.9795 63.1627 55.516 63.1627 55.0388 63.1627C53.9344 63.1627 52.8028 63.1488 51.6848 63.1766C51.6984 63.1906 51.6712 63.1906 51.6575 63.1906ZM51.1258 28.7972C51.0849 28.7972 51.0303 28.825 50.9485 28.8807C49.6397 29.6741 48.249 30.4953 46.7083 31.4C46.4902 31.5253 46.4356 31.6505 46.4765 31.915C46.6402 32.8893 46.7901 33.8636 46.9265 34.824C46.981 35.1998 47.0355 35.5617 47.1037 35.9375L47.8809 40.99C48.4944 44.943 49.1079 48.882 49.7215 52.835L49.8987 53.9763C50.3214 56.7044 50.7577 59.5299 51.1803 62.3137C51.2485 62.7312 51.3303 62.8148 51.7121 62.8008C52.8301 62.773 53.9753 62.773 55.0797 62.7869C55.5433 62.7869 56.0068 62.7869 56.4704 62.7869C56.6749 62.7869 56.8794 62.7869 56.9203 62.7591C56.9476 62.7173 56.9476 62.4946 56.9476 62.3137V56.3286C56.9476 53.7536 56.9476 51.1647 56.9476 48.5897V37.6217C56.9476 36.6335 56.9476 35.6452 56.9476 34.657C56.9476 34.3786 56.9339 34.3508 56.7431 34.3369C55.4887 34.2255 54.4798 33.5992 53.7163 32.4857C53.3482 31.9428 52.9664 31.3861 52.5983 30.8572C52.1893 30.2586 51.753 29.6462 51.3439 29.0199C51.2485 28.8528 51.194 28.7972 51.1258 28.7972ZM28.4795 63.1766C28.4386 63.1766 28.4113 63.1766 28.384 63.1766C27.8387 63.1488 27.8387 62.7034 27.8387 62.4668C27.8387 62.258 27.8387 62.0631 27.8387 61.8683C27.8387 61.4368 27.8387 60.9775 27.8387 60.5321C27.825 59.9196 27.566 59.6552 26.9524 59.6413C26.5843 59.6273 26.2162 59.6413 25.8481 59.6413C25.6572 59.6413 25.4527 59.6413 25.2618 59.6413C24.4574 59.6413 24.3756 59.5438 24.3756 58.7505C24.3756 57.0524 24.3756 55.3543 24.3756 53.6701V51.7632C24.3756 51.1647 24.3756 50.5801 24.3756 49.9955C24.3756 48.2696 24.3756 46.488 24.362 44.7342C24.362 44.2053 24.5801 43.9826 24.9619 43.7599C26.4889 42.8969 28.0159 41.9783 29.502 41.1014C30.0065 40.7952 30.5246 40.5029 31.0291 40.1967L31.329 40.0157C31.5608 39.8765 31.7789 39.7513 32.0107 39.6121C32.0243 39.5982 32.038 39.5982 32.0516 39.5842C32.1471 39.5286 32.3652 39.3894 32.5697 39.5564C32.7606 39.7095 32.7197 39.9322 32.6924 40.0575L32.6788 40.0992C32.5424 40.9901 32.4061 41.8669 32.2698 42.7577C32.0925 43.8991 31.9153 45.0404 31.738 46.1679C31.2063 49.5919 30.6882 53.002 30.1565 56.426L29.4339 61.1027C29.4066 61.2558 29.3793 61.4089 29.3657 61.5621C29.3111 61.8822 29.2566 62.2162 29.2157 62.5364C29.1339 63.121 28.7112 63.1766 28.4795 63.1766ZM26.2571 59.2237C26.4889 59.2237 26.7207 59.2237 26.9661 59.2237C27.7841 59.2376 28.2341 59.6969 28.2477 60.5321C28.2613 60.9775 28.2613 61.4368 28.2477 61.8683C28.2477 62.0631 28.2477 62.258 28.2477 62.4668C28.2477 62.7591 28.2613 62.7591 28.4113 62.7591C28.7249 62.773 28.7794 62.7034 28.8067 62.4946C28.8476 62.1606 28.9021 61.8265 28.9567 61.5064C28.9839 61.3533 29.0112 61.2002 29.0248 61.0471L29.7474 56.3703C30.2792 52.9463 30.7973 49.5362 31.329 46.1122C31.5062 44.9708 31.6835 43.8295 31.8607 42.6881C31.9971 41.7973 32.1334 40.9205 32.2698 40.0297L32.2834 39.974C32.2834 39.9601 32.297 39.9322 32.297 39.9044C32.2834 39.9183 32.2698 39.9183 32.2561 39.9322C32.2425 39.9461 32.2289 39.9601 32.2016 39.9601C31.9698 40.0853 31.7517 40.2245 31.5199 40.3498L31.2199 40.5307C30.7155 40.8369 30.1974 41.1292 29.6929 41.4355C28.2068 42.3123 26.6661 43.231 25.1391 44.0939C24.8255 44.2749 24.7573 44.4002 24.7573 44.6925C24.771 46.4462 24.771 48.2418 24.771 49.9677C24.771 50.5523 24.771 51.1508 24.771 51.7354V53.6423C24.771 55.3403 24.771 57.0384 24.771 58.7226C24.771 58.9175 24.771 59.1263 24.7982 59.168C24.8391 59.1959 25.0437 59.1959 25.2618 59.1959C25.4527 59.1959 25.6436 59.1959 25.8481 59.1959C25.9844 59.2237 26.1208 59.2237 26.2571 59.2237ZM21.6079 63.1766C21.1988 63.1766 20.9807 62.9539 20.9671 62.5225V62.4946C20.9398 61.8543 20.9261 61.5342 21.117 61.3254C21.3079 61.1167 21.6215 61.1167 22.2487 61.1167C22.5759 61.1167 22.9031 61.1167 23.2303 61.1167C24.0075 61.1167 24.8119 61.1306 25.6027 61.1027C25.7935 61.1027 26.0799 61.1167 26.2571 61.2976C26.4343 61.4925 26.448 61.7569 26.4343 61.9796C26.4207 62.1466 26.4207 62.2858 26.4207 62.3972C26.4071 63.0792 26.3116 63.1766 25.6163 63.1627C25.5072 63.1627 25.3845 63.1627 25.2345 63.1627C25.0573 63.1627 24.8801 63.1627 24.7028 63.1627H23.4894C23.353 63.1627 23.2167 63.1627 23.0803 63.1627C22.5895 63.1627 22.0987 63.1627 21.5942 63.1627C21.6351 63.1766 21.6215 63.1766 21.6079 63.1766ZM22.2078 61.5342C21.7851 61.5342 21.4851 61.5342 21.417 61.6177C21.3352 61.7012 21.3624 62.0214 21.3761 62.4807V62.5085C21.3897 62.7452 21.4306 62.773 21.6215 62.773C22.1123 62.7591 22.6168 62.7591 23.1076 62.773C23.3121 62.773 23.5166 62.773 23.7211 62.773H24.7301C24.9073 62.773 25.0709 62.773 25.2482 62.773C25.3981 62.773 25.5345 62.773 25.6436 62.773C25.7935 62.773 25.9571 62.773 26.0117 62.7591C26.0253 62.7034 26.0253 62.5503 26.039 62.4111C26.039 62.2998 26.039 62.1466 26.0526 61.9796C26.0662 61.7848 26.039 61.6595 25.9844 61.6038C25.9299 61.5481 25.8072 61.5203 25.6299 61.5342C24.8391 61.5621 24.0211 61.5481 23.244 61.5481C22.9031 61.5342 22.5486 61.5342 22.2078 61.5342ZM48.1808 63.1488H32.0107L32.0925 62.8843C32.1607 62.6616 32.3107 62.5364 32.4334 62.4389C32.4606 62.425 32.4879 62.3972 32.5015 62.3833C33.3605 61.6316 34.2194 60.894 35.0648 60.1563C36.4827 58.9314 37.9416 57.6648 39.3732 56.4121C39.7822 56.0641 40.1094 55.9389 40.6002 56.3843C42.3318 57.9153 44.1042 59.4603 45.8221 60.9496C46.4629 61.5064 47.1037 62.0631 47.7445 62.6199C47.7854 62.6616 47.8127 62.7034 47.8536 62.7452C47.8672 62.773 47.8945 62.8008 47.9218 62.8426L48.1808 63.1488ZM32.7197 62.7312H47.281C46.7083 62.2302 46.1357 61.743 45.5631 61.2419C43.8452 59.7526 42.0727 58.2076 40.3412 56.6766C40.0412 56.4121 39.9458 56.4399 39.6458 56.7044C38.2142 57.9571 36.7554 59.2237 35.3374 60.4625C34.4785 61.2002 33.6195 61.9518 32.7742 62.6895C32.7606 62.7034 32.7333 62.7173 32.7197 62.7312ZM30.7291 61.8265L30.9881 60.1006C31.1245 59.1819 31.2745 58.2772 31.4108 57.3864C31.5199 56.7044 31.629 56.0084 31.738 55.3264C31.9971 53.6701 32.2698 51.972 32.5152 50.2878C32.5424 50.079 32.597 49.8703 32.7742 49.8146C32.9515 49.745 33.1287 49.8703 33.2651 49.9955C35.2965 51.7771 36.9599 53.2247 38.4597 54.5331C38.5824 54.6444 38.7051 54.7697 38.7051 54.9506C38.7051 55.1316 38.5824 55.2568 38.4869 55.3403C36.8099 56.774 35.1466 58.2215 33.4832 59.6691L31.3563 61.5064C31.3154 61.5481 31.2745 61.5621 31.2063 61.5899C31.179 61.6038 31.1381 61.6177 31.0836 61.6456L30.7291 61.8265ZM32.9378 50.2461C32.9378 50.2739 32.9242 50.3017 32.9242 50.3435C32.6788 52.0277 32.4061 53.7397 32.1471 55.3821C32.038 56.0641 31.9289 56.7601 31.8198 57.4421C31.6835 58.3329 31.5471 59.2376 31.3972 60.1563L31.2608 61.0053L33.2105 59.3211C34.8739 57.8736 36.5509 56.4399 38.2143 54.9924C38.2552 54.9506 38.2688 54.9367 38.2824 54.9228C38.2688 54.9089 38.2415 54.881 38.187 54.8253C36.6736 53.517 35.0239 52.0694 32.9924 50.2878C32.9787 50.2739 32.9515 50.26 32.9378 50.2461ZM49.2579 61.7708L48.9171 61.6177C48.5489 61.4507 48.3172 61.228 48.099 61.0331C48.0445 60.9775 47.9763 60.9218 47.9218 60.8661C46.422 59.5717 44.895 58.2355 43.4089 56.9549L41.7728 55.5213C41.4728 55.2568 41.3228 55.1316 41.3228 54.9228C41.3228 54.714 41.4728 54.5887 41.7591 54.3382L47.3491 49.4666L49.2579 61.7708ZM41.7455 54.9367C41.7864 54.9924 41.9091 55.1037 42.0318 55.2151L43.6815 56.6487C45.154 57.9292 46.6811 59.2655 48.1944 60.5599C48.2626 60.6156 48.3172 60.6712 48.3853 60.7408C48.4944 60.8383 48.6035 60.9496 48.7398 61.0471L47.0764 50.2878L42.0454 54.6722C41.9091 54.7697 41.7864 54.881 41.7455 54.9367ZM40.0003 53.8232C39.8913 53.8232 39.7549 53.7814 39.6186 53.6562C38.5551 52.7236 37.5053 51.805 36.4418 50.8724C35.8692 50.3713 35.3102 49.8842 34.7375 49.3831C34.683 49.3274 34.6557 49.2717 34.6285 49.2161C34.6148 49.2022 34.6148 49.1743 34.6012 49.1465L34.4376 48.8403H45.9175L44.3633 50.1904C43.0135 51.3596 41.7182 52.487 40.423 53.6144C40.3548 53.684 40.2048 53.8232 40.0003 53.8232ZM35.2284 49.2717C35.7192 49.7032 36.21 50.1347 36.7009 50.5662C37.7643 51.4848 38.8278 52.4174 39.8776 53.35C39.9731 53.4335 40.0003 53.4474 40.1503 53.3221C41.4455 52.1947 42.7408 51.0673 44.0906 49.8981L44.7995 49.2857H35.2284V49.2717ZM36.7554 47.4066C35.7737 47.4066 34.8057 47.4066 33.8241 47.4066C33.5241 47.4066 33.2923 47.3927 33.156 47.2257C33.0196 47.0587 33.0469 46.836 33.0878 46.5158L33.306 45.11C33.6332 43.0083 33.9604 40.9065 34.274 38.8048C34.3149 38.5125 34.424 38.1506 34.8466 37.9001C38.187 35.9375 41.5137 33.9611 44.036 32.4578C44.1996 32.3604 44.3769 32.2769 44.5405 32.3604C44.7041 32.4439 44.7586 32.6388 44.7859 32.8197C45.2222 35.7148 45.6858 38.6378 46.1221 41.4772C46.3811 43.1335 46.6402 44.7899 46.8992 46.4462C46.9537 46.822 46.9946 47.0587 46.8583 47.2257C46.722 47.3927 46.4902 47.3927 46.0812 47.3927H38.2415C37.7371 47.4066 37.2462 47.4066 36.7554 47.4066ZM44.3633 32.778C44.336 32.7919 44.2951 32.8058 44.2542 32.8336C41.7319 34.3369 38.4051 36.3133 35.0648 38.2759C34.8466 38.4012 34.7375 38.5682 34.6966 38.8744C34.3831 40.9761 34.0558 43.0779 33.7286 45.1935L33.5105 46.5993C33.4968 46.6828 33.4559 46.9195 33.4832 46.9751C33.5105 46.9891 33.6332 47.003 33.8377 47.003C35.3102 47.003 36.7827 47.003 38.2552 47.003H46.0948C46.2857 47.003 46.4902 47.003 46.5583 46.9751C46.572 46.9055 46.5311 46.6968 46.5174 46.5437C46.2584 44.8873 45.9993 43.231 45.7403 41.5746C45.304 38.7352 44.8404 35.7983 44.4042 32.9171C44.3769 32.8475 44.3633 32.8058 44.3633 32.778ZM23.9393 42.535C23.4621 42.535 23.1349 42.2984 22.9849 41.853C22.8349 41.3798 22.9985 40.9344 23.4348 40.6699C24.1847 40.1967 24.9482 39.7513 25.6981 39.3059L25.8617 39.2084C30.5928 36.4247 35.3102 33.627 40.0412 30.8432L45.2904 27.7533C45.5903 27.5723 45.9039 27.3914 46.2039 27.2104C47.0355 26.7233 47.8945 26.2222 48.7398 25.7072C49.0398 25.5262 49.3806 25.4149 49.7215 25.916L49.7487 25.9577C50.0896 26.4588 50.2532 26.7093 50.1987 26.9738C50.1441 27.2383 49.8714 27.4053 49.3534 27.7115L49.3261 27.7254C44.4042 30.6345 39.4822 33.5435 34.5603 36.4664L28.943 39.793C27.5251 40.6282 26.1071 41.4633 24.7028 42.3123C24.4983 42.4376 24.2665 42.5629 24.0075 42.549C23.9666 42.535 23.9529 42.535 23.9393 42.535ZM49.1625 25.9577C49.1079 25.9577 49.0398 25.9856 48.9307 26.0552C48.0854 26.5702 47.2264 27.0712 46.3947 27.5584C46.0948 27.7393 45.7812 27.9203 45.4813 28.1012L40.2321 31.1912C35.5011 33.975 30.7836 36.7726 26.0526 39.5564L25.889 39.6538C25.1527 40.0853 24.3756 40.5447 23.6393 41.004C23.4485 41.1153 23.244 41.338 23.3667 41.6999C23.4621 41.9922 23.653 42.1175 23.9802 42.1036H24.0075C24.1574 42.1036 24.3211 42.02 24.4847 41.9226C25.9026 41.0875 27.3069 40.2524 28.7249 39.4033L34.3422 36.0767C39.2641 33.1677 44.186 30.2447 49.1079 27.3357L49.1352 27.3218C49.4897 27.113 49.7624 26.946 49.776 26.8625C49.8033 26.765 49.6124 26.5006 49.3943 26.1665L49.367 26.1248C49.2852 26.0134 49.2443 25.9577 49.1625 25.9577ZM57.0566 32.4578C56.3749 32.4578 55.7069 32.1238 55.2842 31.4974C53.4845 28.9085 51.6712 26.2779 49.9123 23.7307C49.1761 22.6729 48.4399 21.6011 47.7036 20.5433C47.4991 20.251 47.2673 19.8195 47.2673 19.1514V19.1375C47.2946 18.3859 47.6491 17.7456 48.2763 17.3698L48.4126 17.2863C49.0261 16.9105 49.6669 16.5208 50.3214 16.1589C50.9485 15.8109 51.5757 15.7274 52.1484 15.9083C52.7074 16.0893 53.1573 16.5347 53.4572 17.1889C54.5752 19.6247 55.6932 22.1161 56.784 24.5241C57.2066 25.4706 57.6429 26.4171 58.0656 27.3635C58.1474 27.5584 58.2428 27.7393 58.3246 27.9342C58.5291 28.3796 58.7473 28.8528 58.9518 29.3122C59.429 30.3978 59.1018 31.5531 58.161 32.1238C57.7929 32.3604 57.4248 32.4578 57.0566 32.4578ZM47.6763 19.1514C47.6763 19.5829 47.7854 19.9309 48.0445 20.2928C48.7807 21.3506 49.517 22.4224 50.2532 23.4802C52.012 26.0273 53.8254 28.658 55.6251 31.2469C56.1704 32.0263 57.1657 32.249 57.9429 31.7758C58.7064 31.3165 58.9654 30.37 58.57 29.4931C58.3655 29.0338 58.161 28.5745 57.9565 28.1151C57.8747 27.9203 57.7793 27.7393 57.6974 27.5445C57.2748 26.598 56.8385 25.6515 56.4158 24.705C55.3251 22.2971 54.2071 19.8056 53.0891 17.3698C52.8437 16.827 52.4756 16.4651 52.0256 16.312C51.5757 16.1589 51.0576 16.2285 50.5259 16.5208C49.8851 16.8827 49.2443 17.2585 48.6307 17.6343L48.4944 17.7178C47.84 18.1354 47.69 18.7199 47.6763 19.1514Z" fill="#E04E39"/>
<path d="M43.477 40.2663C43.4634 42.1732 41.8682 43.7877 40.0003 43.7877C38.1324 43.7877 36.4827 42.1036 36.51 40.2106C36.5373 38.262 38.1324 36.6613 40.0276 36.6752C41.9364 36.6891 43.4907 38.3037 43.477 40.2663ZM40.0003 41.8948C40.9547 41.8948 41.691 41.1432 41.6773 40.1828C41.6637 39.3059 40.9002 38.5264 40.0276 38.5125C39.0868 38.4986 38.3506 39.2502 38.3506 40.2245C38.3506 41.1849 39.0732 41.9087 40.0003 41.8948Z" fill="#E04E39"/>
<path d="M39.9867 43.9965C39.0459 43.9965 38.0915 43.579 37.3826 42.8413C36.6736 42.1175 36.2782 41.1571 36.2918 40.1967C36.3191 38.1228 37.9688 36.4525 39.9867 36.4525C40.0003 36.4525 40.014 36.4525 40.014 36.4525C42.0318 36.4664 43.6815 38.1785 43.6679 40.2524C43.6679 42.2845 41.9909 43.9965 39.9867 43.9965C40.0003 43.9965 40.0003 43.9965 39.9867 43.9965ZM40.0003 36.884C38.2415 36.884 36.7418 38.4012 36.7145 40.2106C36.7009 41.0596 37.0553 41.9087 37.6825 42.549C38.3097 43.2031 39.155 43.579 40.0003 43.579C41.7728 43.579 43.2725 42.0618 43.2725 40.2663C43.2862 38.4151 41.8273 36.8979 40.0276 36.884C40.014 36.884 40.014 36.884 40.0003 36.884ZM39.9867 42.1036C39.4822 42.1036 39.0187 41.9087 38.6778 41.5607C38.337 41.2128 38.1461 40.7395 38.1461 40.2245C38.1461 39.6956 38.3506 39.1945 38.7051 38.8326C39.0596 38.4847 39.5231 38.2898 40.0276 38.2898C40.9956 38.3037 41.8546 39.1806 41.8682 40.1688C41.8818 40.6838 41.691 41.171 41.3501 41.5329C41.0092 41.8948 40.5321 42.1036 39.9867 42.1036C40.0003 42.1036 40.0003 42.1036 39.9867 42.1036ZM40.014 38.7213C39.6322 38.7213 39.2641 38.8744 39.005 39.1388C38.7187 39.4172 38.5687 39.807 38.5687 40.2245C38.5687 40.6282 38.7187 41.004 38.9778 41.2684C39.2368 41.5329 39.6049 41.686 40.0003 41.686C40.0003 41.686 40.0003 41.686 40.014 41.686C40.423 41.686 40.8047 41.519 41.0774 41.2406C41.3501 40.9622 41.4864 40.5864 41.4864 40.1828C41.4728 39.4172 40.8047 38.7213 40.0412 38.7213C40.0276 38.7213 40.014 38.7213 40.014 38.7213Z" fill="#E04E39"/>
</svg>
