<svg width="25" height="25" viewBox="0 0 25 25" fill="none" xmlns="http://www.w3.org/2000/svg">
<path d="M25 12.5C25 19.4036 19.4036 25 12.5 25C5.59644 25 0 19.4036 0 12.5C0 5.59644 5.59644 0 12.5 0C19.4036 0 25 5.59644 25 12.5Z" fill="white"/>
<path fill-rule="evenodd" clip-rule="evenodd" d="M12.5 24C18.8513 24 24 18.8513 24 12.5C24 6.14873 18.8513 1 12.5 1C6.14873 1 1 6.14873 1 12.5C1 18.8513 6.14873 24 12.5 24ZM12.5 25C19.4036 25 25 19.4036 25 12.5C25 5.59644 19.4036 0 12.5 0C5.59644 0 0 5.59644 0 12.5C0 19.4036 5.59644 25 12.5 25Z" fill="#E04E39"/>
<path fill-rule="evenodd" clip-rule="evenodd" d="M10.2396 7.25435C10.5592 6.91522 11.0772 6.91522 11.3967 7.25435L15.7604 11.8859C16.0799 12.2251 16.0799 12.7749 15.7604 13.1141L11.3967 17.7456C11.0772 18.0848 10.5592 18.0848 10.2396 17.7456C9.92012 17.4065 9.92012 16.8567 10.2396 16.5175L14.0247 12.5L10.2396 8.48249C9.92012 8.14335 9.92012 7.59349 10.2396 7.25435Z" fill="#E04E39"/>
</svg>
