<?xml version="1.0" encoding="UTF-8"?>
<!DOCTYPE svg PUBLIC "-//W3C//DTD SVG 1.0//EN" "http://www.w3.org/TR/2001/REC-SVG-20010904/DTD/svg10.dtd">
<!-- Creator: CorelDRAW 2021 (64-Bit) -->
<svg xmlns="http://www.w3.org/2000/svg" xml:space="preserve" width="92.5mm" height="49mm" version="1.0" style="shape-rendering:geometricPrecision; text-rendering:geometricPrecision; image-rendering:optimizeQuality; fill-rule:evenodd; clip-rule:evenodd"
viewBox="0 0 9250 4900"
 xmlns:xlink="http://www.w3.org/1999/xlink"
 xmlns:xodm="http://www.corel.com/coreldraw/odm/2003">
 <defs>
  <style type="text/css">
   <![CDATA[
    .fil1 {fill:none}
    .fil0 {fill:#FBBA09;fill-rule:nonzero}
   ]]>
  </style>
 </defs>
 <g id="Слой_x0020_1">
  <metadata id="CorelCorpID_0Corel-Layer"/>
  <path class="fil0" d="M739.12 3528.79l0.03 0c-18.35,10.75 -39.27,11.45 -61.04,9 -3.09,-6.49 -6.19,-13 -9.26,-19.49 23.4,0.85 46.6,-23.64 70.15,11.25 14.47,-35.82 45.58,-16.36 70.04,-19.08 -17.85,24.63 -41.43,29.74 -69.92,18.32zm5846.76 -577.3l0 58.99c1.43,4.35 2.37,10.69 2.37,19.58 16.27,12.33 2.07,18.44 2.07,31.32 8.33,4.15 19.84,18.7 9.26,26.53 -21.18,15.69 -6.22,27.99 -9.32,48.59 -0.5,3.33 -1.55,5.46 -2.89,6.52 3.18,71.18 10.52,129.67 10.23,199.21 -0.23,56.83 4.65,209.58 8.18,353.48 2.72,1.46 5.81,4.27 9.06,8.77 10.78,14.96 4,47.36 -7.36,66.09l0.88 45.73 5.29 26.27 10.31 23.2c9.26,7.92 1.99,19.99 -5.11,27.09l-7.19 92.3 -1.2 1.23c3.18,30.33 -0.09,74.48 -0.32,102.85 4.67,-2.31 12.56,-2.57 24.13,2.37 27.09,11.57 -3.45,22.21 -11.54,26.85l11.98 16.6c7.16,7.16 3.04,10.93 -3.83,11.48 0.58,5.26 -1.58,10.69 -8.85,14.32 0.41,3.8 0.47,9.73 1.84,13.21 9.5,-4.41 22.59,-5.99 31.64,2.02l15.6 -7.33c7.98,-4.06 30.12,-7.39 41.55,-2.86 9.93,-2.48 20.89,2.69 13.56,12.8l9.17 2.07c5.14,0 9.38,0.73 12.86,1.93 93.44,9.76 401.02,-22.53 477.46,-40.35 37.43,-11.19 33.05,-43.74 -10.96,-47.36 4.38,-8.91 34.1,-9.35 20.89,-18.23l14.84 -12.83c35.91,-10.87 11.34,-32.02 13.82,-43.68 2.98,-13.94 46.46,-24.16 44.44,-31.47 -7.45,-27 -89.73,-5.7 -127.74,-9.29 -175.54,10.31 -63.05,14.35 -366.6,14.35l-0.12 -344.72c-1.78,-1.26 -3.62,-2.92 -5.41,-4.97 -8.53,0 -0.47,-13.59 5.17,-22.15 -2.45,-19.72 -22.91,-31.47 -2.1,-49.7 0.44,-0.53 -3.27,-7.57 -3.77,-8.65 -9,-15.37 6.92,-28.11 12.65,-21.83 4.82,1.64 10.9,5.32 16.33,9.73 10.23,1.43 24.02,2.48 42.57,1.81l210.02 -26.85c98.58,-19.61 125.38,-24.78 132.97,-37.57 -8.68,-1.46 -18.67,-18.9 -9.23,-28.34l-4.03 -22.35c-3.36,-6.84 -0.58,-12.74 5,-17.41 -3.24,-2.13 -3.97,-6.57 -2.34,-9.93 -15.69,4.73 -11.72,-11.42 -0.35,-16.92 -10.34,-0.85 -22.47,-2.57 -23.81,-6.43 -7.28,-21.3 66.94,-56.45 -7.98,-56.45l-205.64 0c-76,0 -98.9,11.42 -171.37,11.42l-4.24 -164.56c-7.33,-7.1 -25.89,-20.8 -14.96,-31.73l5.17 -16.77c-5.41,-4.65 -11.92,-12.59 -5.17,-19.34l11.31 -74.65 -3.04 -118.33c178.96,0 273.45,3.04 435.5,-34.71 0,-12.24 25.74,-4.88 9.35,-30.77 -3.07,-4.85 -5.41,-5.05 -3.65,-11.48 -7.1,-5.46 -11.75,-16.95 0.73,-29.42 -3.07,-5.93 -8.74,-14.99 -9.67,-21.42 -14.29,-9.03 -9.64,-7.95 2.13,-10.99 3.42,-5.64 9.61,-8.85 11.8,-11.04l12.1 -18.61c-3.51,-3.1 -6.43,-6.19 -5.67,-9.44 1.75,-7.57 52.13,-33.6 53.5,-41.4 1.52,-8.82 -37.11,-0.29 -36.35,-9.67 -54.52,12.71 -275.44,24.4 -456.13,31.21 -7.74,8.82 -19.66,17.47 -26.33,17.47l-67.06 2.57c-22.73,3.77 -23.52,3.48 -39.33,18.06l-15.08 -7.71c-3.27,0.38 -5.61,-0.58 -7.13,-3.65l-29.74 -21.15c-13.12,0.23 -21.39,4 -33.37,8.15 -1.17,14.84 -6.37,34.27 -6.54,35.7 -0.15,1.46 -0.23,3.33 -0.29,5.41 12.21,-2.98 12.51,54.46 13.06,55.78l12.53 16.86c12.45,17.27 6.66,41.93 6.66,62.38 9.47,9.47 10.26,11.34 4.24,23.32 4.79,9.55 11.31,22.91 6.34,33.75l9 32.02c9.32,35.12 -21.3,16.98 -21.3,11.72 -8.91,-19.34 -18.35,-38.48 -25.48,-58.55l0.03 -0.05zm516.5 517.72c18.06,0 26.5,-18.96 -10.26,-13.03 -8.91,1.43 -41.02,-2.43 -44.76,7.71 -6.28,16.95 28.87,8.74 46.4,7.89l8.59 -2.57 0.03 0zm-4.62 10.2c-6.66,0 -49.15,1.46 -80.61,6.57 -3.45,0 -7.66,0.35 -12.71,1.17l-101.97 7.19c-24.25,22.21 67.06,10.72 80.55,9.26 3.86,9.41 26.27,0.26 59.61,-3.48 19.2,-2.16 71.79,-3.56 75.85,-12.13 7.13,-14.96 -16.27,-9.47 -20.69,-8.59l-0.03 0.01zm-934.61 -148.34c0,82.98 -8.06,177.06 -16.36,259.66 2.16,16.22 3.21,34.59 5.17,38.77 7.19,15.02 9.7,34.86 -3.07,46.54l-2.6 103.43c8.71,30.36 -13.15,26.35 -21.3,3.86l-1.08 -1.49c-7.95,-4.85 -41.9,-51.45 -26.15,-55.87 -2.4,-6.98 -4.73,-14.14 -7.01,-21.24 -1.81,-4.7 -6.34,-14.17 -6.11,-18.88 -3.07,-9.23 -6.19,-18.26 -9.55,-26.76 -19.96,-50.49 -33.34,-92.18 -50.49,-143.72 -75.18,-225.74 -206.63,-532.8 -256.89,-691.39 -9.26,-29.13 -16.1,-48.79 -25.48,-61.97 -3.33,-1.29 -6.9,-3.59 -10.55,-7.25 -10.26,-10.31 -35.15,19.63 -35.15,-14.87 -1.75,0.29 -2.83,0.47 -4.62,0.29 -8.68,1.52 -20.01,1.08 -21.27,1.4l-52.04 -1.29c0.88,10.75 -5.61,24.13 -16.8,12.91 -22.79,0 -4.44,-2.51 -18.23,-15.22l-7.51 0.32 0 4.5c-0.09,9.61 -32.29,15.16 -42.69,3.18l-11.1 -6.69c-12.56,5 -17.91,17.97 -24.43,28.87 -23.55,59.96 -8.74,193.83 -8.74,288.74l0 6.14c11.1,11.69 25.36,45.38 25.36,47.86l43.8 139.61c1.46,1.55 2.31,3.65 2.07,6.22l9.85 29.54c12.04,21.1 26.09,43.54 35.09,66.03 1.87,13.24 4,24.43 8.24,37.14 4.24,21.1 4.7,42.54 8.27,63.99l68.37 137.91c2.51,-27.79 4.65,-64.13 4.62,-134.52l0 -239.94 101.36 264.25c64.66,195.94 188.81,608.33 303.05,787.81 4.85,-2.07 10.23,-3.04 14.32,-1.67 6.37,-5.11 14.9,-8.94 21.45,-7.36 10.14,-1.43 21.21,-1.69 25.57,-2.86 4.32,-1.14 7.66,-1.37 10.11,-0.93 9.09,-8.24 10.81,5.73 11.19,11.95l6.52 -0.03c3.56,-5.11 7.33,-9.41 7.51,-9.82 5.08,-10.43 12.65,-14.43 16.86,-6.14 4.27,0.64 9.58,3.86 14.55,10.99 13.06,-9.5 14.87,7.22 17.97,15.49l9.32 0.91 2.51 -5.73 -1.31 -0.29c0.61,-1.26 1.49,-2.16 2.48,-2.78 2.13,-5.84 4.12,-12.56 5.93,-19.87 12.15,-48.59 18.7,-125.7 29.16,-172.53 31.7,-141.71 75.47,-575.57 75.47,-724.32 0,-142.35 -8.3,-287.74 -25.83,-419.75l-73.43 -362.45 -22.85 -16.19 -28.69 3.97c-36.64,7.45 -33.19,-8.77 -46.95,-17.53l-9.17 5.32c-6.84,6.84 -23.4,7.19 -23.4,-5.03l-18.9 -7.33c31.32,74.59 6.52,115.85 6.52,106.85l-28.87 -82.54 -15.72 -8.12c-2.89,-6.08 -4.7,-11.07 -5.7,-15.16 -3.24,5.26 -8.79,6.87 -11.89,-3.36l-0.79 -0.79 -13.41 13.97c4.73,55.19 28.08,118.33 40.15,173.06 14.81,67.35 26.91,129.12 37.57,190.91 20.83,120.61 35.73,285.93 35.73,421.3l-0.01 -0.01zm-561.4 -594.71l-4.44 0.06 4.44 -0.06zm725.7 501.01c0,34.54 -6.11,89.29 4.76,93.94 18.7,7.98 10.84,-41.87 10.84,-74.24l-5.17 -82.54c0,0 3.36,-54.7 -13.59,-36.17l3.13 99.02 0.03 -0.01zm-838.45 -70.86c-0.09,53.79 -0.15,107.61 -0.06,161.4 1.14,0.15 2.48,0.61 4.03,1.46l9.93 53.79c0.58,1.31 0.93,2.98 0.93,5l16.45 89.26 17.21 22.94c6.9,3.16 12.59,14.9 5.38,21.07l-7.1 152.67c0,41.64 -15.6,24.34 -15.6,16.13l4.21 -3.54 -11.04 -44.91 -7.98 -6.05 2.54 -8.06c-9.93,-9.96 -8.33,-6.17 -8.39,-18.7l7.74 -83.83c-9.79,-9.79 -14.7,-23.35 -19.43,-36.64 -7.36,183.84 -38.1,508.16 7.51,629.98 4.62,-0.64 8.18,-1.05 10.96,-1.2l-1.81 -38.6c0,-43.51 18.17,-27.61 18.17,-1.37 1.49,-8.91 15.05,-7.98 15.46,0.99l8.97 39.85 1.23 -1.43c0,-24.66 28.49,-11.34 28.49,5.17l3.18 8.33 33.02 2.07 2.19 -5.08 -7.54 -17.59c0,-39.91 20.75,-24.08 20.75,-5.81l1.34 1.58c9.99,-5.7 21.42,5.7 27.64,11.92l6.11 0.2c29.45,-40.7 19.96,-152.02 19.9,-192.29 -0.12,-76.35 -2.57,-157.25 -0.56,-233.31l-18.2 -85.2c-7.98,-3.8 -17.15,-15.81 -17.15,-24.13l-28.87 -57.76c-2.1,-8.39 -3.48,-16.57 -6.19,-24.75 -7.92,-7.92 -3.97,-16.04 1.49,-18.29l-20.07 -30.24 -8.3 -48.47c-6.31,-7.01 -12.62,-19.52 -13.44,-21.18l-0.58 -4.82c-3.71,-4.03 -3.92,-11.22 2.34,-14.35l-4.62 -26.27c-8.39,0 -8.88,-7.98 -8.39,-14.61l-14.46 -11.37c-2.78,-56.25 -10.34,-15.34 -10.34,-54.96l-47.01 -88.97 -0.04 -0.03zm-468.28 667.29c-111.23,0 -178.29,15.08 -278.74,29.74 -60.19,8.77 -429.66,7.51 -689.61,5.96 -36.7,10.14 -76.9,8.24 -113.13,0.88 -24.22,-4.94 -78.8,24.51 -93.94,1.75 -12.74,6.37 -28.6,24.69 -36.84,3.74 -7.48,7.51 -14.73,-2.48 -14.73,-9.67 -18.82,-7.54 -2.75,-44.32 -6.43,-57.21 -7.42,-25.86 -9.23,-15.78 -1.29,-43.39l1.49 -10.23c-3.33,-20.22 -6.31,-40.7 -8.94,-61.39 -7.3,-18.88 -12.39,-38.04 -5.46,-48.06 -5.23,-52.51 -8.15,-106 -8.36,-159.5 -3.51,-12.59 -5.52,-26.15 -4.56,-29.83 6.84,-26.27 -6.25,-24.63 5.61,-51.57l-0.64 -2.02c-2.75,-18.29 -7.54,-32.23 4.88,-48.44 13.82,-159.18 55.49,-311.82 136.51,-432.87 27.99,-1.43 161.99,1.49 172.42,1.93 86.16,3.59 139.46,0.61 201.2,-1.75 8.62,-3.33 28.4,-2.51 41.96,-1.37 13,-0.35 26.68,-0.58 41.29,-0.7l32.11 -8.3c5.52,-5.55 26.27,-6.57 28.78,3.13l51.72 -10.37c19.31,-7.16 25.04,4.79 34.86,15.49l35.41 0c-13.06,-27.82 111.38,-18.52 112.96,-18.52 79.94,0 32.43,1.08 94.02,10.4 26.18,3.94 85.99,-4.67 91.45,8.12l12.24 0c16.16,-6.95 47.42,-9.47 59.4,-10.78 13.97,-1.49 74.57,-13.12 81.4,-5.17l28.58 5.38c4.62,5.61 3.01,9 -1.72,10.9 46.9,8.04 91.37,159.53 105.77,209.93 49.06,171.86 54.32,354.01 -8.27,519.53 -27.96,73.95 -66.88,119.09 -101.36,184.25l-0.04 0.01zm-575.72 237.72l-17.88 0 17.88 0zm-886.6 -626.21c0,134.23 8.62,460.95 94.67,546.27 44.44,44.09 28.96,13.7 31.5,39.33l43.62 17.97c1.55,13.06 -75.06,24.98 1.43,45.41 9.12,2.43 -32.11,-3.71 -34.04,23.17 12.1,-1.84 24.02,-2.45 28.46,-2.45l109.39 -2.92 56.77 5.84c33.92,8.04 21.18,-12.33 78.98,8.21l65.54 -2.4 6.52 1.64c19.43,-2.98 38.51,-5.99 71.96,-6.28l36.03 -4.09c24.98,-4.06 33.1,-0.96 34.19,3.42 244.5,-3.8 846.54,-24.63 915.59,-69.19 6.49,-4.18 15.54,-13.62 25.86,-26.09l-38.25 12.39c-7.77,7.77 -69.07,2.6 -82.54,2.6l-41.26 15.46 -389.48 36.11 -220.48 0.03c-13.91,-15.19 15.34,-15.6 20.6,-15.6l10.34 -2.6c4.62,-4.65 56.54,-24.69 65.77,-15.46l135.66 5.17c53.09,-5.26 106.38,-7.77 159.65,-10.31l118.66 -12.91c7.77,-7.77 28.9,-2.57 38.69,-2.57l23.2 -7.74c12.04,-4 24.11,-6.31 36.14,-10.31l29.74 -5.17c32.26,-7.63 78.42,-2.57 112.7,-2.57 0,-11.28 7.98,-10.31 17.47,-10.31l64.02 -61.33c1.58,-2.16 3.16,-3.51 4.59,-4.15 16.13,-23.75 29.69,-44.44 36.29,-54.32 63.37,-94.84 106,-200.91 128.91,-311.06l4.06 -43.56c6.98,-26.82 -0.67,-68.43 12.62,-73.75l0 -1.69c0,-14.61 -31.35,-51.48 -10.52,-51.48 -5.46,-9.38 6.22,-24.16 13.97,-32.43l-6.84 -58.03c1.34,-3.65 2.86,-5.64 4.41,-6.34 -7.39,-104.95 -31.38,-209.17 -71.61,-306.47l-9.5 -15.11c-11.04,-18.12 -16.6,-14.67 -16.6,-31.76l-12.89 -35.56c-8.3,-15.51 -17.06,-30.8 -26.27,-45.81l-13.03 -4.35c-5.43,-9.35 -16.89,-24.95 -13.32,-36.08 -8.59,-12.36 -15.6,-21.65 -21.24,-28.87l-12.36 2.45c-5.76,-3.51 -7.95,-6.43 -7.86,-8.82 -9.06,-0.91 -18.52,-8.18 -9.41,-18.5 -8.33,-9.06 4.73,-17.76 12.53,-21.83 3.94,-18.9 10.46,-37.93 -23.73,-44.97 -1.84,3.8 -5.99,7.04 -13.24,7.51l-9.41 5.03c-20.8,4.24 -53.21,25.13 -53.21,-2.43l-88.09 12.27c-19.31,-8.24 12.04,-19.58 33.1,-24.89l-305.62 1.14c-63.46,0.76 -83.54,21.01 -147,21.8l-434.94 -0.82c-58.23,1.72 -69.25,-3.59 -135.11,-3.21 -54.05,0.29 -93.24,-2.75 -126.4,1.69 -4.15,5.17 -14.81,9.47 -26.82,9.47l-101.04 82.31 -58 90.72c-10.52,17.91 -18.82,30.71 -28.55,51.42 -13.06,27.85 -25.1,59.14 -35.88,93 4.79,3.36 6.75,14.58 -3.01,24.34l-15.49 50.28c4.82,9.73 5.7,15.72 7.74,26.44 0,12.13 -13.62,18.76 -18.03,20.25l-2.6 16.51c0,8.68 4.44,26.53 -2.57,33.54l-12.07 37.31c-4.94,35.88 -8.56,72.4 -10.69,108.87 6.46,7.36 2.13,24.48 2.13,33.05l1.64 2.1c6.37,11.72 0.18,25.86 -6.02,27.41l-0.09 14.7 -0.03 -0.04zm3370.22 -2262.31c0,82.54 -1.9,167.42 38.01,238.86 5.38,3.86 9.2,11.86 9.76,12.59 8.53,0 8.68,7.19 7.8,14.23 3.1,4.12 6.34,8.09 9.76,11.95 6.28,0.5 14.58,4.56 21.71,20.86l3.68 2.89c6.81,1.43 16.19,7.92 24.46,15.6 71,37.34 165.26,25.8 273.28,25.8 68.63,0 303.23,-185.77 453.32,95.08 60.92,114.01 87.54,212.39 62.47,303.55 -0.76,7.98 -1.84,14.64 -2.1,16.07 -4.3,26.65 -23.11,53.73 -35.38,77.75 2.48,10.4 1.49,20.04 -11.04,20.34 0,13.21 -9.2,38.69 -24.89,38.69 4.53,13.12 -0.64,20.69 -9.88,30.18 -3.18,7.1 -8.18,13.24 -13.82,15.63l-52.94 30.27c-27.38,1.34 -2.95,-19.96 3.65,-25.42l36.08 -40.26c-10.31,9.2 -21.36,18.41 -33.13,27.61 -58.67,45.7 -106.85,78.83 -149.92,99.58 -0.61,0.93 -1.26,1.9 -1.99,2.89 -12.94,17.94 -9.44,10.72 -19.93,6.78 -5.03,1.99 -10.05,3.83 -14.96,5.46l-15.34 10.93c-12.56,4.7 -14.11,1.96 -18.52,-2.45 -3.24,0.53 -6.49,0.99 -9.73,1.34 -3.45,8.5 -23.23,4.53 -30.24,2.75 -5.58,4.41 -14.4,6.08 -17.3,-2.63l-3.18 -1.55c-50.2,-8.56 -101.68,-38.25 -166.6,-88.74 -39.97,-31.09 -48.94,-47.92 -90.31,-56.42 -2.22,3.07 -5.2,5.9 -8.79,7.98 6.63,13.59 -8.36,27.38 -19.05,16.68 -17.21,0 -29.31,1.67 -41.29,-10.31l-3.86 0c-7.51,7.48 -26.5,17.09 -26.5,-1.99l-60.86 -16.01c-0.61,1.26 -1.84,2.54 -3.51,3.74l0 9.06c0,24.81 -20.16,16.71 -23.93,12.97l-19.72 8.65c5.32,20.37 10.93,37.84 15.49,56.68 28.11,116.11 110.42,121.49 210.63,154.97 30.88,10.31 35.15,16.45 65.39,26 146.41,46.25 369,25.83 507.93,-32.46 144.75,-60.72 350.62,-236.35 350.62,-437.72 0,-17.74 -0.53,-35.47 -1.64,-53.21l-6.17 -23.32c-5.49,-5.49 -3.07,-18.58 1.34,-28.46 -2.6,-20.86 -6.05,-41.52 -10.28,-61.91l-18.14 -37.31c-8.62,-7.89 -2.83,-14.78 4.35,-17.68 -2.66,-9.03 -5.49,-17.97 -8.53,-26.82 -11.77,-13 -27.7,-18.99 -17.71,-28.98 0,-11.75 -22.79,-9.12 -10.93,-36.11 -4.44,-16.77 -17.41,-37.31 -26.68,-51.95 -5.14,-1.26 -5.55,-2.16 -10.96,-15.69 -8.15,0 -12.68,-8.06 -9.91,-14.64 -5.2,-6.95 -10.55,-13.7 -16.13,-20.31 -12.04,-7.74 -24.89,-3.97 -20.66,-20.89l-8.24 -10.11c-11.69,-2.75 -17.97,-3.07 -18.82,-17.03 -69.6,-59.2 -161.23,-95.46 -277.87,-95.46 -96.74,0 -246.08,-7.6 -330.72,12.01 -77.57,17.97 -92.36,52.01 -117.93,-42.42 -22.82,-84.44 -1.2,-165.52 63.14,-240.88 27.52,-32.2 106.09,-91.07 145.57,-94.35 11.83,44.32 -1.08,0 16.74,40.38l44.73 76.52c1.78,-6.31 4.73,-8.56 7.89,-8.3 12.33,-17.53 32.72,23.84 37.25,24.51 -2.8,-8.09 7.51,-13.44 13.18,-7.74 9.79,3.27 7.01,3.62 16.57,0.2l3.36 -3.39c4.53,-9.96 20.72,-10.43 20.72,2.6l12.15 25.1 29.45 0.41 2.13 -8.74c-5.9,-5.9 -17.38,-23.14 -7.01,-30.21 -5.2,-5.2 -3.54,-14.35 4.88,-14.35 4,-9.96 17.71,-5.17 17.71,4.56l33.98 44.24 2.37 -1.26c2.43,-3.51 7.42,-12.04 12.53,-10.2 24.66,-27.09 27.99,-81.05 16.33,-109.77l-64.13 -131.16c-45.35,-94.2 -14.05,-60.86 -42.54,-72.93 -4.41,3.45 -10.43,3.48 -12.33,-4.15 -15.08,13.56 -18,-5.64 -27.61,-5.64l-28.46 -2.54c-5.96,-2.54 -12.01,-4.59 -17.36,-6.46 -157.78,-20.8 -115.59,9.32 -158.01,30.04 -26.53,12.94 -61.77,7.68 -95.22,19.05 -42.51,14.43 -106.27,57.59 -143.23,85.29 -69.54,52.13 -164.5,167.3 -164.5,281.08l0.02 -0.07zm-377.01 -190.36c-0.18,145.3 -2.69,327.01 -3.94,513.19 6.37,-1.84 11.37,6.22 3.51,18.03 0,21.88 2.02,35.27 5.14,48.62l13.73 36.79c0.58,0.79 1.08,1.31 1.4,1.49 17.3,9.79 4.44,17.53 4.24,29.39l-0.06 3.36 11.42 38.51c3.13,12.01 18.14,20.8 7.98,30.97l27.76 135.6c2.54,5.93 2.8,11.02 1.84,15.05 0.76,9.5 1.43,22.67 0.26,34.74 6.92,12.56 11.6,39.42 11.6,39.42 1.84,4.91 5.61,8.09 4.56,14.14 9.73,14.93 14.76,30.83 20.54,47.48 6.43,10.58 11.72,21.91 11.89,22.24 19.99,40.93 13.32,29.66 11.45,53.12l14.7 35.44c22.41,3.33 26,9.76 31.44,26.94 17.15,19.34 23.75,37.17 31.15,55.6 -2.75,-96.8 -4.94,-196.67 -4.94,-289.93l0 -811.22c0,-43.77 7.48,-36.7 6.69,-67.09 -0.29,-10.84 -3.83,-27.76 -5.64,-47.92 -2.16,0.44 -4.91,0.67 -8.3,0.67l-27 -13.62c-9.7,9.7 -24.02,8.65 -29.28,-4.24 -8.33,8.33 -16.45,1.49 -19.72,-6.54 -4.91,-1.34 -7.07,-2.83 -11.25,-5.49l-10.11 1.52c-8.62,7.07 -18,4.88 -19.84,-4.27 -2.1,1.02 -5.7,2.28 -10.02,3.42 0.99,3.62 -14.73,5.46 -16.95,7.57 1.64,12.42 3.68,45.08 2.43,60.16l5.14 31.47c-10.58,12.83 -13.88,-12.1 -11.6,-26.71 -1.34,-7.28 -2.07,-14.43 -2.37,-18.17 -9.47,-0.96 -9.2,-6.72 -9.2,-17.33 -4.82,-4.97 -5.43,-12.3 -1.99,-16.98 -1.23,-4.76 -3.45,-9.17 -4.12,-14.11l-2.4 -2.51 -18.67 24.92c-3.51,5.23 -7.07,11.22 -11.42,16.22l-0.05 0.06zm142.73 1109.95l4.18 8.53 -4.18 -8.53zm-16.01 2.83c-6.31,-8.74 -8.71,-12.15 -7.95,-23.81 -1.46,-4.47 -2.34,-10.72 -1.49,-15.4l-17.41 -44.62c-4.62,-10.26 -8.01,-20.48 -12.04,-30.88 -3.33,-2.51 -6.08,-6.9 -6.6,-12.86l-4.38 -19.66c-1.52,-0.99 -2.75,-2.63 -3.21,-5 -2.54,-12.59 -21.91,-13.09 -22.09,-28.66l4.24 -60.63c-7.42,-22.56 -12.71,-45.81 -20.19,-68.37 -5.14,-10.4 -12.89,-17.97 -18.03,-28.37 -7.54,-6.28 -3.45,-21.1 2.54,-27.09 0,-7.28 0.5,-8.21 -5.73,-12.18 -16.33,0 -11.8,-32.17 -7.16,-36.79l-11.83 -20.89c-0.23,215.16 2.66,423.78 14.17,576.54 3.97,52.51 1.9,106 1.9,158.8l13.91 0.35c-0.67,-7.95 0.99,-17.68 1.93,-19.78 -5.14,-11.16 17.36,-16.89 16.13,1.29l16.68 9.12 1.26 -10.4c-10.23,-10.23 12.89,-21.68 15.49,-30.71 2.6,-9.15 16.16,-18.55 16.89,-3.86l-3.86 53.67c8.94,2.98 14.17,-7.48 22.97,1.34l2.69 -0.5c0,-9.82 4.44,-24.63 16.16,-12.91l38.6 9.03c-15.75,-17.74 3.83,-38.83 33.63,-9.03l12.89 4.67 -4.12 -132.42c-21.97,-0.82 -56.07,-98.47 -66.97,-126.31 -5.7,-0.82 -12.97,-7.42 -12.97,-17.91l-6.08 -15.75 0.03 -0.02zm-1189.21 -1219.48c0.44,19.34 0.35,34.33 -0.09,46.02 20.25,-3.74 45.73,-4.47 50.52,-2.43 21.39,9.12 -20.34,20.51 -22.47,21.04 1.87,11.34 -17.62,12.71 -24.34,15.4l-5.17 15.81c54.84,0 33.63,16.89 28.31,16.89 -4.76,0 -9.23,0.12 -13.32,0.26 3.94,4.41 -4.09,10.69 -4.85,10.93l-1.31 18.85 3.86 4.32c4.53,2.45 6.57,6.72 6.52,10.31 9.7,6.95 19.55,15.92 21.53,17.36 19.11,14.17 25.77,18.12 23.67,30.68l17.24 5.23c8.56,-4.79 19.66,-7.19 20.45,-7.45 110.24,-34.48 103.32,0.35 89.12,1.05l-71.12 13.12c80.23,1.46 177.09,-34.62 224.22,-34.62l29.01 1037.57 5.55 -72.43 0 -291.22c0,-29.74 -7.8,-92.15 12.15,-78.68l3.45 225.68c0,153.22 -4.67,281.02 -17.65,422.99 -0.35,15.46 -1.11,29.22 -2.48,40 6.84,24.75 4.41,30.83 9.5,33.72 1.14,-0.61 2.45,-0.96 3.89,-0.96l9.38 -37.49 10.34 -5.87c4.91,1.81 4.85,10.55 3.04,20.34 7.89,6.75 16.63,23.17 13.35,32.43l1.4 0.15c3.94,-3.13 12.07,-8.47 20.66,-4.06 8.39,-12.59 12.33,-15.63 25.57,-8.36 7.54,4.12 9.17,9.12 11.69,14.29l0.12 0.03c2.83,-11.8 14.2,-26.38 27.55,-13.03l11.83 -1.93c1.29,-5.26 3.1,-8.53 5.03,-10.37 0.23,-5.17 -0.2,-10.46 -0.12,-15.69 -5,-5.35 -7.6,-17.53 1.2,-21.04 -3.62,-5.17 -0.03,-15.22 1.69,-17.12 20.77,-22.7 18.09,55.49 18.09,56.19 2.83,6.4 6.52,13.5 7.89,20.34l4.88 -0.12c1.43,-63.96 26.18,-239.82 23.23,-331.72l-11.8 -342.41c0,-205.67 -22.85,-489.67 -22.85,-685.55l334.93 -30.68c92.42,-29.8 112.05,-20.92 141.21,-41.55l22.67 -23.11c7.16,-8.94 15.25,-21.07 21.33,-34.13 4.09,-8.74 -130.81,3.77 -122.48,0.09 18.7,-8.3 -13.76,-12.24 6.22,-12.39 52.33,-0.44 101.8,-8.09 119.24,-16.92 21.59,-10.93 -14.7,-19.72 -16.25,-23.05 -3.89,-8.21 7.98,-19.49 -3.3,-24.81l-68.58 -7.28c-37.63,-13.15 16.33,-26.12 -35.15,-26.12 -49.17,0 -96.51,0.26 -142.53,0.91l-58.2 13.59c-48.77,7.39 -28.28,13.76 -81.14,14.29l-67.73 15.43c-21.36,5.96 -31.58,-5.84 -22,-16.74 -6.49,0 -19.84,-4.21 -11.31,-13.18 -8.74,2.48 -30.01,12.07 -35.24,-0.99 -6.98,0 -14.08,-0.2 -21.24,-0.26 -14.17,1.05 -28.28,2.22 -42.4,3.42 -4.24,1.02 -8.41,2.31 -12.48,4l-59.96 16.98c-32.46,9.91 -40.82,-3.51 -35.97,-9.79 -114.48,13.79 -230.77,34.07 -358.04,63.73l0.04 0.11zm764 111.4c0,0 46.05,-4.21 25.07,-17.01 -0.09,-0.03 -127.22,7.33 -131.16,16.54 -8.91,20.83 53.62,7.54 80.2,4.35l25.89 -3.89 0 0.01zm-1337.68 80.09c117.08,0 132.51,-8.53 217.53,27.64l9 5.96c14.46,1.17 45.26,29.6 58.44,42.37 15.69,12.62 30.83,26.18 41.99,39.24 16.8,16.27 32.23,27.44 37.93,44.65 6.22,18.79 2.8,35.44 -9.32,18.79 -6.72,5.93 2.43,18.26 -10.4,22.21 -0.35,2.57 5.55,18.93 2.92,23.43 -21.1,58.23 -81.37,103.4 -108.05,130.28 -28.37,28.58 -61.86,39.5 -98.23,61.74 -37.31,22.82 -61.8,42.25 -116.49,43.48l-20.19 -357.78c-7.01,-56.07 -2.13,-53.94 -5.11,-102l-0.02 -0.01zm306.18 624.02l78.22 77.4c26.91,-2.95 -30.71,-48.68 -33.95,-51.95 -0.06,-0.03 -43.74,-53.32 -44.27,-25.45zm-543.87 -882.92c-24.57,106.85 -8.3,236.11 1.23,340.66 5.46,59.84 21.83,104.19 22.18,172.07 0.67,128.62 34.8,428.02 34.1,548.6l8.39 206.81c9.41,-55.66 18.85,-111.2 28.58,-166.81 0,-22.32 -7.86,-72.75 9.76,-68.17 11.98,3.13 6.37,68.43 5.61,71.41 -6.02,23.05 -11.1,60.19 -0.53,82.37l-5.32 99.93c-10.23,18.9 1.99,13.97 -9.38,25.3 0,12.62 4.3,26.65 -5.17,36.11l-5.93 20.77c-12.18,25.51 3.04,122.13 -5.73,135.08 -14.99,22.21 -3.24,18.9 -14.14,29.83l-1.96 4.91c4.32,15.11 10.37,31.15 18.52,48.18 5.61,0 0.99,-16.3 7.3,-18.2 6.02,-1.84 28.43,16.6 36.32,17.12 12.65,0.85 11.13,-15.02 17.91,-14.55 8.44,0.61 7.07,19.02 14.78,19.78 6.02,0.61 11.92,1.29 17.68,1.9 10.99,1.2 28.46,-2.54 39.3,-2.02 4.5,0.2 16.07,-13.64 19.46,-10.37 5.81,5.61 0.35,17.44 7.19,17.74 49.15,-210.99 34.27,-461.77 34.27,-696.97 52.04,13.88 238.77,183.78 282.89,231.23 84.94,91.31 149.07,228.69 208.36,317.22l8.53 0.03c1.58,-8.5 10.05,-15.4 18.52,-6.95l34.71 0c-4.56,-5.11 -7.8,-16.98 2.6,-18.03l-0.61 -0.76c-6.6,-9.73 -30.65,-35.24 -17.88,-42.16 8.88,-4.82 31.32,18.12 44.79,29.19 17.53,14.43 42.54,25.13 60.48,41.26 7.01,-3.16 12.01,-8.71 16.19,-17.91 -2.25,-2.54 -3.68,-5.7 -4.91,-6.95l-7.77 -2.6c-7.33,-0.44 -13.88,-15.57 5.17,-15.57 2.48,-5.35 11.07,-27.61 18.2,-19.66 0.64,-44.44 -32.4,-93.82 -64.25,-145.1 -59.66,-96.01 -265.74,-341.12 -336.16,-395.03 -33.63,-25.74 -28.58,-6.72 -40.38,-51.02 44.7,-10.4 209.67,-104.89 255.22,-133.21 354.45,-220.51 38.51,-529.93 -255.69,-551.88 -54.58,-4.06 -116.64,-7.66 -171.86,-8.44 -46.11,-0.64 -64.31,0.61 -63.46,-11.28l3.8 -51.89c0.15,-1.96 0.93,-3.59 2.25,-4.94 -0.12,-3.62 0.41,-7.33 0.41,-9.85 -9.58,0 -15.31,-11.19 -7.74,-18.76l-0.85 -20.6 -26.79 10.96c-4.44,5.17 -12.62,11.95 -19.34,5.2 -5.99,0 -29.63,2.6 -30.36,-9.73l-10.26 -5.14 -20.63 15.46c-9.32,-14.46 -11.02,0.67 -17.06,-5.38 0,17.68 -13.38,26.68 -20.45,17.68 -1.75,-0.82 -3.39,-2.78 -4.59,-6.19l-2.43 -1.55c5.87,-0.64 -5.84,-15.98 -17.47,-19.93l-18.96 2.83c1.05,27 -32.64,20.07 -32.64,12.8l-20.54 -13.15 -23.52 8.27 0.06 0.05zm-2062.78 2710.64l-0.01 -0.03 0.12 3.97 0.56 0.12 -0.67 -4.06zm-1515.7 -44.27l0.03 -0.02c12.94,27.46 -7.95,22.2 -20.19,25.3 -20.48,0.67 -41.02,1.38 -61.53,2.31 -17.62,1.72 -35.21,3.44 -52.74,5.43 -11.74,0.56 -23.43,1.38 -35.09,1.96 -29.86,15.28 -64.37,-2.46 -94.93,7.39 -1.43,-6.34 -2.89,-12.71 -4.35,-19.08 34.48,-2.43 69.01,-4.82 103.49,-7.25 13.03,-8.35 28.19,-8.94 43.94,-7.3 17.44,-0.71 34.89,-1.67 52.3,-2.4 24.37,4.27 43.42,-16.22 69.07,-6.34zm975.89 -1093.96l-3.07 5.32c1.38,-1.49 2.49,-3.19 3.07,-5.32zm544.02 2331.1l4.44 2.28c-1.4,-1.05 -2.89,-1.75 -4.44,-2.28zm-1269.57 -1699.98l-0.02 -0.03 -3.54 2.45c1.98,-0.29 3.91,-0.5 5.87,-0.7l-2.31 -1.72zm1620.1 462.06l1.93 0.23c-0.59,-0.11 -1.26,-0.2 -1.93,-0.23zm-482.45 74.09l-0.01 0 -0.29 0.26 0.15 0.47 0.06 0.09 0.09 -0.82zm-520.38 410.35l0.03 0 0 -0.06c1.02,0.03 2.05,0.11 3.07,0.29l-0.82 -0.32c-0.79,0.03 -1.55,0.15 -2.28,0.09zm-36.88 -194.16l0 0.01 -0.99 0.67 2.51 1.34 -1.52 -2.02zm361.82 -63.93l0.06 -0.07c2.86,-4.09 4.35,-9.73 3.62,-18 -57.97,-4.12 -113.66,9.32 -171.95,2.8 -7.77,3.28 -15.49,6.9 -23.23,10.61 -112.49,20.77 -226.15,35.7 -344.54,27.58 -3.33,-1.46 -6.54,-3.04 -9.58,-4.91 -7.92,2.25 -16.31,1.81 -24.81,0.85 -2.84,2.86 -6.11,5.32 -9.79,7.42 -42.6,6.46 -81.57,32.05 -129.96,7.1 -0.61,-1.7 -1.05,-3.39 -1.31,-5l-1.81 1.99c-8.45,17.5 -25.01,15.16 -41.23,13.82 -4.7,-1.69 -9.47,-3.09 -14.2,-4.32 -46.86,11.89 -52.3,14.06 -11.77,41.23 13.79,1.28 27.58,2.8 41.37,4.32 27.26,-12.62 57.53,-5.78 87.39,-1.4l0.79 0.7c39.3,-9.96 78.68,-19.43 118.04,-29.16 4.53,1.93 9.06,4.12 13.56,6.02 33.9,-10.99 68.64,-17.24 106.27,-7.92 3.83,-0.38 7.75,-0.32 11.75,0.15l0.61 0.18c13.27,-4.77 27.12,-6.55 41.61,-5 2.49,-3.13 5.55,-5.73 9.06,-7.95 12.6,-6.83 26.12,-7.53 40.82,-0.61 1.03,1.49 2.08,2.87 3.1,4.21 18.87,-7.97 40.14,-1.28 60.48,-0.26 3.71,-3.88 7.45,-7.68 11.34,-10.66 9.67,-4.38 20.22,-4.65 31.35,-1.93 11.28,-0.32 23.44,4.15 35.65,8.77 21.36,-1.32 42.69,-2.58 64.05,-3.92 2.37,-3.01 4.62,-6.57 6.78,-10.81 15.64,-11.04 34.6,-13.12 53.62,-15.19 15.04,-1.06 28.78,-6.43 42.86,-10.64zm256.24 -12.77l0.03 0c0.18,-2.08 1.52,-3.86 4.53,-5.32 -11.68,-9.76 -26.91,-13.18 -37.98,-24.08l-1.17 1.23c-7.37,2.98 -15.2,4.03 -23.7,2.16l-1.75 -1.11c-10.52,8.65 -28.23,10.08 -27.73,29.54 0.06,2.78 0.58,4.91 1.43,6.52 5.55,-0.09 11.04,-0.85 16.42,-2.57 22.21,-6.05 45.96,-4.97 69.19,-6.34l0.73 -0.03zm161.46 -40.41l-0.01 0.03 -1.87 0.38c-15.66,-14.08 -29.66,-5.67 -44.15,-3.65 -13.93,24.08 -49.87,-0.73 -63.02,25.04l1.46 10.96c14.79,-2.19 29.75,-3.65 45.03,-3.77 7.6,0 15.22,0.67 22.85,1.78 13,-10.23 27.76,-19.08 39.71,-30.77zm34.3 35.09l0.02 -0.03c10.49,-1.61 21.57,-1.4 33.4,1.17l1.61 -1.34 1.55 -1.11c0.73,-0.76 1.69,-1.4 2.83,-1.93 8.94,-5.9 18.52,-10.49 29.07,-13.03 -0.68,-3.18 -3.34,-7.48 -8.77,-13.38 -1.96,0.82 -4.01,1.52 -6.14,2.05 -16.83,2.92 -32.93,-0.44 -48.21,-13.53l-0.85 -1.99 -12.01 2.48c2.3,2.51 4.23,5.79 5.43,9.76 2.92,9.76 3.5,20.36 2.07,30.88zm-1383.1 -2021.35l-0.03 0c-18.32,10.75 -39.24,11.45 -61.04,9 -3.09,-6.49 -6.13,-13 -9.23,-19.49 23.4,0.85 46.6,-23.64 70.18,11.25 14.44,-35.82 45.55,-16.36 70.01,-19.08 -17.82,24.63 -41.4,29.74 -69.89,18.32zm360.11 -43.86l0 -0.02c12.97,27.46 -7.95,22.2 -20.19,25.3 -20.51,0.67 -41.05,1.38 -61.56,2.31 -17.59,1.72 -35.18,3.44 -52.71,5.43 -11.75,0.56 -23.46,1.38 -35.12,1.96 -29.83,15.28 -64.34,-2.46 -94.9,7.39 -1.46,-6.34 -2.92,-12.71 -4.35,-19.08 34.48,-2.43 69.01,-4.82 103.49,-7.25 13.03,-8.35 28.22,-8.94 43.97,-7.3 17.41,-0.71 34.86,-1.67 52.3,-2.4 24.37,4.24 43.45,-16.22 69.07,-6.34zm502.38 -1093.99l-3.07 5.32c1.35,-1.49 2.46,-3.19 3.07,-5.32zm-702.47 2018.05c-0.29,1.52 -0.41,3.07 -0.32,4.65l0.32 -4.65zm2246.45 -2394.41l0.58 0.2 -0.35 -0.58 -0.23 0.38zm-2488.49 2028.16l-0.01 0 -0.67 0.44 0.03 0 0.91 0.32 -0.26 -0.76zm2374.31 -2049.31c-0.96,-0.23 -1.93,-0.47 -2.92,-0.73 0.79,1.2 1.49,2.31 2.13,3.39 0.29,-0.85 0.56,-1.75 0.79,-2.66zm-1307.55 2340.06l0.96 -6.34c-1.08,1.87 -1.57,3.91 -0.96,6.34zm-745.48 455.66l0 0.03 -0.5 0.93c0.56,-0.61 1.05,-1.2 1.52,-1.84l-1.02 0.88zm371.19 -1767.06l-0.02 0 -3.54 2.45c1.95,-0.29 3.91,-0.52 5.87,-0.7l-2.31 -1.75zm-592.75 1840.2l0.02 0c21.83,1.11 42.66,-3.3 63.67,-6.78 -10.46,0.76 -21.24,0.67 -32.43,-0.44l-31.26 7.22zm-274.91 -1861.01l4.06 1.9c-1.28,-0.91 -2.63,-1.52 -4.06,-1.9zm800.96 1785.33l-0.01 0 0.91 -0.26 0.09 -0.09 -0.2 0.03 0.09 0.06c0.03,0 -0.44,-0.03 -0.44,-0.03l-69.98 -0.47 70.97 0.09 -0.73 0.29 -0.64 -0.5 -0.06 0.88zm-92.86 24.28l3.97 2.57c-1.22,-1.11 -2.57,-1.9 -3.97,-2.57zm-311.79 -245.08l0.03 -0.02c2.1,1.84 4.47,2.31 6.95,2.13l-7.1 -2.69 0.12 0.58zm-46.75 -1618.46l-0.32 0.09 0.64 0.76 -0.32 -0.85zm557.31 1834.53c1.37,0.97 2.83,1.61 4.44,1.67 -1.46,-0.68 -2.95,-1.23 -4.44,-1.67zm611.34 -2416.09l2.28 -1.37 -2.72 -0.15 0.44 1.52zm-1510.24 1742.66l0 0.01 0.15 -0.15 -0.5 -0.47 0.35 0.61zm-248.15 361.61l-0.03 0.01c-444.56,74.39 -57.1,-11.31 22.99,-27.64l-0.18 -1.78 -3.16 -4.5c12.56,-9.73 25.74,-11.1 39.44,-5.23 167.83,-21.74 181.86,-19.19 199.65,-6.28 22.56,-0.61 45.11,-1.17 67.7,-1.52 48.77,-15.58 98.55,-27.29 151.76,-27.03 17.3,-0.44 34.59,-1.17 51.89,-1.64 16.88,-2.93 33.65,-6.34 51.77,1.34 0.58,-0.38 1.28,-0.44 2.13,-0.26 11.48,-1.47 22.94,-2.75 34.42,-4.27 23.64,-4.88 47.33,-10.02 70.97,-14.9 2.45,-2.42 5.46,-2.86 8.91,-1.37 23.4,-0.64 46.81,-1.05 70.21,-1.69 21.71,-8.97 45.78,-6.19 69.48,-5.11 28.08,-21.12 61.01,-22.41 96.71,-12.24 36.52,-22.94 80.03,-16.04 122.48,-13.79 34.97,4.5 65.07,-26.18 103.02,0.23 16.86,12.51 23.55,-6.34 35.79,-8.21 24.57,-12.68 49.67,-22.38 79.65,-2.34 40,-20.71 85.96,-15.98 131.07,-14.9 683.68,-47.86 127.07,2.17 75.5,16.6 -5.14,22.47 -20.78,25.31 -40.44,20.72 -17.88,21.15 -44.36,23.26 -69.98,27.29 -20.36,7.13 -37.95,-17.97 -57.88,-15.34 -117.84,13.2 -151.18,16.36 -244.85,21.59 -7.77,3.51 -17.09,-0.06 -26.18,-2.63 -41.38,2.14 -82.78,4.3 -124.18,6.46 -31.32,5.91 -63.4,7.16 -96.39,2.75 -22.61,2.57 -43.36,13.97 -68.25,6.02 -32.29,4.47 -64.66,8.74 -96.92,13.24 -8.97,-1.11 -17.91,-2.25 -26.85,-3.36 -14.02,-1.49 -28.08,-3.01 -42.1,-4.5 -20.31,2.89 -40.67,6.05 -60.98,8.97 -16.19,8.36 -34.01,6.63 -52.36,1.2 -48.71,15.84 -94.93,39.71 -151.35,29.48 -25.95,0.08 -51.92,0.14 -77.87,0.23 -26.47,13.12 -56.98,6.78 -86.08,7.1l-0.03 0 -0.15 0 -1.23 0c-8.7,-0.41 -17.35,-0.52 -26,-0.67 -11.52,1.05 -23.06,1.87 -34.54,2.92 -9.37,2.16 -18.78,4.56 -28.22,6.72 -21.42,9.97 -45.53,8.42 -69.34,8.33zm832.55 344.66l6.46 2.34c-1.9,-1.84 -4.12,-2.4 -6.46,-2.34zm-26.44 -9.59l0.01 0.02 0.35 0.12 -0.18 -0.7 -0.15 0.09 -0.03 0.47zm127.86 -2.95l0.01 0 1.72 0.56 -1.55 -2.31 -0.18 1.75zm474.15 -44.29l0.02 0.02c-19.49,7.83 -39.21,9.93 -59.96,-6.14l-3.3 2.57 -4.38 -0.38c-23.26,18.9 -51.22,5.29 -77.93,0.35 -19.49,19.17 -45.03,16.75 -71.18,12.13 -3.18,1.9 -6.37,3.83 -9.55,5.73 -23.47,-4.53 -42.58,27.47 -68.96,-1.78l0.56 -2.86 -0.35 0.47c-9.49,28.19 -30.35,25.59 -54.02,15.54 -14.28,-1.26 220.37,-2.57 206.11,-3.86 -20.42,1.95 -40.79,3.88 -61.24,5.81 -17.47,-0.67 -34.95,-1.29 -52.39,-1.96 -25.95,15.1 -55.84,12.8 -86.05,9.26 -54.76,14.11 -40.41,20.48 -97.94,23.75 -5.14,-1.03 -10.23,-2.08 -15.31,-3.1 -32.9,18.46 -72.55,-8.39 -106.79,1.08l-0.06 0.03 -2.34 3.1 -4 -0.58c-15.6,11.95 -32.75,14.99 -52.62,2.37 -19.52,-4.56 -39.12,-9.06 -58.64,-13.62 -8.56,0.26 -17.12,0.5 -25.65,0.76 -3.33,1.37 -6.69,2.75 -9.99,4.12 -28.14,19.9 -58.06,35.24 -91.28,41.81 15.99,-1.49 32.32,-1.17 49.44,3.8 11.43,-3.03 21.1,-12.65 35.21,-5.43 99.72,-12.16 201.14,-14.93 303.02,-14.96 0.96,-0.06 1.93,-0.06 2.95,0 39.39,6.2 -0.23,-29.3 42.19,-6.92 2.14,-2.87 5.06,-3.57 8.77,-2.34 42.8,-20.89 90.14,-17.27 138.61,-7.22 3.5,0.26 5.66,2.1 6.54,6.02 31.76,-13.67 -184.45,-24.16 -147.61,-21.53 31.7,-0.47 63.43,-0.96 95.13,-1.43 7.92,1.2 15.78,2.4 23.64,3.33 20.22,-3.68 40.47,-7.59 60.69,-11.48 11.69,-2.81 23.17,-7.1 36.26,-0.06 79.01,-14.73 163.16,1.99 243.07,-7.07 22.53,-9.03 45.93,-15.4 71.5,-14.2 9.02,-4.35 18.08,-8.74 27.14,-13.09 3.94,-0.09 6.98,1.43 8.94,4.7 2.57,-6.83 7.1,-13.73 -0.5,-20.42 -13.12,2.92 -26.68,3.74 -41.08,0.06 -32.11,1.64 -60.95,18 -95.34,9.32 -20.45,1.44 -40.88,2.87 -61.33,4.3zm-16.39 -874.89l-0.03 0.02c1.99,-9.61 6.75,-20.54 -14.99,-20.57 -4.47,-0.09 -5.79,-4.41 -5.67,-9.44l-1.84 0.03 -0.18 -0.23c-14.05,3.27 -28.14,6.34 -42.22,9.41l0.18 1.23c-1.87,7.45 -6.04,11.87 -11.42,14.7 23.49,-6.87 48.03,-9.03 76.17,4.85zm11.83 26.77l-0.01 0 0.12 -0.03 -0.2 0.93 -0.06 -0.23 0.15 -0.67zm605.93 -55.17l0 0.01 -0.99 0.67 2.51 1.34 -1.52 -2.02zm361.81 -63.92l-0.01 -0.01c2.86,-4.09 4.38,-9.73 3.62,-18 -57.94,-4.15 -113.63,9.29 -171.92,2.8 -7.77,3.28 -15.49,6.9 -23.23,10.61 -112.46,20.8 -226.15,35.7 -344.54,27.58 -3.33,-1.46 -6.54,-3.04 -9.58,-4.91 -7.89,2.22 -16.28,1.78 -24.78,0.82 -2.81,2.86 -6.11,5.32 -9.79,7.42 -42.6,6.46 -81.55,32.05 -129.96,7.1 -0.61,-1.73 -1.05,-3.39 -1.31,-5l-1.81 1.99c-8.42,17.5 -25.01,15.16 -41.2,13.82 -4.73,-1.69 -9.5,-3.12 -14.23,-4.32l-33.02 8.39c-13.73,24.83 9.49,24.95 21.24,32.84 13.79,1.28 27.58,2.8 41.37,4.32 27.26,-12.62 57.5,-5.78 87.39,-1.4l0.79 0.7c39.3,-9.96 78.68,-19.43 118.04,-29.16 4.53,1.93 9.06,4.09 13.56,6.02 33.9,-10.99 68.67,-17.24 106.27,-7.92 3.85,-0.38 7.77,-0.32 11.77,0.15l0.61 0.18c13.27,-4.77 27.12,-6.55 41.61,-5 2.49,-3.1 5.55,-5.73 9.06,-7.95 12.6,-6.83 26.12,-7.56 40.82,-0.61 1.03,1.46 2.08,2.84 3.1,4.18 18.87,-7.97 40.14,-1.25 60.48,-0.26 3.68,-3.91 7.42,-7.68 11.31,-10.66 9.7,-4.38 20.25,-4.62 31.35,-1.93 11.25,-0.32 23.47,4.12 35.65,8.74 21.36,-1.29 42.72,-2.55 64.08,-3.89 2.37,-2.98 4.62,-6.57 6.78,-10.81 15.64,-11.04 34.6,-13.12 53.62,-15.19 15.07,-1.06 28.81,-6.4 42.86,-10.64zm-2098.84 1590.23l-0.02 -0.01 -10.17 12.97c-1.93,2.45 6.1,1.08 9.2,1.72 3.31,-1.72 6.9,-2.48 10.61,-2.98 24.78,-17.65 72.73,12.56 82.28,-36.35 -16.54,4.38 -33.34,7.3 -51.6,1.37l-38.25 7.1c1.34,0.76 2.6,1.63 3.27,2.86 3.07,5.61 0.9,10.31 -5.32,13.32zm1002.72 -1488.38l-0.01 0c9.03,-3.27 17.97,-6.84 27,-10.05 -10.31,2.13 -21.47,3.12 -29.01,8.85l2.02 1.2zm3906.25 -1990.88c1.19,0.46 2.39,0.9 3.62,1.34 -1.22,-0.38 -2.42,-0.84 -3.62,-1.34zm-419.19 4.85c5.18,-0.7 10.23,-0.76 15.14,0.44 -5.53,3.24 -10.44,2.13 -15.14,-0.44zm-1528.24 1705.88l100.83 -560.2 12.8 42.05c6.11,1.52 11.28,6.92 8.15,16.3l43.1 151.79c17.18,69.13 44.47,155.47 50.2,224.02l-4.38 0.47c2.63,7.13 1.9,14.4 -7.16,14.49 -40.67,0.38 -28.34,7.74 -43.48,7.74 8.91,16.33 -19.87,15.6 -30.65,26.38l-29.95 19.05c-6.95,6.75 -13.09,7.6 -16.54,5.43 -8.18,17.65 -43.59,49.79 -43.74,49.82 0,27.38 -20.63,14 -20.66,13.97 -18.55,18.55 -25.3,-2.98 -18.5,-11.34l-0.02 0.03zm569.23 525.26c-1.58,-2.48 -2.95,-9.67 -3.33,-8.15l-8.82 -37.63c-3.45,-24.63 -3.94,-46.75 -4.47,-57.06 -18.52,-127.63 -37.05,-255.22 -55.87,-382.82l-25.24 -140.36 -5.52 -42.69c-7.1,-13.12 -24.78,-37.28 -12.56,-49.5l-7.51 -72.58c-7.98,-15.89 -17.74,-31.29 -18.06,-37.02l-7.8 -61.91 -15.43 -23.2 -10.23 -76.7 -33.48 -69.1c-4.41,-4.35 -3.24,-8.65 -5.29,-14.11l-23.26 -82.57c-6.98,-6.98 -2.57,-24.81 -2.57,-33.51l-35.18 -118.16c-7.16,-13.24 -18.99,-26.65 -18.99,-41.75l-2.54 -5.14 -0.32 -0.29c-30.59,-28.4 -28.08,-11.02 -28.08,-46.14l-10.9 -13.47 -8.12 2.4c-14.67,2.98 -58.06,-46.78 -58.35,-51.02 -4,-1.43 -12.42,-4.88 -8.36,-10.26 -39.85,-18.85 -80.53,-20.13 -137.5,-14.7 -29.54,3.3 -36.64,11.86 -42.28,17.36 -22.91,32.75 -24.28,47.63 -30.97,87.74l-10.34 103.17c0,12.39 -8.85,24.46 -17.85,36.58l-135.69 795.32 -7.89 118.71c1.99,8.41 3.51,23.99 -2.1,31.5l-0.29 4.38c-4.41,13.18 -10.61,26.38 -16.83,38.83l-0.06 3.45c4.06,12.51 5.64,25.54 1.17,30.01l0 4.53c0,23.49 14.4,21.24 8.41,35.27l-20.01 89.82c0,20.28 -2.57,28.25 -7.36,41.31 -2.66,32.43 -5.61,65.24 -10.58,100.25 -11.54,81.87 -24.37,152.78 3.42,216.98 1.55,-0.2 3.01,-0.32 4.18,-0.38 11.48,-0.53 35.85,-26.18 39.09,-3.42l6.22 7.83 6.63 -3.1c0,-13.29 10.2,-19.84 19.02,-28.66 17.97,-17.97 11.34,31.53 10.78,38.36l1.78 0.15c4.12,-7.89 44.44,-13.06 46.98,-2.48 6.11,-2.02 9.85,0.44 10.75,4.03 24.46,-5.81 30.04,-30.36 42.16,-106.79l37.98 -339.05c13.56,-54.81 29.13,-43.8 117.4,-122.51 34.24,-30.56 105.8,-93.62 155.62,-121.61 4.53,-2.54 2.45,-15.31 6.57,-17.21 1.87,-0.85 10.17,8.79 11.95,8.09 1.69,-0.67 -2.07,-16.57 -4.06,-19.43 -9.17,-13.15 13.38,16.19 15.4,15.72 5.52,23.7 59.52,157.69 96.36,303.55l52.18 199.18 37.87 -10.66c13.44,-8.18 18.79,2.8 20.86,12.8 8.12,0.47 15.69,0.88 22.79,1.11 2.51,-1.55 5.58,-2.78 9.99,-2.78l-10.93 -15.25c-4.03,-37.02 31.15,2.37 31.61,2.37 1.49,-1.46 3.24,-2.25 5.14,-2.51 1.14,-2.02 2.37,-3.74 3.68,-5.08 0,-12.13 -15.6,-41.2 -0.41,-49.41 22.88,-12.42 22.47,31.82 22.47,40.38 0,1.67 1.75,4 3.8,6.54 1.26,-0.12 2.57,-0.15 3.97,-0.09 6.11,-12.56 9.15,-30.91 9.15,-57.44l0.05 -0.02zm3095.86 2455.74l0.38 0.1c-217.42,10.41 -2629.94,163.89 -3213.93,163.89 -81.92,0 -171.33,-7.45 -253.26,-29.8 -226.91,-45.43 -210.63,-42.27 -473.86,-70.85 -95.16,1.31 -322.57,-98.52 -417.73,-97.18l0.53 0.58c-54.49,5.34 -108.28,15.04 -165.4,4.38 -17.15,0.26 -34.36,0.53 -51.51,0.82 -46.57,1.95 -93.12,3.94 -139.72,5.87 -17.06,0.88 -34.16,1.78 -51.22,2.66 -107.88,-1.63 -211.49,23.49 -321.64,7.57l0 0.03c-16.16,6.19 -33.45,4.79 -51.13,0.64 -30.42,14.44 -63.41,18.12 -98.76,12.07 -46.98,-4.91 -92.82,-3.24 -137.76,4.09 -12.8,9.49 -33.6,-2.46 -44.18,12.91 -15.22,16.51 -21.89,-11.69 -33.72,-12.71 -33.93,-7.83 -67.32,7.19 -101.48,-14.05 -26.24,-7.62 -42.02,9.94 -61.27,19.96 -5.76,3.01 -17.45,22.09 -24.05,-2.57 -9,-33.84 -34.1,-23.2 -52.1,-32.26 -115.09,3.83 -228.52,17.71 -345.16,12.48 -150.77,-11.89 -101.39,-76.93 -148.46,-103.75 -139.52,-79.47 -134.03,-156.49 59.28,-167.33 16.42,-8.04 34.33,-7.43 53.06,-2.05 2.4,-2.4 5.26,-2.78 8.68,-1.14 24.87,-7.92 -75.76,-9.41 -48.47,-5 16.33,2.84 30.71,-0.9 43.74,-8.91 17.71,2.86 32.76,-14.75 52.1,0.79 37.4,1.72 74.77,3.39 112.2,5.11 28.48,-17.3 62.55,-9.32 94.81,-9.32 11.95,-1.46 23.9,-2.92 35.88,-4.38 29.51,-2.72 59.02,-5.49 88.53,-8.24l10.46 -1.96c3.71,-5.4 9.14,-9.52 14.84,-13.38 6.87,-3.91 14.17,-6.66 22.06,-8.44 3.97,-0.73 7.95,-1.43 11.95,-2.07l6.28 -12.39c-7.07,-10.72 -14.11,-21.15 -21.12,-31.61 -30.15,6.6 -48.82,47.95 -89.96,21.24 2.66,-10.63 10.84,-13.93 19.69,-16.3 20.1,-2.89 30.16,-11.8 15.05,-35.85 -5.81,-2.83 -11.63,-5.41 -17.44,-8.24 -22.62,-1.17 -45.2,-2.31 -67.79,-3.48 -34.6,1.43 -66.53,19.34 -104.05,2.8 -17.97,4.5 -35.88,8.97 -53.88,13.47 -8.67,0.85 -17.38,1.72 -26.03,2.57 -8.07,-9.38 -10.02,-16.71 3.27,-18.38 11.3,-4.53 20.97,-14.17 35.73,-7.48 17.18,-0.49 34.42,-0.76 51.6,-0.99l0.26 0 0.03 0c0.53,-0.03 1.08,-0.03 1.64,0 33.86,-12.07 68.11,-22.91 106.5,-18.64 18.61,-8.27 38.24,-9.64 59.34,-0.67l3.04 0.29 0.03 0.15c13.21,1.87 26.44,3.95 39.62,6.02 28.2,-20.63 63.14,-15.6 96.92,-14.99 10.28,-5.96 -79.01,-17.45 -63.7,-9.09 28.98,-7.27 58.05,-14.02 89.99,-4.32 11.1,-1 21.33,-32.52 30.65,-23.7 218.26,33.72 255.93,-15.11 417.24,13.35 31.96,-4.73 59.4,-27.78 96.27,-12.21 20.95,-6.19 46.86,-0.05 62.35,-19.28 6.96,-8.7 31.67,-9.67 16.89,-29.04 -48.36,-63.23 11.63,-51.04 30.65,-53.35 30.04,-4.09 58.91,-9.58 86.87,-19.25 -0.84,-1.52 -1.4,-3.04 -1.75,-4.53 -17.86,-11.57 -33.4,-26.32 -31.88,-53.03 0.06,-1.17 0.17,-2.28 0.32,-3.36 -15.51,-3.57 -31.06,-7.07 -46.57,-10.55 -14.12,-2.25 -28.26,-4.73 -42.4,-6.98 -21.56,12.44 -45.55,4.93 -69.42,-1.61 -95.75,-0.67 358.69,-71.59 265.48,-88.97 -18.09,12.21 -40.09,8.76 -61.42,7.77 -54.76,1.34 -109.54,2.69 -164.27,4.03 -255.22,29.72 26.65,13 -151.44,16.51 -75.53,5.79 -148.78,23.35 -227.17,13.91l0.06 -0.23c-83.51,11.07 -41.73,14.52 -127.25,14.81 -10.43,5.7 -21.54,7.72 -34.1,1.64 -24.89,7.19 -50.89,8.53 -77.95,4.21 -18.35,6.84 59.48,9.41 39.06,6.78 -1.46,0.06 -100.07,-0.14 -101.65,-0.67 -49.09,3.18 -1.08,6.37 -50.2,9.55 -12.07,1.35 -24.1,2.93 -36.2,4.27 -24.72,7.45 -50.9,6.8 -77.46,3.94 -5.17,-1.9 -10.34,-3.51 -15.54,-5.38 -32.32,18.15 -70.04,15.34 -107.03,15.43 -19.69,6.1 -38.89,14.43 -61.56,8.79l-0.06 0c-18.7,10.02 -39.19,10.69 -61.1,4.03 -26,0.09 -52.01,0.15 -78.01,0 -239.33,-67.17 -1.99,-119.97 -87.28,-132.36 -376.42,-54.72 -392.25,-197.98 -345.24,-242.92 48.45,-2.13 89.73,-31.64 141.42,-21.33 55.31,-19.55 116.17,3.8 173.73,2.25 8.09,0.94 16.16,1.87 24.31,3.04 35.97,-27.64 76.96,-47.68 124.44,-40.32 43.25,6.69 78.19,-1.23 112.99,-20.34 16.8,-9.35 36.37,-17.94 58.87,-13.06l-0.09 0.15c86.28,-28.43 184.45,-0.38 271.96,-23.14 23.76,-10.87 50.7,-3.3 76.38,-2.86 23.28,-3.74 46.54,-7.28 69.8,-10.99 1.34,-0.29 2.69,-0.52 4.09,-0.67 19.87,-0.67 39.85,-1.29 59.75,-1.96 40.91,-3.85 81.78,-7.97 122.69,-11.83 16.13,-7.34 32.67,-12.74 52.07,-5.38 16.71,-2.16 33.22,-6.54 51.13,1.9 20.57,-1.93 41.14,-4.12 61.71,-6.05 25.57,-16.51 57.39,-3.04 85.64,-6.78 0.82,-0.15 1.7,-0.29 2.63,-0.38 30.42,11.22 -30.18,21.13 -9.73,19.52 26.2,-1.08 52.44,-2.16 78.68,-3.27 58.79,-16.8 119.71,-22.53 183.67,-13.85 10.37,-10.17 36.96,-11.77 13.85,-40.26 -15.96,-5.11 -31.94,-10.19 -47.92,-15.54 -8.88,0.14 -17.85,-0.24 -26.76,-0.12 -16.22,6.11 -32.26,13.44 -50.99,-1.4 -36.81,-2.63 -72.57,8.56 -110.5,-8.18 -61.56,18.23 -281.69,5.43 -345.24,10.37 -191.52,22.9 -218.08,47.13 -394.91,33.13 -24.31,8.41 -49.41,12.65 -76.76,5.87 -47.1,3.3 -21.09,18.14 -70.91,5.96 -46.49,19.9 -98.88,11.13 -149.22,12.42 -38.54,8.68 -75.97,29.68 -118.63,-6.81 -14.08,5.32 -23.35,24.13 -43.74,11.98 -15.61,12.27 -31.65,23.34 -54.67,16.01 -29.45,2.31 -58.82,4.85 -88.24,7.16l0.7 0.2c-16.48,6.61 -33.1,11.75 -52.33,0.91l-0.12 1.52c-18.5,11.49 -39.24,11.2 -61.33,4.3 -49.17,-13.21 -338.81,22.7 -388.69,5.55 -3.24,1.46 242.19,1.73 238.51,1.23 -20.28,1.9 -40.47,4.06 -60.69,6.22 -57.59,-7.13 -109.89,11.19 -165.58,13.35 -5.88,2.89 -11.78,6.05 -17.68,8.94 -22.94,-0.64 -45.84,-1.28 -68.78,-2.16 -39.51,9.49 -77.4,27.05 -122.4,8.82 -17.38,-0.26 -34.79,-0.79 -52.15,-1.05l-0.03 0.03c-50.49,37.92 -77.25,-47.36 56.04,-19.11 39.51,-7.98 77.99,-21.36 121.67,-6.78 9.93,-9.88 23.02,-9.56 36.52,-8.01 17.88,-11.69 39.12,-9.21 60.22,-7.19 42.28,-13.68 86.42,-19.75 132.56,-18 24.31,-11.11 50.63,-12.07 78.01,-7.57l10.17 -12.97 -1.08 -15.57 -3.68 0.67c-15.86,-9.35 -21.04,-18.93 -5.2,-29.74 18.23,-0.78 36.41,-1.81 54.61,-2.83 16.95,0.3 33.92,0.62 50.87,0.91 16.16,-6.11 32.67,-9.99 51.22,-2.6l61.27 -6.84c3.09,-1.17 6.48,-1.64 10.34,-1.17 20.43,-0.93 40.91,-1.64 61.36,-2.57 18.59,-0.79 27.09,-31.97 52.42,-12.36 47.89,1.14 95.14,-7.89 144.31,13.53 9.91,-4.68 19.81,-9.61 29.72,-14.26 16.07,-7.86 33.37,-10.31 52.3,-5.17 48.36,-9.35 97.77,-14.06 148.58,-11.66 2.07,-3.36 5.02,-4.06 8.85,-2.6 8.79,-0.11 17.61,0.03 26.38,0.15 -28.43,-29.71 93.47,-83.39 -208.12,-59.78 -11.02,-3.95 -22,-7.66 -33.02,-11.37l-3.68 2.72 -4.65 0.32c-46.87,20.19 -98.64,18.87 -150.62,16.77 -11.3,0.29 -22.61,0.84 -33.89,1.37 -28.2,5.69 -56.07,12.88 -86.72,6.57l-0.2 0c-7.28,0.5 -14.49,0.85 -21.74,1.29 -1.26,0.88 -2.6,1.14 -4.12,0.38l0.15 0.15c-16.13,8.59 -33.83,8.83 -52.71,2.72 -28.2,13.85 -56.04,-15.75 -84.15,-14.52 -51.66,24.78 -111.65,17.27 -167.95,23.7 -44.59,7.1 -89.14,14.2 -133.76,21.04 -11.69,0.67 -23.4,1.26 -35.12,1.87 -14.14,13.44 -29.45,5.23 -43.01,5 -1.22,0.73 -2.92,0.58 -5.08,-0.44 -0.91,-0.41 -1.4,-1.08 -1.52,-1.96 -8.77,0.43 -17.5,0.84 -26.24,1.34 -0.58,0.03 -1.17,0.09 -1.81,0.09 -594.39,100.89 -136.34,-9.35 17.82,-46.52 5.73,-2.39 11.42,-5.02 17.15,-7.42 15.55,-8.5 33.19,-4.03 50.52,-1.49l10.99 -13.91 -10.99 13.91 2.02 0.29c8.65,0.88 17.38,1.78 26.06,2.66 6.26,-4.15 12.54,-8.56 18.82,-12.74 19.41,-6.31 39.3,-10.69 61.1,-6.75 8.62,0.12 17.27,0.53 25.92,0.91 60.22,-27.12 128.27,-22.91 194.42,-26.3 27.58,-9.64 57.35,-8.74 87.36,-6.37l8.94 -0.64 7.36 -1.99c24.4,-3.66 48.85,-7.31 73.25,-10.96 6.02,-2.89 16.95,-5.64 16.51,3.48 -0.06,0.94 -0.14,1.84 -0.26,2.72l31.79 -2.22c11.63,-0.56 23.2,-1.38 34.77,-1.96 0.61,-0.06 1.2,-0.12 1.81,-0.09 5.31,-3.71 10.46,-8.15 16.71,-6.84 8.47,-11.45 20.42,-7.04 33.25,4.5l55.98 -1.34c1.46,-3.6 3.94,-4.27 7.39,-2.02 18.06,-5.99 36.11,-11.98 54.17,-17.97 6.81,-8.71 15.02,-11.25 25.83,-3.07 20.43,-6.92 49.35,-0.7 66.68,-16.33 154.86,-6.66 127.8,-9.18 -3.71,-27.38 -26.12,-9.87 -48.91,14.61 -84.85,-9.23 138.38,-69.8 0,0 105.51,-85.96 -45.61,24.83 -105.74,-23.7 -149.45,10.72 -31.88,-1.29 -64.2,-4.97 -95.43,-3.04 -36.43,2.54 -71,16.39 -109.01,7.51 -12.18,-0.41 -24.48,-1.49 -36.61,-1.72 -41.26,23.52 -88.44,30.15 -136.04,35.5l-4.15 2.6 -5.2 -0.38c-25.77,2.16 -50.4,10.78 -77.84,3.74 -8.82,-9.61 -7.94,-16.54 2.05,-20.95 23.49,0.3 49.76,11.14 67.99,-8.47 -18.06,2.69 -36.41,3.42 -56.19,-4.94 -16.95,0.93 -33.95,1.87 -50.93,2.83 -25.86,21.21 -61.51,10.26 -91.37,18.32 -11.63,2.05 -23.26,4.12 -34.89,6.17 -18.96,-6.4 -34.94,1.44 -51.89,4.62 -11.63,1.81 -23.26,3.36 -34.89,5.17 -35.45,0.99 -70.86,2.22 -106.33,3.21 -18.15,9.96 -38.48,9.15 -59.52,4.91 -15.1,2.55 -30.29,5.12 -45.43,7.66 -216.65,21.45 -21.62,-62.94 37.14,-67.26 0.93,-0.56 2.4,-0.18 4.47,0.93 1.46,0.7 2.34,2.07 2.63,3.97 2.25,-2.4 4.79,-4.39 7.57,-6.17 8.44,-5.7 14.84,-17.97 27.49,-10.96 2.16,-4.55 5.41,-7.94 9.73,-10.31 1.46,-0.29 2.92,-0.56 4.38,-0.76l0.06 -0.88c-14.05,3.8 -27.67,10.87 -44.03,-0.79 -11.31,-3.94 -22.61,-8.12 -33.98,-12.3 -0.18,0.15 -0.44,0.21 -0.79,0.12 34.77,12.18 -1153.65,63.75 19.52,-55.4l138.55 -9.7c2.51,-2.19 5.73,-2.51 9.73,-0.7 37.49,-4.62 73.28,-17.07 113.25,-10.17 10.63,-5.72 20.01,-14.84 34.71,-8.15 34.39,-6.39 69.54,-6.1 105.77,2.78l-0.47 -0.44c40.96,-21.77 87.18,-23.52 134.75,-20.13 21.12,-10.69 45.55,-6.42 68.98,-6.57 9.99,-6.4 20.8,-8.16 31.99,-8.01 -6.46,-6.9 -11.98,-15.69 -18.82,-21.77l-33.05 -8.91c-15.08,-21.92 -49.93,-44.47 -32.87,-75.59 8.03,-14.61 -47.25,-74.04 -8.68,-93.35 43.57,-21.82 6.99,-60.28 55.78,-76.58l23.7 3.24 0 -0.03c7.13,-8.35 15.66,-9.43 25.89,-1.72 52.77,-6.55 98.32,-43.62 158.51,-18.35 16.66,-8.12 34.86,-7.27 53.85,-2.22 81.41,-7.15 -157.16,-14.34 -75.76,-21.53 32.22,-3.1 64.39,-6.19 96.62,-9.32 29.86,-3.74 59.75,-7.45 89.64,-11.22 2.48,-2.48 5.29,-2.45 8.47,0l47.77 -5.08c1.52,-0.3 3.04,-0.47 4.62,-0.5 46.05,3.13 89.88,-11.95 137.36,2.75 20.22,-16.28 45.93,-3.04 69.04,-3.89 11.71,-0.38 23.4,-0.79 35.06,-1.17 53.12,-19.81 -258.11,-3.89 -205.93,-27.09 17.48,-0.64 34.95,-1.26 52.45,-1.9 2.34,-2.89 5.38,-3.42 9.06,-1.55 20.51,-1.84 41.08,-3.68 61.62,-5.49 13.47,-5.29 27.64,-5.81 42.63,0.38 11.66,-0.44 23.32,-0.85 34.95,-1.29 17.74,-13.09 39.74,-9.64 61.01,-8.97 17.39,0.46 34.74,0.9 52.07,1.37 27.26,-10.61 56.77,-10.58 86.98,-6.9 29.24,-1.67 58.46,-3.36 87.71,-5 17.3,-0.99 34.65,-1.96 51.95,-2.92 16.45,-8.04 324.12,-15.2 342.85,-9.82 2.37,-2.43 5.26,-2.78 8.65,-1.17 24.9,-7.92 51.05,-9.41 78.31,-5 16.34,2.84 24.87,-19.83 37.93,-27.87 -37.73,-5.88 -389.48,28.98 -274.54,-2.37 -49.2,-37.69 88.83,-36.23 185.95,-61.62 51.6,-13.5 38.25,-68.37 32.52,-106.94 0,0 -239.85,8.41 -269.45,6.54 -1.52,-0.03 -3.04,-0.12 -4.62,-0.32 -41.76,10.4 -83.57,20.54 -125.38,30.68 -57.39,-40 -104.84,-6.84 -155.94,-0.53 -31.56,-1.52 -63.11,-2.8 -94.61,-4.09 -30.13,-13.8 -43.6,25.71 -72.61,15.54l-3.24 2.45 -4.27 -0.44c-30.24,11.08 -64.46,-22.35 -94.26,-5.84 -20.63,1.2 -41.2,2.66 -61.83,4.09 1.23,-5.78 2.51,-11.6 3.74,-17.41 20.28,-1.93 40.58,-3.86 60.86,-5.76 26.35,-0.88 52.73,-1.46 79.06,-2.31 7.89,-0.29 15.75,-0.61 23.67,-0.67 27.26,-3.89 54.49,-7.8 81.75,-11.69 24.8,-11.16 52.56,1.31 78.8,1.46 6.4,-7.88 14.72,-8.73 24.57,-3.94 29.45,-6.78 58.9,-13.58 94.81,-21.56 -36.41,-27.52 -66.65,-14.46 -96.07,-20.86 -8.7,0.14 -17.38,0.23 -26.06,0.61 -28.81,-5.47 -57.03,18.14 -86.34,-12.13 0.35,-7.74 4.12,-10.26 11.28,-7.51 26.2,-1.58 52.44,-3.18 78.68,-4.76 11.48,-4.03 22.76,-10.05 35.73,2.22 25.66,-16.48 56.98,-8.47 86.11,-10.02 25.92,-0.56 51.86,-1.38 77.81,-1.96 27.7,-10.9 56.89,-14.2 88.24,-6.69 11.75,-0.82 23.49,-1.9 35.24,-2.72 84.61,-24.17 -11.31,-31.62 -67.73,-11.34l0.23 -0.26c-2.63,0.7 -5.2,1.17 -7.77,1.46 -77.92,14.37 -158.01,19.05 -237.95,24.16l0 -0.5c-24.78,8.15 -51.08,6.58 -77.87,2.28 -33.57,12.71 -70.27,13.29 -106.65,14.84 -5.9,4.65 -10.93,0.79 -15.78,-4.35 -20.1,17.09 -46.66,10.22 -71.03,11.45 -31.94,6.96 -62.47,19.29 -97.74,12.8 -65.6,-10.32 -123.42,23.58 -189.95,8.09 -31.03,3.13 -62.09,6.26 -93.15,9.15 -1.46,0.32 -13.59,6.49 -15.31,6.46 -58.46,35.94 -118.8,26.44 -185.36,36.55 -9.47,4.41 -18.93,8.53 -28.4,12.68 -19.54,5.32 -39.18,7.71 -59.34,-7.8 -14.38,-1.46 -28.78,-2.95 -43.13,-4.18 -4.94,4.32 -9.79,2.92 -14.55,-2.72 -165.64,10.55 -199.62,-113.22 -22.56,-84.94 8.15,-5.03 16.51,-9.35 27.38,-3.16 42.69,-9.93 84.99,-21.59 131.89,-11.95 17.21,-2.46 32.7,-12.48 52.07,-5.64 10.28,-4.71 18.84,-14.52 32.84,-8.27 97.88,-11.07 193.01,-33.65 293.29,-34.21 17.44,-4.21 34.92,-8.65 52.39,-12.86 19.58,-1.2 39.18,-2.51 58.76,-3.77 5.58,-3.47 11.22,-6.89 16.95,-9.99 32.05,-4.23 63.76,-10.19 97.24,-7.3 3.68,1.64 7.27,2.93 10.78,3.89 19.75,-8.16 41.49,-8.89 63.23,-9.5 5.02,-2.01 10.08,-4.03 15.19,-5.84 5.18,-0.88 10.46,-0.99 15.84,-0.38 3.24,1.31 6.45,2.39 9.58,3.27 18.76,-2.87 37.57,-5.7 56.36,-8.39 1.11,-0.17 2.17,-0.38 3.16,-0.58 4.56,-2.74 9,-5.87 13.24,-9.26 0.29,-1.34 0.26,-2.8 0,-4.35 -3.59,-0.35 -9.2,-0.52 -11.63,-3.3 -2.57,-0.38 -5.17,-0.7 -7.74,-0.96 -20.19,11.93 -44.41,8.68 -64.54,4.27l-0.03 0c-1.17,0.21 -2.39,0.38 -3.62,0.5 -95.51,8.18 -186.15,39.65 -286.66,23.81 -19.98,-14.03 -37.78,4.12 -57.41,-4.94 -30.27,2.63 -60.6,5.23 -90.84,7.86l0 -0.03 -0.06 0.03c-17.91,11.19 -38.57,4.94 -58.79,1.14 -9.2,10.08 -21.47,10.69 -34.74,8.15 -70.18,7.89 -138.85,22.64 -211.22,20.51 -8.12,4.53 -16.68,5.9 -26.18,-0.41 -28.9,2.51 -57.76,4.79 -86.66,7.3 -15.6,-0.44 -31.21,-0.91 -46.81,-1.55 -175.25,32.46 -517.92,-101.41 -244.44,-72.78l0.73 -0.03c16.16,-7.33 33.28,-9.29 51.95,-2.89l-0.12 0.26c10.75,-7.22 21.77,-13.71 36.58,-8.04 6.04,-2.39 12.12,-4.58 18.14,-6.98 30.85,-23.29 59.72,-53.15 107.23,-20.92 6.31,9.81 9.03,17.79 8.53,24.16 13.26,-1.93 27,-8.91 38.07,10.81 1.69,-1.17 3.53,-2.01 5.49,-2.51l-0.06 -1.55c2.36,-5.64 6.54,-7.91 12.56,-6.6 19.37,22.29 39.15,-6.72 58.55,10.08 34.1,-6.19 66.24,-19.57 102.47,-18.2 1.49,-0.03 3.06,0.03 4.7,0.26 29.16,-3.04 56.62,-14.18 87.83,-7.66 4.91,1.9 9.79,3.56 14.7,5.2 3.36,-1.49 7.05,-2.25 10.99,-2.02 49.61,-8.68 100.21,-13.24 147.11,-31.94 24.43,-9.91 51.98,-22.03 82.69,-1.55 9.27,-4.64 18.53,-9.02 27.79,-13.64 3.8,-4.56 5.58,-4.42 6.46,-2.05 3.59,-1.2 7.19,-2.48 10.78,-3.65 25.6,-34.54 101.51,-59.7 152.23,-47.19 11.42,2.69 24.22,31.14 24.95,-7.95 0.49,-22.9 16.04,-44.64 35.44,-42.51 1.43,0.15 2.89,0.26 4.35,0.35 -0.06,-2.3 0.32,-4.88 1.11,-7.71 17.39,-11.65 34.75,-23.31 52.13,-34.97 -0.65,-3.68 -1.08,-7.39 -1.26,-11.1 -8.33,-35.97 19.22,-34.42 37.66,-42.66 52.27,6.78 93.85,-37.66 149.92,-12.74 48.45,-2.16 89.73,-31.64 141.42,-21.33 55.31,-19.55 116.17,3.8 173.73,2.25 8.09,0.94 16.19,1.87 24.31,3.04 35.97,-27.64 76.96,-47.68 124.44,-40.29 43.25,6.69 -715.32,-1.23 -680.52,-20.34 16.8,-9.38 36.37,-17.94 58.9,-13.06l-0.12 0.15c86.32,-28.43 977.97,-0.41 1065.48,-23.17 23.76,-10.87 50.7,-3.3 76.38,-2.86 23.26,-3.74 46.54,-7.28 69.83,-10.99 1.34,-0.26 2.69,-0.49 4.06,-0.64 19.9,-0.67 39.85,-1.32 59.78,-1.96 -88.8,-29.54 294.63,-45.93 -318.25,-63.58 8.29,-1.4 16.59,-2.57 24.92,-3.97 26.85,-9.06 52.65,-18.93 48.82,-57.5 -12.39,-7.86 -24.78,-15.89 -37.17,-23.84 -66.27,12.6 -135.46,8.48 -204.44,5.41 -25.33,4.24 -61.8,23.38 -89.38,12.39l-3.62 3.21 -5 -0.38c-24.28,8.41 -49.38,12.65 -76.76,5.87 -47.13,3.3 -92.15,18.14 -141.97,5.96 -46.49,19.9 -98.88,11.16 -149.22,12.42 -38.51,8.68 -75.94,29.68 -118.6,-6.81 -14.08,5.32 -23.35,24.13 -43.77,11.98 -15.58,12.27 -31.62,23.34 -54.64,16.01 -29.42,2.31 -58.82,4.85 -88.24,7.16l0.7 0.2c-16.45,6.61 -33.13,11.75 -52.33,0.91l-0.15 1.52c-18.5,11.49 -39.24,11.2 -61.33,4.3 -49.2,-13.21 -89.87,22.7 -139.75,5.55 -3.27,1.46 -6.75,1.73 -10.46,1.23 -20.25,1.9 -40.44,4.06 -60.66,6.22 -57.56,-7.13 -109.92,11.19 -165.58,13.35 -5.88,2.89 -11.81,6.05 -17.68,8.94 -22.91,-0.61 -45.84,-1.25 -68.78,-2.13 -39.48,9.46 -77.37,27.05 -122.37,8.79 -17.38,-0.26 -34.79,-0.79 -52.15,-1.05l-0.06 0.03c-13.09,9.82 -27.55,6.87 -42.66,-1.52 -0.97,0.58 -2.75,-0.56 -5.29,-3.36 -2.39,-2.83 -2.51,-6.31 -0.29,-10.43 13.26,0.79 26.53,1.37 39.82,1.93 19.99,-8.86 41.52,-10.61 64.46,-5.76 39.51,-7.98 77.99,-21.36 121.67,-6.78 9.93,-9.88 23.02,-9.56 36.52,-8.01 17.85,-11.69 39.12,-9.21 60.19,-7.19 42.28,-13.68 86.45,-19.72 132.59,-18 27.03,-12.33 56.54,-12.15 87.22,-5.84 3.31,-1.72 6.9,-2.45 10.61,-2.98 24.78,-17.65 72.7,12.56 82.25,-36.35 -16.54,4.38 -33.34,7.3 -51.6,1.37 -15.01,2.81 -30.03,5.59 -45.08,8.39 -15.89,-9.35 -21.04,-18.93 -5.2,-29.74 18.23,-0.78 36.38,-1.81 54.58,-2.83 16.98,0.3 33.95,0.62 50.9,0.91 16.16,-6.11 32.64,-9.99 51.22,-2.6l61.27 -6.84c3.09,-1.17 6.48,-1.64 10.34,-1.17 20.45,-0.93 40.91,-1.64 61.36,-2.57 18.61,-0.79 27.12,-31.97 52.42,-12.36 47.89,1.14 95.19,-7.89 144.31,13.53 9.9,-4.68 19.81,-9.61 29.74,-14.26 16.07,-7.86 33.34,-10.31 52.3,-5.17 48.36,-9.35 97.74,-14.06 148.58,-11.66 2.07,-3.36 5.02,-4.06 8.85,-2.6 8.79,-0.11 17.61,0.03 26.38,0.15 19.54,-3.1 38.53,-19.37 59.28,6.78 15.16,-2.55 23.84,-22.06 43.3,-13.21 27.09,-4.12 54.17,-8.27 81.26,-12.39 27.29,-5.14 50.28,-22.9 80.32,-20.04 43.19,5.4 64.98,-32.9 99.84,-44.56 -19.31,-18.29 -39.06,-34.56 -64.1,-24.6l-38.6 -1.43c-0.96,0.06 -2.01,0 -3.21,-0.12 -38.24,19.08 -77.57,34.77 -124.32,26.85 -5.5,-0.38 -11.02,-0.99 -16.57,-1.34 -39.91,9.49 -80.08,17.79 -123.62,9.64 -54.9,3.47 -342.35,25.15 -393.69,23.08 -11.3,0.29 -22.61,0.84 -33.89,1.37 -28.22,5.72 -56.07,12.88 -86.72,6.57l-0.2 0c-7.25,0.5 -14.49,0.85 -21.74,1.29 -1.23,0.85 -2.57,1.11 -4.12,0.35l0.15 0.15c-16.13,8.59 -33.86,8.86 -52.71,2.72 -28.2,13.85 -56.07,-15.75 -84.15,-14.52 -51.69,24.78 -111.65,17.27 -167.95,23.7 -44.59,7.1 -89.14,14.2 -133.76,21.04 -19.96,1.14 -39.97,2.04 -59.96,3.21 -17.01,0.93 -34.01,1.67 -51.02,2.6 -0.58,0.03 -1.17,0.09 -1.81,0.09 -47.39,8.06 -94.73,16.09 -142.09,24.13l-3.8 2.75 -4.94 -1.14c-14.81,0.62 -29.66,1.23 -44.5,1.67 -2.34,0.2 -4.67,0.26 -7.04,0.2l-0.03 0c-247.57,-52.65 -27.23,-45.11 -27.23,-45.11 34.45,-9.88 65.19,-32.41 106.24,-19.61 46.92,-4.03 91.22,-21.33 141.21,-9.41 5.73,-2.39 11.42,-5.02 17.15,-7.42 16.18,-8.83 34.59,-3.68 52.56,-1.2 8.68,0.91 17.38,1.78 26.06,2.66 6.26,-4.15 12.51,-8.56 18.79,-12.74 19.43,-6.31 39.29,-10.69 61.12,-6.75 8.65,0.12 17.27,0.53 25.92,0.91 60.25,-27.09 128.3,-22.91 194.45,-26.3 27.58,-9.64 57.32,-8.74 87.33,-6.37 45.9,-3.21 91.78,-6.43 137.65,-9.64 11.6,-0.56 23.2,-1.35 34.77,-1.96 0.61,-0.06 1.2,-0.09 1.81,-0.09 7.48,-5.23 14.67,-11.95 25.22,-1.75 26.88,-0.64 53.79,-1.26 80.67,-1.9 1.49,-3.6 3.97,-4.27 7.42,-2.02 80.67,-26.74 56.04,-30.83 97.97,-63.23 33.95,-26.24 147.06,-81.81 114.8,-98.41 -15.4,-7.97 -177.86,20.19 -198.63,12.45 -31.88,-1.29 -64.2,-4.97 -95.43,-3.04 -42.34,2.95 -82.19,21.16 -127.86,1.23 -40.47,5.32 -80.15,14.79 -122.75,9.82 -34.71,0.93 -67.03,17.62 -104.4,1.84 -16.98,0.93 -33.95,1.87 -50.93,2.83 -25.88,21.21 -61.53,10.26 -91.42,18.32 -11.6,2.05 -23.23,4.12 -34.86,6.17 -18.99,-6.37 -34.94,1.44 -51.89,4.62 -11.63,1.81 -23.26,3.36 -34.89,5.17 -35.45,0.99 -70.86,2.22 -106.33,3.21 -18.12,9.96 -38.48,9.15 -59.55,4.91 -15.11,2.55 -30.27,5.12 -45.41,7.66 -17.21,0.7 -34.42,1.43 -51.69,2.13 -8.59,-0.64 -17.18,-1.29 -25.8,-1.93 -3.48,1.99 -6.95,3.71 -10.43,5.7 -65.68,8.83 -131.1,19.14 -199.15,16.92 -54.99,8.83 -109.13,21.07 -166.66,19.14 -10.52,-7.48 -19.05,-2.42 -27.93,0.44 -49.09,22.38 -102.18,27.82 -158.66,19.08 -8,14.72 -22.7,6.57 -35.09,6.19 -62.85,14.61 -122.84,41.17 -193.31,24.22 -32.57,3.54 -65.18,7.07 -97.76,10.58 -40.93,-6.84 -78.83,10.99 -120.61,-2.25 1.02,-6.04 4.32,-9.26 10.31,-9.17 35.85,-18.9 74.95,-26.88 117.43,-23.87 20.8,-2.22 41.52,-4.65 62.29,-7.1 10.84,-4.99 21.18,-11.92 35.09,-4.7 22.55,-5.28 37.98,-39.94 69.42,-8.82 40.29,-8.04 79.59,-20.49 123.3,-13.62 2.81,-2.19 6.08,-2.92 9.85,-2.19 16.62,-1.63 33.27,-3.27 49.9,-5.11l0.26 -0.03 2.19 -0.23c42.86,-10.95 86.57,-18.49 132.15,-18.93 14.76,-2.31 29.49,-4.82 44.27,-7.1 11.87,-2.07 23.76,-4.15 35.65,-6.22 53.09,-7.22 106.21,-14.41 159.3,-21.36 18.76,-9.26 38.98,-11.66 61.01,-6.25 2.54,-2.16 5.55,-2.63 9,-1.37 6.66,-6.69 13.99,-11.16 24.57,-4.7 3.62,-0.73 7.25,-1.49 10.87,-2.25 26,-3.04 48.68,-23.05 78.83,-5.26 6.02,-2.16 12.01,-4.56 18,-6.72 20.8,-13.91 47.83,-5.35 70.59,-12.42 0.96,-0.56 2.42,-0.18 4.47,0.93 1.46,0.7 2.34,2.07 2.63,3.97 2.28,-2.4 4.82,-4.39 7.6,-6.17 8.47,-5.7 14.84,-17.97 27.52,-10.96 2.16,-4.55 5.4,-7.91 9.7,-10.31 1.49,-0.29 2.92,-0.56 4.38,-0.76l0.06 -0.88c-14.08,3.8 -27.67,10.87 -44.03,-0.79 -11.31,-3.94 -22.61,-8.12 -33.98,-12.3 -0.18,0.15 -0.44,0.21 -0.79,0.12 -35.82,5.38 -72.23,4.15 -109.48,-6.31 -2.86,1.43 -5.96,2.16 -9.32,2.13 -6.81,8.19 -15.72,7.08 -25.39,2.78 -67.64,10.2 -135.28,20.42 -202.92,30.62 -20.8,0.97 -41.64,1.93 -62.44,3.13 -739.57,92.68 -238.39,-9.67 -371.95,8.12 23.99,-7.65 48.15,-14.55 75.47,-4.79l40.58 -9.09c5.2,-3.27 10.75,-5.4 17.5,-3.94 10.75,-6.49 20.24,-16.6 35.73,-7.98 8.79,0.15 17.58,0 26.35,0.15 1.99,-2.63 4.65,-3.33 7.92,-1.81 51.16,-13.03 103.78,-20.19 158.01,-20.8 19.17,-9.52 40.58,-8.79 62.41,-6.34 2.28,-2.89 5.29,-3.62 8.97,-2.13 69.02,-11.31 137.51,-24.54 209.5,-22.38 11.02,-6.75 23.06,-9.32 36.76,-5.32 8.1,-5.78 16.37,-10.84 27.47,-2.16 31.44,-3.21 62.91,-6.14 94.35,-9.35l138.55 -9.7c2.51,-2.19 5.73,-2.51 9.73,-0.7 37.46,-4.62 73.28,-17.07 113.22,-10.17 10.63,-5.72 20.01,-14.84 34.71,-8.15 34.42,-6.39 69.57,-6.13 105.77,2.78l-0.47 -0.44c40.99,-21.77 87.21,-23.52 134.78,-20.13 21.12,-10.69 45.52,-6.42 68.98,-6.57 23.58,-15.08 51.75,-4.38 78.19,-3.74 47.19,3.65 89.58,-19.96 138.58,-5.73 11.43,-3.03 21.1,-12.65 35.21,-5.43 99.72,-12.18 201.14,-14.93 303.02,-14.96 0.93,-0.09 1.93,-0.09 2.92,0 39.39,6.17 70.8,-29.33 113.25,-6.95 2.11,-2.87 5.03,-3.57 8.74,-2.34 42.8,-20.89 90.17,-17.27 138.64,-7.22 3.48,0.26 5.64,2.1 6.52,6.02 85.46,-36.75 138.82,-54.43 136.1,-85.87l-36.29 2.78 -3.16 3.48 -4.67 -0.67c-31.15,-0.56 -62.29,-1.37 -93.41,-1.93 -25.28,13.94 -54.76,0.35 -82.02,1.26 -41.84,10.4 -85.49,12.45 -129.73,11.57 -88.47,10.66 -178.67,11.51 -269.01,11.13l-4.18 3.04 -5.46 -0.61c-25.42,2.02 -50.87,4.06 -76.29,6.34 -29.1,3.27 -57.79,9.49 -88.59,2.95 -17.1,0.21 -34.25,0.65 -51.34,0.85 -6.37,9.15 -15.23,8.51 -25.22,3.51 -26.79,-0.61 -50.69,21.71 -80.38,-1.08 -21.15,12.91 -44.09,19.22 -70.94,11.42 -56.16,11.16 -113.57,16.15 -172.65,12.59 -40.65,4.82 -79.33,19.72 -123.07,9.35 -20.54,-14.23 -30.71,17.82 -50.9,5.05 -34.28,12.59 -69.72,20.28 -108.52,14.55 -4.59,-0.18 -9.2,-0.58 -13.79,-0.76 -13.85,8.91 -29.39,11.01 -46.63,6.25 -7.19,7.19 -15.75,7.3 -25.51,1.78 -8.47,6.08 -17.41,9.18 -28.25,1.23 -41.58,12.86 -84.73,19.11 -130.4,14.35 -17.21,0.96 -34.48,1.9 -51.69,2.86 -30.27,13.32 -62.85,17.32 -97.47,13.29 -19.87,8.12 -41.14,10.11 -63.52,7.45 -69.66,4.85 -139.25,9.73 -208.91,14.61 -27.87,19.35 -60.68,20.4 -95.19,15.11 -24.31,3.18 -48.59,6.63 -72.93,10.08 -11.45,1.31 -22.85,2.6 -34.33,3.65 -18.82,9.03 -38.89,12.91 -61.1,8.24 -29.89,14.05 -63.29,14.4 -96.95,13.76 -21.03,1.99 -42.04,4.18 -63.05,6.4 -42.13,11.39 -83.59,25.51 -130.75,15.63 -0.41,0.21 -0.97,0.24 -1.61,0.09 -236.84,19.14 -232.02,24.19 -5.17,-12.33 44.24,-18.76 93.76,-18.24 141.77,-23.35 20.84,-3.68 41.73,-7.13 62.56,-10.84 30.95,-4.67 59.55,-21.33 94.32,-6.6 19.13,-11.28 39.18,-19.4 63.75,-12.42 14.63,-2.51 29.33,-4.79 43.97,-7.3 18.32,-9.26 36.78,-17.73 59.66,-3.94 38.16,-5.64 70.62,-38.01 115.85,-10.08 5.53,-4.61 11.08,-8.97 16.6,-13.35 7.68,-11.22 18.79,-16.95 31.73,-19.87 17.32,-3.94 37.22,-2.6 46.98,-21.68 19.14,0.38 38.01,-14.84 57.62,8.39 9.9,-4.91 19.84,-9.59 29.77,-14.26 13.85,1.02 27.7,2.05 41.55,3.07 12.36,-9.32 23.73,-22.3 43.16,-8.74 10.64,7.95 19.37,3.36 28.14,-0.73 24.6,-19.64 55.13,-16.04 85.81,-11.98 23,-7.34 46.08,-14.17 72.2,-8.3 0.38,-0.18 0.85,-0.24 1.43,-0.15 20.25,-2.39 40.44,-4.52 60.72,-6.92 2.28,-3.39 5.47,-4.12 9.47,-2.66 16.92,-5.91 33.63,-13.03 53.59,-5.73 25.22,-0.27 47.8,-21.74 75.88,1.4 28.69,-21.65 64.6,-23.17 99.9,-26.15 24.16,-11.86 51.25,-7.07 78.1,-3.21 40.85,-4.35 81.72,-8.47 122.6,-12.56 19.2,-6.78 38.31,-13.76 60.63,-6.02 44.59,-13.26 91.63,-13.35 139.78,-7.77 25.98,-19.23 56.28,-15.61 87.86,-5.41 2.95,-1.2 6.02,-1.9 9.26,-2.13 9.3,-8.59 17.24,-20.36 33.81,-12.56 29.63,-1.57 59.25,-3.15 88.88,-4.73 11.51,-4.53 22.53,-11.04 36.64,-4.82 41.26,-2.89 82.31,-7.01 123.8,-8.91 97.64,-4.09 195.53,-6.98 293.32,-10.34 45.82,-2.95 -3.42,-15.46 44.15,-9.35 48.24,7.81 90.7,-17.56 139.61,-5.81 28.16,-7.92 58.17,-5.06 88.06,-3.16 37.31,-7.1 74.57,-14.44 114.45,-8.77 29.39,-2.05 58.7,-4.1 88.09,-6.17 7.25,-5.23 14.58,-9.73 23.7,0.58 1.52,0.26 2.98,0.41 4.44,0.44l1.02 -0.79c37.78,-28.69 78.42,-42.77 124.06,-31.61 -0.35,5.96 -0.73,12.13 -1.14,18.09l2.78 0.2 61.5 -18.58c13.18,-29.19 31.7,-43.04 59.08,-32.43 3.85,1.49 117.51,-69.16 118.77,-71.91 -60.34,1.76 -121.61,17.24 -182.41,25.95 -5.08,1.61 -10.17,3.24 -15.28,4.88 -4.47,10.37 -98.26,34.45 -104.34,32.52 -45.67,3.04 -3.91,-20.92 -49.61,-17.91l-0.38 0.15 -0.38 0.15 -0.06 0.03 -0.26 0.12 -0.35 0.12c-16.65,6.52 -32.99,8.36 -48.91,3.86l-306.03 -1.99c-61.22,18.61 -113.98,-0.73 -158.25,-25.45 -43.42,-13.97 231.23,-43.07 189.1,-59.93 -64.19,-25.39 -69.25,-57.82 -24.69,-123.56l0.35 -0.5c-6.23,-0.53 -12.51,-1.29 -18.82,-2.31 -8.71,-9.85 85.02,-16.36 96.36,-19.14 11.89,-0.58 23.73,-1.43 35.59,-2.22 18.61,-17.94 40.41,-29.83 63.52,-39.82 13.79,-19.58 29.1,-36.73 45.61,-51.98l-0.58 -0.82c-16.39,6.37 -33.72,4.35 -51.54,-1.87 -34.91,16.13 -75.47,0.82 -112.4,5.64 -20.69,1.46 -41.34,3.13 -62,4.59 -5.15,-0.38 -10.32,-1.02 -15.49,-1.4 -2.66,2.43 -5.9,3.42 -9.73,2.43 -43.44,9.99 -88.73,9.43 -134.46,6.54 -1.52,0 -3.04,-0.11 -4.62,-0.29 -41.79,10.37 -83.57,20.51 -125.38,30.65 -57.42,-40 -104.84,-6.84 -155.94,-0.53 -31.56,-1.52 -63.11,-2.8 -94.64,-4.09 -30.1,-13.8 -43.57,25.68 -72.58,15.54l-3.27 2.45 -4.24 -0.44c-30.27,11.08 -64.43,-22.35 -94.26,-5.84 -20.63,1.2 -41.2,2.66 -61.83,4.09 1.23,-5.78 2.51,-11.6 3.74,-17.41 20.28,-1.93 40.58,-3.86 60.86,-5.76 26.33,-0.88 52.71,-1.46 79.04,-2.31 7.89,-0.29 15.78,-0.61 23.7,-0.67 27.23,-3.89 54.49,-7.77 81.75,-11.69 24.77,-11.16 52.56,1.31 78.77,1.46 6.4,-7.88 14.75,-8.73 24.6,-3.94 29.42,-6.78 58.84,-13.58 94.78,-21.56 -36.41,-27.55 -66.62,-14.49 -96.04,-20.89 -8.68,0.11 -17.35,0.23 -26.06,0.58 -28.81,-5.44 -57.03,18.17 -86.34,-12.1 0.38,-7.74 4.12,-10.26 11.28,-7.51 26.23,-1.6 52.47,-3.18 78.68,-4.76 11.48,-4.03 22.76,-10.05 35.73,2.22 25.63,-16.45 56.95,-8.47 86.11,-9.99 25.95,-0.56 51.89,-1.38 77.84,-1.96 27.67,-10.9 56.89,-14.2 88.21,-6.69 11.75,-0.82 23.47,-1.9 35.24,-2.72 19.61,-5.58 37.81,-16.8 61.01,-7.74 54.23,-6.25 108.22,-13.73 164.47,-8.79 0.53,0.03 1.05,0.06 1.61,0.15 75.36,-28.05 193.87,-16.94 281.64,-13.76 1.93,-0.35 3.88,-0.61 5.9,-0.76 5.23,-2.37 10.43,-4.73 15.63,-7.1 11.25,-14.64 25.15,-18.64 40.26,-17.09 5.93,-2.07 11.86,-4.15 17.79,-6.22 25.83,-15.34 52.27,-26.65 80.38,-28.43l0.44 -0.23c15.46,-10.34 -361.34,-18.61 -344.28,-18.17 15.11,-4.41 30.24,-8.77 45.35,-13.12 -122.66,-33.49 530.9,-40.79 590.24,-45.29 16.04,-3.13 31.18,-17.97 47.92,-12.07 3.36,-2.25 6.19,-1.81 8.53,0.85 5.69,-1.84 11.39,-3.68 17.09,-5.52 21.76,-8.65 43.53,-17.85 66.03,-16.01 4.24,-1.72 7.6,-0.73 10.08,2.69 24.63,-8 48.97,-20.71 74.27,-17.44 37.61,-10.55 75.1,-22.53 112.67,-33.4 -4.93,-0.53 -9.87,-1.09 -14.81,-1.67 -8.59,-0.14 -17.24,-0.05 -25.83,-0.2 -21.91,8.24 -45.52,-1.46 -68.43,-3.86l0.2 0.2c-17.41,0.74 -34.83,1.2 -52.21,1.67 -29.01,1.29 -58.03,2.31 -87.07,3.36 -8.74,0.61 -17.5,0.96 -26.27,1.34 -5.64,-1.84 -11.25,-3.45 -16.89,-5.29 -7.6,4.53 -14.64,12.22 -25.04,1.26 -3.24,1.23 -6.66,1.96 -10.28,1.96 -37.43,4.59 -73.07,17.79 -113.22,8.91 -22.47,-1.17 -44.94,-2.57 -67.38,-3.74 -26.97,-1.84 -51.63,10.84 -79.77,1.61 -8.15,-1.17 -16.25,-2.37 -24.4,-3.77 -15.4,11.75 -33.4,9.32 -52.13,2.72l-0.26 0.2c-18.05,0.5 -36.08,1.03 -54.11,1.29l-0.03 0c-33.66,0.85 -67.32,1.46 -100.98,2.34 -31.05,4.91 -62.49,1.87 -94.4,-10.31 -34.1,17.79 -73.75,10.63 -111.82,10.81 -28.7,1.26 -56.19,10.64 -86.49,0.85 -18,0.76 -35.97,1.26 -53.94,2.02 -5.81,2.65 -11.6,5.02 -17.41,7.68 -13.62,0.21 -15.69,-7.36 -12.13,-18.55 7.74,-4.79 14.52,-9.99 10.84,-22.41 1.7,-1.7 3.63,-3.04 5.79,-3.89 -0.24,-0.79 -0.56,-1.61 -0.91,-2.4 1.29,-5.79 4.41,-9.5 9.38,-11.34 63.14,16.48 115.33,-24.95 178.06,-10.72l0.06 0.32 0 -0.06c26.45,-0.62 52.92,-1.23 79.42,-1.58 8.06,-0.35 16.13,-0.64 24.19,-0.96 23.84,-1.93 47.6,-3.83 71.38,-5.99 46.55,-3.01 93.06,-6.02 139.58,-9.29 17.48,-0.47 34.98,-1.2 52.48,-1.67 9.58,-11.11 22.88,-1.35 34.42,-1.67 22.64,-0.09 45.32,-0.2 67.99,-0.29l-0.44 0.79c16.34,-8.04 33.96,-5.67 52.13,0.61l0 -0.03c2.46,-3.65 5.82,-4.38 10.17,-2.19 25.68,-0.32 51.4,-0.88 77.05,-1.17l0.23 0c13.65,-7.92 28.81,-4.01 44.12,0.64 7.89,-0.03 15.84,0.15 23.73,0.09 10.9,-1.43 21.74,-3.01 32.61,-4.47 1.43,-0.38 3.1,-0.61 4.88,-0.67 32.37,-9.73 67,-4.44 101.24,-1.87 14.84,-2.54 26.67,-16.8 44.76,-6.37 2.87,-0.97 4.77,0.4 5.73,3.56 18.43,-6.02 37.13,-9.06 57.44,2.19 17.56,10.46 27.9,-4.7 41.78,-7.39 59.05,-11.1 119.65,-11.37 181.77,-1.55 5.87,1.34 11.75,2.4 17.62,3.74 11.89,-12.27 27.17,-13.09 44.09,-8.79 9.38,-4.44 19.31,-5.7 29.51,-5l7.07 -4.03c67.03,-44.68 141.53,-67.03 216.01,-67.03 22.35,0 37.25,0 52.18,-7.45 52.09,-14.9 104.25,-14.9 141.5,22.35 14.9,7.45 26.76,7.33 37.25,7.45 116.7,1.23 229.72,-18.38 309.57,4.15 17.62,-5.99 35.68,-15.66 50.49,-0.44 15.07,-9.65 29.19,-11.43 42.86,-9.53 40.67,-27.09 91.66,-23.7 139.84,-22.44 9.64,0.27 21.27,11.43 30.18,25.89 9.76,3.42 19.2,7.83 28.49,12.65 27.09,-13.53 55.49,-7.16 84.21,2.83l22 0.23c15.9,-4.03 31.44,-5.29 46.11,0.47l18.47 0.2 105.22 -24.08c50.08,-14.17 99.4,-24.39 140.31,9.06 8.8,0.35 17.56,0.99 26.33,1.34 17.53,-3.24 36.26,-14.87 51.07,0.35 8.56,-0.38 17.15,-0.79 25.74,-1.43 34.92,-1.52 70.65,-8.94 104.05,0.29 3.09,-1.11 6.02,-0.49 8.82,1.23 -2.86,-0.59 -5.73,-1.02 -8.62,-1.17l-0.18 -0.06c23.2,-5.58 46.63,-13.35 68.37,-3.62l0.29 0.03c26.39,-3.89 52.83,-8.24 77.93,-1.52 16.71,-0.06 33.51,-0.38 50.28,-0.7 106.18,4.12 201.14,14.34 285.87,30.12l768.82 5.96c352.05,-91.77 524.64,-15.28 528.88,-22.35 601.78,155.47 809.06,507.29 897.56,818.52 12.65,44.5 107.32,171.45 108.34,213.73 3.94,162.05 -149.28,211.75 -149.28,211.75 52.24,322.65 12.86,254.63 677.02,1258.78 257.44,463.46 -487.4,408.59 -766.43,921.46 -11.52,21.16 168.44,217.42 98.17,339.14 -41.64,72.11 -267.88,286.17 -217.36,348.49 128.74,158.71 182.76,532.76 -513.98,566.13z"/>
  <path class="fil1" d="M4879.05 4527.24l13.12 -22.29"/>
 </g>
</svg>
