<svg width="241" height="265" viewBox="0 0 241 265" fill="none" xmlns="http://www.w3.org/2000/svg">
<g clip-path="url(#clip0_4302_16813)">
<path d="M241 57.5517C239.449 56.6954 237.898 55.8291 236.387 54.9325C237.188 54.3382 238.108 53.8546 238.979 53.3207L241 52.132V51.6787L238.748 52.9077C237.718 53.492 236.668 53.9655 235.697 54.7311L235.377 54.9829L235.717 55.2146C236.668 55.8593 237.648 56.4537 238.628 57.0178L241.01 58.4281V57.5517H241Z" fill="#DA4C38"/>
<path d="M210.976 97.9976L234.727 111.658L234.927 111.768L234.937 112.01C235.047 116.604 235.077 121.197 235.138 125.791L235.308 139.582L235.318 140.549L234.487 140.076C230.515 137.789 226.654 135.401 222.732 133.074L216.869 129.559L213.938 127.796L212.477 126.909C211.987 126.617 211.417 126.244 211.057 125.64C210.696 125.035 210.666 124.33 210.686 123.766L210.696 122.054L210.706 118.619L210.736 111.748L210.806 104.878C210.866 102.591 210.846 100.274 210.976 97.9976ZM210.976 97.9976C211.016 102.571 211.187 107.155 211.287 111.728L211.417 118.598L211.477 122.034L211.507 123.746C211.507 124.31 211.557 124.804 211.797 125.187C212.037 125.579 212.447 125.851 212.937 126.123L214.418 126.98L217.359 128.712L223.242 132.188C227.174 134.485 231.086 136.862 235.017 139.088L234.197 139.572L234.127 125.781C234.107 121.187 234.057 116.594 234.087 111.99L234.297 112.353L210.976 97.9976Z" fill="#DA4C38"/>
<path d="M210.936 95.3785L211.006 82.0811L210.996 75.4324L210.986 72.1081C210.986 71.544 210.976 71.0101 210.986 70.4359C210.986 69.8616 211.256 69.1666 211.776 68.814L223.071 61.8631L228.744 58.4582L231.575 56.7557L232.996 55.8994L233.706 55.4763C233.956 55.3454 234.226 55.2144 234.496 55.0835L235.117 54.7812L235.247 55.4763C235.297 55.7181 235.387 55.98 235.437 56.3528C235.447 56.4434 235.457 56.5542 235.457 56.6449V56.8564V57.2896L235.427 59.0021L235.367 62.4272L235.257 69.2774L235.107 76.1275L235.017 79.5526L234.977 81.2651L234.947 82.1415C234.927 82.4538 234.846 82.7963 234.656 83.0986C234.266 83.703 233.666 83.9246 233.206 84.2067L231.725 85.0529L228.764 86.7453L222.841 90.13L216.948 93.5652L214.007 95.2878C213.017 95.8418 212.076 96.4966 211.006 96.9097H210.996V96.8996L210.936 95.3785ZM210.936 95.3785L211.016 96.8895L211.006 96.8794C212.066 96.4563 212.996 95.7915 213.977 95.2273L216.898 93.4745L222.741 89.9588L228.554 86.3927L231.465 84.6096L232.916 83.7231C233.406 83.4108 233.916 83.1691 234.136 82.7762C234.376 82.3934 234.306 81.8494 234.316 81.2551L234.306 79.5425L234.296 76.1174L234.286 69.2572L234.316 62.397L234.336 58.9719L234.346 57.2594L234.356 56.8262V56.6147C234.356 56.5542 234.356 56.524 234.346 56.4736C234.326 56.2722 234.236 56.0002 234.176 55.6778L234.927 56.0606C234.696 56.1714 234.466 56.2722 234.226 56.393L233.516 56.8061L232.105 57.6422L229.254 59.3144L223.541 62.6488L212.096 69.2169C211.236 69.7508 211.496 71.0201 211.416 72.098L211.326 75.4224L211.166 82.071L210.936 95.3785Z" fill="#DA4C38"/>
<path d="M217.028 100.687L214.247 99.0452L212.856 98.2191L211.836 97.5442C212.196 97.3024 212.556 97.0606 212.936 96.839L214.437 96.0231L217.439 94.381L223.431 91.1071L229.404 87.7827L232.385 86.1206L233.876 85.2844C234.396 84.9923 234.816 84.7405 235.197 84.7505C235.377 84.7505 235.567 84.8009 235.777 84.9016L236.487 85.3046L237.978 86.1407L240.959 87.8129L241.019 87.8432V86.6444L238.518 85.1938L237.037 84.3375C236.777 84.1864 236.577 84.0655 236.257 83.9043C235.947 83.7532 235.587 83.6424 235.197 83.6525C234.406 83.6726 233.826 84.0857 233.366 84.3375L231.885 85.1837L228.924 86.8862L223.001 90.2911L217.108 93.7464L214.157 95.469L212.686 96.3353C212.196 96.6275 211.736 96.9901 211.256 97.3125L210.936 97.5341L211.266 97.7356L212.656 98.5919L214.077 99.3675L216.908 100.929L222.561 104.062L233.826 110.398L222.631 103.921L217.028 100.687Z" fill="#DA4C38"/>
<path d="M241 107.759L240.21 108.213L237.099 109.996C236.578 110.278 236.078 110.64 235.498 110.781C234.908 110.933 234.297 110.731 233.787 110.439C234.297 110.741 234.908 110.953 235.498 110.802C236.088 110.671 236.588 110.308 237.109 110.036L240.24 108.283L240.99 107.87V107.759H241Z" fill="#DA4C38"/>
<path d="M237.619 110.711L240.701 108.908L240.991 108.736V108.636L240.651 108.837L237.589 110.671C237.089 110.993 236.539 111.235 236.109 111.658C235.658 112.071 235.498 112.706 235.508 113.3C235.508 112.706 235.678 112.081 236.119 111.678C236.569 111.265 237.119 111.023 237.619 110.711Z" fill="#DA4C38"/>
<path d="M241 135.845L238.199 137.567C237.338 138.091 236.478 138.625 235.598 139.088C235.558 138.685 235.508 138.283 235.498 137.869L235.488 136.227L235.468 132.953L235.448 126.395L235.508 113.29L235.297 126.395L235.147 132.943L235.067 136.217L235.027 137.859C235.027 138.403 235.087 138.968 235.117 139.522L235.137 139.894L235.488 139.733C236.538 139.25 237.518 138.665 238.499 138.101L240.99 136.671V135.845H241Z" fill="#DA4C38"/>
<path d="M241 85.8489L238.859 84.5393L237.398 83.6528C236.908 83.3707 236.498 83.0786 236.278 82.6857C236.047 82.2929 236.027 81.8194 236.037 81.2351L236.047 79.5226L236.037 76.0975L236.007 69.2474L235.977 62.3972L235.967 58.9721L235.957 57.2596L235.997 56.4033C236.248 56.5141 236.488 56.635 236.728 56.7861L238.198 57.6525L241 59.3046V58.0756L238.749 56.7257C237.778 56.1313 236.818 55.537 235.717 55.0434L234.967 54.7109L234.937 55.5269L234.877 57.2697L234.897 58.9822L234.937 62.4073L235.087 76.1076L235.127 79.5326L235.157 81.2452C235.157 81.7992 235.187 82.5145 235.547 83.1189C235.907 83.7233 236.498 84.0759 236.988 84.3479L238.459 85.2042L240.99 86.6749V85.8489H241Z" fill="#DA4C38"/>
<path d="M235.857 32.9413L235.937 29.617C235.987 28.519 235.827 27.3202 236.657 26.7057C238.078 25.8595 239.529 25.0133 240.989 24.1772V23.3813C239.439 24.3384 237.878 25.2954 236.317 26.3027C235.847 26.6956 235.567 27.3403 235.527 27.9246C235.487 28.519 235.517 29.0529 235.507 29.6069L235.517 32.9313L235.527 39.5799L235.467 52.8773L235.687 39.5799L235.857 32.9413Z" fill="#DA4C38"/>
<path d="M241.001 51.3262L238.52 52.8171C237.539 53.3812 236.609 54.036 235.559 54.4793L235.479 52.8775L235.539 54.4893V54.4994L235.549 54.4893C236.609 54.0562 237.549 53.4114 238.54 52.8473L240.991 51.4168V51.3262H241.001Z" fill="#DA4C38"/>
<path d="M241 2.01524L237.418 0.000488281H237.398L241 2.08575V2.01524Z" fill="#DA4C38"/>
<path d="M241.001 22.2332L238.129 23.845L236.639 24.6812C236.169 24.9532 235.718 25.1446 235.298 25.1546C234.868 25.1647 234.448 24.9834 233.988 24.7114L232.507 23.8753L229.536 22.203L223.593 18.8585C219.771 16.6725 215.849 14.6175 212.058 12.4113L212.408 12.1192C212.598 11.9681 212.888 11.8271 213.138 11.6659L214.679 10.7593L217.76 8.94598L223.923 5.3295L230.116 1.77347L233.167 0.000488281H233.077L230.046 1.70295L223.813 5.18847L217.55 8.62362L214.419 10.3362L212.858 11.1924C212.598 11.3435 212.338 11.4543 212.058 11.6558L211.357 12.2199L211.037 12.4819L211.387 12.7136C213.308 13.9728 215.289 15.0607 217.24 16.2394L223.123 19.6947L229.025 23.1097L231.977 24.8222L233.447 25.6785C233.948 25.9807 234.608 26.2829 235.338 26.2527C236.059 26.2325 236.679 25.9102 237.179 25.618L238.66 24.7718L241.021 23.4119V22.2332H241.001Z" fill="#DA4C38"/>
<path d="M231.426 0.000488281L229.585 1.07838L223.452 4.66463L217.289 8.20052L214.208 9.96342L212.667 10.8499C212.277 11.0715 211.897 11.3032 211.507 11.4644C211.467 10.4772 211.487 9.46981 211.517 8.45236L211.607 5.03736L211.727 0.000488281H210.816L210.826 5.01721L210.836 8.44229C210.836 9.58062 210.836 10.719 210.936 11.8774L210.966 12.2502L211.327 12.1293C211.957 11.9177 212.437 11.5954 212.937 11.2831L214.448 10.3563L217.469 8.50273L223.522 4.79559L229.605 1.13882L231.536 0.000488281H231.426Z" fill="#DA4C38"/>
<path d="M211.197 12.8848L222.972 19.6342L234.947 26.5649L235.148 26.6858L235.158 26.9276C235.268 31.5011 235.298 36.0745 235.358 40.648L235.538 54.3685L235.548 55.1542L234.807 54.8923C234.557 54.8016 234.307 54.7412 233.977 54.6203C233.607 54.4692 233.407 54.2979 233.157 54.167L231.686 53.2805L228.755 51.5176L222.882 47.9918L217.009 44.466L214.078 42.7031L212.617 41.8065L211.877 41.3532C211.607 41.1819 211.327 40.9502 211.137 40.6077C210.946 40.2753 210.896 39.8925 210.896 39.5701V38.7139L210.906 36.9912L210.916 33.546L210.936 26.6556L211.007 19.7651L211.047 16.3199L211.077 14.5973L211.087 13.741C211.107 13.4489 211.167 13.1568 211.197 12.8848ZM211.197 12.8848C211.167 13.1769 211.127 13.459 211.107 13.741L211.137 14.5973L211.197 16.3199L211.287 19.7651L211.467 26.6455L211.597 33.5259L211.667 36.9711L211.697 38.6937L211.717 39.55C211.727 39.8018 211.767 40.0033 211.867 40.1645C212.037 40.4868 212.577 40.7185 213.067 41.0207L214.548 41.877L217.499 43.6198L223.392 47.1053L229.285 50.5908L232.236 52.3336L233.707 53.21C233.957 53.351 234.217 53.5323 234.377 53.5827L235.178 53.8446L234.447 54.3685L234.367 40.648C234.347 36.0745 234.297 31.5011 234.317 26.9175L234.527 27.2802L211.197 12.8848Z" fill="#DA4C38"/>
<path d="M211.976 42.0479L223.381 48.4749L229.104 51.6482L231.975 53.2298L233.406 54.0155L234.807 54.902L235.157 55.1236L234.787 55.3352L223.021 62.2558L217.109 65.6507L214.147 67.3531L212.667 68.1993C212.186 68.4814 211.566 68.834 210.836 68.8541C210.095 68.8844 209.435 68.5318 208.965 68.2396L207.484 67.3834L204.533 65.6708L198.63 62.2558L192.748 58.8005L189.806 57.0679C188.826 56.5037 187.845 55.9094 186.895 55.2647L186.555 55.033L186.885 54.7811C187.865 54.0155 188.916 53.4917 189.966 52.9175L193.098 51.2049L199.351 47.7698L205.573 44.2843L208.685 42.5415C209.215 42.2695 209.705 41.9069 210.275 41.7457C210.846 41.5644 211.476 41.7457 211.976 42.0479ZM211.976 42.0479C211.466 41.7457 210.846 41.5845 210.275 41.7658C209.705 41.9371 209.225 42.2997 208.695 42.5818L205.603 44.3649L199.421 47.9209L193.268 51.5374L190.186 53.3406C189.166 53.945 188.105 54.5192 187.215 55.2546L187.195 54.771C191.077 57.088 195.149 59.1733 199.09 61.4298L205.043 64.7743L208.014 66.4465L209.505 67.2826C210.005 67.5748 210.396 67.7662 210.816 67.7561C211.236 67.7561 211.656 67.5546 212.146 67.2625L213.637 66.4264L216.618 64.7642L222.581 61.4399L234.547 54.8818L234.537 55.3251L233.196 54.4185L231.785 53.5823L228.964 51.9202L223.321 48.6059L211.976 42.0479Z" fill="#DA4C38"/>
<path d="M162.995 98.4511L174.56 105.251L180.373 108.605L183.284 110.278L184.735 111.114C184.965 111.245 185.245 111.396 185.475 111.618C185.715 111.839 185.895 112.151 185.955 112.474C186.136 117.067 186.186 121.49 186.296 126.013L186.386 132.752L186.436 136.127L186.456 137.809L186.466 138.655C186.466 138.938 186.396 139.27 186.356 139.582L186.256 140.338L185.565 139.985C185.055 139.723 184.525 139.461 184.025 139.179L182.564 138.303L179.653 136.54L173.83 133.024L168.027 129.468L165.126 127.685L163.675 126.789C163.225 126.496 162.625 126.214 162.275 125.62C161.904 125.036 161.964 124.341 161.974 123.807L161.984 122.094L162.004 118.679L162.055 111.839C162.075 107.276 161.974 102.722 162.085 98.159V98.1489H162.095C162.405 98.2698 162.725 98.3 162.995 98.4511ZM162.995 98.4511C162.725 98.3 162.405 98.2698 162.105 98.1791H162.115C162.065 102.732 162.205 107.296 162.245 111.849L162.405 118.689L162.485 122.104L162.525 123.817C162.535 124.401 162.525 124.925 162.795 125.328C163.045 125.731 163.525 125.963 164.025 126.255L165.496 127.101L168.447 128.793L174.33 132.208L180.193 135.653L183.124 137.376L184.595 138.242L186.065 139.018L185.285 139.421C185.315 139.169 185.385 138.958 185.395 138.676V137.829V136.147L185.385 132.772L185.375 126.023C185.385 121.55 185.465 116.977 185.435 112.585C185.365 112.111 184.985 111.819 184.495 111.537L183.064 110.661L180.213 108.898L174.49 105.382L162.995 98.4511Z" fill="#DA4C38"/>
<path d="M162.125 95.3282L162.185 82.0309L162.175 75.3822L162.165 72.0579C162.175 71.5038 162.125 70.9598 162.205 70.3655C162.275 69.7711 162.595 69.1667 163.065 68.7839C166.857 66.3662 170.599 64.15 174.371 61.8129L180.043 58.408L182.884 56.7055L184.305 55.8593L185.796 55.0735L186.536 54.6807L186.576 55.5269L186.666 57.2696L186.636 58.9822L186.576 62.4173L186.466 69.2775L186.316 76.1377L186.216 79.583L186.176 81.2955C186.176 81.8596 186.136 82.5346 185.786 83.1088C185.456 83.6931 184.865 84.0356 184.385 84.2975L182.904 85.1437L179.943 86.8461L174.02 90.241L162.215 97.1214L162.205 97.1314V97.1113L162.125 95.3282ZM162.125 95.3282L162.215 97.1214L162.195 97.1113L173.91 90.0798L179.733 86.5036L182.644 84.7105L184.105 83.8139C184.595 83.5218 185.025 83.2397 185.256 82.7965C185.496 82.3734 185.526 81.8496 185.506 81.2854L185.496 79.5729L185.476 76.1377V69.2675L185.506 62.3972L185.526 58.962L185.536 57.2495L185.466 55.5672L186.246 56.0205L184.805 56.7559L183.375 57.592L180.513 59.2642L174.801 62.5986C170.999 64.7947 167.087 66.9706 163.366 69.1768C162.965 69.4891 162.725 69.9122 162.645 70.4259C162.565 70.9296 162.595 71.5038 162.565 72.0478L162.485 75.3721L162.335 82.0208L162.125 95.3282Z" fill="#DA4C38"/>
<path d="M184.854 110.338L173.569 103.982L167.906 100.839L165.075 99.2772L163.654 98.4915L162.284 97.5949L161.943 97.3733L162.304 97.1617L174.069 90.2411L179.982 86.8362L182.943 85.1337L184.424 84.2875C184.874 84.0357 185.494 83.6226 186.244 83.6126C187.005 83.5924 187.655 83.9853 188.105 84.2472L189.586 85.1035L192.537 86.8059L198.44 90.2209L204.323 93.6662L207.264 95.3988L208.735 96.2652C209.225 96.5674 209.685 96.92 210.165 97.2423L210.536 97.4942L210.155 97.746C209.135 98.4109 208.094 98.9851 207.044 99.5593L203.893 101.282L197.6 104.727L191.337 108.233L188.205 109.986C187.685 110.268 187.175 110.62 186.575 110.721C185.954 110.862 185.354 110.64 184.854 110.338ZM184.854 110.338C185.364 110.63 185.964 110.842 186.565 110.721C187.155 110.62 187.655 110.258 188.175 109.976L191.287 108.182L197.51 104.606L203.702 100.97L206.794 99.1463C207.834 98.5519 208.865 97.9374 209.825 97.2625V97.7662C209.355 97.464 208.895 97.1416 208.405 96.8595L206.914 96.0335L203.923 94.3915L197.96 91.0772L192.017 87.7327L189.046 86.0605L187.555 85.2244C187.035 84.9221 186.665 84.7106 186.254 84.7207C185.854 84.7207 185.454 84.9423 184.934 85.2445L183.443 86.0806L180.462 87.7428L174.509 91.0671L162.554 97.6251L162.574 97.192L163.884 98.1087L165.275 98.9347L168.066 100.577L173.649 103.861L184.854 110.338Z" fill="#DA4C38"/>
<path d="M186.715 113.219C186.695 112.635 186.895 112 187.386 111.648C187.866 111.305 188.396 111.023 188.896 110.711L191.938 108.887L198.01 105.241L204.053 101.534L207.075 99.68C208.095 99.0756 209.045 98.4007 210.146 97.8768L210.496 97.7056L210.556 98.0984L210.696 98.9446C210.746 99.2569 210.726 99.5692 210.726 99.8412L210.736 101.554L210.746 104.979L210.756 111.839L210.726 118.699L210.706 122.124L210.696 123.837C210.666 124.371 210.786 125.036 210.396 125.781C210.196 126.134 209.886 126.396 209.596 126.567L208.855 127L207.385 127.856L204.443 129.579L198.551 133.024L192.628 136.409L189.667 138.101L188.186 138.947L187.446 139.371C187.306 139.441 187.236 139.512 187.005 139.592L186.595 139.703L186.285 139.784L186.265 139.471C186.185 138.353 186.245 137.265 186.265 136.177L186.345 132.893L186.495 126.335L186.715 113.219ZM186.715 113.219L186.655 126.335L186.665 132.893L186.675 136.177C186.685 137.265 186.655 138.373 186.775 139.441L186.445 139.209L186.855 139.089C186.895 139.089 187.055 138.978 187.165 138.907L187.896 138.464L189.346 137.577L192.258 135.794L198.08 132.228L203.933 128.713L206.854 126.96L208.315 126.083L209.045 125.65C209.236 125.529 209.376 125.408 209.456 125.257C209.626 124.975 209.606 124.431 209.616 123.847L209.646 122.134L209.706 118.709L209.816 111.849L209.976 104.989L210.066 101.564L210.106 99.8513C210.106 99.5591 210.136 99.2871 210.106 99.0353L209.996 98.1891L210.416 98.4107C209.366 98.8741 208.355 99.539 207.325 100.103L204.253 101.866L198.11 105.392L191.998 108.968L188.936 110.761C188.436 111.063 187.906 111.335 187.426 111.678C186.905 112 186.705 112.625 186.715 113.219Z" fill="#DA4C38"/>
<path d="M186.846 83.0279C186.566 74.0522 186.346 64.9355 186.176 55.7885L186.166 55.1841L186.676 55.3755L187.166 55.5568L187.567 55.7482L188.347 56.1411L189.868 56.947C190.878 57.4809 191.869 58.0551 192.869 58.6092L198.802 62.0242L204.694 65.5097C206.655 66.6984 208.596 67.8468 210.537 69.1765L210.757 69.3276V69.6097L210.827 83.3604C210.837 87.9439 210.897 92.5275 210.877 97.111V97.8665L210.237 97.4737L198.462 90.2508L186.846 83.0279ZM186.846 83.0279L198.842 89.8781L210.667 96.7484L210.027 97.1211C209.917 92.5375 209.897 87.954 209.827 83.3704L209.657 69.6198L209.877 70.0529C208.066 68.7836 206.085 67.5849 204.154 66.3962L198.292 62.8704L192.389 59.4151L189.417 57.7227L187.927 56.8966L187.186 56.5037L186.816 56.3224L186.506 56.1915L187.006 55.7784C187.006 64.7944 186.956 73.8306 186.846 83.0279Z" fill="#DA4C38"/>
<path d="M186.605 53.2902L186.665 39.8316L186.645 33.1024L186.635 29.7377L186.625 28.0554C186.605 27.4611 186.826 26.766 187.316 26.353C187.786 25.9299 188.286 25.6982 188.756 25.396L190.187 24.5195L193.048 22.7768L198.761 19.2913C202.593 17.0045 206.405 14.6876 210.266 12.4411L211.037 11.9878L211.077 12.8944C211.187 15.2215 211.047 17.478 211.037 19.7748L210.927 26.635L210.777 33.4852L210.686 36.9102L210.646 38.6228C210.626 39.1668 210.676 39.8216 210.356 40.4361C210.056 41.0506 209.436 41.383 208.966 41.6449L207.485 42.4911L204.524 44.1835L198.601 47.5683L192.708 51.0135L189.767 52.7361C188.786 53.3103 187.816 53.9047 186.786 54.3882H186.776V54.3781C186.726 54.0255 186.605 53.6629 186.605 53.2902ZM186.605 53.2902C186.605 53.6629 186.736 54.0155 186.796 54.3781H186.786C187.806 53.8845 188.766 53.27 189.747 52.6857L192.668 50.9329L198.521 47.4172L204.334 43.8511L207.245 42.068L208.696 41.1714C209.206 40.8692 209.626 40.6073 209.836 40.1641C210.046 39.7309 210.016 39.197 210.006 38.6127L209.996 36.9002L209.976 33.4751L209.966 26.6149C209.966 22.0515 210.056 17.4478 209.986 12.9247L210.797 13.378C206.925 15.5841 203.073 17.8507 199.211 20.0972L193.399 23.4114L190.487 25.0736L189.037 25.8996C188.556 26.1817 188.036 26.4335 187.666 26.7458C187.276 27.0682 187.106 27.5215 187.106 28.0554L187.066 29.7377L186.986 33.1024L186.826 39.8316L186.605 53.2902Z" fill="#DA4C38"/>
<path d="M193.118 1.23956L191.097 0.000488281H189.606L189.817 0.121373L192.768 1.83391L198.671 5.24891C202.632 7.47521 206.534 9.81232 210.546 11.958L198.941 4.78552L193.118 1.23956Z" fill="#DA4C38"/>
<path d="M210.326 0.000488281L210.456 5.0978L210.546 8.53295C210.566 9.68136 210.666 10.8096 210.546 11.958C210.726 10.8298 210.686 9.66121 210.716 8.52288L210.756 5.08773L210.796 0.000488281H210.326Z" fill="#DA4C38"/>
<path d="M207.524 10.5979L204.653 9.01631L198.91 5.84308L188.526 0.000308122H188.496L198.83 5.97404L204.493 9.29838L207.324 10.9706C208.135 11.4743 209.005 11.9276 209.755 12.4817C208.915 13.0156 208.045 13.5092 207.154 13.9827L204.163 15.6146L198.19 18.8785L192.247 22.2028L189.276 23.865L187.785 24.6911C187.265 24.9832 186.855 25.235 186.465 25.235C186.075 25.2552 185.714 25.0336 185.184 24.7314L183.703 23.8952L180.732 22.223L174.799 18.8886C170.988 16.7127 167.036 14.6778 163.284 12.4515L163.634 12.1694C163.844 12.0082 164.095 11.8773 164.355 11.7161L165.885 10.8195L168.937 9.02639L175.05 5.45021L181.192 1.92439L184.264 0.161488C184.364 0.111119 184.454 0.0506769 184.554 -0.00976562H184.474C184.394 0.0305294 184.314 0.0808981 184.244 0.121193L181.152 1.8438L174.969 5.2991L168.757 8.70403L165.645 10.4065L164.074 11.2628C163.824 11.4038 163.544 11.5347 163.284 11.7262L162.574 12.2701L162.264 12.5119L162.594 12.7537C163.534 13.4488 164.535 13.9726 165.505 14.5569L168.436 16.2896L174.309 19.7348L180.202 23.1397L183.153 24.8422L184.624 25.6984C185.064 25.9503 185.724 26.3835 186.495 26.3331C187.265 26.3029 187.835 25.8798 188.296 25.6279L189.776 24.7817L192.728 23.0893L198.63 19.6945L204.503 16.2493L207.444 14.5267C208.425 13.9625 209.405 13.3883 210.356 12.7235L210.656 12.5119L210.366 12.2903C209.465 11.5952 208.475 11.1519 207.524 10.5979Z" fill="#DA4C38"/>
<path d="M182.463 0.000488281L180.822 0.957494L174.69 4.54375L168.527 8.07963L165.445 9.84254C164.525 10.3563 163.615 10.9204 162.684 11.3637C162.654 11.2025 162.624 11.0514 162.604 10.9104C162.584 10.6988 162.614 10.3664 162.614 10.0944L162.654 8.38185L162.744 4.95677L162.844 0.000488281H161.944L161.954 4.95677L161.964 8.38185L161.974 10.0944C161.984 10.3966 161.954 10.6384 161.994 10.9909C162.044 11.3133 162.124 11.5752 162.174 11.8472L162.244 12.23L162.594 12.0588C163.695 11.5249 164.655 10.86 165.676 10.2556L168.707 8.40199L174.77 4.69485L180.862 1.03808L182.583 0.000488281H182.463Z" fill="#DA4C38"/>
<path d="M163.756 13.7511L175.091 20.4199L180.783 23.714L183.635 25.356L185.065 26.1821C185.555 26.4541 186.036 27.0081 186.126 27.6327C186.296 32.1155 186.346 36.4674 186.466 40.8898C186.516 45.3021 186.636 49.6741 186.616 54.1367V54.4087L186.386 54.5598L186.146 54.7109L186.116 54.7311H186.096C186.086 54.7311 186.046 54.7613 185.886 54.8016C185.836 54.8117 185.786 54.8218 185.686 54.8016C185.636 54.7915 185.586 54.7815 185.525 54.7512L185.505 54.7412L185.455 54.721L185.255 54.6203L184.855 54.4289C184.575 54.308 184.355 54.1468 184.105 54.0058L182.654 53.1294L179.753 51.3765L173.94 47.8608C170.058 45.5237 166.227 43.1161 162.365 40.7487L162.215 40.6581V40.4868L162.295 26.7361L162.255 12.9855V12.9653L162.265 12.9754L163.756 13.7511ZM163.756 13.7511L162.265 12.9956L162.275 12.9855L162.485 26.7361L162.815 40.4868L162.665 40.2249C166.577 42.4915 170.519 44.7279 174.42 47.0347L180.273 50.48L183.194 52.2026L184.655 53.0689C184.895 53.21 185.135 53.3812 185.385 53.4819L185.746 53.6633L185.926 53.7539L185.976 53.7741C185.976 53.7741 185.996 53.7842 185.976 53.7741C185.936 53.7539 185.886 53.7439 185.846 53.7338C185.766 53.7237 185.726 53.7338 185.706 53.7338C185.616 53.7539 185.646 53.7539 185.696 53.7338L185.646 53.7539L185.766 53.6733L185.535 54.0964C185.606 49.7446 185.535 45.3021 185.545 40.8998C185.565 36.5077 185.636 32.045 185.606 27.7234C185.525 26.7261 184.295 26.3433 183.415 25.7187L180.613 23.9961L175.011 20.5609L163.756 13.7511Z" fill="#DA4C38"/>
<path d="M163.215 42.0584L174.56 48.4351L180.253 51.5882L183.104 53.1597L184.525 53.9454L185.916 54.8218L186.266 55.0435L185.906 55.255L174.13 62.1757L168.208 65.5806L165.246 67.2831L163.766 68.1293C163.295 68.3912 162.745 68.784 161.965 68.8445C161.164 68.8949 160.534 68.4415 160.094 68.1998L158.613 67.3435L155.662 65.631L149.749 62.216L143.856 58.7607L140.915 57.028C139.935 56.4336 138.944 55.9199 137.994 55.2046L137.684 54.9629L137.984 54.7211C138.954 53.9253 140.025 53.4216 141.065 52.8373L144.207 51.1147L150.489 47.6695L156.742 44.1739L159.864 42.421C160.384 42.1491 160.884 41.7763 161.484 41.6655C162.115 41.5446 162.715 41.7663 163.215 42.0584ZM163.215 42.0584C162.705 41.7663 162.105 41.5547 161.514 41.6857C160.924 41.8065 160.434 42.1793 159.914 42.4613L156.812 44.2444L150.599 47.8206L144.417 51.4471L141.325 53.2604C140.305 53.8648 139.224 54.429 138.364 55.1946L138.354 54.711C139.254 55.3457 140.295 55.8594 141.275 56.4135L144.267 58.0656L150.239 61.3798L156.192 64.7243L159.163 66.3966L160.654 67.2327C161.184 67.5349 161.554 67.7867 161.925 67.7465C162.305 67.7364 162.745 67.4745 163.255 67.1924L164.746 66.3563L167.727 64.6941L173.69 61.3698L185.655 54.8017L185.645 55.2349L184.305 54.3383L182.904 53.5122L180.103 51.8601L174.49 48.566L163.215 42.0584Z" fill="#DA4C38"/>
<path d="M137.843 113.28C137.833 112.695 137.963 112.051 138.434 111.648C138.894 111.265 139.434 111.013 139.934 110.691L142.986 108.857L149.099 105.191L155.171 101.463L158.213 99.5996C159.233 98.9851 160.204 98.3303 161.304 97.7964L161.694 97.605L161.724 98.0382C161.764 98.6124 161.854 99.2067 161.854 99.7708L161.864 101.483L161.874 104.919L161.884 111.779L161.854 118.639L161.834 122.074L161.824 123.787C161.814 124.31 161.884 125.026 161.494 125.731C161.304 126.073 161.014 126.335 160.734 126.517L159.973 126.97L158.503 127.826L155.551 129.549L149.659 132.994L143.736 136.379L140.775 138.071C139.774 138.625 138.834 139.24 137.753 139.703L137.403 139.854L137.383 139.482C137.333 138.373 137.353 137.285 137.393 136.198L137.473 132.924L137.623 126.376L137.843 113.28ZM137.843 113.28L137.783 126.376L137.793 132.924L137.803 136.198C137.793 137.285 137.813 138.384 137.893 139.451L137.523 139.23C138.524 138.776 139.484 138.112 140.455 137.537L143.366 135.754L149.189 132.188L155.041 128.672L157.973 126.92L159.433 126.043L160.134 125.62C160.324 125.489 160.464 125.348 160.554 125.187C160.744 124.865 160.734 124.381 160.734 123.777L160.764 122.064L160.824 118.639L160.934 111.779L161.094 104.919L161.184 101.493L161.224 99.7809C161.234 99.2067 161.164 98.6627 161.144 98.0986L161.564 98.3404C160.504 98.8138 159.493 99.4586 158.453 100.033L155.361 101.806L149.179 105.352L143.026 108.948L139.954 110.751C139.454 111.064 138.904 111.315 138.444 111.688C137.973 112.051 137.843 112.695 137.843 113.28Z" fill="#DA4C38"/>
<path d="M161.534 96.97C160.494 96.5268 159.493 95.9526 158.513 95.3884L155.551 93.696L149.629 90.3113L143.726 86.8862L140.775 85.1736L139.304 84.3174C138.854 84.0353 138.213 83.7734 137.833 83.1287C137.453 82.4739 137.523 81.7687 137.503 81.2449L137.473 79.5323L137.433 76.1073L137.353 69.247L137.273 62.3868L137.233 58.9618C137.223 57.8133 137.173 56.6952 137.283 55.4863L137.353 54.7207L138.063 55.033C139.174 55.5165 140.104 56.1411 141.085 56.7153L144.006 58.4681L149.849 61.9839L155.691 65.4996L158.613 67.2625L160.063 68.149C160.504 68.4411 161.144 68.7232 161.514 69.3679C161.894 70.0227 161.794 70.7279 161.804 71.2517V72.9643L161.794 76.3893L161.774 83.2496L161.704 90.1098L161.674 93.5349C161.654 94.6732 161.674 95.8417 161.534 96.97ZM161.534 96.97C161.624 95.8216 161.544 94.6933 161.514 93.5449L161.424 90.1199L161.244 83.2596L161.104 76.3994L161.034 72.9743L161.004 71.2618C160.994 70.6674 161.014 70.1537 160.794 69.8011C160.584 69.4384 160.133 69.2068 159.623 68.9146L158.152 68.0583L155.211 66.3257L149.338 62.8502L143.466 59.3748L140.534 57.6421C139.554 57.0679 138.574 56.4433 137.593 56.0202L138.373 55.5568C138.253 56.6347 138.293 57.7932 138.303 58.9416L138.323 62.3667L138.353 69.2269L138.383 76.0871L138.393 79.5122V81.2247C138.393 81.8191 138.353 82.3228 138.574 82.6854C138.764 83.0582 139.224 83.2999 139.724 83.6122L141.185 84.4987L144.096 86.2818L149.919 89.8378L155.721 93.4341L158.623 95.2373C159.563 95.8619 160.494 96.4764 161.534 96.97Z" fill="#DA4C38"/>
<path d="M137.803 52.9277L137.863 39.59L137.853 32.9212L137.843 29.5868C137.853 29.0227 137.823 28.4988 137.853 27.8944C137.873 27.3101 138.183 26.6453 138.683 26.2826L150.008 19.3116L155.691 15.8966L158.532 14.1841C159.473 13.6099 160.423 13.0356 161.454 12.542L162.194 12.1895L162.234 13.0054L162.314 14.7482L162.284 16.4607L162.224 19.8858L162.114 26.7359L161.964 33.5861L161.874 37.0112L161.834 38.7237C161.834 39.2878 161.784 39.9628 161.434 40.537C161.093 41.1112 160.513 41.4436 160.033 41.7156L158.552 42.5618L155.591 44.2542L149.678 47.639L137.893 54.5093L137.883 54.5193V54.4992L137.803 52.9277ZM137.803 52.9277L137.903 54.5093L137.893 54.4992L149.588 47.4778L155.401 43.9117L158.312 42.1286L159.763 41.2321C160.253 40.9399 160.693 40.6579 160.923 40.2247C161.163 39.8016 161.203 39.2878 161.183 38.7237L161.173 37.0112L161.153 33.5861L161.143 26.7259L161.173 19.8757L161.193 16.4506L161.203 14.7381L161.143 13.0558L161.924 13.5192C160.953 13.9624 160.003 14.5266 159.042 15.0907L156.181 16.7629L150.459 20.1074L138.983 26.7057C138.103 27.2598 138.313 28.4989 138.253 29.5868L138.173 32.9212L138.013 39.59L137.803 52.9277Z" fill="#DA4C38"/>
<path d="M161.184 0.000488281C161.234 3.758 161.264 7.5155 161.354 11.273L150.179 4.78552L141.795 0.000488281H141.495L149.798 5.16832L161.574 12.3811L162.204 12.774V12.0185C162.224 8.00912 162.184 4.00984 162.164 0.000488281H161.184Z" fill="#DA4C38"/>
<path d="M158.603 10.5175L155.742 8.9359L150.019 5.76267L139.764 0.000488281H139.734L149.929 5.89363L155.571 9.20789L158.393 10.8701C159.203 11.3737 160.084 11.8271 160.844 12.3811C160.044 12.9654 159.133 13.4288 158.243 13.9224L155.251 15.5644L149.259 18.8485L143.296 22.1829L140.315 23.8551L138.824 24.6912C138.304 24.9834 137.883 25.2252 137.513 25.2151C137.333 25.2151 137.143 25.1546 136.933 25.0539L136.213 24.6509L134.722 23.8148L131.741 22.1426L125.788 18.788L119.815 15.4738L116.824 13.8217C115.973 13.3381 115.083 12.8949 114.293 12.3509C116.184 11.2126 118.104 10.1145 120.005 8.98627L126.128 5.41009L132.281 1.88428L135.362 0.121373C135.422 0.091152 135.492 0.050857 135.552 0.010562H135.472C135.432 0.0307095 135.382 0.0609308 135.342 0.0810783L132.241 1.80369L126.058 5.25898L119.835 8.66391C117.764 9.80225 115.673 10.9104 113.612 12.0789L113.242 12.2905L113.592 12.5725C114.513 13.318 115.523 13.8217 116.494 14.416L119.435 16.1487L125.328 19.604L131.24 23.0291L134.202 24.7416L135.682 25.5979C135.943 25.749 136.153 25.8699 136.453 26.0311C136.753 26.1822 137.123 26.303 137.513 26.303C138.304 26.303 138.894 25.8799 139.354 25.6281L140.835 24.7718L143.796 23.0694L149.719 19.6644L155.612 16.2091L158.553 14.4765C159.533 13.9023 160.534 13.3583 161.444 12.6027L161.704 12.3811L161.434 12.1796C160.524 11.4946 159.543 11.0615 158.603 10.5175Z" fill="#DA4C38"/>
<path d="M133.811 0.000488281L132.04 1.03808L125.907 4.63441L119.745 8.1703L116.663 9.94328C115.733 10.4671 114.812 11.0111 113.872 11.4745C113.822 11.3133 113.782 11.1622 113.782 11.0514L113.802 10.2153L113.842 8.50273L113.932 5.06758L114.032 0.000488281H113.122L113.132 5.05751L113.152 8.49266L113.162 10.2052L113.172 11.0917C113.212 11.4644 113.342 11.7163 113.402 11.9681L113.482 12.3207L113.812 12.1595C114.902 11.6155 115.883 10.9708 116.893 10.3563L119.925 8.49266L125.987 4.77544L132.08 1.1086L133.921 0.000488281H133.811V0.000488281Z" fill="#DA4C38"/>
<path d="M114.462 13.4489L125.998 20.2386L131.79 23.5932L134.692 25.2654L136.142 26.1015C136.382 26.2426 136.653 26.3937 136.873 26.6254C137.103 26.8571 137.263 27.1794 137.313 27.5018C137.473 32.0652 137.533 36.4876 137.643 40.9905L137.733 47.7198L137.783 51.0844L137.803 52.7667L137.813 53.6029C137.813 53.8849 137.743 54.2174 137.703 54.5196L137.613 55.2852L136.923 54.9225C136.412 54.6606 135.882 54.4088 135.382 54.1267L133.921 53.2503L131.01 51.4874L125.187 47.9716L119.385 44.4156L116.483 42.6326L115.033 41.736C114.572 41.4438 113.982 41.1517 113.632 40.5574C113.272 39.963 113.332 39.278 113.332 38.7441L113.342 37.0315L113.362 33.6065L113.412 26.7664C113.432 22.203 113.332 17.6396 113.442 13.0862V13.0762H113.452C113.792 13.1971 114.152 13.2676 114.462 13.4489ZM114.462 13.4489C114.142 13.2676 113.782 13.2172 113.442 13.0862L113.452 13.0762C113.402 17.6295 113.552 22.1929 113.592 26.7563L113.752 33.5964L113.832 37.0215L113.872 38.734C113.882 39.3183 113.872 39.8421 114.142 40.2451C114.392 40.648 114.863 40.8898 115.373 41.1819L116.843 42.0281L119.795 43.7205L125.688 47.1355L131.56 50.5807L134.492 52.3033L135.962 53.1697L137.443 53.9454L136.663 54.3483C136.693 54.0965 136.763 53.8749 136.763 53.6029V52.7667V51.0844L136.753 47.7198L136.743 40.9905L136.813 27.5824C136.763 27.0988 136.402 26.7865 135.922 26.5146L134.502 25.6381L131.65 23.8853L125.948 20.3796L114.462 13.4489Z" fill="#DA4C38"/>
<path d="M88.9297 52.7161L88.9897 39.4288L88.9697 32.7801L88.9597 29.4558C88.9697 28.9017 88.9197 28.3578 88.9997 27.7533C89.0698 27.159 89.4199 26.5646 89.8901 26.1919C93.6719 23.7843 97.4136 21.5479 101.175 19.2209L112.52 12.4211L113.271 11.9678L113.331 12.8442C113.371 13.4285 113.421 14.0228 113.441 14.6071L113.411 16.3196L113.351 19.7548L113.241 26.6251L113.091 33.4954L113.001 36.9305L112.961 38.6431C112.941 39.187 112.971 39.862 112.641 40.4664C112.3 41.091 111.68 41.363 111.22 41.635L109.739 42.4812L106.768 44.1735L100.835 47.5684L94.9324 51.0136L91.9811 52.7362C90.9906 53.3004 90.0402 53.9249 88.9797 54.3682L88.9697 54.3783V54.3682L88.9297 52.7161ZM88.9297 52.7161L88.9797 54.3682L88.9697 54.3581C90.0202 53.9048 90.9706 53.2701 91.9511 52.6959L94.8824 50.933L100.745 47.4072L106.578 43.8411L109.489 42.0581L110.95 41.1615C111.45 40.8593 111.92 40.6074 112.12 40.1843C112.34 39.7612 112.32 39.2273 112.32 38.6431L112.31 36.9204L112.3 33.4853V26.615L112.33 19.7447L112.35 16.3096L112.36 14.5869C112.35 14.0228 112.3 13.4788 112.27 12.9147L113.081 13.3479L101.666 20.0066C97.8638 22.2027 93.962 24.3786 90.2403 26.5949C89.8401 26.8971 89.58 27.3202 89.4899 27.8239C89.3999 28.3175 89.4299 28.8917 89.4099 29.4457L89.3299 32.7701L89.1798 39.4187L88.9297 52.7161Z" fill="#DA4C38"/>
<path d="M112.371 0.000488281C112.421 3.68748 112.451 7.3644 112.541 11.0514L112.371 10.9708C112.121 10.8499 111.871 10.729 111.611 10.5981L110.1 9.80224L107.099 8.16022L101.136 4.78552L95.1834 1.38059C94.4031 0.917199 93.6227 0.463881 92.8424 0.000488281H92.4922C93.3326 0.544471 94.183 1.08845 95.0333 1.63244L100.866 5.25898L106.769 8.77472L109.74 10.4873L111.241 11.3234C111.491 11.4644 111.751 11.5954 112.011 11.7263L112.411 11.9278L112.891 12.1192L113.392 12.3207V11.6961C113.412 7.79757 113.372 3.9091 113.352 0.010562H112.371V0.000488281Z" fill="#DA4C38"/>
<path d="M107.07 9.07693L101.407 5.944L90.8522 0.000488281H90.8322L101.347 6.07496L106.93 9.34893C108.66 10.3966 110.441 11.3737 112.122 12.4819C111.762 12.7236 111.402 12.9654 111.021 13.187L109.521 14.003L106.519 15.645L100.517 18.9291L94.5439 22.2635L91.5525 23.9357L90.0619 24.7718C89.5516 25.064 89.1314 25.2856 88.7413 25.2755C88.3611 25.2856 87.9609 25.0136 87.4407 24.7114L85.95 23.8753L82.9686 22.193L77.0059 18.8384L71.0232 15.5141L68.0218 13.862C67.1614 13.3885 66.301 12.915 65.5107 12.371L77.4761 5.3295L83.699 1.74325L86.7303 0.000488281H86.6403L83.6589 1.67273L77.3961 5.17839L64.8003 12.089L64.4102 12.3005L64.7703 12.5927C65.7007 13.3281 66.6912 13.8821 67.6716 14.4664L70.613 16.2091L76.5157 19.6644L82.4384 23.0895L85.3997 24.8021L86.8804 25.6583C87.3406 25.9001 87.9209 26.3433 88.7112 26.3433C89.4816 26.3534 90.1019 25.9505 90.5621 25.6885L92.0428 24.8424L95.0141 23.1399L100.947 19.735L106.85 16.2797L109.801 14.547L111.282 13.6806C111.772 13.3784 112.232 13.0258 112.712 12.7035L113.032 12.4819L112.702 12.2703C110.871 11.1018 108.95 10.1448 107.07 9.07693Z" fill="#DA4C38"/>
<path d="M84.8289 0.000488281L83.1381 0.987716L76.9953 4.58404L70.8225 8.13L67.7311 9.89291C66.8207 10.4067 65.9103 10.9406 64.9898 11.3939L64.9298 10.9607C64.8898 10.7089 64.9198 10.447 64.9198 10.1448L64.9598 8.43221L65.0499 4.99707L65.1599 0.000488281H64.2495L64.2595 4.98699L64.2695 8.42214L64.2795 10.1347C64.2795 10.4067 64.2695 10.719 64.3195 11.0312L64.4596 11.8774L64.5296 12.2804L64.8798 12.0991C65.9603 11.5551 66.9507 10.9104 67.9612 10.2959L70.9926 8.43221L77.0654 4.715L83.1681 1.04816L84.9389 0.000488281H84.8289Z" fill="#DA4C38"/>
<path d="M88.1796 26.9272C88.4597 35.8928 88.6798 45.0096 88.8499 54.1565L88.8599 54.7509L88.3596 54.5696L87.8594 54.3983L87.4592 54.2069C87.1991 54.086 86.929 53.9551 86.6789 53.8241L85.1582 53.0283C84.1477 52.4944 83.1573 51.9302 82.1568 51.3661L76.2241 47.9511L70.3314 44.4656C68.3705 43.2769 66.4296 42.1184 64.4987 40.7987L64.2786 40.6476V40.3656L64.1986 26.6149C64.1886 22.0313 64.1286 17.4478 64.1486 12.8642V12.0986L64.7889 12.4915L76.5642 19.7043L88.1796 26.9272ZM88.1796 26.9272L76.1841 20.077L64.3587 13.2067L64.999 12.834C65.109 17.4176 65.129 22.0011 65.1991 26.5847L65.3691 40.3354L65.149 39.8921C66.9699 41.1614 68.9408 42.3602 70.8716 43.5489L76.7243 47.0747L82.627 50.5199L85.5984 52.2022L87.0891 53.0283C87.3392 53.1693 87.5893 53.2902 87.8294 53.4211L88.1996 53.6025L88.4997 53.7334L88.0095 54.1565C88.0095 45.1607 88.0595 36.1144 88.1796 26.9272Z" fill="#DA4C38"/>
<path d="M63.4991 0C63.5491 3.75751 63.5891 7.51502 63.6691 11.2725L52.494 4.77496L44.1302 0H43.8301L52.1139 5.15776L63.8892 12.3706L64.5195 12.7634V12.0079C64.5495 8.00863 64.5095 3.99928 64.4895 0H63.4991Z" fill="#DA4C38"/>
<path d="M160.703 153.121L149.297 146.704L143.575 143.541L140.713 141.959C139.763 141.426 138.793 140.952 137.882 140.287L137.582 140.066L137.882 139.864C138.362 139.542 138.823 139.179 139.313 138.887L140.783 138.021L143.735 136.298L149.628 132.843L155.55 129.438L158.512 127.735L159.992 126.889C160.452 126.637 161.033 126.214 161.823 126.204C162.213 126.204 162.573 126.315 162.884 126.466C163.194 126.627 163.394 126.748 163.654 126.899L165.135 127.755L168.096 129.468L174.009 132.883L179.901 136.338L182.843 138.071C183.823 138.655 184.814 139.189 185.754 139.914L186.124 140.197L185.734 140.408L173.268 147.238L167.065 150.703L163.964 152.436C163.444 152.718 162.944 153.041 162.403 153.272C161.853 153.524 161.203 153.433 160.703 153.121ZM160.703 153.121C161.203 153.433 161.853 153.514 162.393 153.262C162.934 153.02 163.424 152.688 163.944 152.406L167.025 150.643L173.188 147.107L179.321 143.521L185.444 139.914L185.424 140.408C184.533 139.763 183.503 139.24 182.513 138.685L179.521 137.033L173.548 133.719L167.596 130.365L164.614 128.692L163.124 127.856L162.413 127.453C162.213 127.353 162.023 127.302 161.833 127.292C161.463 127.282 161.043 127.524 160.523 127.816L159.032 128.652L156.05 130.314L150.088 133.639L144.095 136.913L141.094 138.555L139.593 139.371C139.093 139.653 138.653 139.975 138.172 140.277V139.854C139.003 140.509 139.983 141.023 140.914 141.587L143.735 143.249L149.377 146.563L160.703 153.121Z" fill="#DA4C38"/>
<path d="M209.215 181.6L197.73 174.84L191.957 171.506L189.066 169.844L187.625 169.007C187.165 168.766 186.535 168.373 186.385 167.688C186.265 167.023 186.325 166.539 186.295 165.955L186.255 164.283L186.175 160.938L186.025 154.239L185.935 147.54L185.885 144.196L185.865 142.524C185.875 141.949 185.795 141.456 185.915 140.781L186.025 140.156L186.535 140.307C186.715 140.368 186.895 140.428 187.075 140.499L187.475 140.69C187.745 140.811 188.006 140.942 188.256 141.083L189.766 141.909L192.748 143.601L198.65 147.067C200.611 148.225 202.552 149.434 204.483 150.653C206.414 151.872 208.335 153.091 210.216 154.421L210.346 154.511V154.662L210.266 168.333L210.306 182.003V182.013H210.296C209.926 181.862 209.545 181.791 209.215 181.6ZM209.215 181.6C209.545 181.781 209.926 181.851 210.286 181.982L210.276 181.993L210.066 168.322L209.736 154.652L209.856 154.894C207.975 153.645 206.004 152.487 204.053 151.328L198.15 147.893L192.218 144.508L189.236 142.856L187.735 142.06L186.985 141.677L186.615 141.496C186.525 141.466 186.445 141.426 186.355 141.385L186.965 140.922C186.865 141.345 186.925 141.99 186.905 142.524V144.196L186.915 147.54L186.925 154.239L186.875 160.938L186.855 164.283L186.845 165.955C186.855 166.489 186.795 167.124 186.875 167.567C186.955 168.03 187.355 168.312 187.846 168.594L189.266 169.471L192.107 171.224L197.79 174.709L209.215 181.6Z" fill="#DA4C38"/>
<path d="M208.985 152.789L197.84 146.513L186.655 140.307L186.314 140.116L186.625 139.894C187.095 139.552 187.535 139.139 188.035 138.867L189.506 138L192.457 136.268L198.36 132.802L204.293 129.387L207.254 127.685L208.735 126.829C209.225 126.536 209.865 126.204 210.606 126.214C211.336 126.214 211.986 126.587 212.456 126.859L213.937 127.715L216.898 129.428L222.821 132.853L228.724 136.308L231.665 138.051L233.136 138.917L234.576 139.864L234.997 140.136L234.566 140.378C230.355 142.755 226.093 145.042 221.861 147.379L215.528 150.915L212.366 152.688C211.846 152.99 211.286 153.282 210.676 153.312C210.085 153.333 209.495 153.091 208.985 152.789ZM208.985 152.789C209.505 153.091 210.095 153.323 210.696 153.282C211.306 153.252 211.846 152.95 212.366 152.648L215.508 150.844L221.801 147.228C225.963 144.77 230.154 142.352 234.296 139.854L234.286 140.368C230.415 138.031 226.313 135.955 222.371 133.679L216.408 130.324L213.427 128.642L211.936 127.806C211.426 127.504 211.036 127.302 210.616 127.292C210.195 127.272 209.765 127.463 209.285 127.745L207.794 128.581L204.813 130.254L198.84 133.588L192.837 136.872L189.836 138.514L188.335 139.34C187.825 139.602 187.425 139.975 186.955 140.287L186.935 139.874L192.427 143.138L197.94 146.382L208.985 152.789Z" fill="#DA4C38"/>
<path d="M210.775 180.421L210.835 167.114L210.815 160.455L210.795 157.13C210.805 156.576 210.755 156.032 210.835 155.428C210.915 154.834 211.246 154.239 211.716 153.867C215.498 151.429 219.249 149.223 223.021 146.885L228.694 143.481L231.535 141.778L232.956 140.922L234.456 140.136L235.207 139.743L235.237 140.61L235.287 142.342L235.257 144.055L235.197 147.49L235.086 154.36L234.936 161.23L234.846 164.666L234.806 166.378C234.806 166.942 234.766 167.617 234.426 168.191C234.096 168.776 233.516 169.118 233.026 169.39L231.545 170.236L228.584 171.939L222.661 175.334L210.855 182.214L210.835 182.224V182.204L210.775 180.421ZM210.775 180.421L210.865 182.204L210.845 182.194L222.561 175.162L228.383 171.586L231.295 169.793L232.755 168.897C233.246 168.604 233.676 168.312 233.906 167.879C234.146 167.446 234.176 166.932 234.156 166.358L234.146 164.645L234.136 161.21V154.34C234.136 149.767 234.216 145.163 234.166 140.62L234.946 141.093L233.506 141.828L232.075 142.665L229.214 144.337L223.491 147.671C219.689 149.867 215.768 152.043 212.056 154.259C211.656 154.572 211.396 154.995 211.306 155.499C211.216 155.992 211.246 156.566 211.216 157.12L211.136 160.445L210.985 167.103L210.775 180.421Z" fill="#DA4C38"/>
<path d="M241.001 192.53L240.07 193.044L237.149 194.645C236.169 195.109 235.198 195.985 234.298 195.542C230.516 193.356 226.654 191.039 222.832 188.793L217.06 185.448L214.169 183.776C213.468 183.373 212.748 182.97 212.078 182.537L223.163 176.18L229.055 172.755L231.997 171.033L233.467 170.166C233.968 169.874 234.418 169.562 234.888 169.532C235.348 169.481 235.798 169.773 236.309 170.055L237.799 170.881L240.791 172.524L241.001 172.634V172.191L240.981 172.181L238.039 170.448L236.569 169.582C236.109 169.32 235.558 168.897 234.848 168.937C234.158 168.978 233.637 169.35 233.147 169.602L231.646 170.418L228.655 172.05L222.682 175.334C218.721 177.56 214.729 179.726 210.777 182.013L210.057 182.426L210.747 182.93C211.697 183.625 212.668 184.128 213.638 184.683L216.55 186.314L222.362 189.588C226.274 191.734 230.106 193.89 234.098 196.015C234.688 196.277 235.408 196.136 235.908 195.844L237.359 194.998L240.24 193.306L241.011 192.852V192.53H241.001Z" fill="#DA4C38"/>
<path d="M241.001 171.012L235.918 167.869C235.938 163.356 235.888 158.853 235.868 154.34L235.798 141.496L236.479 141.849L237.949 142.715L240.891 144.448L240.991 144.508V143.279L238.489 141.778L237.019 140.902L235.488 140.086L234.678 139.653L234.688 140.58L234.858 154.34C234.928 158.924 234.958 163.518 235.058 168.101L235.068 168.343L235.268 168.454L240.981 171.748V171.012H241.001Z" fill="#DA4C38"/>
<path d="M241.001 143.028C239.38 142.06 237.719 141.144 236.159 140.116C236.289 139.995 236.419 139.885 236.539 139.794C236.719 139.663 237.009 139.522 237.249 139.391L238.75 138.565L241.001 137.336V136.54L238.46 138.031L236.989 138.897C236.739 139.058 236.509 139.159 236.229 139.371C235.978 139.572 235.798 139.784 235.588 139.955L235.328 140.177L235.618 140.358C237.389 141.466 239.21 142.393 241.011 143.4V143.028H241.001Z" fill="#DA4C38"/>
<path d="M241 97.8567L237.688 95.9931L229.004 91.1073C223.432 87.9139 217.679 84.9522 212.177 81.6984C213.357 80.8119 214.688 80.0665 215.988 79.3009L220.48 76.6615L229.475 71.3829L238.509 66.1848L241.01 64.7443V64.6436L238.449 66.074L229.355 71.1613L220.21 76.178L215.638 78.6864C214.118 79.5225 212.567 80.2881 211.146 81.4063L210.666 81.779L211.166 82.1215C212.557 83.0684 213.988 83.9348 215.418 84.7608L219.71 87.2994L228.304 92.3464L236.928 97.3329L240.99 99.68V97.8567H241Z" fill="#DA4C38"/>
<path d="M176.26 145.183L193.157 155.126L201.641 160.032L205.883 162.48L208.004 163.699C208.344 163.9 208.745 164.112 209.085 164.434C209.435 164.756 209.695 165.22 209.785 165.683C210.055 172.392 210.115 178.86 210.285 185.458L210.415 195.31L210.485 200.236L210.515 202.694L210.535 203.923C210.535 204.336 210.425 204.83 210.375 205.273L210.235 206.381L209.235 205.857C208.484 205.464 207.714 205.092 206.994 204.679L204.863 203.399L200.611 200.83L192.107 195.693L183.633 190.505L179.401 187.896L177.29 186.596C176.63 186.173 175.76 185.75 175.239 184.894C174.709 184.037 174.789 183.03 174.799 182.244L174.819 179.746L174.849 174.749L174.919 164.756C174.939 158.098 174.799 151.439 174.959 144.78V144.77H174.969C175.399 144.911 175.87 144.951 176.26 145.183ZM176.26 145.183C175.86 144.961 175.399 144.921 174.959 144.79L174.969 144.78C174.889 151.439 175.109 158.098 175.159 164.756L175.389 174.739L175.499 179.736L175.559 182.234C175.569 183.091 175.559 183.856 175.95 184.43C176.32 185.025 177.02 185.367 177.75 185.79L179.901 187.029L184.203 189.508L192.807 194.484L201.371 199.521L205.653 202.039L207.794 203.298L209.945 204.437L208.805 205.021C208.845 204.658 208.955 204.346 208.965 203.933V202.704L208.955 200.236L208.945 195.31L208.925 185.458C208.945 178.93 209.055 172.241 209.015 165.834C208.915 165.139 208.354 164.706 207.634 164.303L205.543 163.014L201.371 160.445L193.017 155.317L176.26 145.183Z" fill="#DA4C38"/>
<path d="M174.99 140.61L175.08 121.188L175.06 111.476L175.04 106.621C175.06 105.805 174.98 105.019 175.09 104.143C175.19 103.276 175.661 102.39 176.351 101.836C181.883 98.3 187.356 95.0562 192.858 91.6614L201.142 86.6849L205.284 84.1967L207.355 82.9577L209.536 81.8092L210.616 81.2451L210.677 82.4842L210.807 85.0328L210.767 87.5412L210.687 92.5579L210.526 102.581L210.306 112.605L210.176 117.621L210.116 120.13C210.106 120.956 210.056 121.943 209.556 122.779C209.066 123.625 208.215 124.129 207.515 124.522L205.354 125.761L201.022 128.239L192.368 133.206L175.13 143.259L175.11 143.269V143.239L174.99 140.61ZM174.99 140.61L175.13 143.229L175.11 143.219L192.218 132.944L200.722 127.715L204.974 125.106L207.105 123.797C207.825 123.374 208.455 122.95 208.796 122.316C209.146 121.691 209.186 120.936 209.166 120.1L209.156 117.591L209.136 112.574L209.126 102.541L209.176 92.5076L209.196 87.4908L209.216 84.9825L209.116 82.5245L210.256 83.1894L208.145 84.2672L206.054 85.4862L201.882 87.924L193.529 92.7896C187.976 95.9931 182.254 99.1663 176.831 102.4C176.251 102.853 175.891 103.478 175.771 104.223C175.651 104.949 175.691 105.795 175.651 106.591L175.53 111.446L175.3 121.157L174.99 140.61Z" fill="#DA4C38"/>
<path d="M183.665 148.286L179.593 145.878L177.562 144.679L176.131 143.692L193.079 134.394L201.783 129.539L206.135 127.111L208.306 125.892C209.066 125.459 209.647 125.126 210.237 125.136C210.827 125.126 211.377 125.428 212.138 125.882L214.309 127.101L218.651 129.539L227.335 134.424L236.049 139.26L240.411 141.657L241.011 141.99V140.831L240.911 140.771L236.619 138.242L228.025 133.205L219.401 128.219L215.089 125.731L212.928 124.481C212.268 124.099 211.317 123.514 210.207 123.555C209.106 123.565 208.206 124.169 207.536 124.542L205.375 125.781L201.053 128.259L192.419 133.226L175.241 143.329L174.721 143.632L175.221 143.954L177.222 145.254L179.293 146.392L183.435 148.679L191.708 153.262L208.186 162.54L191.819 153.071L183.665 148.286Z" fill="#DA4C38"/>
<path d="M241.001 145.747C240.74 145.898 240.49 146.059 240.23 146.2L235.708 148.86L226.664 154.169L217.58 159.397L213.038 162.006C212.277 162.429 211.547 162.953 210.677 163.104C209.806 163.275 208.936 162.973 208.186 162.54C208.926 162.983 209.806 163.296 210.687 163.134C211.567 162.993 212.307 162.469 213.068 162.067L217.64 159.508L226.784 154.39L235.978 149.353L240.57 146.835C240.71 146.754 240.85 146.674 240.991 146.603V145.747H241.001Z" fill="#DA4C38"/>
<path d="M211.917 164.464C212.617 163.97 213.397 163.578 214.128 163.134L218.6 160.515L227.534 155.287L236.508 150.139L241 147.57V146.754C240.88 146.825 240.77 146.895 240.65 146.966L236.238 149.676L227.404 155.085L218.53 160.414L214.098 163.084C213.367 163.537 212.607 163.94 211.897 164.444C211.176 164.968 210.876 165.884 210.906 166.741C210.886 165.884 211.196 164.968 211.917 164.464Z" fill="#DA4C38"/>
<path d="M241.001 186.405L240.33 186.808L236.058 189.377L227.514 194.504L219.011 199.712L214.759 202.321L212.638 203.621L211.577 204.276C211.407 204.366 211.187 204.528 211.127 204.538L210.977 204.578C210.867 203.168 210.887 201.727 210.877 200.286L210.857 195.491L210.837 185.911L210.927 166.751L210.607 185.911L210.387 195.491L210.267 200.276C210.227 201.878 210.146 203.46 210.267 205.092L210.297 205.545L210.747 205.424L211.347 205.273C211.687 205.162 211.787 205.041 211.987 204.951L213.068 204.336L215.229 203.097L219.551 200.619L228.205 195.673L236.809 190.646L241.011 188.188V186.405H241.001Z" fill="#DA4C38"/>
<path d="M240.999 139.844L228.614 132.651L211.096 122.638L228.053 133.215L240.999 141.153V139.844Z" fill="#DA4C38"/>
<path d="M211.596 83.9144L212.686 84.4887L214.857 85.6975L219.189 88.1656L227.813 93.2125L236.367 98.3602C237.908 99.3071 239.469 100.264 240.999 101.231V99.3776C239.719 98.5919 238.448 97.8263 237.158 97.0405L228.544 91.9432L219.87 86.9567C218.419 86.1407 216.968 85.3147 215.498 84.5189L213.277 83.3503L212.146 82.7862L211.566 82.5041L210.856 82.2422L210.115 81.9702L210.135 82.8567C210.385 96.2246 210.706 109.542 211.116 122.648C211.276 109.542 211.356 96.6477 211.356 83.7936L211.596 83.9144Z" fill="#DA4C38"/>
<path d="M211.297 49.7239L211.417 44.8079L211.477 42.3499C211.487 41.5843 211.737 40.9094 212.297 40.446C212.837 39.9826 213.608 39.6199 214.308 39.2069L216.429 37.9981L220.681 35.5703L229.175 30.7248C233.117 28.4381 237.048 26.1413 240.99 23.8545V22.0815C236.818 24.5597 232.656 27.058 228.484 29.5361L220.141 34.6334L215.969 37.1821L213.878 38.4615C213.197 38.9047 212.467 39.2472 211.777 39.8617C211.066 40.4661 210.736 41.4735 210.766 42.3398L210.776 44.7978L210.796 49.7138L210.826 59.5458L210.736 79.2098L211.056 59.5559L211.297 49.7239Z" fill="#DA4C38"/>
<path d="M241 62.7598L240.9 62.8202L236.648 65.4293L228.154 70.6374L219.61 75.765L215.338 78.3338C213.918 79.18 212.517 80.0665 211.026 80.7918C210.936 80.2579 210.746 79.7542 210.746 79.2102C210.746 79.7542 210.926 80.278 211.006 80.8018V80.8119L211.016 80.8018C212.517 80.0866 213.938 79.2203 215.368 78.3841L219.67 75.8657L228.274 70.8389L236.918 65.8927L240.99 63.5657V62.7598H241Z" fill="#DA4C38"/>
<path d="M241 15.9266L228.774 8.37128L220.271 3.1833L216.019 0.584277L215.068 0H212.787C212.957 0.110811 213.137 0.211549 213.297 0.302212L215.448 1.55136L219.75 4.04965L228.364 9.04622C232.586 11.4236 236.768 13.8715 240.99 16.249V15.9266H241Z" fill="#DA4C38"/>
<path d="M236.878 14.9497L241 17.3774V16.6823L237.108 14.5366L228.724 9.90271L212.017 0.503906L228.614 10.0941L236.878 14.9497Z" fill="#DA4C38"/>
<path d="M240.999 21.6485C240.919 21.6888 240.839 21.7391 240.759 21.7794L236.397 24.1669L227.663 28.9419L218.979 33.7974L214.637 36.2252L212.466 37.434C211.706 37.8672 211.106 38.2299 210.536 38.2299C209.955 38.2601 209.435 37.9377 208.665 37.4945L206.494 36.2756L202.162 33.8377L193.488 28.962C187.915 25.7787 182.153 22.807 176.67 19.5632L177.18 19.1502C177.481 18.9084 177.861 18.717 178.231 18.4954L180.462 17.1858L184.924 14.5666L193.848 9.33836L202.822 4.19067L207.304 1.61179C208.054 1.18869 208.785 0.7253 209.555 0.352571C210.336 -0.0503788 211.286 0.040285 212.016 0.503677C211.286 0.0302112 210.335 -0.0705262 209.545 0.32235C208.765 0.695079 208.034 1.1484 207.274 1.56142L202.762 4.07986L193.728 9.12681L184.654 14.0932L180.112 16.5713L177.841 17.8104C177.47 18.0219 177.07 18.2033 176.68 18.4853L175.65 19.2711L175.189 19.6236L175.67 19.9762C177.05 20.9836 178.501 21.7593 179.922 22.6156L184.204 25.1441L192.787 30.1809L201.401 35.1574L205.703 37.6456L207.854 38.8947C208.495 39.2675 209.455 39.892 210.586 39.8215C211.706 39.7711 212.547 39.1667 213.217 38.794L215.378 37.5549L219.69 35.0768L228.314 30.1205L236.898 25.0836L240.979 22.6861V21.6485H240.999Z" fill="#DA4C38"/>
<path d="M207.034 0C206.944 0.0503687 206.854 0.100737 206.774 0.151106L202.292 2.77028L193.328 8.00863L184.324 13.1664L179.822 15.7453C178.481 16.4907 177.151 17.3168 175.8 17.9716C175.75 17.7399 175.71 17.5182 175.69 17.3168C175.66 17.0045 175.7 16.5209 175.7 16.1281L175.76 13.6298L175.89 8.62313L176.08 0H174.729L174.74 8.60298L174.76 13.6096L174.77 16.118C174.78 16.5512 174.75 16.9138 174.8 17.4276C174.87 17.891 174.99 18.2839 175.06 18.6767L175.16 19.2308L175.66 18.989C177.271 18.2133 178.671 17.2463 180.172 16.3598L184.594 13.6499L193.448 8.23025L202.352 2.89117L206.804 0.221622C206.914 0.151106 207.034 0.08059 207.144 0.0100737H207.034V0Z" fill="#DA4C38"/>
<path d="M177.372 21.4471L193.929 31.1884L202.243 36.0037L206.405 38.4012L208.496 39.6101C209.216 40.013 209.916 40.8089 210.037 41.7356C210.287 48.2936 210.357 54.6401 210.537 61.0974C210.617 67.5547 210.787 73.9313 210.757 80.439V80.8419L210.427 81.0535L210.077 81.2852L210.037 81.3154H210.017C209.997 81.3154 209.937 81.3658 209.706 81.4161C209.636 81.4262 209.556 81.4363 209.416 81.4161C209.336 81.4061 209.266 81.3859 209.186 81.3456L209.156 81.3355L209.086 81.3053L208.796 81.1643L208.216 80.8822C207.806 80.7009 207.485 80.4793 207.115 80.2677L204.994 78.9884L200.752 76.4196L192.268 71.2819C186.606 67.877 181.003 64.3512 175.361 60.8858L175.141 60.7549V60.5131L175.261 40.426L175.211 20.339V20.3188L175.231 20.3289L177.372 21.4471ZM177.372 21.4471L175.191 20.339L175.211 20.3289L175.521 40.4059L176.001 60.4829L175.781 60.1001C181.504 63.4143 187.256 66.6682 192.949 70.0429L201.493 75.0797L205.765 77.5982L207.896 78.8574C208.246 79.0589 208.606 79.3107 208.956 79.4618L209.486 79.7237L209.746 79.8547L209.816 79.8849C209.816 79.8849 209.836 79.895 209.816 79.8849C209.746 79.8547 209.686 79.8345 209.626 79.8245C209.516 79.8043 209.456 79.8144 209.416 79.8245C209.286 79.8547 209.326 79.8547 209.396 79.8144L209.326 79.8446L209.496 79.7338L209.156 80.3483C209.266 73.9918 209.156 67.4942 209.176 61.0772C209.196 54.6703 209.296 48.1425 209.266 41.8263C209.146 40.3757 207.345 39.8015 206.065 38.9049L201.973 36.3865L193.789 31.3597L177.372 21.4471Z" fill="#DA4C38"/>
<path d="M176.591 62.81L193.169 72.1282L201.482 76.7319L205.644 79.0288L207.725 80.1772L209.756 81.4565L210.276 81.7789L209.746 82.0912L192.548 92.2052L183.904 97.1716L179.582 99.6497L177.421 100.889C176.731 101.262 175.931 101.846 174.79 101.926C173.62 102.007 172.699 101.342 172.059 100.979L169.898 99.7303L165.586 97.232L156.952 92.2354L148.348 87.1885L144.056 84.6499C142.635 83.7836 141.175 83.028 139.794 81.9904L139.334 81.6479L139.774 81.2853C141.195 80.1268 142.756 79.3813 144.276 78.5351L148.868 76.0167L158.043 70.9899L167.177 65.8825L171.739 63.3238C172.509 62.9208 173.229 62.3869 174.1 62.2157C174.97 62.0444 175.851 62.3668 176.591 62.81ZM176.591 62.81C175.841 62.3769 174.96 62.0746 174.1 62.266C173.239 62.4474 172.529 62.9813 171.759 63.3943L167.227 66.0034L158.153 71.2216L149.128 76.5204L144.616 79.1698C143.116 80.0563 141.545 80.8823 140.284 81.9904L140.264 81.2853C141.575 82.2221 143.096 82.9575 144.536 83.7735L148.908 86.1811L157.632 91.0266L166.326 95.9224L170.668 98.3704L172.839 99.5893C173.62 100.033 174.15 100.395 174.7 100.345C175.25 100.335 175.901 99.9519 176.651 99.5389L178.832 98.32L183.184 95.8922L191.898 91.0367L209.386 81.4465L209.366 82.0811L207.405 80.7614L205.354 79.5526L201.262 77.1349L193.058 72.3196L176.591 62.81Z" fill="#DA4C38"/>
<path d="M139.523 166.831C139.503 165.975 139.693 165.028 140.384 164.444C141.064 163.89 141.854 163.517 142.585 163.043L147.047 160.364L155.971 155.005L164.845 149.565L169.277 146.845C170.768 145.948 172.188 144.991 173.799 144.206L174.369 143.934L174.419 144.558C174.479 145.404 174.609 146.261 174.609 147.097L174.619 149.605L174.639 154.612L174.649 164.635L174.599 174.659L174.569 179.665L174.559 182.174C174.539 182.949 174.639 183.987 174.079 185.004C173.799 185.498 173.379 185.881 172.969 186.153L171.858 186.807L169.707 188.067L165.405 190.585L156.801 195.612L148.147 200.558L143.815 203.036C142.355 203.842 140.984 204.749 139.403 205.414L138.893 205.625L138.863 205.081C138.783 203.469 138.813 201.868 138.873 200.286L138.993 195.511L139.213 185.951L139.523 166.831ZM139.523 166.831L139.433 185.951L139.453 195.511L139.473 200.296C139.463 201.888 139.483 203.49 139.603 205.051L139.063 204.729C140.534 204.064 141.924 203.087 143.345 202.251L147.597 199.641L156.101 194.433L164.655 189.306L168.927 186.737L171.068 185.458L172.088 184.833C172.358 184.642 172.568 184.44 172.698 184.208C172.969 183.735 172.959 183.03 172.969 182.153L173.009 179.645L173.089 174.638L173.259 164.615L173.489 154.592L173.619 149.585L173.679 147.077C173.699 146.24 173.599 145.435 173.559 144.619L174.169 144.971C172.628 145.656 171.138 146.603 169.627 147.449L165.115 150.038L156.081 155.216L147.097 160.475L142.605 163.104C141.874 163.567 141.074 163.93 140.394 164.474C139.723 165.038 139.513 165.975 139.523 166.831Z" fill="#DA4C38"/>
<path d="M174.13 143.007C172.619 142.362 171.138 141.516 169.718 140.7L165.396 138.232L156.742 133.286L148.118 128.279L143.806 125.771L141.655 124.522C140.995 124.119 140.064 123.726 139.504 122.779C138.944 121.832 139.054 120.804 139.024 120.029L138.974 117.52L138.914 112.514L138.794 102.5L138.673 92.4872L138.613 87.4805C138.603 85.8083 138.523 84.1662 138.693 82.4134L138.794 81.2852L139.824 81.7385C141.445 82.4436 142.805 83.3503 144.236 84.1965L148.508 86.7653L157.052 91.9029L165.596 97.0405L169.868 99.6093L171.999 100.909C172.649 101.332 173.569 101.745 174.12 102.692C174.67 103.659 174.53 104.676 174.55 105.442L174.54 107.95L174.53 112.957L174.5 122.97L174.4 132.984L174.35 137.99C174.31 139.663 174.33 141.365 174.13 143.007ZM174.13 143.007C174.26 141.325 174.15 139.683 174.1 138L173.97 132.994L173.709 122.98L173.509 112.967L173.409 107.96L173.359 105.452C173.339 104.586 173.379 103.83 173.049 103.327C172.749 102.793 172.079 102.46 171.338 102.027L169.187 100.778L164.895 98.2493L156.322 93.1823L147.748 88.1152L143.456 85.5766C142.025 84.7404 140.594 83.8237 139.164 83.2092L140.304 82.5343C140.134 84.1058 140.194 85.8083 140.194 87.4704L140.214 92.4771L140.264 102.5L140.314 112.514L140.334 117.52L140.324 120.029C140.324 120.905 140.274 121.641 140.584 122.164C140.864 122.708 141.535 123.061 142.275 123.514L144.406 124.814L148.658 127.413L157.162 132.611L165.636 137.869L169.868 140.499C171.248 141.395 172.609 142.282 174.13 143.007Z" fill="#DA4C38"/>
<path d="M139.463 78.676L139.553 59.1934L139.533 49.4521L139.513 44.5865C139.523 43.7604 139.483 42.9948 139.533 42.1184C139.563 41.2621 140.013 40.2951 140.743 39.7712L157.291 29.5867L165.595 24.5901L169.747 22.0918C171.117 21.2456 172.508 20.4196 174.009 19.6942L175.099 19.1704L175.149 20.3692L175.259 22.9178L175.219 25.4161L175.139 30.4228L174.979 40.4361L174.759 50.4494L174.629 55.456L174.569 57.9543C174.569 58.7804 174.499 59.7676 173.989 60.5937C173.488 61.4298 172.648 61.9234 171.938 62.3062L169.777 63.5453L165.455 66.0234L156.811 70.9696L139.603 81.0031L139.583 81.0131V80.993L139.463 78.676ZM139.463 78.676L139.613 80.993L139.593 80.9829L156.671 70.7279L165.165 65.5197L169.407 62.9106L171.528 61.6111C172.248 61.188 172.878 60.7649 173.228 60.1403C173.588 59.5158 173.628 58.7703 173.608 57.9443L173.598 55.4359L173.578 50.4292L173.568 40.4159L173.618 30.4026L173.638 25.396L173.648 22.8876L173.568 20.4296L174.709 21.1046C173.288 21.7594 171.898 22.5753 170.507 23.4014L166.325 25.8493L157.961 30.7451L141.204 40.3757C139.923 41.1815 140.233 42.9847 140.133 44.5865L140.013 49.4521L139.783 59.1934L139.463 78.676Z" fill="#DA4C38"/>
<path d="M173.599 0C173.679 5.94351 173.729 11.8971 173.86 17.8406L157.542 8.36121L142.895 0H142.655L156.982 8.92534L174.19 19.4625L175.12 20.0266L175.13 18.9185C175.15 12.6123 175.08 6.30617 175.06 0H173.599Z" fill="#DA4C38"/>
<path d="M140.634 0.413064L157.292 9.78165L165.656 14.4156L169.838 16.7225C171.218 17.5284 172.659 18.163 173.98 19.1603L174.37 19.4524L173.99 19.7748C172.659 20.8829 171.198 21.6586 169.768 22.5048L165.466 25.0333L156.862 30.0903L148.208 35.0668L143.886 37.555L141.725 38.794C141.055 39.1668 140.194 39.7813 139.044 39.7913C138.473 39.7913 137.943 39.6201 137.493 39.3985C137.053 39.1668 136.743 38.9854 136.372 38.7638L134.211 37.5147L129.889 35.0164L121.255 30.0198L112.652 24.9729L108.36 22.4343C106.939 21.5579 105.468 20.8225 104.118 19.7345L103.607 19.3215L104.148 19.0092C107.159 17.2967 110.21 15.6849 113.232 14.0227L122.326 9.05634L131.37 4.00939L135.892 1.49095C136.653 1.08801 137.383 0.624613 138.173 0.261958C138.954 -0.140992 139.904 -0.0503283 140.634 0.413064ZM140.634 0.413064C139.894 -0.0402546 138.944 -0.120845 138.163 0.272032C137.383 0.634687 136.653 1.10815 135.902 1.53125L131.41 4.11013L122.426 9.26789L113.482 14.4962C110.511 16.249 107.499 17.9615 104.558 19.7547L104.588 19.0293C105.858 20.0065 107.399 20.7318 108.84 21.5478L113.212 23.9554L121.936 28.7908L130.63 33.6867L134.982 36.1346L137.153 37.3535L138.203 37.9478C138.503 38.099 138.773 38.1795 139.044 38.1896C139.584 38.2098 140.204 37.8572 140.954 37.424L143.135 36.2051L147.487 33.7672L156.201 28.9016L164.955 24.1065L169.327 21.709C170.788 20.9131 172.289 20.1576 173.549 19.1603V19.7748C172.359 18.8077 170.878 18.0925 169.538 17.2564L165.426 14.8286L157.182 9.98312L140.634 0.413064Z" fill="#DA4C38"/>
<path d="M135.962 0.000255924C135.812 0.0808459 135.672 0.17151 135.532 0.262173L131.05 2.88135L122.086 8.12977L113.082 13.2976L108.58 15.8765C107.229 16.6421 105.888 17.448 104.508 18.1229C104.438 17.8812 104.368 17.6595 104.368 17.4883L104.398 16.2694L104.458 13.761L104.588 8.74427L104.788 -0.0198916H103.427L103.447 8.72412L103.467 13.7408L103.477 16.2492L103.487 17.5386C103.547 18.0826 103.737 18.4453 103.827 18.818L103.947 19.3318L104.428 19.09C106.018 18.3043 107.449 17.3573 108.93 16.4507L113.352 13.7308L122.206 8.30102L131.11 2.95186L135.562 0.272247C135.732 0.161436 135.902 0.0606984 136.072 -0.0400391H135.962V0.000255924Z" fill="#DA4C38"/>
<path d="M105.377 21.0036L122.225 30.9162L130.689 35.812L134.921 38.2499L137.042 39.4688C137.392 39.6703 137.792 39.8919 138.112 40.2344C138.453 40.5669 138.683 41.0504 138.753 41.5138C138.983 48.1826 139.073 54.6399 139.233 61.218L139.363 71.0399L139.433 75.9559L139.463 78.4139L139.483 79.6429C139.483 80.0559 139.383 80.5395 139.333 80.9827L139.203 82.1009L138.192 81.5771C137.442 81.1842 136.662 80.8316 135.941 80.4085L133.81 79.1292L129.559 76.5604L121.045 71.4227L112.561 66.2348L108.329 63.6257L106.208 62.3261C105.538 61.903 104.667 61.4699 104.157 60.6136C103.627 59.7473 103.717 58.75 103.717 57.9642L103.737 55.4659L103.767 50.4693L103.837 40.4762C103.857 33.8174 103.727 27.1486 103.877 20.4899V20.4798H103.887C104.387 20.6511 104.917 20.7417 105.377 21.0036ZM105.377 21.0036C104.917 20.7417 104.387 20.6611 103.897 20.4798L103.907 20.4697C103.837 27.1285 104.047 33.7872 104.107 40.456L104.337 50.4492L104.457 55.4458L104.517 57.9441C104.527 58.8003 104.517 59.5659 104.907 60.1502C105.277 60.7446 105.968 61.0871 106.698 61.5102L108.849 62.7492L113.161 65.2274L121.765 70.2139L130.339 75.2508L134.621 77.7692L136.762 79.0284L138.923 80.1567L137.782 80.751C137.822 80.3884 137.922 80.0559 137.932 79.6631V78.4341V75.9761L137.922 71.0601L137.902 61.2382L138.012 41.6548C137.942 40.9597 137.412 40.4963 136.712 40.0934L134.631 38.814L130.469 36.2452L122.135 31.1278L105.377 21.0036Z" fill="#DA4C38"/>
<path d="M68.0703 78.3638L68.1603 58.9517L68.1403 49.2406L68.1203 44.3851C68.1403 43.5792 68.0603 42.7834 68.1804 41.907C68.2904 41.0406 68.7906 40.1642 69.481 39.6303C75.0035 36.1145 80.466 32.8507 85.9685 29.4457L102.536 19.5029L103.627 18.8481L103.707 20.1376C103.757 20.9939 103.847 21.8602 103.867 22.7064L103.827 25.2148L103.747 30.2315L103.577 40.2649L103.356 50.2984L103.226 55.3151L103.166 57.8235C103.136 58.6193 103.186 59.5965 102.696 60.4829C102.206 61.3896 101.285 61.7925 100.615 62.1854L98.4442 63.4245L94.1122 65.9026L85.4482 70.8589L76.8243 75.8857L72.5123 78.4041C71.0717 79.2302 69.671 80.1469 68.1303 80.7815L68.1103 80.7916V80.7715L68.0703 78.3638ZM68.0703 78.3638L68.1403 80.7815L68.1203 80.7715C69.651 80.1167 71.0317 79.1798 72.4723 78.3437L76.7543 75.7749L85.3082 70.6272L93.8221 65.409L98.084 62.7999L100.215 61.5004C100.945 61.0571 101.636 60.6945 101.926 60.0699C102.246 59.4554 102.216 58.6797 102.216 57.8235L102.206 55.3151L102.186 50.2984V40.2649L102.236 30.2315L102.256 25.2148L102.276 22.7064C102.256 21.8803 102.186 21.0845 102.146 20.2685L103.326 20.9032L86.6388 30.6143C81.0863 33.8177 75.3937 37.001 69.9512 40.2347C69.3609 40.678 68.9807 41.2925 68.8507 42.0278C68.7206 42.7531 68.7706 43.5893 68.7306 44.3952L68.6106 49.2507L68.3905 58.9618L68.0703 78.3638Z" fill="#DA4C38"/>
<path d="M102.307 0C102.387 5.8327 102.437 11.6755 102.567 17.5082L102.317 17.3873C101.947 17.206 101.577 17.0347 101.216 16.8332L99.0153 15.6748L94.6333 13.2772L85.8994 8.36121L77.2054 3.38478C75.3045 2.25652 73.3936 1.14841 71.5028 0H71.2026C73.1035 1.28944 75.0444 2.51844 76.9853 3.74743L85.4992 9.04622L94.1131 14.1738L98.4551 16.6821L100.656 17.9011C101.016 18.1025 101.396 18.2939 101.777 18.4954L102.357 18.7875L103.067 19.0595L103.798 19.3416V18.435C103.828 12.29 103.758 6.14499 103.737 0H102.307V0Z" fill="#DA4C38"/>
<path d="M69.8411 0.785546L86.3086 10.0534L94.5723 14.6269C97.3136 16.1782 100.125 17.5785 102.806 19.2809L103.286 19.5832L102.816 19.9055C102.116 20.379 101.435 20.8827 100.725 21.336L98.5742 22.5952L94.2622 25.1237L85.6383 30.1807L76.9743 35.1572L72.6423 37.6454L70.4714 38.8845C69.791 39.2673 68.9006 39.8616 67.7701 39.8515C66.6196 39.8415 65.7592 39.1967 65.0889 38.8442L62.9279 37.595L58.6059 35.0967L49.952 30.0901L41.328 25.0431L37.0261 22.5045C35.5954 21.6583 34.1448 20.8524 32.7841 19.7746L32.2539 19.3515L32.8242 19.0392L51.2326 8.92513L60.3867 3.7976L64.9688 1.23887C65.7292 0.825841 66.4795 0.31208 67.3499 0.171048C68.2303 0.0199416 69.1007 0.342302 69.8411 0.785546ZM69.8411 0.785546C69.0907 0.352375 68.2203 0.0400891 67.3499 0.201269C66.4795 0.342302 65.7492 0.866136 64.9888 1.28923L60.4368 3.90841L51.3426 9.13668L33.2644 19.7846L33.3044 19.0492C34.595 20.0264 36.0756 20.8021 37.5363 21.5979L41.9183 24.0055L50.6523 28.8611L59.3663 33.7569L63.7183 36.2048L65.8993 37.4338C66.6696 37.867 67.2499 38.27 67.8001 38.2498C68.3704 38.27 68.9707 37.9476 69.721 37.5144L71.902 36.2955L76.264 33.8577L84.988 28.992L93.762 24.1969L98.144 21.7994L100.335 20.6006C101.045 20.1775 101.716 19.7141 102.416 19.2709L102.426 19.8954C99.8448 18.1325 97.0435 16.6416 94.3522 15.0097L86.1985 10.2246L69.8411 0.785546Z" fill="#DA4C38"/>
<path d="M64.4192 0C64.3192 0.0604425 64.2091 0.120885 64.1091 0.181327L59.617 2.81058L50.6429 8.059L41.6188 13.2369L37.1067 15.8259C35.7761 16.5814 34.4555 17.3671 33.0949 18.032L33.0149 17.3772C32.9649 17.0045 32.9949 16.6318 33.0049 16.1885L33.0649 13.6801L33.195 8.6735L33.3951 0H32.0444L32.0544 8.66342L32.0744 13.6801L32.0845 16.1885C32.0945 16.5814 32.0644 17.0448 32.1445 17.4981L32.3446 18.7372L32.4446 19.3214L32.9649 19.0595C34.5456 18.2738 35.9862 17.3268 37.4769 16.4303L41.9089 13.7104L50.783 8.28062L59.6971 2.92139L64.1591 0.24177C64.2591 0.151106 64.3892 0.08059 64.5293 0H64.4192Z" fill="#DA4C38"/>
<path d="M66.9807 40.7082C67.3909 53.8041 67.711 67.1215 67.9611 80.4894L67.9811 81.3658L67.2508 81.1039L66.5305 80.842L65.9502 80.57C65.57 80.3887 65.1799 80.1973 64.8097 80.0059L62.5887 78.8373C61.108 78.0516 59.6673 77.2255 58.2067 76.4095L49.5327 71.423L40.9288 66.3257C38.0675 64.583 35.2262 62.9007 32.4149 60.9665L32.0847 60.7449V60.3218L31.9747 40.2347C31.9547 33.5357 31.8646 26.8467 31.9047 20.1477L31.9147 19.0396L32.8451 19.6037L50.0229 30.1408L66.9807 40.7082ZM66.9807 40.7082L49.4627 30.705L32.1948 20.6715L33.1252 20.1275C33.2853 26.8266 33.3153 33.5155 33.4154 40.2146L33.6655 60.3016L33.3353 59.6569C35.9965 61.5205 38.8779 63.2633 41.6991 65.0061L50.253 70.1537L58.867 75.1906L63.199 77.6486L65.3699 78.8575C65.7301 79.0589 66.1003 79.2403 66.4604 79.4317L67.0007 79.7037L67.4409 79.8951L66.7306 80.4894C66.7406 67.3331 66.8106 54.1264 66.9807 40.7082Z" fill="#DA4C38"/>
<path d="M30.9141 0C30.9941 5.94351 31.0442 11.887 31.1742 17.8305L14.8568 8.35114L0.24011 0H0L14.2965 8.90519L31.5044 19.4524L32.4248 20.0165L32.4348 18.9084C32.4648 12.6023 32.3948 6.30617 32.3648 0H30.9141Z" fill="#DA4C38"/>
<path d="M172.918 225.027L156.261 215.659L147.897 211.035L143.715 208.728C142.324 207.942 140.904 207.257 139.573 206.28L139.133 205.958L139.573 205.656C140.263 205.182 140.944 204.658 141.654 204.225L143.805 202.966L148.107 200.448L156.721 195.401L165.375 190.434L169.707 187.956L171.868 186.717C172.538 186.344 173.388 185.73 174.549 185.72C175.109 185.72 175.649 185.881 176.1 186.103C176.56 186.344 176.85 186.516 177.23 186.737L179.391 187.986L183.713 190.485L192.347 195.481L200.951 200.528L205.243 203.067C206.674 203.923 208.124 204.709 209.495 205.756L210.035 206.169L209.465 206.482L191.267 216.455L182.202 221.512L177.67 224.04C176.91 224.443 176.18 224.917 175.379 225.269C174.589 225.622 173.649 225.491 172.918 225.027ZM172.918 225.027C173.659 225.481 174.599 225.602 175.389 225.229C176.17 224.876 176.9 224.393 177.66 223.98L182.162 221.401L191.167 216.233L200.121 210.995L209.065 205.726L209.035 206.452C207.724 205.505 206.233 204.749 204.773 203.943L200.401 201.536L191.677 196.7L182.983 191.804L178.631 189.356L176.46 188.137L175.419 187.553C175.119 187.402 174.849 187.321 174.579 187.321C174.039 187.311 173.418 187.664 172.658 188.097L170.477 189.316L166.125 191.744L157.411 196.599L148.657 201.384L144.275 203.772L142.084 204.971C141.364 205.374 140.704 205.857 140.013 206.3V205.686C141.234 206.643 142.664 207.398 144.025 208.214L148.137 210.642L156.381 215.478L172.918 225.027Z" fill="#DA4C38"/>
<path d="M240.999 264.95L227.113 256.558L218.819 251.461L214.677 248.902L212.606 247.623C211.896 247.21 211.306 246.797 211.186 246.122C211.076 245.487 211.166 244.551 211.146 243.775L211.166 241.327L211.196 236.431L211.266 226.65L211.246 216.868L211.236 211.982L211.226 209.534C211.236 209.131 211.216 208.678 211.216 208.255L211.326 208.305L212.416 208.859L214.607 210.018L218.969 212.425L227.633 217.372L236.257 222.388C237.848 223.335 239.439 224.282 241.009 225.249V224.061C239.629 223.164 238.238 222.288 236.847 221.401C234.026 219.628 231.195 217.865 228.333 216.163L219.71 211.096L215.358 208.628L213.147 207.429C212.786 207.227 212.406 207.036 212.006 206.855L211.426 206.573C211.166 206.472 210.896 206.381 210.635 206.301L209.895 206.069L209.745 206.975C209.575 207.963 209.695 208.678 209.675 209.524L209.705 211.972L209.775 216.868L209.915 226.65L210.135 236.431L210.245 241.327L210.305 243.775C210.355 244.621 210.265 245.336 210.435 246.303C210.655 247.301 211.586 247.875 212.246 248.227L214.357 249.446L218.579 251.874L227.003 256.75L241.009 264.99V264.95H240.999Z" fill="#DA4C38"/>
<path d="M241 223.124L227.274 215.176L219.22 210.441L211.677 205.958C212.187 205.585 212.667 205.192 213.247 204.89L215.438 203.691L219.82 201.294L228.584 196.489L237.308 191.613L241 189.548V187.805L240.93 187.845L236.598 190.334L227.944 195.33L219.32 200.387L215.008 202.916L212.857 204.185C212.127 204.588 211.486 205.192 210.796 205.686L210.336 206.019L210.826 206.291L227.164 215.357L241 223.154V223.124Z" fill="#DA4C38"/>
</g>
<defs>
<clipPath id="clip0_4302_16813">
<rect width="241" height="265" fill="white"/>
</clipPath>
</defs>
</svg>
