<svg width="58" height="70" viewBox="0 0 58 70" fill="none" xmlns="http://www.w3.org/2000/svg">
<path d="M38.2849 70.0001L0 47.817L19.7969 36.3147L58 58.4978L38.2849 70.0001Z" fill="#E0E1E2"/>
<path d="M38.2849 64.4132L0 42.2301L19.7969 30.7278L58 52.9109L38.2849 64.4132Z" fill="#CFDBE0"/>
<path d="M38.2849 70.0002V64.4133L0 42.2302V47.8171L38.2849 70.0002Z" fill="#B3C0C6"/>
<path d="M58.0002 58.4977V52.9109L38.2852 64.4132V70.0001L58.0002 58.4977Z" fill="#B3C0C6"/>
<path d="M49.5736 52.6644L19.6328 6.65496L23.6413 4.35449L53.582 50.2817L49.5736 52.6644Z" fill="#E0E1E2"/>
<path d="M49.5736 21.6901L19.6328 4.35446L23.6413 0L53.582 17.3357L49.5736 21.6901Z" fill="#CFDBE0"/>
<path d="M49.5736 52.6644V21.6902L19.6328 4.35449V35.2465L49.5736 52.6644Z" fill="#B3C0C6"/>
<path d="M53.5817 50.2817V17.3357L49.5732 21.6902V52.6643L53.5817 50.2817Z" fill="#CFDBE0"/>
<path d="M21.7602 13.4741L18.7334 11.7488L21.7602 10.0234L24.787 11.7488L21.7602 13.4741Z" fill="#F2D738"/>
<path d="M18.7334 11.7488V40.9976L21.7602 42.8051V13.4741L18.7334 11.7488Z" fill="#E2C033"/>
<path d="M24.7866 40.9976V11.7488L21.7598 13.4741V42.8051L24.7866 40.9976Z" fill="#D6B929"/>
<path d="M28.059 17.1714L25.0322 15.4461L28.059 13.7207L31.0858 15.4461L28.059 17.1714Z" fill="#F2D738"/>
<path d="M25.0322 15.446V44.777L28.059 46.5024V17.1714L25.0322 15.446Z" fill="#E2C033"/>
<path d="M31.0854 44.777V15.446L28.0586 17.1714V46.5024L31.0854 44.777Z" fill="#D6B929"/>
<path d="M34.3579 20.8684L31.3311 19.1431L34.3579 17.4177L37.3028 19.1431L34.3579 20.8684Z" fill="#F2D738"/>
<path d="M31.3311 19.1431V48.4741L34.3579 50.1994V20.8684L31.3311 19.1431Z" fill="#E2C033"/>
<path d="M37.3024 48.4741V19.1431L34.3574 20.8684V50.1994L37.3024 48.4741Z" fill="#D6B929"/>
<path d="M40.5759 24.5657L37.6309 22.8403L40.5759 21.115L43.6026 22.8403L40.5759 24.5657Z" fill="#F2D738"/>
<path d="M37.6309 22.8403V52.1713L40.5759 53.8967V24.5657L37.6309 22.8403Z" fill="#E2C033"/>
<path d="M43.603 52.1713V22.8403L40.5762 24.5657V53.8967L43.603 52.1713Z" fill="#D6B929"/>
</svg>
