<svg width="234" height="88" viewBox="0 0 234 88" fill="none" xmlns="http://www.w3.org/2000/svg">
<path d="M121.877 62.3514L117.71 58.1772L113.567 62.3514L117.71 71.0421L121.877 62.3514Z" fill="#020203"/>
<path d="M117.71 34.2085C116.106 34.2085 114.796 35.5211 114.796 37.1271C114.796 38.7332 116.106 40.0458 117.71 40.0458C119.313 40.0458 120.624 38.7332 120.624 37.1271C120.624 35.5211 119.313 34.2085 117.71 34.2085Z" fill="#020203"/>
<path d="M121.421 49.0302L117.71 45.3126L113.998 49.0302C113.811 48.5248 111.329 41.7825 111.329 37.3637C111.329 31.4286 117.254 28.1105 117.71 27.8658C118.166 28.1105 124.091 31.4204 124.091 37.3637C124.115 41.758 121.608 48.4921 121.421 49.0302ZM117.71 21.1807C116.831 21.6372 105.289 27.7354 105.289 37.4697C105.289 45.7854 112.069 58.4384 112.069 58.4384L117.677 52.7968L123.285 58.4384C123.285 58.4384 130.065 45.7854 130.065 37.4697C130.098 27.7354 118.589 21.6372 117.71 21.1807Z" fill="#020203"/>
<path d="M130.13 25.4363L125.882 21.1806L130.13 16.9575L134.371 21.1806L130.13 25.4363Z" fill="#020203"/>
<path d="M90.1014 25.5425C90.1014 26.423 89.7026 26.9611 89.0026 26.9611C88.3108 26.9611 87.9038 26.3985 87.9038 25.5425H84.3226C84.4284 28.1677 85.9504 29.9531 89.0515 29.9531C91.9084 29.9531 93.5606 28.135 93.6745 25.5425H90.1014Z" fill="#020203"/>
<path d="M82.5157 43.3068V30.9229H86.6586V36.6705C86.6586 36.964 86.6342 37.282 86.5772 37.5836H86.7643L91.2735 30.9229H95.2536V43.3068H91.1107V37.502C91.1107 37.233 91.1351 36.964 91.1921 36.7031H90.9805L86.4713 43.3068H82.5157Z" fill="#020203"/>
<path d="M73.945 39.777C75.4671 39.777 76.4519 38.603 76.4519 37.1273C76.4519 35.6272 75.4345 34.4533 73.945 34.4533C72.4474 34.4533 71.4381 35.6272 71.4381 37.1273C71.43 38.6275 72.4718 39.777 73.945 39.777ZM73.945 30.6297C77.9007 30.6297 80.8064 33.4097 80.8064 37.16C80.8064 40.8531 77.8681 43.6332 73.945 43.6332C70.0464 43.6332 67.1081 40.8531 67.1081 37.16C67.1325 33.3853 70.0464 30.5971 73.945 30.6297Z" fill="#020203"/>
<path d="M62.135 30.9229C62.135 30.9229 58.6595 35.4394 58.5293 35.6025C58.4479 35.684 58.3665 35.8145 58.3421 35.9205H58.1549C58.098 35.8144 58.0491 35.6758 57.9677 35.6025C57.7236 35.309 54.1505 30.9229 54.1505 30.9229H50.8947V43.3068H54.8993V38.1135C54.8993 37.82 54.8749 37.502 54.8179 37.2004H55.0051L58.2364 40.8936H58.3992L61.3619 37.2004H61.549C61.4676 37.4939 61.4433 37.7874 61.4676 38.1135V43.3068H65.4721V30.9229H62.135Z" fill="#020203"/>
<path d="M23.7666 56.4898C21.0156 56.4898 19.4121 53.9462 19.4121 51.0601C20.0795 49.3725 22.1062 48.011 23.8155 48.011C26.3223 48.011 27.9257 49.56 27.9257 52.2341C27.9257 54.6718 26.1107 56.4898 23.7666 56.4898ZM16.9296 50.1226V50.1796C16.9296 54.8593 19.2819 58.5769 23.7666 58.5769C27.9095 58.5769 30.4164 55.3403 30.4164 52.1037C30.4164 48.3616 28.0153 45.9239 24.3852 45.9239C22.3015 45.9239 20.1121 47.0735 19.3145 48.8426H19.2087C19.2657 48.6551 19.3145 48.492 19.3389 48.3045C19.5505 45.6549 20.5923 43.5189 22.6516 42.7933C23.962 42.3367 25.2399 42.1492 26.2003 41.9372C27.2421 41.6927 28.3084 41.4563 28.9514 41.2688L28.2595 39.1816C27.1119 39.4996 26.0456 39.7442 24.255 40.0947C23.376 40.2252 22.5214 40.4698 21.6912 40.7877C18.3947 42.1248 16.9296 44.913 16.9296 50.1226Z" fill="#020203"/>
<path d="M34.5755 54.6472H34.4697C34.5512 54.4026 34.5755 54.1417 34.5755 53.8727V45.7934H32.1175V58.1773H34.3314L41.3799 49.2664H41.5102C41.4288 49.5354 41.4044 49.8045 41.3799 50.0654V58.1447H43.8624V45.7607H41.6485C41.6567 45.7689 34.5755 54.6472 34.5755 54.6472Z" fill="#020203"/>
<path d="M53.247 51.8102V51.7532C54.712 51.2477 55.412 50.2857 55.412 48.8345C55.412 46.7719 53.7272 45.4348 50.7645 45.4348C48.9739 45.4104 47.2158 45.9729 45.767 47.0409L46.7519 48.81C47.7937 47.9785 49.1041 47.5301 50.4389 47.4975C52.0668 47.4975 52.9458 48.166 52.9458 49.2666C52.9458 50.2531 52.1726 50.9542 50.9435 50.9542H48.9901V52.8782H51.0738C52.5958 52.8782 53.3691 53.3837 53.3691 54.4273C53.3691 55.6338 52.14 56.4572 50.3006 56.4572C48.9087 56.4002 47.5739 55.9518 46.4832 55.0957L45.4984 56.8893C46.5647 57.8758 48.4367 58.5769 50.5691 58.5769C53.5318 58.5769 55.8026 57.0279 55.8026 54.7289C55.8108 53.2043 54.8748 51.9977 53.247 51.8102Z" fill="#020203"/>
<path d="M66.6279 50.8481H60.0026V45.769H57.5201V58.153H60.0026V52.7722H66.6279V58.153H69.0778V45.769H66.6279V50.8481Z" fill="#020203"/>
<path d="M73.3835 50.9298C73.7009 49.0302 75.0927 47.5301 76.9322 47.5301C79.146 47.5301 80.2448 49.0302 80.432 50.9298H73.3835ZM76.8263 45.443C73.1962 45.443 70.8196 48.3047 70.8196 52.0793C70.8196 55.7969 73.1963 58.577 77.5263 58.577C79.6099 58.577 81.4006 57.9329 82.6784 56.8894L81.6936 55.0958C80.5215 55.9763 79.0727 56.4573 77.5832 56.4573C74.8891 56.4573 73.5787 54.9898 73.3345 52.8212H82.7842C82.8087 52.5522 82.8412 52.3157 82.8412 52.0467C82.8331 48.2802 81.018 45.4186 76.8263 45.443Z" fill="#020203"/>
<path d="M91.3223 56.4085C88.8155 56.4085 86.9678 54.5089 86.9678 51.8348C86.9678 49.5358 88.4329 47.5302 91.184 47.5302C92.4374 47.5302 93.6908 47.8808 95.1396 48.7857L96.157 46.9677C94.692 45.9241 92.9257 45.3616 91.1351 45.386C87.155 45.386 84.4853 48.1987 84.4853 51.9652C84.4853 55.6258 87.1306 58.5444 91.1595 58.5444C93.1373 58.5444 94.8466 57.9819 96.157 56.9139L95.1722 55.1203C94.049 55.9845 92.7142 56.4411 91.3223 56.4085Z" fill="#020203"/>
<path d="M147.982 29.0815V43.2513H143.526V34.3534L141.438 35.218L140.101 31.4245L145.058 29.0815H147.982Z" fill="#E8481E"/>
<path d="M151.24 36.3338C151.24 35.3854 151.407 34.465 151.741 33.6003C152.075 32.7355 152.549 31.9546 153.189 31.2852C153.829 30.6157 154.609 30.0579 155.556 29.6394C156.503 29.2211 157.589 29.0259 158.786 29.0259C159.984 29.0259 161.07 29.2211 162.017 29.6394C162.963 30.0579 163.743 30.5877 164.384 31.2573C165.024 31.9267 165.497 32.7078 165.832 33.5723C166.166 34.4371 166.333 35.3575 166.333 36.3059C166.333 37.2542 166.166 38.1748 165.832 39.0394C165.497 39.9041 165.024 40.6852 164.384 41.3546C163.743 42.024 162.963 42.554 162.017 42.9723C161.07 43.3908 160.012 43.586 158.814 43.586C157.617 43.586 156.558 43.3908 155.612 42.9723C154.665 42.554 153.885 41.9962 153.245 41.3267C152.604 40.6573 152.131 39.8762 151.797 39.0116C151.462 38.1469 151.295 37.2265 151.295 36.2781L151.24 36.3338ZM156.531 38.5652C157.088 39.1509 157.84 39.4579 158.786 39.4579C159.817 39.4579 160.596 39.1509 161.098 38.5652C161.599 37.9795 161.85 37.2265 161.85 36.3338C161.85 35.3297 161.571 34.5486 161.014 34.0187C160.457 33.4887 159.705 33.2097 158.759 33.2097C157.84 33.2097 157.088 33.4887 156.531 34.0465C155.974 34.6045 155.695 35.3575 155.695 36.3338C155.695 37.2265 155.974 37.9795 156.531 38.5652Z" fill="#E8481E"/>
<path d="M180.229 34.8275L180.173 35.3853C180.006 37.031 179.783 38.3699 179.505 39.4298C179.226 40.4898 178.837 41.3266 178.335 41.9402C177.834 42.5539 177.221 42.9722 176.497 43.1954C175.773 43.4187 174.882 43.5302 173.852 43.5302L173.49 39.4578C173.796 39.4857 174.103 39.4298 174.409 39.2903C174.715 39.1509 174.994 38.9 175.244 38.5373C175.495 38.1747 175.69 37.6726 175.857 37.031C176.024 36.3896 176.135 35.5805 176.191 34.6044L176.386 30.6992H186.662V43.2512H182.484V34.8832L180.229 34.8275Z" fill="#E8481E"/>
<path d="M200.669 42.2194C200.028 42.6935 199.277 43.0562 198.413 43.2793C197.55 43.5024 196.687 43.614 195.796 43.614C194.765 43.614 193.819 43.4465 192.983 43.1398C192.148 42.833 191.452 42.3866 190.867 41.8009C190.282 41.2151 189.836 40.5178 189.502 39.709C189.168 38.9001 189.001 38.0074 189.001 37.0311C189.001 36.1107 189.168 35.246 189.502 34.4371C189.836 33.6282 190.282 32.9309 190.867 32.3172C191.452 31.7036 192.175 31.2294 193.011 30.8947C193.846 30.56 194.793 30.3926 195.824 30.3926C196.631 30.3926 197.411 30.5321 198.135 30.8111C198.859 31.0899 199.499 31.4804 200.056 32.0103C200.613 32.5404 201.059 33.154 201.393 33.8793C201.727 34.6045 201.894 35.4134 201.894 36.3059C201.894 36.7801 201.866 37.1706 201.838 37.4775C201.811 37.7843 201.755 38.091 201.671 38.37H193.373C193.568 38.9558 193.93 39.402 194.459 39.681C194.988 39.96 195.601 40.0993 196.297 40.0993C197.021 40.0993 197.661 39.9878 198.218 39.7926C198.775 39.5974 199.221 39.402 199.555 39.2068L200.697 42.1635L200.669 42.2194ZM195.573 33.9072C194.877 33.9072 194.348 34.0465 193.986 34.3535C193.623 34.6602 193.345 35.0787 193.15 35.6365H197.661C197.661 35.218 197.494 34.8276 197.16 34.465C196.826 34.1024 196.325 33.9072 195.656 33.9072H195.573Z" fill="#E8481E"/>
<path d="M214.425 30.6992V34.8832H210.805V43.2512H206.628V34.8832H203.008V30.6992H214.425Z" fill="#E8481E"/>
<path d="M152.075 56.3342C151.546 57.0317 150.85 57.5616 149.987 57.9242C149.123 58.2868 148.204 58.4543 147.23 58.4543C146.227 58.4543 145.308 58.2868 144.501 57.9801C143.693 57.6732 142.997 57.2269 142.412 56.6412C141.827 56.0554 141.382 55.3581 141.048 54.5491C140.714 53.7402 140.546 52.8477 140.546 51.8714C140.546 50.951 140.714 50.0863 141.02 49.2774C141.326 48.4685 141.772 47.771 142.329 47.1853C142.886 46.5996 143.554 46.1254 144.334 45.7907C145.113 45.456 145.977 45.2886 146.896 45.2886C147.898 45.2886 148.817 45.4001 149.653 45.6512C150.488 45.9023 151.212 46.3207 151.797 46.9065L150.766 48.6637C150.237 48.1895 149.68 47.8548 149.068 47.6595C148.455 47.4643 147.842 47.3527 147.202 47.3527C146.645 47.3527 146.116 47.4643 145.587 47.6874C145.058 47.9105 144.612 48.2175 144.222 48.6078C143.832 48.9984 143.526 49.4726 143.303 50.0304C143.081 50.5884 142.969 51.2021 142.969 51.8714C142.969 52.5687 143.081 53.1824 143.331 53.7402C143.582 54.2982 143.916 54.7724 144.334 55.1628C144.751 55.5533 145.225 55.8601 145.782 56.0554C146.339 56.2506 146.923 56.3622 147.536 56.3622C148.288 56.3622 148.984 56.2227 149.597 55.9159C150.209 55.6092 150.739 55.2186 151.156 54.7444L152.214 56.3622L152.075 56.3342Z" fill="#E8481E"/>
<path d="M161.376 45.6789C161.905 45.6789 162.573 45.651 163.353 45.6231C164.133 45.5953 164.996 45.5674 165.915 45.5674C167.669 45.5674 169.006 45.8184 169.925 46.3206C170.844 46.8225 171.317 47.6315 171.317 48.7751C171.317 49.5283 171.095 50.1697 170.649 50.6997C170.204 51.2296 169.591 51.5365 168.839 51.6481V51.7038C169.842 51.8992 170.594 52.2339 171.067 52.736C171.54 53.2379 171.791 53.8795 171.791 54.6606C171.791 55.8599 171.317 56.7525 170.371 57.3662C169.424 57.9799 167.976 58.2866 165.999 58.2866C165.219 58.2866 164.411 58.2587 163.548 58.231C162.685 58.203 161.961 58.1751 161.376 58.1751V45.6231V45.6789ZM165.999 47.241C165.497 47.241 165.024 47.241 164.578 47.2689C164.133 47.2967 163.771 47.3246 163.492 47.3525V51.0903H166.305C167.057 51.0903 167.669 50.9229 168.143 50.5882C168.616 50.2535 168.867 49.7793 168.867 49.1656C168.867 48.4683 168.588 47.9942 168.031 47.7152C167.475 47.4362 166.806 47.2967 165.999 47.2967V47.241ZM163.52 56.362C163.854 56.3899 164.244 56.4179 164.69 56.4458C165.135 56.4736 165.609 56.4736 166.11 56.4736C167.14 56.4736 167.948 56.3063 168.505 55.9716C169.062 55.6368 169.34 55.1348 169.34 54.4932C169.34 53.8516 169.09 53.3774 168.561 53.0707C168.031 52.7637 167.28 52.5965 166.277 52.5965H163.604L163.52 56.362Z" fill="#E8481E"/>
<path d="M175.132 46.5161C175.689 46.1535 176.33 45.8745 177.054 45.6793C177.778 45.4841 178.53 45.3726 179.309 45.3726C181.092 45.3726 182.345 45.8188 183.069 46.7113C183.793 47.604 184.155 48.8591 184.155 50.5048V58.2034H182.038V56.5855C181.676 57.0597 181.175 57.4781 180.535 57.8408C179.894 58.2034 179.059 58.3706 178.028 58.3706C176.887 58.3706 175.968 58.036 175.272 57.3666C174.575 56.697 174.213 55.7487 174.213 54.5215C174.213 53.8799 174.325 53.3221 174.575 52.82C174.826 52.3178 175.16 51.8995 175.578 51.5648C175.996 51.23 176.497 50.9789 177.082 50.8117C177.666 50.6442 178.307 50.5606 178.975 50.5606C179.449 50.5606 179.978 50.6165 180.562 50.728C181.147 50.8396 181.649 51.0627 182.066 51.3695C182.066 50.7837 182.038 50.2539 181.983 49.7518C181.927 49.2496 181.788 48.8313 181.593 48.4965C181.398 48.1618 181.12 47.8828 180.73 47.6876C180.34 47.4924 179.839 47.3808 179.226 47.3808C178.446 47.3808 177.806 47.4645 177.304 47.6319C176.803 47.7992 176.302 48.0223 175.801 48.2733L175.216 46.4882L175.132 46.5161ZM178.808 56.4462C179.616 56.4462 180.284 56.2787 180.785 55.9161C181.286 55.5535 181.704 55.1909 182.011 54.8282V53.2383C181.231 52.6805 180.284 52.4016 179.198 52.4016C178.864 52.4016 178.53 52.4294 178.195 52.5132C177.861 52.5968 177.583 52.7084 177.332 52.8758C177.082 53.0431 176.887 53.2662 176.748 53.5173C176.608 53.7683 176.525 54.0751 176.525 54.4377C176.525 55.0234 176.72 55.4978 177.109 55.8602C177.499 56.2229 178.056 56.3903 178.78 56.3903L178.808 56.4462Z" fill="#E8481E"/>
<path d="M189.975 45.623L194.792 51.8433L199.359 45.623H201.336V58.1751H199.109V49.0261L194.765 54.8558H194.681L190.17 49.0261V58.1751H187.942V45.623H189.975Z" fill="#E8481E"/>
<path d="M205.374 45.623H207.602V54.9674L214.842 45.623H217.07V58.1751H214.842V48.8309L207.602 58.1751H205.374V45.623Z" fill="#E8481E"/>
</svg>
