<svg width="507" height="484" viewBox="0 0 507 484" fill="none" xmlns="http://www.w3.org/2000/svg">
<rect width="507" height="484" rx="12" fill="white"/>
<path d="M143.456 132.495L144.657 130.522C154.789 113.89 173.128 103.861 192.433 105.103C194.918 105.258 197.388 105.596 199.823 106.112C217.375 109.877 232.653 123.083 238.985 139.994C242.702 149.955 243.745 161.429 250.81 169.358C260.006 179.65 275.616 179.974 289.345 179.545C303.074 179.115 318.692 179.484 327.842 189.814C333.57 196.29 335.398 205.49 334.93 214.156C333.706 237.098 317.665 257.615 297.264 267.809C276.863 278.004 252.835 278.922 230.5 274.435C199.218 268.148 169.471 250.891 151.586 224.238C133.701 197.585 129.182 161.256 143.456 132.495Z" fill="#F7F9FA"/>
<rect x="263.5" y="87.5" width="168" height="147" rx="4.5" fill="white" stroke="#EBEBEB"/>
<path d="M264 93C264 90.2386 266.239 88 269 88H426C428.761 88 431 90.2386 431 93V106H264V93Z" fill="#EBEBEB"/>
<path d="M294.289 389.578C308.808 389.578 320.578 377.808 320.578 363.289C320.578 348.77 308.808 337 294.289 337C279.77 337 268 348.77 268 363.289C268 377.808 279.77 389.578 294.289 389.578Z" fill="#F7F9FA"/>
<path d="M132.316 91.6132C134.509 78.5389 125.687 66.1626 112.613 63.97C99.5389 61.7775 87.1626 70.5989 84.97 83.6732C82.7774 96.7475 91.5988 109.124 104.673 111.316C117.747 113.509 130.124 104.688 132.316 91.6132Z" fill="#F7F9FA"/>
<path d="M437 434.5C437 434.769 348.148 435 238.5 435C128.852 435 40 434.769 40 434.5C40 434.231 128.852 434 238.5 434C348.148 434 437 434.212 437 434.5Z" fill="#EBEBEB"/>
<path d="M187.861 434.257H180.028L175.557 381.621H187.861V434.257Z" fill="#263238"/>
<path d="M126.879 434.257H119.054L114.583 381.621H126.879V434.257Z" fill="#263238"/>
<path d="M274.37 434.257H266.546L262.074 381.621H274.37V434.257Z" fill="#263238"/>
<path d="M148.34 334.715L155.792 220.6H85.4124C84.1557 220.601 82.9146 220.878 81.777 221.412C80.6394 221.946 79.6332 222.724 78.8297 223.69C78.0262 224.656 77.445 225.788 77.1274 227.003C76.8097 228.219 76.7634 229.49 76.9917 230.726L105.318 383.583C114.326 383.459 278.494 383.583 278.494 383.583V334.731L148.34 334.715Z" fill="#455A64"/>
<g clip-path="url(#clip0_4310_20887)">
<path d="M237.93 234.993L233.554 239.719C233.554 239.719 215.139 270.637 212.525 272.63C209.91 274.623 205.477 276.9 202.863 276.559C200.248 276.217 193.258 271.434 193.258 271.434L199.339 252.644L206.273 250.765L225.028 229.014L237.93 234.993Z" fill="#FFBE9D"/>
<path d="M234.406 238.694C235.998 236.815 239.976 232.943 239.976 232.943L241.681 231.121C241.738 231.292 241.795 231.406 241.852 231.576C241.965 231.861 242.079 232.203 242.306 232.431C242.761 232.829 243.443 232.715 244.011 232.431C245.091 231.804 245.83 230.609 245.83 229.299C245.83 228.103 245.148 226.907 244.125 226.281C244.011 225.996 243.898 225.655 243.67 225.37C242.249 223.491 238.839 223.776 238.839 223.776L239.351 223.036C239.351 223.036 241.681 221.612 245.489 224.004C246.057 224.345 246.739 224.516 247.421 224.402C247.819 224.345 248.217 224.174 248.444 223.776C249.013 222.808 248.501 222.181 246.114 220.644C243.727 219.107 240.942 218.367 239.18 219.05C237.418 219.733 236.736 220.075 236.736 220.075C236.736 220.075 240.942 213.299 241.169 212.9C241.908 211.648 241.908 210.224 241.113 209.655C240.601 209.313 239.692 209.199 238.839 210.68C238.1 211.932 228.666 223.833 228.666 223.833L224.801 229.356L234.406 238.694Z" fill="#FFBE9D"/>
<path d="M226.165 229.584C226.733 230.21 227.813 230.153 228.552 229.754C229.291 229.356 229.916 228.73 230.655 228.274C232.872 226.907 235.884 227.477 237.987 226.053C238.271 225.826 238.612 225.484 238.441 225.199C238.328 224.915 237.93 224.801 237.589 224.801C234.747 224.687 231.905 224.573 229.064 224.459" fill="#FFBE9D"/>
<path d="M229.064 224.345C229.064 224.288 229.405 224.288 229.973 224.288C230.541 224.288 231.451 224.288 232.474 224.288C233.554 224.345 234.861 224.345 236.225 224.402C236.566 224.402 236.964 224.402 237.305 224.459C237.646 224.516 238.1 224.402 238.555 224.801C238.782 225.028 238.782 225.37 238.669 225.598C238.555 225.826 238.385 225.996 238.214 226.11C237.873 226.338 237.475 226.566 237.077 226.68C235.486 227.306 233.895 227.306 232.587 227.648C231.905 227.819 231.28 228.046 230.769 228.331C230.257 228.616 229.802 229.014 229.348 229.356C228.495 230.039 227.472 230.21 226.904 230.039C226.279 229.868 226.108 229.527 226.108 229.527C226.165 229.47 226.336 229.754 226.904 229.868C227.472 229.982 228.325 229.754 229.12 229.071C229.518 228.73 229.973 228.331 230.541 227.989C231.11 227.648 231.735 227.42 232.417 227.192C233.781 226.851 235.372 226.794 236.85 226.224C237.191 226.11 237.532 225.883 237.873 225.712C238.157 225.484 238.328 225.199 238.157 225.085C238.044 224.915 237.646 224.915 237.248 224.915C236.907 224.915 236.509 224.858 236.168 224.858C234.804 224.801 233.554 224.687 232.417 224.63C231.337 224.573 230.484 224.516 229.916 224.459C229.405 224.459 229.064 224.402 229.064 224.345Z" fill="#EB996E"/>
<path d="M238.726 223.719C238.783 223.776 239.067 223.093 239.976 222.694C240.431 222.466 241.056 222.409 241.681 222.58C242.306 222.694 242.988 223.036 243.67 223.434C244.352 223.833 245.034 224.231 245.66 224.459C246.342 224.687 246.967 224.744 247.535 224.63C248.103 224.516 248.444 224.117 248.501 223.833C248.615 223.548 248.615 223.377 248.615 223.377C248.558 223.377 248.558 223.548 248.388 223.776C248.274 224.004 247.933 224.288 247.478 224.402C247.024 224.516 246.398 224.402 245.773 224.174C245.148 223.947 244.523 223.548 243.841 223.149C243.159 222.751 242.477 222.409 241.738 222.295C241.056 222.181 240.374 222.238 239.862 222.523C239.351 222.751 239.067 223.093 238.896 223.32C238.726 223.605 238.726 223.719 238.726 223.719Z" fill="#EB996E"/>
<path d="M241.397 212.445C241.34 212.445 241.056 212.957 240.544 213.811C239.976 214.722 239.351 215.861 238.612 217.057C237.873 218.253 237.191 219.391 236.623 220.302C236.111 221.157 235.77 221.669 235.827 221.669C235.884 221.669 236.225 221.214 236.793 220.416C237.361 219.619 238.1 218.48 238.839 217.228C239.635 215.975 240.26 214.779 240.715 213.925C241.226 213.014 241.454 212.445 241.397 212.445Z" fill="#EB996E"/>
<path d="M239.351 226.224C239.351 226.224 239.521 226.281 239.862 226.338C240.146 226.395 240.658 226.452 240.942 226.907C241.056 227.135 241.113 227.42 240.942 227.705C240.828 227.989 240.601 228.274 240.317 228.559C240.09 228.843 239.805 229.242 239.805 229.698C239.805 230.153 240.09 230.609 240.487 230.893C240.885 231.178 241.397 231.178 241.852 231.064C242.306 230.95 242.647 230.722 242.931 230.438C243.443 229.811 243.727 229.242 243.954 228.673C244.182 228.16 244.295 227.648 244.295 227.363C244.295 227.021 244.239 226.851 244.239 226.851C244.239 226.851 244.239 227.021 244.182 227.363C244.125 227.648 244.011 228.103 243.784 228.616C243.557 229.128 243.216 229.698 242.761 230.267C242.306 230.779 241.397 231.064 240.715 230.665C240.374 230.438 240.146 230.096 240.146 229.754C240.146 229.413 240.317 229.071 240.544 228.786C240.772 228.502 240.999 228.217 241.169 227.875C241.34 227.534 241.283 227.135 241.113 226.851C240.715 226.338 240.146 226.281 239.862 226.281C239.521 226.167 239.351 226.167 239.351 226.224Z" fill="#EB996E"/>
<path d="M241.851 230.722C241.851 230.722 241.738 230.836 241.681 231.121C241.624 231.406 241.681 231.861 242.022 232.317C242.42 232.715 243.102 232.943 243.784 232.772C244.466 232.601 245.091 232.089 245.546 231.406C245.944 230.722 246.114 229.925 246.057 229.242C246 228.559 245.716 227.932 245.432 227.534C245.148 227.078 244.807 226.851 244.58 226.68C244.352 226.509 244.182 226.452 244.182 226.509C244.125 226.566 244.75 226.851 245.262 227.705C245.489 228.103 245.716 228.673 245.773 229.299C245.83 229.925 245.659 230.665 245.262 231.292C244.864 231.918 244.295 232.374 243.727 232.544C243.102 232.715 242.533 232.544 242.192 232.203C241.851 231.861 241.795 231.463 241.795 231.178C241.795 230.893 241.908 230.779 241.851 230.722Z" fill="#EB996E"/>
<path d="M234.463 232.431C234.463 232.431 234.292 232.203 233.838 232.032C233.383 231.861 232.701 231.747 231.905 232.032L232.076 232.26C232.246 231.975 232.36 231.633 232.474 231.235C233.156 229.242 232.872 227.534 232.815 227.534C232.701 227.534 232.815 229.185 232.189 231.121C232.076 231.463 231.962 231.804 231.792 232.089L231.621 232.431L231.962 232.317C232.644 232.089 233.326 232.089 233.724 232.203C234.179 232.317 234.406 232.488 234.463 232.431Z" fill="#EB996E"/>
<path d="M241.567 220.929C241.511 220.929 241.454 221.555 241.908 222.181C242.363 222.808 242.988 222.979 242.988 222.922C243.045 222.865 242.534 222.58 242.193 222.011C241.795 221.498 241.681 220.929 241.567 220.929Z" fill="#EB996E"/>
<path d="M248.899 329.342C248.899 329.342 256.288 330.936 262.937 329.968C269.132 329.057 283 330.025 283 338.167C283 347.278 264.472 345.057 257.254 343.577C250.036 342.153 242.818 340.843 242.818 340.843L248.899 329.342Z" fill="#384A52"/>
<path d="M265.495 341.071C265.609 341.071 266.006 339.648 266.404 337.883C266.802 336.117 267.029 334.637 266.973 334.637C266.859 334.637 266.461 336.061 266.063 337.826C265.665 339.591 265.438 341.014 265.495 341.071Z" fill="#263238"/>
<path d="M262.994 341.185C263.108 341.185 263.392 339.762 263.619 337.939C263.847 336.117 264.017 334.637 263.904 334.637C263.79 334.637 263.506 336.061 263.278 337.883C262.994 339.705 262.88 341.185 262.994 341.185Z" fill="#263238"/>
<path d="M260.55 340.217C260.664 340.217 260.891 338.964 261.062 337.37C261.232 335.776 261.346 334.466 261.232 334.466C261.118 334.466 260.891 335.719 260.721 337.313C260.55 338.907 260.436 340.217 260.55 340.217Z" fill="#263238"/>
<path d="M256.742 339.249C256.856 339.306 257.367 338.224 257.708 336.801C258.049 335.377 258.049 334.182 257.993 334.182C257.879 334.182 257.708 335.32 257.367 336.687C256.97 338.11 256.629 339.249 256.742 339.249Z" fill="#263238"/>
<path d="M255.89 335.947C255.89 335.947 255.549 335.89 254.924 335.89C254.298 335.89 253.389 336.004 252.309 336.402C252.025 336.516 251.741 336.63 251.513 336.858C251.286 337.028 251.002 337.37 251.002 337.769C251.002 338.566 251.854 339.135 252.707 338.964C253.503 338.794 254.128 338.224 254.639 337.598C255.151 336.972 255.549 336.174 255.719 335.32C256.117 333.612 255.833 331.847 254.924 330.594C254.81 330.423 254.583 330.31 254.355 330.253C254.128 330.196 253.901 330.31 253.73 330.423C253.446 330.708 253.332 331.05 253.275 331.448C253.162 332.132 253.219 332.758 253.389 333.327C253.673 334.466 254.185 335.206 254.639 335.662C254.867 335.89 255.037 336.06 255.208 336.117C255.321 336.231 255.435 336.231 255.435 336.231C255.435 336.231 255.151 336.004 254.753 335.548C254.355 335.093 253.844 334.295 253.616 333.27C253.503 332.758 253.446 332.132 253.56 331.505C253.616 331.221 253.73 330.879 253.957 330.708C254.185 330.537 254.469 330.594 254.696 330.822C255.492 331.961 255.833 333.669 255.435 335.263C255.265 336.06 254.867 336.801 254.412 337.427C253.957 338.053 253.332 338.566 252.707 338.68C252.082 338.851 251.343 338.338 251.4 337.769C251.4 337.484 251.57 337.256 251.798 337.085C252.025 336.915 252.252 336.801 252.537 336.687C253.56 336.288 254.469 336.117 255.037 336.06C255.549 335.947 255.89 335.947 255.89 335.947Z" fill="#263238"/>
<path d="M243.556 339.648C243.556 339.648 243.613 339.648 243.727 339.705C243.898 339.762 244.068 339.762 244.295 339.819C244.807 339.932 245.546 340.103 246.455 340.331C248.331 340.73 251.059 341.299 254.412 341.982C257.765 342.609 261.801 343.349 266.291 343.975C268.564 344.26 270.951 344.544 273.452 344.317C274.702 344.203 275.952 344.032 277.203 343.577C277.828 343.406 278.453 343.178 279.022 342.836C279.59 342.495 280.158 342.153 280.613 341.584V341.641C280.84 341.413 281.068 341.185 281.238 340.843C281.977 339.648 282.034 338.11 281.636 336.858C281.238 335.548 280.272 334.523 279.249 333.726C278.226 332.986 277.032 332.416 275.896 332.075C275.327 331.904 274.702 331.676 274.134 331.562C273.565 331.448 272.997 331.278 272.372 331.221C267.711 330.48 263.506 330.879 259.982 330.879C258.22 330.936 256.629 330.879 255.265 330.765C253.9 330.651 252.707 330.48 251.741 330.31C251.286 330.196 250.831 330.139 250.49 330.025C250.149 329.911 249.808 329.854 249.581 329.74C249.354 329.683 249.183 329.626 249.013 329.569C248.899 329.512 248.842 329.512 248.842 329.512C248.842 329.512 248.899 329.569 249.013 329.569C249.183 329.626 249.354 329.683 249.581 329.74C249.808 329.797 250.149 329.911 250.49 330.025C250.888 330.139 251.286 330.196 251.741 330.31C252.707 330.537 253.9 330.708 255.321 330.822C256.742 330.936 258.334 330.993 260.096 330.993C263.619 331.05 267.825 330.708 272.429 331.448C272.997 331.505 273.565 331.676 274.134 331.79C274.702 331.904 275.27 332.132 275.839 332.302C276.976 332.701 278.112 333.214 279.135 333.954C280.101 334.694 281.011 335.662 281.409 336.915C281.806 338.11 281.75 339.534 281.068 340.616C280.897 340.9 280.67 341.128 280.499 341.299C280.101 341.754 279.59 342.153 279.022 342.495C278.453 342.836 277.885 343.064 277.317 343.292C276.123 343.69 274.873 343.918 273.679 343.975C271.235 344.203 268.848 343.918 266.575 343.633C262.085 343.064 258.049 342.324 254.696 341.697C251.343 341.071 248.615 340.559 246.739 340.16C245.83 339.989 245.091 339.818 244.58 339.762C244.352 339.705 244.182 339.705 244.011 339.648C243.613 339.648 243.556 339.648 243.556 339.648Z" fill="#263238"/>
<path d="M270.667 344.032C270.724 344.032 270.78 343.292 270.837 342.153C270.894 340.957 271.065 339.363 271.292 337.598C271.519 335.833 271.803 334.238 272.031 333.1C272.258 331.961 272.429 331.221 272.372 331.221C272.315 331.221 272.088 331.904 271.803 333.043C271.519 334.182 271.178 335.776 270.951 337.598C270.724 339.363 270.61 341.014 270.61 342.21C270.553 343.349 270.61 344.032 270.667 344.032Z" fill="#263238"/>
<g opacity="0.4">
<g opacity="0.4">
<path opacity="0.4" d="M251.172 329.74L246.455 341.527L242.818 340.843L249.808 329.342L251.172 329.74Z" fill="black"/>
</g>
</g>
<path d="M203.545 302.295L192.519 277.641L198.884 256.459C200.817 250.025 200.362 243.135 197.634 237.043L186.892 216.146L177.287 212.73L154.723 209.712C154.326 209.826 153.189 209.94 146.539 212.16C140.912 214.039 136.195 217.854 133.126 222.979L151.37 276.217C151.37 276.217 139.037 303.32 140.571 315.733L203.545 302.295Z" fill="#E04E39"/>
<path d="M185.073 215.577C185.073 215.577 197.691 218.367 202.294 235.619L207.978 254.011L197.634 254.637L185.073 215.577Z" fill="#E04E39"/>
<path d="M198.486 255.263C198.486 255.263 198.543 255.206 198.6 255.036C198.657 254.865 198.77 254.637 198.884 254.295C199.112 253.612 199.339 252.644 199.396 251.391C199.623 248.886 199.112 245.356 197.463 241.883C197.065 241.028 196.611 240.174 196.156 239.434C195.701 238.637 195.247 237.897 194.849 237.214C194.053 235.79 193.485 234.423 193.087 233.228C192.689 232.032 192.405 231.064 192.234 230.438C192.121 230.153 192.064 229.868 192.007 229.698C191.95 229.527 191.893 229.413 191.893 229.413C191.893 229.413 191.893 229.527 191.95 229.698C192.007 229.925 192.064 230.153 192.121 230.495C192.291 231.178 192.575 232.146 192.916 233.342C193.257 234.537 193.826 235.961 194.622 237.384C195.019 238.125 195.417 238.865 195.872 239.662C196.327 240.459 196.781 241.256 197.179 242.11C198.827 245.527 199.339 249 199.168 251.505C199.112 252.758 198.884 253.726 198.714 254.409C198.6 254.865 198.486 255.263 198.486 255.263Z" fill="#263238"/>
<path d="M229.803 312.374C229.859 312.431 235.77 308.103 243.045 302.694C250.263 297.285 256.117 292.843 256.06 292.73C256.004 292.673 250.093 297 242.818 302.409C235.6 307.875 229.746 312.317 229.803 312.374Z" fill="#455A64"/>
<path d="M141.538 313.171L159.441 298.423C161.43 287.434 171.49 279.235 183.255 280.317C187.688 280.715 191.837 282.423 195.304 285.27L205.704 293.413C221.846 289.028 246.341 282.139 258.959 278.552C264.131 277.128 269.644 277.925 274.134 280.829L274.361 281C280.954 285.27 284.194 293.242 282.375 300.929C281.238 305.826 278.226 309.982 273.963 312.601C267.598 316.53 257.765 322.509 249.24 327.633L250.377 328.544L242.875 340.9L227.472 336.117C217.071 334.637 195.019 331.733 195.019 331.733L201.328 328.032L199.907 327.577C187.915 337.826 173.252 342.495 155.121 334.58C146.084 330.367 140.458 320.288 141.538 313.171Z" fill="#263238"/>
<path d="M172.172 311.577C172.172 311.577 172.229 311.633 172.342 311.69C172.456 311.804 172.626 311.918 172.797 312.089C173.195 312.431 173.82 312.886 174.559 313.512C174.957 313.797 175.354 314.139 175.809 314.537C176.264 314.879 176.832 315.278 177.401 315.676C177.969 316.075 178.594 316.473 179.219 316.929C179.56 317.157 179.901 317.384 180.242 317.612C180.583 317.84 180.981 318.068 181.322 318.295C182.8 319.206 184.448 320.231 186.267 321.142C187.176 321.598 188.086 322.11 189.109 322.623C190.075 323.078 191.098 323.591 192.178 324.046C196.383 325.982 201.044 327.861 206.102 329.626C216.162 333.1 225.483 335.605 232.133 337.598C233.781 338.11 235.315 338.566 236.623 338.964C237.93 339.363 239.067 339.705 239.976 340.046C240.885 340.331 241.624 340.559 242.136 340.73C242.363 340.786 242.533 340.843 242.704 340.9C242.818 340.957 242.875 340.957 242.875 340.957C242.875 340.957 242.818 340.9 242.704 340.9C242.59 340.843 242.363 340.786 242.136 340.673C241.624 340.502 240.942 340.217 240.033 339.932C239.123 339.591 237.987 339.249 236.679 338.794C235.372 338.338 233.838 337.883 232.19 337.37C225.54 335.263 216.276 332.758 206.216 329.285C201.214 327.577 196.497 325.641 192.291 323.762C191.268 323.249 190.245 322.794 189.222 322.338C188.256 321.883 187.29 321.37 186.437 320.858C184.619 319.947 182.97 318.922 181.493 318.068C181.095 317.84 180.754 317.612 180.413 317.441C180.072 317.214 179.731 316.986 179.39 316.758C178.765 316.302 178.139 315.904 177.571 315.505C177.003 315.107 176.434 314.765 175.98 314.423C175.525 314.082 175.07 313.74 174.672 313.455C173.934 312.886 173.308 312.431 172.854 312.089C172.683 311.975 172.513 311.861 172.399 311.747C172.285 311.576 172.229 311.52 172.172 311.577Z" fill="#455A64"/>
<path d="M170.865 317.327C170.865 317.327 171.035 317.441 171.433 317.612C171.774 317.783 172.342 318.011 173.024 318.238C174.388 318.751 176.264 319.32 178.424 319.776C180.583 320.231 182.573 320.459 183.994 320.573C184.732 320.63 185.301 320.63 185.699 320.63C186.096 320.63 186.324 320.63 186.324 320.573C186.324 320.516 185.414 320.459 183.994 320.288C182.573 320.117 180.64 319.833 178.481 319.377C176.321 318.922 174.445 318.352 173.081 317.897C171.717 317.555 170.865 317.27 170.865 317.327Z" fill="#455A64"/>
<path d="M197.463 287.32C197.406 287.377 209.171 296.658 223.778 308.046C238.385 319.434 250.263 328.544 250.32 328.488C250.377 328.431 238.612 319.149 224.005 307.762C209.399 296.431 197.52 287.263 197.463 287.32Z" fill="#455A64"/>
<path d="M155.064 327.178C155.064 327.178 155.064 327.064 155.121 326.779C155.121 326.495 155.121 326.096 155.178 325.697C155.178 324.73 155.235 323.363 155.292 321.655C155.462 318.238 155.86 313.569 156.826 308.445C157.792 303.32 159.1 298.765 160.18 295.52C160.691 293.925 161.203 292.616 161.487 291.705C161.657 291.306 161.771 290.964 161.885 290.68C161.941 290.452 161.998 290.338 161.998 290.281C161.998 290.281 161.941 290.395 161.828 290.623C161.714 290.907 161.544 291.249 161.373 291.648C160.975 292.502 160.464 293.811 159.895 295.406C158.759 298.651 157.395 303.206 156.428 308.331C155.462 313.455 155.064 318.181 155.008 321.655C154.951 323.363 154.951 324.73 155.008 325.697C155.008 326.153 155.064 326.495 155.064 326.779C155.008 327.064 155.064 327.178 155.064 327.178Z" fill="#455A64"/>
<path d="M200.532 327.007C200.532 327.007 200.476 327.064 200.362 327.121C200.248 327.235 200.135 327.349 199.964 327.463C199.566 327.747 199.055 328.26 198.373 328.886C196.952 330.025 194.792 331.676 191.894 333.27C188.995 334.865 185.358 336.345 181.095 337.313C180.583 337.427 180.015 337.541 179.503 337.655C178.935 337.769 178.424 337.883 177.855 337.94C176.719 338.053 175.582 338.224 174.388 338.281C172.001 338.452 169.557 338.338 167.057 338.053C166.431 337.94 165.806 337.883 165.181 337.769C164.556 337.655 163.988 337.541 163.362 337.427C162.169 337.199 160.975 336.858 159.895 336.516C157.622 335.776 155.519 334.865 153.644 333.783C149.836 331.619 146.994 328.772 145.175 326.039C143.356 323.306 142.447 320.744 142.049 318.922C141.822 318.011 141.765 317.327 141.708 316.815C141.708 316.587 141.651 316.416 141.651 316.246C141.651 316.132 141.594 316.075 141.594 316.075C141.594 316.075 141.594 316.132 141.594 316.246C141.594 316.416 141.594 316.587 141.594 316.815C141.651 317.327 141.708 318.011 141.879 318.922C142.277 320.744 143.072 323.363 144.891 326.153C146.71 328.943 149.551 331.847 153.416 334.068C155.292 335.149 157.451 336.117 159.725 336.858C160.862 337.199 162.055 337.541 163.249 337.826C163.874 337.94 164.442 338.053 165.067 338.224C165.693 338.338 166.318 338.395 166.943 338.509C169.444 338.794 171.944 338.907 174.332 338.737C175.525 338.68 176.662 338.509 177.855 338.395C178.424 338.281 178.992 338.167 179.56 338.11C180.129 337.996 180.64 337.94 181.209 337.769C185.471 336.744 189.165 335.206 192.064 333.612C194.963 331.961 197.066 330.31 198.486 329.114C199.168 328.488 199.68 327.975 200.021 327.633C200.191 327.463 200.305 327.349 200.419 327.235C200.476 327.064 200.532 327.007 200.532 327.007Z" fill="#455A64"/>
<path d="M192.064 330.651C195.19 329 198.657 329.968 201.612 330.993C203.601 331.676 205.648 332.701 207.637 332.132C209.114 331.733 210.194 330.537 211.274 329.512C215.764 325.356 221.902 323.135 228.041 323.477C229.746 323.591 231.451 324.274 232.644 325.584C235.713 328.886 233.383 333.214 230.655 336.004C225.824 340.9 219.288 344.089 212.468 344.829C206.784 345.399 198.998 344.658 193.201 342.153C189.62 340.616 187.801 336.402 189.677 333.043C190.245 332.018 191.041 331.164 192.064 330.651Z" fill="#455A64"/>
<path opacity="0.4" d="M192.064 333.27C195.19 331.619 198.657 332.587 201.612 333.612C203.601 334.295 205.648 335.32 207.637 334.751C209.114 334.352 210.194 333.156 211.274 332.132C215.764 327.975 221.902 325.754 228.041 326.096C229.746 326.21 231.451 326.893 232.644 328.203C233.326 328.943 233.724 329.74 233.951 330.537C233.497 332.53 232.19 334.466 230.712 335.947C225.881 340.843 219.345 344.032 212.525 344.772C206.841 345.342 199.055 344.601 193.258 342.096C191.098 341.185 189.62 339.306 189.165 337.199C189.279 336.687 189.45 336.117 189.734 335.605C190.245 334.694 191.041 333.84 192.064 333.27Z" fill="#263238"/>
<path d="M189.108 337.199C189.165 337.199 189.165 336.459 189.847 335.377C190.188 334.865 190.757 334.238 191.495 333.726C192.234 333.214 193.201 332.758 194.337 332.644C196.667 332.359 199.339 333.327 202.294 334.125C203.772 334.523 205.363 335.093 207.125 334.865C207.978 334.751 208.83 334.466 209.626 334.011C210.365 333.555 211.104 332.986 211.786 332.416C214.343 329.911 217.355 328.374 220.311 327.349C221.789 326.836 223.209 326.552 224.517 326.381C225.881 326.21 227.131 326.153 228.268 326.381C229.404 326.552 230.371 326.95 231.166 327.406C231.962 327.861 232.53 328.431 232.928 328.943C233.781 329.968 234.008 330.651 234.065 330.594C234.065 330.594 233.838 329.911 233.042 328.829C232.644 328.317 232.076 327.747 231.28 327.235C230.484 326.722 229.461 326.324 228.325 326.153C227.131 325.925 225.824 325.982 224.46 326.096C223.096 326.267 221.618 326.552 220.14 327.064C218.663 327.52 217.185 328.203 215.707 329.057C214.968 329.456 214.23 329.911 213.547 330.48C212.865 331.05 212.183 331.619 211.558 332.189C210.876 332.758 210.194 333.327 209.512 333.783C208.773 334.238 207.978 334.466 207.182 334.58C205.534 334.808 203.999 334.238 202.521 333.84C199.566 333.043 196.838 332.075 194.451 332.416C192.064 332.815 190.529 334.238 189.847 335.32C189.506 335.89 189.336 336.402 189.279 336.744C189.108 337.028 189.108 337.199 189.108 337.199Z" fill="#263238"/>
<path d="M189.108 337.199C189.165 337.199 189.165 336.459 189.847 335.377C190.188 334.865 190.757 334.238 191.495 333.726C192.234 333.214 193.201 332.758 194.337 332.644C196.667 332.359 199.339 333.327 202.294 334.125C203.772 334.523 205.363 335.093 207.125 334.865C207.978 334.751 208.83 334.466 209.626 334.011C210.365 333.555 211.104 332.986 211.786 332.416C214.343 329.911 217.355 328.374 220.311 327.349C221.789 326.836 223.209 326.552 224.517 326.381C225.881 326.21 227.131 326.153 228.268 326.381C229.404 326.552 230.371 326.95 231.166 327.406C231.962 327.861 232.53 328.431 232.928 328.943C233.781 329.968 234.008 330.651 234.065 330.594C234.065 330.594 233.838 329.911 233.042 328.829C232.644 328.317 232.076 327.747 231.28 327.235C230.484 326.722 229.461 326.324 228.325 326.153C227.131 325.925 225.824 325.982 224.46 326.096C223.096 326.267 221.618 326.552 220.14 327.064C218.663 327.52 217.185 328.203 215.707 329.057C214.968 329.456 214.23 329.911 213.547 330.48C212.865 331.05 212.183 331.619 211.558 332.189C210.876 332.758 210.194 333.327 209.512 333.783C208.773 334.238 207.978 334.466 207.182 334.58C205.534 334.808 203.999 334.238 202.521 333.84C199.566 333.043 196.838 332.075 194.451 332.416C192.064 332.815 190.529 334.238 189.847 335.32C189.506 335.89 189.336 336.402 189.279 336.744C189.108 337.028 189.108 337.199 189.108 337.199Z" fill="#263238"/>
<path d="M227.643 336.459C227.7 336.402 227.074 336.004 226.051 335.377C225.028 334.751 223.607 333.954 221.959 333.157C220.311 332.359 218.776 331.79 217.64 331.391C216.503 330.993 215.821 330.822 215.764 330.879C215.764 330.936 216.446 331.221 217.526 331.676C218.606 332.132 220.14 332.758 221.789 333.555C223.437 334.352 224.858 335.093 225.938 335.662C226.961 336.174 227.643 336.516 227.643 336.459Z" fill="#263238"/>
<path d="M226.563 339.591C226.62 339.477 223.892 338.053 220.481 336.402C217.071 334.751 214.286 333.498 214.23 333.612C214.173 333.726 216.901 335.149 220.311 336.801C223.721 338.452 226.563 339.705 226.563 339.591Z" fill="#263238"/>
<path d="M213.718 340.957C213.775 341.071 217.071 339.078 221.107 336.516C225.142 333.954 228.325 331.847 228.268 331.733C228.211 331.619 224.915 333.612 220.879 336.174C216.844 338.68 213.661 340.843 213.718 340.957Z" fill="#263238"/>
<path d="M211.843 337.712C211.899 337.769 212.468 337.313 213.491 336.63C214.457 335.947 215.821 334.979 217.299 333.897C218.776 332.872 220.197 331.961 221.163 331.278C222.187 330.594 222.755 330.196 222.755 330.139C222.755 330.082 222.073 330.423 220.993 331.05C219.97 331.676 218.549 332.53 217.015 333.612C215.48 334.637 214.173 335.662 213.263 336.459C212.354 337.142 211.843 337.655 211.843 337.712Z" fill="#263238"/>
<path d="M188.085 209.712C188.142 209.712 187.801 209.142 187.972 208.117C188.085 207.605 188.256 207.036 188.711 206.409C189.108 205.84 189.734 205.214 190.416 204.587C191.098 203.961 191.836 203.221 192.462 202.196C193.03 201.228 193.485 200.089 193.655 198.779C193.826 197.527 193.712 196.16 193.257 194.794C192.86 193.484 192.177 192.231 191.495 190.979C190.813 189.726 190.188 188.473 189.847 187.221C189.506 185.968 189.449 184.715 189.79 183.52C190.416 181.185 191.78 179.363 192.519 177.598C193.314 175.833 193.371 174.182 193.087 173.157C192.973 172.644 192.803 172.246 192.632 172.018C192.462 171.79 192.405 171.676 192.348 171.676C192.291 171.733 192.632 172.189 192.803 173.214C192.973 174.238 192.86 175.719 192.064 177.427C191.325 179.135 189.904 180.9 189.222 183.406C188.881 184.658 188.881 186.082 189.279 187.391C189.62 188.758 190.245 190.011 190.927 191.263C191.609 192.516 192.234 193.769 192.689 194.964C193.087 196.217 193.257 197.47 193.087 198.665C192.916 199.861 192.575 200.943 192.007 201.854C191.495 202.765 190.813 203.505 190.131 204.189C189.449 204.872 188.881 205.441 188.426 206.125C188.029 206.751 187.801 207.434 187.744 207.947C187.688 208.516 187.801 208.915 187.915 209.199C187.972 209.598 188.085 209.712 188.085 209.712Z" fill="#263238"/>
<path d="M155.689 198.438C154.894 200.488 152.734 201.797 150.517 201.854C148.358 201.854 146.255 200.601 145.004 198.779C143.811 196.957 143.413 194.623 143.811 192.516C143.981 191.548 144.322 190.58 144.209 189.612C144.038 188.246 143.015 187.05 142.674 185.683C142.049 183.235 143.811 180.673 146.141 179.648C148.471 178.68 151.143 178.964 153.587 179.648" fill="#263238"/>
<path d="M191.098 170.139C193.314 172.416 192.462 175.377 191.439 177.37C190.416 179.363 189.165 181.413 189.108 183.69C189.108 186.025 190.359 188.132 190.984 190.352C191.78 193.142 191.552 196.217 190.302 198.893C189.393 200.886 187.915 202.594 187.006 204.587C186.096 206.58 185.755 209.085 187.006 210.851C185.812 210.68 184.789 209.712 184.221 208.63C183.652 207.548 183.539 206.295 183.595 205.043C183.709 200.374 185.926 195.875 185.357 191.263C185.016 188.587 183.766 185.968 183.936 183.292C184.107 180.559 185.698 178.224 186.835 175.719C187.972 173.27 188.654 170.196 187.119 167.918" fill="#263238"/>
<path d="M185.585 161.313C188.313 161.655 191.041 163.078 192.348 165.527C193.655 167.975 193.201 171.391 190.927 172.986C188.767 174.466 185.755 174.011 183.539 172.587C181.947 171.562 180.583 170.025 179.958 168.203C179.39 166.381 179.617 164.217 180.81 162.737C182.004 161.199 184.164 160.459 185.982 161.142" fill="#263238"/>
<path d="M187.801 161.028C186.608 157.669 183.652 155.164 180.299 153.968C176.946 152.772 173.251 152.772 169.785 153.456C166.318 154.139 162.964 155.391 159.611 156.644C157.167 157.555 154.723 158.523 152.734 160.174C150.802 161.826 149.438 164.103 148.585 166.552C146.937 171.05 146.88 174.352 148.812 178.794C149.665 180.73 148.983 182.836 149.722 184.829C150.461 186.765 153.984 189.1 152.905 190.865" fill="#263238"/>
<path d="M154.723 209.712L156.201 166.836C156.258 164.9 157.792 163.363 159.725 163.249L179.56 159.377C185.869 159.036 189.62 167.007 189.677 173.327C189.734 180.331 189.563 188.929 188.426 194.11C186.21 204.53 178.082 205.441 178.082 205.441C178.082 205.441 177.855 209.484 177.628 213.185L177.969 229.299L154.723 209.712Z" fill="#FFBE9D"/>
<path d="M186.892 180.9C186.892 181.641 186.267 182.21 185.528 182.21C184.789 182.21 184.221 181.641 184.221 180.9C184.221 180.16 184.846 179.591 185.585 179.591C186.323 179.591 186.892 180.16 186.892 180.9Z" fill="#263238"/>
<path d="M187.517 177.028C187.346 177.199 186.38 176.402 184.903 176.288C183.482 176.174 182.345 176.858 182.231 176.687C182.174 176.63 182.345 176.288 182.8 176.004C183.254 175.719 184.05 175.434 184.959 175.434C185.869 175.491 186.608 175.89 187.005 176.231C187.46 176.63 187.631 176.972 187.517 177.028Z" fill="#263238"/>
<path d="M173.479 180.673C173.479 181.413 172.854 181.982 172.115 181.982C171.376 181.982 170.808 181.413 170.808 180.673C170.808 179.932 171.433 179.363 172.172 179.363C172.91 179.42 173.479 179.989 173.479 180.673Z" fill="#263238"/>
<path d="M173.251 177.199C173.081 177.37 172.115 176.573 170.637 176.459C169.216 176.345 168.079 177.028 167.966 176.858C167.909 176.801 168.079 176.459 168.534 176.174C168.989 175.89 169.784 175.605 170.694 175.605C171.603 175.662 172.342 176.06 172.74 176.402C173.194 176.801 173.365 177.142 173.251 177.199Z" fill="#263238"/>
<path d="M177.912 188.246C177.912 188.189 178.821 188.075 180.299 187.961C180.697 187.961 181.038 187.904 181.095 187.619C181.208 187.335 181.038 186.936 180.924 186.48C180.64 185.569 180.299 184.601 179.958 183.577C178.651 179.477 177.741 176.117 177.912 176.061C178.082 176.004 179.276 179.306 180.583 183.406C180.867 184.431 181.208 185.399 181.492 186.31C181.606 186.765 181.833 187.221 181.606 187.79C181.492 188.075 181.208 188.246 180.981 188.302C180.754 188.359 180.526 188.359 180.356 188.359C178.821 188.359 177.912 188.303 177.912 188.246Z" fill="#263238"/>
<path d="M178.026 205.441C178.026 205.441 170.921 205.498 164.215 200.943C164.215 200.943 167.341 208.345 177.912 207.947L178.026 205.441Z" fill="#EB996E"/>
<path d="M174.161 172.986C173.99 173.384 172.569 173.1 170.864 173.214C169.159 173.27 167.738 173.726 167.568 173.327C167.454 173.157 167.738 172.815 168.307 172.416C168.875 172.075 169.785 171.733 170.808 171.676C171.831 171.619 172.74 171.847 173.365 172.132C173.933 172.473 174.218 172.815 174.161 172.986Z" fill="#263238"/>
<path d="M187.176 173.498C186.892 173.84 185.926 173.441 184.732 173.327C183.539 173.214 182.516 173.441 182.288 173.1C182.175 172.929 182.345 172.587 182.857 172.302C183.311 172.018 184.05 171.79 184.903 171.847C185.698 171.904 186.437 172.246 186.835 172.587C187.176 172.986 187.29 173.327 187.176 173.498Z" fill="#263238"/>
<path d="M177.116 191.548C176.662 190.865 175.809 190.466 175.013 190.523C174.445 190.58 173.82 190.808 173.422 191.263C173.024 191.719 172.911 192.402 173.252 192.858C173.593 193.37 174.331 193.541 175.013 193.427C175.695 193.256 176.264 192.858 176.775 192.516C176.946 192.402 177.059 192.288 177.173 192.117C177.23 191.947 177.287 191.719 177.116 191.548Z" fill="#EB996E"/>
<path d="M173.877 189.043C174.104 189.043 174.047 190.523 175.241 191.605C176.434 192.744 178.026 192.63 178.026 192.858C178.026 192.972 177.685 193.142 177.003 193.085C176.377 193.085 175.411 192.801 174.672 192.117C173.933 191.434 173.649 190.58 173.649 189.954C173.592 189.384 173.763 188.986 173.877 189.043Z" fill="#263238"/>
<path d="M187.972 163.819C187.29 167.121 182.004 167.349 178.764 166.552C176.434 169.285 172.683 170.651 169.159 170.082C168.705 170.025 168.193 169.911 167.738 170.082C167.227 170.253 166.943 170.708 166.602 171.107C165.124 172.872 162.964 174.068 160.691 174.352C160.066 177.655 157.224 180.388 153.927 180.9C153.927 180.9 152.904 180.331 153.473 176.061C154.098 171.847 154.155 162.964 154.155 162.964L165.92 158.409L179.787 156.644C179.787 156.644 189.165 158.295 187.972 163.819Z" fill="#263238"/>
<path d="M149.04 179.249C149.153 179.249 149.04 178.11 149.892 176.345C150.347 175.491 151.029 174.523 152.109 173.726C153.189 172.929 154.61 172.302 156.258 172.246H156.428L156.485 172.075C156.997 170.423 157.906 168.658 159.497 167.406C161.032 166.21 163.419 165.698 165.295 166.779L165.579 166.95L165.692 166.609C165.749 166.495 165.806 166.381 165.863 166.21C167.113 163.249 170.182 161.484 172.91 161.37C173.592 161.37 174.275 161.427 174.957 161.541C175.639 161.655 176.321 161.769 177.059 161.541C177.741 161.313 178.253 160.858 178.651 160.459C179.049 160.004 179.446 159.662 179.901 159.377C181.663 158.238 183.595 158.409 184.675 158.751C185.812 159.093 186.324 159.605 186.38 159.548C186.38 159.548 186.267 159.434 186.039 159.206C185.755 159.036 185.357 158.751 184.789 158.523C183.652 158.125 181.663 157.84 179.674 159.036C178.651 159.605 178.026 160.801 176.889 161.085C175.752 161.37 174.388 160.744 172.91 160.801C169.955 160.915 166.715 162.794 165.295 165.982C165.238 166.096 165.181 166.267 165.124 166.381L165.579 166.21C163.419 164.957 160.748 165.584 159.1 166.95C157.394 168.317 156.485 170.196 155.974 171.961L156.201 171.79C154.439 171.904 152.905 172.587 151.825 173.441C150.688 174.295 150.006 175.377 149.608 176.288C149.21 177.199 149.04 177.996 148.983 178.509C148.983 178.964 148.983 179.249 149.04 179.249Z" fill="#455A64"/>
<path d="M167.738 169.171C167.738 169.228 168.022 169.342 168.591 169.512C169.159 169.683 170.012 169.797 171.092 169.797C173.194 169.797 176.264 168.886 178.48 166.324L178.082 166.381C178.196 166.438 178.31 166.495 178.423 166.552C179.958 167.292 181.663 167.463 183.084 167.235C184.561 167.007 185.755 166.381 186.608 165.698C187.46 165.014 188.028 164.274 188.313 163.762C188.597 163.249 188.71 162.907 188.71 162.907C188.597 162.851 188.085 164.103 186.38 165.356C185.528 165.982 184.391 166.495 183.027 166.722C181.663 166.893 180.128 166.722 178.707 166.039C178.594 165.982 178.48 165.925 178.423 165.868L178.196 165.754L178.025 165.925C175.979 168.317 173.081 169.228 171.092 169.342C169.046 169.512 167.795 169.057 167.738 169.171Z" fill="#455A64"/>
<path d="M173.99 163.306C173.99 163.477 175.525 163.42 177.287 163.989C179.049 164.502 180.299 165.356 180.413 165.185C180.526 165.071 179.333 163.932 177.457 163.363C175.582 162.794 173.99 163.135 173.99 163.306Z" fill="#455A64"/>
<path d="M178.026 163.192C178.139 163.306 178.708 162.907 179.446 162.452C180.128 161.996 180.754 161.655 180.697 161.484C180.64 161.313 179.901 161.427 179.105 161.94C178.253 162.395 177.855 163.078 178.026 163.192Z" fill="#455A64"/>
<path d="M161.373 168.374C161.43 168.544 162.794 168.203 164.442 168.317C166.09 168.431 167.397 169 167.454 168.829C167.568 168.715 166.318 167.804 164.499 167.69C162.68 167.52 161.316 168.203 161.373 168.374Z" fill="#455A64"/>
<path d="M158.133 173.84C158.133 174.011 160.122 174.181 162.396 173.498C164.726 172.815 166.317 171.619 166.204 171.505C166.09 171.335 164.442 172.302 162.225 172.929C160.066 173.555 158.133 173.612 158.133 173.84Z" fill="#455A64"/>
<path d="M150.745 177.427C150.859 177.541 151.882 176.516 153.587 176.06C155.235 175.548 156.656 175.89 156.713 175.719C156.769 175.548 155.292 174.922 153.416 175.491C151.541 176.004 150.631 177.37 150.745 177.427Z" fill="#455A64"/>
<path d="M151.825 162.338C151.881 162.338 151.995 161.996 152.393 161.484C152.791 160.972 153.53 160.288 154.609 159.776C156.769 158.751 160.179 158.068 163.874 158.238C167.568 158.409 170.864 159.32 173.251 160.004C175.582 160.744 177.002 161.256 177.059 161.199C177.059 161.142 176.718 160.972 176.093 160.687C175.468 160.402 174.559 160.004 173.365 159.605C171.035 158.751 167.738 157.783 163.874 157.612C160.066 157.441 156.599 158.181 154.382 159.377C153.245 160.004 152.507 160.744 152.166 161.37C151.825 161.94 151.768 162.338 151.825 162.338Z" fill="#455A64"/>
<path d="M150.631 167.975C150.745 168.032 151.086 166.722 152.393 165.128C153.7 163.534 156.144 161.826 159.27 161.085C162.396 160.402 165.295 160.687 167.398 160.915C169.5 161.199 170.751 161.427 170.808 161.37C170.808 161.313 169.557 160.915 167.454 160.516C165.351 160.174 162.339 159.776 159.156 160.516C155.917 161.256 153.359 163.135 152.109 164.9C151.484 165.754 151.086 166.552 150.859 167.121C150.688 167.633 150.631 167.975 150.631 167.975Z" fill="#455A64"/>
<path d="M189.677 174.58C189.677 174.637 190.643 174.352 191.723 173.214C192.746 172.132 193.769 170.025 193.314 167.633C192.803 165.242 190.984 163.705 189.62 163.135C188.199 162.509 187.233 162.68 187.233 162.737C187.233 162.851 188.142 162.851 189.449 163.534C190.7 164.16 192.291 165.641 192.746 167.747C193.201 169.854 192.348 171.847 191.439 172.929C190.473 174.125 189.62 174.523 189.677 174.58Z" fill="#455A64"/>
<path d="M145.971 188.701C146.027 188.587 144.948 188.018 143.47 186.936C142.731 186.367 141.935 185.569 141.367 184.488C140.799 183.463 140.628 182.039 141.196 180.786C141.708 179.534 142.788 178.566 143.868 178.167C145.004 177.769 146.141 177.769 146.994 177.94C148.812 178.338 149.722 179.249 149.779 179.135C149.779 179.135 149.608 178.851 149.21 178.509C148.756 178.167 148.074 177.769 147.107 177.484C146.141 177.199 144.948 177.142 143.64 177.598C142.39 178.053 141.196 179.078 140.571 180.502C139.889 181.925 140.173 183.577 140.799 184.715C141.424 185.854 142.39 186.651 143.129 187.221C143.925 187.79 144.607 188.132 145.118 188.359C145.686 188.587 145.971 188.701 145.971 188.701Z" fill="#263238"/>
<path d="M145.459 188.758C145.402 188.758 145.232 189.043 144.947 189.669C144.663 190.295 144.322 191.149 143.981 192.288C143.64 193.427 143.299 194.851 143.299 196.445C143.299 198.039 143.64 199.861 144.72 201.399C145.8 202.936 147.448 203.961 149.04 204.132C150.688 204.359 152.166 203.676 153.018 202.765C153.871 201.854 154.212 200.886 154.268 200.203C154.325 199.52 154.155 199.178 154.155 199.178C154.098 199.178 154.155 199.577 154.041 200.203C153.927 200.829 153.586 201.683 152.734 202.48C151.938 203.278 150.631 203.847 149.153 203.562C147.732 203.335 146.198 202.423 145.232 201C144.265 199.577 143.924 197.868 143.868 196.388C143.811 194.851 144.095 193.484 144.379 192.402C145.004 190.125 145.573 188.758 145.459 188.758Z" fill="#263238"/>
<path d="M161.714 169.057C163.021 171.676 161.998 174.808 160.691 177.427C159.327 180.046 157.622 182.609 157.508 185.512C157.338 190.409 161.657 194.737 161.089 199.577C160.748 202.48 158.417 204.986 155.576 205.669C157.906 204.132 158.076 200.715 157.224 198.096C156.315 195.477 152.052 188.473 151.427 185.797C149.324 176.687 150.233 175.605 153.416 172.416" fill="#263238"/>
<path d="M152.904 175.605C152.904 175.662 153.53 175.833 154.609 175.662C155.633 175.491 157.11 174.979 158.304 173.897C159.497 172.758 160.122 171.391 160.35 170.367C160.577 169.342 160.464 168.658 160.407 168.658C160.293 168.658 160.236 169.285 159.895 170.253C159.554 171.164 158.929 172.416 157.849 173.441C156.769 174.466 155.462 174.979 154.496 175.263C153.586 175.491 152.904 175.491 152.904 175.605Z" fill="#455A64"/>
<path d="M156.712 202.765C156.712 202.765 156.826 202.708 157.053 202.537C157.224 202.367 157.508 202.139 157.792 201.74C158.361 201 159.043 199.633 159.043 197.868C159.043 197.014 158.815 196.046 158.361 195.078C157.849 194.167 157.11 193.37 156.315 192.573C155.519 191.776 154.78 190.922 154.325 189.84C153.871 188.758 153.643 187.562 153.7 186.31C153.757 185.057 154.098 183.918 154.723 182.893C155.292 181.868 156.03 180.957 156.769 180.103C158.247 178.395 159.384 176.687 160.066 175.093C160.748 173.498 161.032 172.132 161.032 171.164C161.089 170.196 160.975 169.683 160.918 169.683C160.805 169.683 161.089 171.847 159.611 174.865C158.872 176.345 157.735 177.996 156.258 179.648C155.519 180.502 154.78 181.413 154.155 182.495C153.53 183.577 153.132 184.886 153.075 186.196C153.018 187.562 153.245 188.872 153.814 190.011C154.325 191.149 155.121 192.117 155.917 192.915C156.712 193.712 157.451 194.452 157.906 195.306C158.361 196.103 158.588 197.014 158.645 197.811C158.702 199.463 158.133 200.715 157.679 201.512C157.11 202.367 156.656 202.708 156.712 202.765Z" fill="#455A64"/>
<path d="M151.881 175.263C151.881 175.263 151.597 175.434 151.199 175.833C150.802 176.231 150.347 176.915 149.892 177.826C149.04 179.648 148.642 182.609 149.551 185.626C150.461 188.587 152.222 190.865 153.473 192.402C154.78 193.94 155.689 194.737 155.746 194.68C155.803 194.623 155.007 193.655 153.814 192.117C152.62 190.58 151.029 188.302 150.119 185.456C149.267 182.609 149.551 179.819 150.233 178.053C151.029 176.174 151.938 175.32 151.881 175.263Z" fill="#455A64"/>
<path d="M195.474 253.27L201.328 242.395C201.726 241.655 202.465 241.199 203.26 241.199H245.091C245.944 241.199 246.682 241.655 247.08 242.395L205.648 270.295L187.347 272.402C186.949 271.662 186.949 270.751 187.29 270.011L195.474 253.27Z" fill="#263238"/>
<g opacity="0.3">
<g opacity="0.3">
<g opacity="0.3">
<path opacity="0.3" d="M151.256 278.096C158.588 274.907 167.057 274.452 173.934 270.352C176.548 268.815 178.935 266.765 181.606 265.285C184.278 263.861 187.574 263.007 190.416 264.146C193.257 265.285 195.417 269.555 193.94 272.231C193.371 273.655 190.7 275.021 189.165 274.851C187.631 274.737 186.21 274.11 184.675 273.883C181.379 273.484 178.253 275.078 175.298 276.559C168.932 279.747 162.339 282.48 155.633 284.758C154.041 285.27 152.393 285.783 150.745 285.555C149.097 285.327 147.505 284.075 147.392 282.423C147.278 280.431 149.381 278.95 151.256 278.096Z" fill="black"/>
</g>
</g>
</g>
<path d="M187.29 272.459L201.953 243.705C202.351 242.964 203.147 242.452 203.999 242.452H247.251L231.11 271.548L187.29 272.459Z" fill="#455A64"/>
<path d="M221.22 252.815C220.595 253.327 219.743 253.214 219.231 252.587C218.72 251.961 218.833 251.107 219.458 250.594C220.084 250.082 220.936 250.196 221.448 250.822C221.902 251.448 221.789 252.302 221.22 252.815Z" fill="#EBEBEB"/>
<path d="M183.141 257.484L187.517 254.125C189.279 251.904 192.007 250.594 194.849 250.594H197.179L198.77 252.416C198.77 252.416 210.365 252.929 210.82 254.352V254.808V255.093L200.873 255.776C200.873 255.776 209.342 255.776 209.796 255.776C210.365 255.776 212.127 255.662 212.127 256.63C212.07 257.427 211.161 258.11 209.683 258.281C209.058 258.395 201.783 259.021 201.783 259.021C201.783 259.021 209.455 258.964 209.853 258.964C210.763 258.964 210.649 260.388 210.081 260.616C209.683 260.786 199.339 263.747 199.339 263.747C199.339 263.747 201.101 264.886 202.465 264.829C203.886 264.715 206.33 262.893 206.841 263.747C207.353 264.601 207.239 265.114 206.955 265.342C206.671 265.569 203.317 267.278 202.181 267.562C201.044 267.847 192.007 269.327 192.007 269.327L184.448 268.359L183.141 257.484Z" fill="#FFBE9D"/>
<path d="M202.749 252.53C202.749 252.473 200.93 252.416 198.657 252.359C196.383 252.359 194.565 252.416 194.565 252.473C194.565 252.53 196.383 252.587 198.657 252.644C200.93 252.644 202.749 252.587 202.749 252.53Z" fill="#EB996E"/>
<path d="M183.141 257.484L151.2 263.577L148.017 223.32C148.017 223.32 139.378 216.032 134.831 220.986C130.284 225.94 129.943 231.804 130.227 234.708C130.512 237.612 133.41 272.004 135.854 277.868C139.207 286.011 147.846 285.555 150.233 284.986C152.62 284.416 187.006 268.132 187.006 268.132L183.141 257.484Z" fill="#FFBE9D"/>
<path d="M149.153 223.093C150.29 232.203 152.507 246.096 152.62 255.263C152.62 255.662 130.625 257.484 130.625 257.484C130.625 257.484 129.488 236.758 130.284 230.438C131.25 223.263 136.593 218.367 136.593 218.367H143.47L149.153 223.093Z" fill="#E04E39"/>
<path d="M130.625 257.484C130.625 257.484 130.796 257.484 131.08 257.484C131.421 257.484 131.819 257.427 132.33 257.37C133.467 257.256 135.058 257.142 137.047 256.972C141.026 256.573 146.539 256.06 152.62 255.434H152.791V255.263C152.791 254.979 152.734 254.694 152.734 254.352C152.279 248.032 151.881 242.281 151.597 238.125C151.427 236.075 151.313 234.423 151.199 233.228C151.143 232.658 151.086 232.203 151.086 231.918C151.029 231.633 151.029 231.463 151.029 231.463C151.029 231.463 151.029 231.633 151.029 231.918C151.029 232.26 151.086 232.715 151.086 233.285C151.143 234.48 151.256 236.132 151.37 238.238C151.654 242.395 151.995 248.146 152.45 254.466C152.45 254.751 152.507 255.093 152.507 255.377L152.62 255.206C146.539 255.833 141.026 256.402 137.047 256.801C135.115 257.028 133.524 257.199 132.387 257.313C131.875 257.37 131.421 257.427 131.137 257.484C130.796 257.427 130.625 257.427 130.625 257.484Z" fill="#263238"/>
</g>
<path d="M252.735 366.767C252.735 366.891 237.135 366.982 217.901 366.982C198.666 366.982 183.067 366.891 183.067 366.767C183.067 366.642 198.658 366.551 217.901 366.551C237.144 366.551 252.735 366.651 252.735 366.767Z" fill="#263238"/>
<path d="M227.605 336.28C227.988 337.631 228.232 339.018 228.334 340.42C228.578 341.802 228.678 343.206 228.632 344.609C228.253 343.257 228.008 341.87 227.903 340.469C227.663 339.086 227.563 337.683 227.605 336.28V336.28Z" fill="#455A64"/>
<path d="M101.873 296.917C101.873 296.917 174.596 306.124 177.221 308.674C179.506 310.91 182.413 369.946 183.058 369.698L115.162 367.123L101.873 296.917Z" fill="#455A64"/>
<path d="M161.87 383.409C161.746 383.409 160.214 366.377 158.483 345.321C156.753 324.265 155.412 307.233 155.536 307.233C155.66 307.233 157.192 324.257 158.914 345.321C160.636 366.386 161.986 383.401 161.87 383.409Z" fill="#263238"/>
<path d="M87.5652 220.6C87.6064 220.692 87.6369 220.79 87.6563 220.889L87.855 221.717L88.5919 224.947C89.2295 227.787 90.1237 231.844 91.2415 236.853C93.4357 246.938 96.4579 260.865 99.803 276.175C100.631 280.009 101.459 283.759 102.221 287.386C102.61 289.199 102.999 290.971 103.372 292.718C103.463 293.149 103.554 293.588 103.653 294.018C103.723 294.439 103.831 294.852 103.976 295.252C104.295 296.013 104.849 296.651 105.558 297.074C105.906 297.276 106.283 297.424 106.675 297.513C107.056 297.604 107.503 297.637 107.893 297.695L110.327 298.018L114.98 298.622L123.335 299.732L135.415 301.388L138.727 301.851L139.555 301.975C139.654 301.986 139.752 302.008 139.845 302.042H139.547L138.719 301.951L135.407 301.57L123.302 300.071L114.947 299.02L110.286 298.432L107.851 298.125C107.437 298.067 107.023 298.034 106.601 297.943C106.167 297.843 105.751 297.679 105.367 297.455C104.58 296.995 103.963 296.292 103.612 295.451C103.456 295.026 103.337 294.588 103.256 294.143C103.165 293.712 103.074 293.315 102.974 292.843C102.602 291.104 102.213 289.324 101.815 287.519C101.037 283.892 100.225 280.141 99.389 276.307C96.077 260.948 93.1128 247.054 90.9517 236.961C89.8919 231.943 89.039 227.853 88.4677 225.029C88.1779 223.638 87.9626 222.545 87.8053 221.775C87.7391 221.419 87.6811 221.138 87.6397 220.947C87.5983 220.757 87.5652 220.608 87.5652 220.6Z" fill="#263238"/>
<path d="M178.281 313.369C178.405 313.369 179.788 329.101 181.386 348.459C182.984 367.818 184.176 383.575 184.052 383.583C183.928 383.591 182.545 367.851 180.955 348.492C179.366 329.134 178.165 313.377 178.281 313.369Z" fill="#263238"/>
<path d="M271.456 99.1171C272.869 99.1171 274.014 97.9716 274.014 96.5585C274.014 95.1455 272.869 94 271.456 94C270.043 94 268.897 95.1455 268.897 96.5585C268.897 97.9716 270.043 99.1171 271.456 99.1171Z" fill="white"/>
<path d="M280.017 99.1171C281.43 99.1171 282.576 97.9716 282.576 96.5585C282.576 95.1455 281.43 94 280.017 94C278.604 94 277.459 95.1455 277.459 96.5585C277.459 97.9716 278.604 99.1171 280.017 99.1171Z" fill="white"/>
<path d="M291.137 96.5585C291.137 97.0645 290.987 97.5592 290.706 97.98C290.425 98.4007 290.025 98.7286 289.558 98.9223C289.09 99.1159 288.576 99.1666 288.08 99.0679C287.583 98.9692 287.127 98.7255 286.77 98.3677C286.412 98.0099 286.168 97.554 286.069 97.0577C285.971 96.5614 286.021 96.0469 286.215 95.5794C286.409 95.1119 286.737 94.7123 287.157 94.4312C287.578 94.1501 288.073 94 288.579 94C288.915 94 289.248 94.0662 289.558 94.1948C289.868 94.3233 290.15 94.5118 290.388 94.7494C290.626 94.987 290.814 95.269 290.943 95.5794C291.071 95.8898 291.137 96.2225 291.137 96.5585V96.5585Z" fill="white"/>
<path d="M294.365 141.042C296.994 138.413 296.994 134.15 294.365 131.521C291.737 128.893 287.474 128.893 284.845 131.521C282.217 134.15 282.217 138.413 284.845 141.042C287.474 143.67 291.737 143.67 294.365 141.042Z" fill="#E04E39"/>
<path d="M290.74 132.906V139.423H289.233V134.115H287.933V132.906H290.74Z" fill="white"/>
<path d="M357.394 136.508C357.318 135.708 357.188 134.914 357.005 134.132C356.443 132.017 355.186 130.154 353.436 128.841C352.151 127.874 350.644 127.244 349.054 127.008C347.463 126.772 345.838 126.938 344.328 127.491C343.458 127.802 342.64 128.243 341.902 128.799C341.12 129.367 340.435 130.058 339.873 130.844C338.663 132.485 338.01 134.47 338.01 136.508C338.01 138.546 338.663 140.531 339.873 142.172C340.435 142.958 341.12 143.649 341.902 144.217C342.64 144.773 343.458 145.214 344.328 145.525C345.592 145.985 346.939 146.176 348.282 146.087C349.624 145.998 350.934 145.63 352.126 145.007C353.319 144.384 354.369 143.519 355.209 142.468C356.048 141.416 356.66 140.202 357.005 138.901C357.187 138.121 357.317 137.33 357.394 136.533C357.412 136.742 357.412 136.953 357.394 137.162C357.396 137.414 357.377 137.667 357.336 137.916C357.302 138.262 357.241 138.605 357.154 138.942C356.709 140.783 355.745 142.457 354.377 143.766C353.01 145.075 351.295 145.964 349.437 146.328C347.684 146.661 345.874 146.518 344.195 145.914C343.285 145.594 342.429 145.139 341.654 144.564C340.837 143.973 340.122 143.255 339.534 142.436C338.265 140.725 337.581 138.651 337.581 136.52C337.581 134.39 338.265 132.316 339.534 130.604C340.124 129.79 340.84 129.075 341.654 128.485C342.429 127.91 343.285 127.455 344.195 127.135C345.874 126.531 347.684 126.388 349.437 126.721C351.299 127.083 353.018 127.972 354.389 129.283C355.76 130.594 356.726 132.271 357.17 134.115C357.257 134.449 357.318 134.79 357.352 135.134C357.393 135.385 357.413 135.64 357.41 135.895C357.422 136.1 357.416 136.305 357.394 136.508V136.508Z" fill="#E04E39"/>
<path d="M413.151 136.284C413.102 136.284 413.151 135.68 412.862 134.628C412.458 133.182 411.584 131.912 410.378 131.018C409.501 130.36 408.473 129.933 407.388 129.775C406.303 129.617 405.196 129.734 404.168 130.116C402.954 130.554 401.901 131.347 401.145 132.393C400.323 133.51 399.879 134.86 399.879 136.247C399.879 137.634 400.323 138.985 401.145 140.101C401.903 141.147 402.955 141.942 404.168 142.387C405.197 142.765 406.304 142.879 407.388 142.72C408.473 142.561 409.501 142.133 410.378 141.476C411.581 140.583 412.455 139.316 412.862 137.874C413.135 136.847 413.102 136.218 413.151 136.218C413.174 136.361 413.174 136.506 413.151 136.649C413.146 137.065 413.093 137.478 412.994 137.882C412.693 139.157 412.031 140.318 411.086 141.226C410.142 142.133 408.956 142.749 407.67 142.999C406.456 143.236 405.2 143.142 404.035 142.726C402.741 142.266 401.616 141.426 400.806 140.317C399.925 139.13 399.449 137.692 399.449 136.214C399.449 134.736 399.925 133.298 400.806 132.111C401.616 131.002 402.741 130.162 404.035 129.702C405.2 129.286 406.456 129.192 407.67 129.429C408.957 129.678 410.145 130.295 411.089 131.205C412.034 132.114 412.696 133.277 412.994 134.554C413.093 134.955 413.146 135.366 413.151 135.779C413.18 135.946 413.18 136.117 413.151 136.284Z" fill="#58595B"/>
<path d="M354 136H295V137H354V136Z" fill="#E04E39"/>
<path d="M354.239 137.357C354.836 133.687 352.345 130.228 348.675 129.631C345.006 129.034 341.547 131.525 340.95 135.195C340.353 138.864 342.844 142.323 346.513 142.92C350.183 143.517 353.642 141.026 354.239 137.357Z" fill="#E04E39"/>
<path d="M350.141 138.197V139.423H345.214V138.446L347.698 136.069C348.278 135.523 348.377 135.183 348.377 134.869C348.377 134.355 348.029 134.041 347.334 134.041C347.073 134.032 346.813 134.087 346.578 134.201C346.343 134.315 346.139 134.484 345.984 134.695L344.891 133.991C345.188 133.59 345.579 133.269 346.029 133.057C346.48 132.845 346.977 132.747 347.474 132.774C348.932 132.774 349.901 133.519 349.901 134.703C349.89 135.108 349.786 135.505 349.597 135.862C349.407 136.22 349.137 136.529 348.808 136.765L347.309 138.181L350.141 138.197Z" fill="white"/>
<path d="M408.978 137.427C408.978 138.528 408.15 139.538 406.279 139.538C405.4 139.552 404.536 139.307 403.795 138.835L404.383 137.684C404.927 138.07 405.578 138.276 406.246 138.272C406.999 138.272 407.463 137.965 407.463 137.444C407.463 136.922 407.107 136.616 406.246 136.616H405.559V135.614L406.9 134.099H404.126V132.89H408.688V133.908L407.215 135.564C407.691 135.59 408.14 135.797 408.468 136.144C408.796 136.49 408.979 136.95 408.978 137.427V137.427Z" fill="#58595B"/>
<path d="M327.959 190.274L327.959 190.274C328.667 190.273 329.369 190.412 330.023 190.682C330.678 190.952 331.272 191.349 331.773 191.849C332.274 192.35 332.672 192.944 332.943 193.598C333.214 194.252 333.354 194.953 333.354 195.661C333.354 196.369 333.214 197.07 332.943 197.725C332.672 198.379 332.274 198.973 331.773 199.473C331.272 199.973 330.678 200.37 330.023 200.64C329.369 200.911 328.667 201.049 327.959 201.048L327.959 201.548V201.048H284.522C283.093 201.048 281.723 200.481 280.712 199.47C279.702 198.46 279.135 197.09 279.135 195.661C279.135 194.954 279.274 194.253 279.545 193.6C279.815 192.946 280.212 192.352 280.712 191.852C281.213 191.352 281.806 190.955 282.46 190.684C283.114 190.413 283.814 190.274 284.522 190.274L327.959 190.274Z" fill="white" stroke="#EBEBEB"/>
<path d="M327.959 170.5L327.959 170.5C328.667 170.499 329.369 170.638 330.023 170.908C330.678 171.178 331.272 171.575 331.773 172.075C332.274 172.575 332.672 173.17 332.943 173.824C333.214 174.478 333.354 175.179 333.354 175.887C333.354 176.595 333.214 177.296 332.943 177.95C332.672 178.604 332.274 179.199 331.773 179.699C331.272 180.199 330.678 180.596 330.023 180.866C329.369 181.137 328.667 181.275 327.959 181.274L327.959 181.774V181.274H284.522C283.093 181.274 281.723 180.707 280.712 179.696C279.702 178.686 279.135 177.316 279.135 175.887C279.135 175.18 279.274 174.479 279.545 173.826C279.815 173.172 280.212 172.578 280.712 172.078C281.213 171.578 281.806 171.181 282.46 170.91C283.114 170.639 283.814 170.5 284.522 170.5L327.959 170.5Z" fill="white" stroke="#EBEBEB"/>
<path d="M406.85 201.048H363.405C361.976 201.048 360.606 200.481 359.596 199.47C358.586 198.46 358.018 197.09 358.018 195.661C358.018 194.954 358.157 194.253 358.428 193.6C358.699 192.946 359.096 192.352 359.596 191.852C360.096 191.352 360.69 190.955 361.344 190.684C361.997 190.413 362.698 190.274 363.405 190.274H406.85C407.558 190.274 408.258 190.413 408.912 190.684C409.565 190.955 410.159 191.352 410.66 191.852C411.16 192.352 411.557 192.946 411.827 193.6C412.098 194.253 412.237 194.954 412.237 195.661C412.237 197.09 411.67 198.46 410.66 199.47C409.649 200.481 408.279 201.048 406.85 201.048Z" fill="white" stroke="#EBEBEB"/>
<path d="M406.85 181.274H363.405C361.976 181.274 360.606 180.707 359.596 179.696C358.586 178.686 358.018 177.316 358.018 175.887C358.018 175.18 358.157 174.479 358.428 173.826C358.699 173.172 359.096 172.578 359.596 172.078C360.096 171.578 360.69 171.181 361.344 170.91C361.997 170.639 362.698 170.5 363.405 170.5H406.85C407.558 170.5 408.258 170.639 408.912 170.91C409.565 171.181 410.159 171.578 410.66 172.078C411.16 172.578 411.557 173.172 411.827 173.826C412.098 174.479 412.237 175.18 412.237 175.887C412.237 177.316 411.67 178.686 410.66 179.696C409.649 180.707 408.279 181.274 406.85 181.274Z" fill="white" stroke="#EBEBEB"/>
<path d="M284.845 220.822L284.844 220.822C284.136 220.823 283.434 220.685 282.78 220.415C282.126 220.144 281.531 219.748 281.03 219.247C280.529 218.747 280.131 218.153 279.86 217.499C279.589 216.845 279.449 216.143 279.449 215.435C279.449 214.727 279.589 214.026 279.86 213.372C280.131 212.718 280.529 212.124 281.03 211.623C281.531 211.123 282.126 210.726 282.78 210.456C283.434 210.186 284.136 210.047 284.844 210.048H284.845L408.457 210.048L408.457 210.048C409.165 210.047 409.867 210.186 410.521 210.456C411.176 210.726 411.771 211.123 412.272 211.623C412.773 212.124 413.17 212.718 413.441 213.372C413.712 214.026 413.852 214.727 413.852 215.435C413.852 216.143 413.712 216.845 413.441 217.499C413.17 218.153 412.773 218.747 412.272 219.247C411.771 219.748 411.176 220.144 410.521 220.415C409.867 220.685 409.165 220.823 408.457 220.822L408.457 221.322V220.822H284.845Z" fill="white" stroke="#EBEBEB"/>
<path d="M354 137L400 137" stroke="#58595B"/>
<g opacity="0.8">
<g opacity="0.24">
<path d="M437.855 432.457C439.559 415.442 428.867 400.406 422.93 385.246C416.1 367.846 411.908 349.346 410.699 330.682C410.191 322.724 410.273 313.213 415.99 306.932C419.233 303.358 424.098 302.575 427.465 306.465C430.461 309.914 430.379 314.794 430.282 319.095C429.856 337.87 429.279 356.658 434.117 374.979C436.81 385.15 439.792 395.114 441.276 405.56C442.555 414.562 442.857 424.609 437.195 432.265C436.92 432.636 437.538 432.993 437.813 432.622C442.637 426.107 443.2 417.778 442.513 409.958C441.661 400.337 439.353 390.895 436.714 381.631C433.91 371.749 431.78 361.95 431.079 351.683C430.392 341.512 430.681 331.328 430.942 321.143C431.052 316.993 431.437 312.471 429.664 308.567C428.4 305.791 425.816 303.303 422.655 303.029C414.836 302.383 411.084 312.842 410.218 318.903C408.995 327.562 410.287 336.729 411.565 345.319C413.008 355.05 415.234 364.657 418.203 374.031C421.336 383.871 425.582 393.094 429.898 402.454C434.226 411.855 438.198 421.86 437.14 432.416C437.099 432.911 437.813 432.911 437.855 432.457Z" fill="#E04E39"/>
</g>
<g opacity="0.24">
<path d="M438.28 431.948C440.369 425.283 440.026 418.177 438.899 411.373C437.676 403.979 435.559 396.722 433.072 389.672C430.419 382.153 427.369 374.773 425.115 367.117C422.82 359.379 421.322 351.408 420.635 343.368C419.851 334.214 420.126 324.992 421.432 315.907C421.5 315.453 420.813 315.261 420.745 315.714C418.546 331.067 419.26 346.776 422.943 361.853C426.654 377.027 433.759 391.115 437.181 406.384C439.036 414.645 440.149 423.537 437.579 431.77C437.456 432.196 438.157 432.388 438.28 431.948Z" fill="#E04E39"/>
</g>
<g opacity="0.24">
<path d="M438.253 430.959C446.966 415.676 448.986 398.358 447.076 381.068C446.1 372.272 444.259 363.613 442.239 354.995C440.095 345.842 438.652 336.812 441.139 327.562C443.159 320.044 448.45 309.873 457.864 311.454C461.849 312.127 464.392 315.385 465.271 319.164C466.165 323.04 465.423 326.916 464.227 330.641C462.949 334.613 461.258 338.475 460.613 342.626C459.953 346.804 460.242 351.051 460.599 355.243C461.396 364.547 461.3 373.77 460.805 383.088C460.283 392.86 459.197 402.77 455.17 411.8C451.666 419.648 445.977 427.056 437.841 430.423C437.415 430.602 437.607 431.289 438.033 431.11C453.123 424.884 459.115 407.264 460.791 392.352C461.891 382.635 462.317 372.588 461.877 362.816C461.657 358.019 460.956 353.25 460.929 348.453C460.901 343.533 462.042 339.08 463.663 334.475C465.917 328.112 468.446 320.058 463.691 314.12C459.101 308.375 450.759 310.492 446.403 315.316C440.919 321.391 438.899 330.806 438.995 338.777C439.092 348.206 442.239 357.414 444.066 366.595C446.238 377.481 447.653 388.641 446.87 399.76C446.114 410.631 443.036 421.132 437.635 430.602C437.401 431 438.02 431.358 438.253 430.959Z" fill="#E04E39"/>
</g>
<g opacity="0.24">
<path d="M438.665 430.835C446.622 420.912 452.642 408.309 453.989 395.568C454.813 387.72 454.016 379.652 453.7 371.79C453.37 363.736 453.013 355.696 452.738 347.642C452.477 340.028 452.601 331.809 457.397 325.459C457.672 325.088 457.053 324.731 456.778 325.102C452.999 330.105 452.051 336.372 451.955 342.488C451.831 350.116 452.422 357.771 452.738 365.399C453.054 373.426 453.631 381.494 453.576 389.534C453.535 396.571 452.202 403.306 449.728 409.889C446.98 417.229 443.091 424.211 438.184 430.327C437.868 430.684 438.377 431.193 438.665 430.835Z" fill="#E04E39"/>
</g>
<g opacity="0.24">
<path d="M433.869 433.515C433.347 428.018 430.337 423.249 427.067 418.96C423.535 414.329 419.549 410.123 415.633 405.807C411.249 400.983 407.648 395.76 404.515 390.043C401.492 384.531 398.193 378.965 397.19 372.684C396.654 369.358 396.627 365.977 396.75 362.623C396.874 359.352 396.819 355.614 398.564 352.727C400.337 349.786 404.034 348.316 406.892 350.735C409.517 352.961 409.888 356.548 410.122 359.764C411.015 371.818 415.592 382.813 421.047 393.465C427.273 405.615 436.027 419.112 433.182 433.433C433.086 433.886 433.787 434.079 433.869 433.625C436.412 420.871 429.802 408.584 424.057 397.684C417.667 385.562 411.881 373.302 410.809 359.448C410.479 355.16 408.954 348.329 403.251 348.755C397.589 349.181 396.421 355.847 396.159 360.328C395.788 366.884 395.885 373.577 398.454 379.721C400.969 385.713 404.323 391.678 407.882 397.107C411.936 403.306 417.282 408.377 422.106 413.957C426.874 419.469 432.468 425.956 433.168 433.515C433.196 433.969 433.911 433.969 433.869 433.515Z" fill="#FF6239"/>
</g>
<g opacity="0.24">
<path d="M433.87 433.007C432.605 422.754 429.197 412.817 423.741 404.02C418.121 394.949 410.15 387.335 406.632 377.055C404.529 370.925 403.924 364.382 404.79 357.964C404.845 357.51 404.158 357.318 404.103 357.772C402.688 368.231 405.23 378.47 410.947 387.308C413.792 391.706 417.145 395.747 420.196 400.007C423.453 404.57 426.229 409.436 428.359 414.631C430.778 420.5 432.372 426.698 433.155 433.007C433.21 433.46 433.925 433.46 433.87 433.007Z" fill="#E04E39"/>
</g>
</g>
<path d="M399.76 330.091C405.546 327.096 412.367 326.713 418.797 327.777C422.25 328.346 425.852 329.382 428.194 331.976C430.537 334.571 430.994 339.134 428.297 341.364C426.692 342.689 424.452 342.885 422.362 342.867C417.332 342.801 411.751 341.934 407.729 344.948C405.434 346.674 403.912 349.549 401.197 350.398C398.481 351.247 395.486 349.642 394.058 347.225C392.755 344.699 392.468 341.771 393.255 339.041C393.578 337.149 394.333 335.358 395.461 333.806C396.589 332.253 398.06 330.982 399.76 330.091Z" fill="#455A64"/>
<path d="M386.489 304.475C390.036 309.533 396.913 307.862 400.105 304.773C403.296 301.684 404.64 297.214 405.872 292.95C408.672 283.198 411.471 272.979 409.418 263.087C408.914 260.08 407.593 257.268 405.601 254.959C403.511 252.756 400.31 251.45 397.38 252.225C393.908 253.158 391.781 256.536 390.194 259.774C385.605 269.306 383.195 279.739 383.139 290.318C383.139 295.245 383.699 300.415 386.48 304.475" fill="#455A64"/>
<path d="M376.765 311.735C380.61 307.172 381.347 300.537 379.63 294.807C377.913 289.077 374.031 284.224 369.608 280.258C364.364 275.593 358.262 271.992 351.644 269.657C349.083 268.622 346.329 268.154 343.571 268.285C342.191 268.364 340.852 268.78 339.669 269.495C338.487 270.211 337.497 271.205 336.787 272.391C334.92 275.993 336.712 280.361 338.653 283.935C342.118 290.221 346.071 296.224 350.477 301.89C354.014 306.453 358.064 310.951 363.449 313.004C368.833 315.057 374.432 314.824 377.288 311.091" fill="#455A64"/>
<path d="M386.256 380.755C386.44 380.003 386.546 379.233 386.573 378.459C386.732 376.789 386.937 374.726 387.18 372.188C387.496 369.102 387.97 366.034 388.598 362.996C389.416 359.291 390.533 355.658 391.939 352.133C393.314 348.624 395.18 345.328 397.482 342.344C399.355 339.903 401.75 337.91 404.491 336.512C406.347 335.584 408.337 334.954 410.389 334.645C411.16 334.616 411.926 334.506 412.675 334.319C411.903 334.236 411.124 334.236 410.351 334.319C408.219 334.481 406.133 335.024 404.192 335.924C401.309 337.288 398.779 339.3 396.801 341.803C394.4 344.838 392.462 348.212 391.053 351.816C389.631 355.393 388.523 359.087 387.74 362.856C387.14 365.939 386.732 369.055 386.517 372.188C386.312 374.848 386.237 377.003 386.2 378.497C386.138 379.249 386.157 380.006 386.256 380.755V380.755Z" fill="#263238"/>
<path d="M386.685 375.94C386.748 375.589 386.77 375.232 386.751 374.876C386.751 374.073 386.751 373.065 386.751 371.824C386.751 369.183 386.751 365.357 386.881 360.626C387.115 351.172 387.936 341.028 389.504 326.638C390.997 313.154 392.994 297.448 395.103 287.238C395.551 284.915 396.036 282.824 396.437 280.995C396.839 279.166 397.193 277.58 397.539 276.329L398.248 273.371C398.347 273.027 398.409 272.673 398.435 272.316C398.274 272.624 398.151 272.95 398.071 273.287C397.837 274.052 397.548 275.023 397.137 276.208C396.727 277.393 396.344 279.008 395.887 280.874C395.43 282.74 394.954 284.784 394.412 287.098C391.805 299.178 389.848 311.39 388.552 323.68C386.975 338.061 386.266 351.154 386.2 360.635C386.144 365.366 386.2 369.211 386.368 371.834C386.443 373.075 386.508 374.083 386.555 374.885C386.554 375.241 386.598 375.595 386.685 375.94Z" fill="#263238"/>
<path d="M386.751 350.687C386.836 349.625 386.836 348.558 386.751 347.496C386.585 344.607 386.274 341.73 385.818 338.873C385.122 334.63 384.187 330.43 383.018 326.293C381.648 321.208 379.891 316.235 377.764 311.418C373.397 301.078 367.499 292.623 362.319 287.378C361.185 286.176 359.973 285.051 358.689 284.01C358.129 283.534 357.644 283.076 357.14 282.694L355.731 281.761C354.885 281.119 353.989 280.545 353.053 280.043C352.894 280.249 356.851 282.572 361.834 287.882C368.18 294.952 373.27 303.054 376.887 311.838C378.977 316.626 380.745 321.549 382.178 326.573C383.383 330.67 384.38 334.825 385.164 339.022C385.818 342.606 386.2 345.555 386.434 347.57C386.458 348.616 386.564 349.658 386.751 350.687V350.687Z" fill="#263238"/>
<path d="M362.338 395.229L369.869 433.631H405.415L411.938 395.229H362.338Z" fill="#E04E39"/>
<path d="M417.239 381.567H358.036V395.229H417.239V381.567Z" fill="#D8422D"/>
<path d="M410.118 406.558C410.065 406.673 409.996 406.78 409.913 406.876L409.278 407.753L406.787 411.075L406.675 411.224L406.572 411.066L400.45 402.256H400.805L394.776 411.14L394.59 411.42L394.375 411.159L387.236 402.303H387.647L387.255 402.816C385.034 405.709 382.897 408.518 380.862 411.159L380.657 411.439L380.452 411.15L374.432 402.266H374.778L367.312 411.075L367.181 411.234L367.079 411.056L364.755 406.988L364.158 405.905C364.084 405.783 364.022 405.655 363.971 405.523C363.971 405.523 364.074 405.625 364.223 405.858L364.886 406.904L367.321 410.898H367.088L374.395 401.986L374.582 401.752L374.75 401.995L380.825 410.842H380.414L386.788 402.443C386.928 402.275 387.059 402.098 387.18 401.93L387.385 401.668L387.6 401.93C390.092 405.037 392.499 408.042 394.72 410.795H394.319L400.404 401.958L400.581 401.696L400.758 401.958L406.749 410.87H406.525L409.12 407.632L409.81 406.801C410.016 406.642 410.109 406.549 410.118 406.558Z" fill="white"/>
<path d="M412.554 394.996C412.554 395.154 401.355 395.276 387.637 395.276C373.919 395.276 362.711 395.154 362.711 394.996C362.711 394.837 373.91 394.716 387.637 394.716C401.365 394.716 412.554 394.846 412.554 394.996Z" fill="#263238"/>
<defs>
<clipPath id="clip0_4310_20887">
<rect width="153" height="192" fill="white" transform="matrix(-1 0 0 1 283 153)"/>
</clipPath>
</defs>
</svg>
