<?xml version="1.0" encoding="utf-8"?><svg width="81" height="81" fill="none" xmlns="http://www.w3.org/2000/svg" viewBox="0 0 81 81"><rect width="81" height="81" rx="12" fill="#fff"/><path d="M40.715 20.262c5.063 0 10.125 0 15.188-.012.709 0 1.139.16 1.506.878.519 1.026 1.291 1.94 1.962 2.892 1.708 2.448 3.43 4.896 5.138 7.343.14.21.279.408.291.668.013.222-.063.358-.24.544-.557.556-1.063 1.174-1.582 1.78-6.91 8.171-13.82 16.318-20.718 24.464-.633.754-1.456.779-2.114.05-4.923-5.415-9.847-10.83-14.783-16.244-2.898-3.19-5.796-6.366-8.707-9.556-.57-.63-.608-1.162-.101-1.866 2.48-3.363 4.96-6.738 7.416-10.137.405-.569.873-.816 1.608-.816 5.05.025 10.1.012 15.136.012zm.52 34.564c.075-.185.113-.247.126-.321 1.848-6.948 3.683-13.895 5.518-20.842.14-.532.127-.557-.43-.557h-11.29c-.936 0-.936-.099-.632.829l4.518 14.055c.721 2.237 1.443 4.475 2.19 6.836zm-2.52-.643c-.025-.16-.025-.21-.037-.247a9683.635 9683.635 0 01-6.518-20.372c-.114-.359-.304-.47-.684-.47-3.758.012-7.53.012-11.289.012-.127 0-.278-.074-.392.112 6.277 6.96 12.555 13.919 18.92 20.965zm4.987-.136c.038.025.089.05.127.075.025-.05.05-.112.088-.161 5.746-6.824 11.48-13.648 17.226-20.484.076-.086.227-.173.151-.309-.075-.136-.265-.062-.392-.062-3.683 0-7.366.013-11.061-.012-.52 0-.71.16-.823.63a6432.78 6432.78 0 01-4.354 16.64c-.316 1.236-.645 2.46-.962 3.683zm2.418-23.054c-.013-.21-.14-.322-.228-.446-1.683-2.336-3.38-4.66-5.05-7.009-.266-.37-.38-.309-.62.013-1.519 2.101-3.063 4.203-4.594 6.292-.266.358-.507.717-.798 1.137 3.81.012 7.543.012 11.29.012zm-26.756-.025H30.68c-.05-.1-.076-.161-.114-.21-1.76-2.423-3.53-4.859-5.29-7.294-.215-.309-.342-.21-.506.025-.836 1.162-1.684 2.324-2.519 3.473-.95 1.323-1.886 2.634-2.886 4.006zm7.86-8.555c.013.037.013.087.038.124l5.316 7.38c.202.284.316.185.48-.037 1.696-2.361 3.405-4.71 5.1-7.071.09-.111.28-.235.165-.396-.075-.123-.265-.061-.405-.061H27.642c-.14.012-.291-.038-.418.061zm34.425 8.58c-.101-.161-.152-.26-.215-.347-1.683-2.348-3.367-4.71-5.063-7.058-.303-.433-.316-.433-.633 0-1.67 2.324-3.328 4.66-4.986 6.996-.076.112-.253.223-.19.347.076.16.279.074.43.074h10.15c.152.012.292 0 .507-.012zm-18.77-8.604c0 .197.115.296.19.408 1.684 2.36 3.367 4.71 5.038 7.07.24.347.354.26.557-.024 1.708-2.398 3.417-4.784 5.125-7.182.051-.075.14-.136.089-.272H42.88z" fill="#E04E39"/></svg>