<?xml version="1.0" encoding="utf-8"?><svg width="40" height="40" fill="none" xmlns="http://www.w3.org/2000/svg" viewBox="0 0 40 40"><circle cx="20" cy="20" r="20" fill="#E04E39"/><path d="M28.75 25.136l-2.538 2.378c-.375.363-.871.485-1.355.486-2.138-.06-4.16-1.053-5.82-2.071-2.724-1.872-5.223-4.193-6.792-6.998-.602-1.176-1.308-2.677-1.24-3.99.005-.494.146-.978.515-1.297l2.537-2.395c.527-.424 1.037-.277 1.374.216l2.042 3.656c.215.434.092.898-.229 1.207l-.935.883a.419.419 0 00-.095.252c.358 1.31 1.444 2.519 2.404 3.35.96.832 1.99 1.958 3.33 2.225.165.043.368.059.486-.045l1.088-1.045c.375-.268.916-.4 1.316-.18h.02l3.682 2.053c.54.32.597.939.21 1.315z" fill="#fff"/></svg>