<?xml version="1.0" encoding="utf-8"?><svg viewBox="0 0 32 31" xmlns="http://www.w3.org/2000/svg" width="32" height="31"><path d="M31.658 15.415c0 8.513-6.901 15.414-15.414 15.414C7.73 30.83.829 23.928.829 15.415.83 6.9 7.73 0 16.244 0c8.513 0 15.414 6.901 15.414 15.415z"/><path d="M14.094 19.197c0-1.01-.018-2.02.007-3.03.012-.5-.111-.73-.67-.719-1.037.02-1.039-.01-1.04-1.09v-.47c.001-1.144.001-1.166 1.105-1.19.481-.01.612-.211.605-.655-.009-.626-.041-1.252.102-1.876.295-1.302 1.077-2.084 2.378-2.323.973-.178 1.957-.131 2.939-.131.435 0 .588.212.574.63a17.88 17.88 0 00.002 1.547c.023.46-.161.664-.615.657-.38-.006-.759.009-1.138.023-.458.016-.698.254-.696.721 0 .067-.004.135-.007.201-.038 1.198-.038 1.198 1.13 1.198 1.41 0 1.41 0 1.21 1.417-.19 1.343-.19 1.372-1.542 1.34-.609-.015-.823.167-.814.794.032 2.02-.006 4.04.021 6.06.007.613-.202.852-.816.818-.712-.038-1.43-.016-2.143-.011-.422.004-.6-.185-.594-.615.014-1.099.005-2.199.005-3.3-.001.004-.003.004-.003.004z"/></svg>