<?xml version="1.0" encoding="utf-8"?><svg width="81" height="81" fill="none" xmlns="http://www.w3.org/2000/svg" viewBox="0 0 81 81"><rect width="81" height="81" rx="12" fill="#fff"/><path d="M21.096 40.456c3.145.084 6.17.864 9.129 1.848.544.186.85.118 1.258-.289a466.31 466.31 0 016.476-6.476c.39-.373.459-.576-.034-.949-5.066-3.899-10.131-7.815-15.214-11.731-1.122-.865-1.088-1.61.102-2.357 1.632-1.017 3.434-1.152 5.287-.932 4.844.576 9.23 2.492 13.582 4.56.153.068.323.136.459.22.425.306.765.221 1.105-.169.459-.508.934-.983 1.444-1.44.595-.543 1.088-.543 1.683-.018.612.56 1.224 1.12 1.785 1.73.323.355.544.322.867-.017 1.972-1.984 3.96-3.95 5.932-5.934 1.241-1.237 2.703-2 4.454-2.255 3.128-.44 5.796 2.255 5.338 5.374-.255 1.679-.97 3.103-2.16 4.29-2.005 1.983-3.994 4-6 5.967-.374.356-.425.593-.017.949a30.774 30.774 0 011.666 1.661c.561.577.561 1.085 0 1.662-.459.491-.935.983-1.445 1.44-.39.34-.408.645-.17 1.103 1.48 2.899 2.72 5.882 3.672 8.985.714 2.339 1.224 4.712 1.088 7.187-.068 1.153-.34 2.255-.986 3.238-.748 1.12-1.41 1.136-2.227.085-3.876-5-7.734-9.985-11.61-14.986-.51-.678-.51-.678-1.105-.085-2.108 2.102-4.198 4.205-6.323 6.29-.374.373-.493.695-.323 1.22.85 2.441 1.547 4.933 1.836 7.51.17 1.543.238 3.086-.255 4.594-.187.577-.442 1.102-.867 1.543-.68.712-1.31.712-1.921-.068-.612-.763-1.19-1.542-1.785-2.322-1.87-2.458-3.757-4.916-5.626-7.392-.595-.78-.595-.78-1.547-.406-.204.084-.391.152-.595.237-.425.152-.8.068-1.122-.237-.34-.305-.391-.695-.272-1.102.085-.288.187-.577.323-.831.323-.56.136-.881-.357-1.237-3.179-2.34-6.374-4.713-9.553-7.07-1.19-.881-1.156-1.695.102-2.509 1.207-.763 2.533-.915 3.926-.881zm8.636 10.714c.374.068.595-.102.816-.187 2.107-.881 4.215-1.78 6.34-2.661.374-.153.697-.373.986-.661 2.686-2.713 5.422-5.357 8.108-8.087 4.913-4.967 9.876-9.866 14.806-14.782 1.088-1.086 1.802-2.34 1.666-3.967-.102-1.204-.97-2.069-2.193-2.153-1.632-.136-2.89.56-4.012 1.678a6530.201 6530.201 0 01-21.724 21.648c-1.07 1.068-1.938 2.204-2.465 3.628-.696 1.848-1.53 3.662-2.328 5.544zm-2.72-29.43c-.425 0-.85-.017-1.275 0-.22.017-.544 0-.595.237-.05.22.238.322.408.441 4.624 3.526 9.247 7.052 13.854 10.596.408.305.646.288 1.003-.068 1.836-1.882 3.722-3.713 5.575-5.578 1.037-1.034 1.02-1.017-.034-2.034-.289-.271-.493-.322-.782-.017-.374.407-.782.78-1.173 1.17-.663.644-1.003.712-1.801.288-2.516-1.322-5.117-2.492-7.803-3.441-2.397-.831-4.81-1.56-7.377-1.594zm32.263 32.498c-.017-.983-.153-1.95-.34-2.899-.85-4.12-2.465-7.95-4.318-11.697-.934-1.882-1.07-1.763.561-3.39.952-.933.952-.662 0-1.662-.441-.44-.713-.39-1.121.034-1.972 2.017-3.978 4-5.984 5.967-.408.39-.425.645-.068 1.085 2.72 3.492 5.423 7.002 8.125 10.51l2.5 3.205c.101.136.186.407.407.339.204-.068.17-.322.187-.509.034-.305.034-.644.051-.983zM38.401 61.63c.238-.679.238-1.289.187-1.9-.204-2.864-.918-5.627-1.802-8.34-.136-.407-.34-.458-.714-.288-1.24.542-2.499 1.068-3.757 1.56-.526.203-.577.407-.22.864 1.58 2 3.127 4.018 4.674 6.018a263.8 263.8 0 001.632 2.086zM19.448 42.626c2.872 2.204 5.61 4.323 8.363 6.442.374.288.476-.017.578-.272.51-1.254 1.003-2.509 1.547-3.763.187-.44.034-.61-.374-.729-1.037-.305-2.057-.661-3.111-.932-2.244-.56-4.505-1.018-7.003-.746z" fill="#E04E39"/></svg>