<?xml version="1.0" encoding="utf-8"?><svg width="32" height="31" fill="none" xmlns="http://www.w3.org/2000/svg" viewBox="0 0 32 31"><path d="M31.317 15.415c0 8.513-6.9 15.414-15.414 15.414C7.39 30.83.488 23.928.488 15.415.488 6.9 7.39 0 15.903 0c8.513 0 15.414 6.901 15.414 15.415z" fill="#D1D9DD"/><path d="M16.805 13.366v1.818c0 .163.006.333.163.425.172.1.325.01.468-.087.428-.296.714-.725 1.003-1.145a15.439 15.439 0 001.632-2.993c.152-.378.373-.56.787-.542.56.026 1.122.001 1.683.009.566.007.8.347.593.887-.463 1.215-1.168 2.288-1.899 3.346-.148.216-.284.44-.432.655-.21.304-.157.564.086.826.548.59 1.078 1.195 1.625 1.786.42.455.746.972 1.016 1.527.215.445-.018.898-.506.916-.729.028-1.46.012-2.189.001-.253-.003-.42-.159-.566-.373-.622-.906-1.402-1.659-2.246-2.346a1.214 1.214 0 00-.141-.094c-.523-.313-.777-.178-.797.436-.013.388-.002.777-.006 1.166-.006.706-.443 1.142-1.13 1.17-1.667.066-3.023-.663-4.236-1.728-1.211-1.063-2.011-2.449-2.799-3.836-.596-1.054-1.099-2.15-1.416-3.328-.207-.772.014-1.07.804-1.07.472-.002.943.003 1.414-.002.372-.003.61.162.736.526.33.949.675 1.892 1.131 2.787.37.723.79 1.41 1.358 1.992.08.08.163.16.257.22.252.16.42.091.51-.2a.787.787 0 00.041-.234c-.013-1.028.058-2.058-.063-3.085-.06-.501-.335-.888-.605-1.283-.102-.147-.25-.288-.151-.491.099-.206.298-.172.474-.173.887-.002 1.774-.003 2.661 0 .564.002.734.18.737.767.003.583 0 1.167 0 1.75h.003z" fill="#fff"/></svg>