<?xml version="1.0" encoding="utf-8"?><svg viewBox="0 0 20 21" xmlns="http://www.w3.org/2000/svg" width="20" height="21"><path d="M19.629 20.15a1.196 1.196 0 01-.889.38c-.345 0-.641-.127-.888-.38l-3.868-3.974c-1.562 1.19-3.307 1.786-5.234 1.786a8.356 8.356 0 01-3.398-.713 8.778 8.778 0 01-2.793-1.916 9.081 9.081 0 01-1.866-2.86A8.95 8.95 0 010 8.98c0-1.224.231-2.392.693-3.502.463-1.11 1.084-2.064 1.866-2.86A8.862 8.862 0 015.352.712 8.357 8.357 0 018.75 0c1.185 0 2.318.237 3.398.712a8.86 8.86 0 012.793 1.907c.782.796 1.403 1.75 1.866 2.86A8.997 8.997 0 0117.5 8.97c0 1.993-.58 3.786-1.738 5.378l3.867 3.974c.247.254.371.558.371.913 0 .354-.124.659-.371.913zM8.75 2.568a6.026 6.026 0 00-3.135.853A6.24 6.24 0 003.34 5.76c-.56.99-.84 2.063-.84 3.22 0 1.158.28 2.232.84 3.222.56.99 1.318 1.77 2.275 2.338a6.026 6.026 0 003.135.853 6.026 6.026 0 003.135-.853 6.242 6.242 0 002.275-2.338c.56-.99.84-2.064.84-3.221 0-1.158-.28-2.231-.84-3.221a6.241 6.241 0 00-2.275-2.338 6.026 6.026 0 00-3.135-.853z"/></svg>