<?xml version="1.0" encoding="utf-8"?><svg width="40" height="40" fill="none" xmlns="http://www.w3.org/2000/svg" viewBox="0 0 40 40"><path d="M40 20c0 11.046-8.954 20-20 20S0 31.046 0 20 8.954 0 20 0s20 8.954 20 20z" fill="#D9D9D9"/><path d="M40 20c0 11.046-8.954 20-20 20S0 31.046 0 20 8.954 0 20 0s20 8.954 20 20z" fill="#F7F9FA"/><path fill-rule="evenodd" clip-rule="evenodd" d="M20 39c10.493 0 19-8.507 19-19S30.493 1 20 1 1 9.507 1 20s8.507 19 19 19zm0 1c11.046 0 20-8.954 20-20S31.046 0 20 0 0 8.954 0 20s8.954 20 20 20z" fill="#E04E39"/><path fill-rule="evenodd" clip-rule="evenodd" d="M13 19.75a.75.75 0 01.75-.75h13.143a.75.75 0 010 1.5H13.75a.75.75 0 01-.75-.75z" fill="#E04E39"/><path fill-rule="evenodd" clip-rule="evenodd" d="M22.363 15.22a.75.75 0 011.06 0l4 4a.75.75 0 010 1.06l-4 4a.75.75 0 01-1.06-1.06l3.47-3.47-3.47-3.47a.75.75 0 010-1.06z" fill="#E04E39"/></svg>