<?xml version="1.0" encoding="utf-8"?><svg width="32" height="31" fill="none" xmlns="http://www.w3.org/2000/svg" viewBox="0 0 32 31"><path d="M31.488 15.415c0 8.513-6.902 15.414-15.415 15.414C7.56 30.83.658 23.928.658 15.415.658 6.9 7.56 0 16.073 0c8.513 0 15.415 6.901 15.415 15.415z" fill="#D1D9DD"/><path d="M16.07 23.12c-1.176-.032-2.36.016-3.537-.064-2.33-.144-3.978-1.801-4.099-4.139-.112-2.17-.056-4.339-.04-6.508A5.864 5.864 0 018.7 10.55c.56-1.569 1.704-2.441 3.321-2.722a8.22 8.22 0 011.465-.12c1.833 0 3.658-.008 5.491.008.657.008 1.32.08 1.945.305 1.577.552 2.45 1.697 2.738 3.314.088.48.12.969.12 1.465 0 1.833.008 3.658-.008 5.492-.008.672-.08 1.337-.304 1.977-.56 1.57-1.705 2.45-3.322 2.722-1.353.216-2.722.088-4.074.128zm-6.275-8.054c0 .865.008 1.441 0 2.018-.008.592.024 1.177.064 1.769.08 1.353.809 2.29 2.065 2.626a4.52 4.52 0 001.033.144c2.09.048 4.178.056 6.267 0 .913-.024 1.77-.24 2.394-.985.528-.624.664-1.385.688-2.161a106.77 106.77 0 000-6.204c-.024-.873-.216-1.706-.913-2.338-.6-.545-1.336-.729-2.105-.737-2.209-.04-4.418-.152-6.627-.008-.785.048-1.513.273-2.073.881-.505.544-.673 1.209-.737 1.921-.096 1.113-.032 2.234-.056 3.074z" fill="#fff"/><path d="M20.065 15.41a3.983 3.983 0 01-7.965.009 3.984 3.984 0 013.995-3.987 3.977 3.977 0 013.97 3.979zm-3.962-2.513c-1.41-.008-2.522 1.08-2.53 2.482-.008 1.417 1.073 2.53 2.474 2.545 1.432.009 2.545-1.08 2.553-2.497 0-1.417-1.089-2.522-2.497-2.53zM20.177 12.249c-.544 0-.937-.4-.937-.953 0-.536.417-.953.953-.945.512 0 .952.449.952.96-.008.537-.424.938-.968.938z" fill="#fff"/></svg>