<?xml version="1.0" encoding="utf-8"?><svg viewBox="0 0 34 32" xmlns="http://www.w3.org/2000/svg" width="34" height="32"><path d="M21.752 6.739h6.058a1.01 1.01 0 00.65-.293.898.898 0 00.265-.632.898.898 0 00-.264-.632 1.01 1.01 0 00-.651-.293h-6.058a1.01 1.01 0 00-.651.293.898.898 0 00-.265.632c0 .235.095.46.265.632s.403.276.651.293zM16.56 11.628h11.25a1.01 1.01 0 00.65-.293.898.898 0 00.265-.632.899.899 0 00-.264-.632 1.01 1.01 0 00-.651-.292H16.56a1.04 1.04 0 00-.397.05.996.996 0 00-.343.197.93.93 0 00-.23.308.881.881 0 000 .739.932.932 0 00.23.308.996.996 0 00.343.196c.127.042.262.06.397.05zM6.609 11.628H11.8c.378 0 .74-.142 1.008-.393.268-.252.418-.594.418-.95V6.21a1.304 1.304 0 00-.414-.94 1.472 1.472 0 00-.998-.39H6.61c-.378 0-.741.142-1.009.394a1.305 1.305 0 00-.418.95v4.074c.004.354.156.692.423.941.267.25.628.389 1.004.389zm.56-4.89h4.095v3.04H7.17v-3.04zM27.833 22.02h-4.692l-1.427-2.024a.958.958 0 00-.347-.3 1.027 1.027 0 00-.456-.112 1 1 0 00-.456.094.937.937 0 00-.352.287l-3.424 4.477-4.44-7.647a.952.952 0 00-.398-.375 1.031 1.031 0 00-1.073.089.925.925 0 00-.322.433l-1.507 4.25H6.186a1.056 1.056 0 00-.544.095.983.983 0 00-.407.352.89.89 0 000 .963.957.957 0 00.389.346c.161.079.343.114.524.102h3.485c.21.004.415-.055.586-.169a.929.929 0 00.365-.463l1.017-2.865 4.113 7.079a.918.918 0 00.332.34c.14.083.3.131.467.139h.062a1 1 0 00.453-.098.936.936 0 00.35-.287l3.495-4.599.95 1.344c.09.126.21.23.352.301.142.072.3.11.462.11h5.196c.188.018.376-.015.544-.094a.978.978 0 00.407-.353.881.881 0 000-.964.96.96 0 00-.39-.34 1.032 1.032 0 00-.522-.098l-.039-.013z"/><path d="M32.022 17.202v11.024c-.001.51-.218 1-.602 1.361s-.905.564-1.447.564H4.013a2.116 2.116 0 01-1.447-.564c-.385-.36-.601-.85-.602-1.361V3.774a1.88 1.88 0 01.601-1.363 2.12 2.12 0 011.448-.566h25.979a2.12 2.12 0 011.447.566c.384.362.6.852.602 1.363V6.74H34v-3.78a2.802 2.802 0 00-.237-1.133 2.945 2.945 0 00-.68-.962A3.153 3.153 0 0032.06.223 3.303 3.303 0 0030.857 0H3.147c-.413 0-.822.076-1.204.224a3.163 3.163 0 00-1.02.641 2.955 2.955 0 00-.683.961A2.81 2.81 0 000 2.96v26.08a2.88 2.88 0 00.924 2.093A3.25 3.25 0 003.148 32h27.69c.413 0 .822-.076 1.203-.225a3.163 3.163 0 001.02-.642c.291-.275.523-.6.68-.96.159-.36.24-.744.24-1.133V17.202h-1.959z"/><path d="M33.943 8.874h-1.92v4.357h1.92V8.874z"/></svg>