<?xml version="1.0" encoding="utf-8"?><svg width="80" height="80" fill="none" xmlns="http://www.w3.org/2000/svg" viewBox="0 0 80 80"><rect width="80" height="80" rx="12" fill="#fff"/><path d="M40.046 16.171c13.01-.057 23.806 10.73 23.783 23.858-.023 13.07-10.795 23.845-23.92 23.788-13.045-.034-23.783-10.809-23.737-23.914.045-13.025 10.783-23.834 23.874-23.732zm-.034 45.852c12.085.092 22.023-9.952 22.035-21.994.023-12.043-9.893-22.098-22.07-22.087-12.062.012-21.966 9.93-22.012 21.95-.057 12.214 9.995 22.223 22.047 22.131z" fill="#E04E39"/><path d="M40 64h-.091c-6.363-.023-12.36-2.548-16.895-7.118-4.546-4.57-7.037-10.603-7.014-16.98.023-6.398 2.57-12.43 7.174-16.978 4.558-4.513 10.543-6.97 16.872-6.912h.114c6.283 0 12.223 2.479 16.746 6.992C61.5 27.574 64.012 33.63 64 40.051c-.011 6.376-2.536 12.398-7.105 16.945C52.349 61.509 46.351 64 40 64zm-.137-47.657c-6.157 0-11.994 2.422-16.45 6.821-4.534 4.49-7.047 10.432-7.07 16.739-.046 13.048 10.532 23.709 23.566 23.754H40c6.26 0 12.166-2.456 16.655-6.912 4.512-4.49 7.002-10.42 7.014-16.705.011-6.33-2.479-12.294-7.002-16.796-4.467-4.456-10.316-6.901-16.507-6.901h-.297zm-.034 45.852c-5.792 0-11.275-2.285-15.456-6.456-4.272-4.25-6.602-9.883-6.58-15.847.023-5.862 2.354-11.404 6.558-15.597 4.203-4.193 9.755-6.513 15.626-6.524h.035c5.894 0 11.457 2.32 15.672 6.536 4.227 4.227 6.557 9.814 6.546 15.71-.012 5.93-2.365 11.529-6.626 15.756-4.17 4.137-9.641 6.41-15.421 6.41h-.16c-.08.012-.137.012-.194.012zM40 18.114h-.034c-11.994.011-21.795 9.78-21.841 21.777-.023 5.873 2.273 11.415 6.477 15.597 4.123 4.102 9.515 6.353 15.215 6.353H40.16c5.689 0 11.07-2.24 15.181-6.308 4.204-4.159 6.523-9.677 6.523-15.516.012-5.816-2.285-11.3-6.443-15.47-4.135-4.148-9.618-6.433-15.42-6.433z" fill="#E04E39"/><path d="M27.697 39.183h5.724c.228 0 .342-.103.376-.32.263-1.462.983-2.673 2.09-3.645.218-.183.23-.342.08-.582-1.804-3.108-3.597-6.228-5.402-9.347-.08-.137-.16-.274-.229-.411-.297-.571-.183-.983.377-1.291a18.914 18.914 0 016.865-2.297c4.044-.514 7.871.229 11.458 2.16.228.125.468.228.628.445.263.366.149.732-.057 1.086-.994 1.714-1.988 3.439-2.981 5.153-.869 1.497-1.725 2.993-2.593 4.479-.16.263-.126.422.09.617 1.098.971 1.794 2.17 2.069 3.61.045.217.137.297.377.297 1.713.035 3.415.023 5.128 0 1.291-.011 2.593.012 3.884.023.743 0 1.485 0 2.228.012.742 0 1.05.285 1.04 1.04-.058 2.41-.515 4.73-1.451 6.958-1.554 3.679-4.01 6.615-7.391 8.763-.149.092-.286.183-.446.263-.617.332-1.005.24-1.359-.365-1.862-3.211-3.724-6.422-5.563-9.644-.171-.297-.331-.343-.64-.24a6.146 6.146 0 01-3.998 0c-.354-.114-.502-.034-.674.263-1.759 3.074-3.53 6.136-5.3 9.21-.663 1.153-.891 1.245-2 .536-4.82-3.119-7.71-7.507-8.658-13.174a18.523 18.523 0 01-.228-2.513c-.023-.789.25-1.075 1.028-1.086 1.622-.011 3.244 0 4.866 0 .24.011.445.011.662 0zm24.149 1.623h-5.369c-.205 0-.251.137-.285.308a6.148 6.148 0 01-2.022 3.576c-.275.24-.263.423-.092.72 1.657 2.845 3.301 5.702 4.946 8.558.286.491.275.491.743.16 2.707-1.897 4.73-4.365 6.031-7.404a16.472 16.472 0 001.325-5.37c.035-.423-.137-.571-.525-.571-.914.011-1.828 0-2.73.011-.754.023-1.508-.046-2.022.012zm-23.463.022v-.034h-5.084c-.308 0-.456.114-.422.434.034.332.046.652.091.983.72 5.062 3.21 9.05 7.357 12.008.285.206.434.195.617-.137 1.656-2.902 3.324-5.793 5.003-8.672.171-.285.16-.457-.091-.685a6.182 6.182 0 01-1.942-3.12c-.206-.742-.195-.754-.96-.765-1.52-.023-3.05-.012-4.57-.012zM40 22.856c-.708 0-1.428.011-2.136.102a17.34 17.34 0 00-5.392 1.577c-.228.114-.331.206-.171.48 1.702 2.936 3.404 5.873 5.095 8.82.137.24.274.31.548.218a6.151 6.151 0 014.147 0c.24.08.377.057.514-.183 1.679-2.925 3.358-5.838 5.049-8.74.194-.332.148-.47-.195-.63-2.364-1.107-4.843-1.679-7.459-1.644zm4.638 17.115c0-2.582-2.022-4.593-4.626-4.604-2.582-.012-4.627 2.01-4.627 4.559 0 2.662 2 4.696 4.627 4.696 2.593.011 4.614-2.034 4.626-4.65z" fill="#E04E39"/><path d="M31.056 56.596c-.297 0-.64-.171-1.108-.48-4.844-3.13-7.78-7.61-8.727-13.3a17.285 17.285 0 01-.229-2.536c-.011-.457.08-.766.274-.96.194-.194.491-.297.926-.297 1.153-.011 2.318-.011 3.46 0H27.539l.17-.011h5.735c.126 0 .172-.035.195-.183.274-1.474.993-2.73 2.147-3.736.149-.126.149-.195.046-.366a1141.4 1141.4 0 01-4.387-7.598l-1.05-1.828c-.07-.115-.126-.229-.195-.343-.343-.651-.183-1.165.446-1.52 2.193-1.234 4.523-2.01 6.922-2.308 4.021-.502 7.905.229 11.549 2.183l.091.045c.206.103.434.229.594.446.343.468.149.925-.046 1.268-.902 1.566-1.804 3.12-2.707 4.685l-.274.468c-.228.4-.457.8-.685 1.188-.617 1.086-1.268 2.194-1.908 3.291-.114.194-.103.263.057.4 1.142 1.005 1.85 2.251 2.113 3.702.023.126.046.16.206.16 1.713.034 3.473.023 5.118 0 .868-.011 1.747 0 2.604.011.434 0 .857.012 1.29.012h2.217c.445 0 .742.103.937.297.194.194.285.491.274.914-.057 2.49-.548 4.856-1.462 7.015-1.565 3.725-4.078 6.696-7.46 8.844-.125.08-.285.183-.445.274-.697.377-1.188.252-1.588-.434a1934.49 1934.49 0 01-5.563-9.643c-.126-.217-.183-.24-.434-.16a6.303 6.303 0 01-4.101 0c-.251-.092-.331-.057-.468.183-.983 1.713-1.988 3.45-2.947 5.13-.789 1.36-1.566 2.72-2.342 4.067-.366.629-.617.972-.96 1.052a.222.222 0 01-.171.068zm-6.957-17.241c-.64 0-1.28 0-1.907.01-.343 0-.56.07-.686.195-.125.126-.183.354-.171.72.023.891.091 1.714.228 2.49.937 5.588 3.816 9.987 8.579 13.06.537.355.811.458 1.005.412.229-.057.446-.366.743-.891.776-1.36 1.565-2.72 2.341-4.08.971-1.679 1.977-3.416 2.948-5.13.194-.33.4-.502.88-.342a5.954 5.954 0 003.883 0c.4-.137.64-.046.845.32 1.885 3.29 3.839 6.66 5.563 9.643.297.526.583.594 1.12.309.16-.08.308-.183.434-.263 3.324-2.103 5.78-5.028 7.322-8.684.903-2.125 1.382-4.445 1.44-6.89.011-.32-.046-.537-.172-.662-.126-.138-.354-.195-.697-.195H55.57c-.434 0-.868-.011-1.29-.011-.846-.011-1.726-.023-2.594-.011a153.57 153.57 0 01-5.129 0c-.32-.012-.48-.15-.537-.446-.251-1.371-.925-2.56-2.01-3.508-.286-.251-.32-.503-.126-.834.64-1.097 1.29-2.205 1.908-3.29.228-.4.457-.8.685-1.189l.274-.468c.903-1.566 1.805-3.12 2.708-4.685.228-.388.24-.64.057-.891-.115-.149-.286-.252-.469-.343l-.091-.046c-3.576-1.92-7.402-2.639-11.355-2.136a18.542 18.542 0 00-6.796 2.274c-.469.262-.56.57-.309 1.062.057.114.114.217.183.32l1.05 1.828c1.44 2.491 2.925 5.062 4.387 7.598.183.32.149.56-.114.8-1.097.96-1.782 2.148-2.033 3.542-.069.389-.331.469-.549.457a30.29 30.29 0 00-1.439 0H28.805l-1.747.012H25.64c-.502-.057-1.028-.057-1.542-.057zm25.257 15.184c-.023 0-.046 0-.069-.011-.16-.034-.251-.183-.4-.457l-.605-1.051c-1.428-2.468-2.89-5.028-4.352-7.53-.194-.331-.24-.617.125-.937 1.063-.937 1.725-2.102 1.977-3.485.022-.137.08-.445.445-.445H51.835c.32-.034.742-.023 1.176-.012.274.012.56.012.845.012.526-.012 1.063-.012 1.577-.012h1.154c.25 0 .434.058.56.183.114.126.17.309.148.571a16.896 16.896 0 01-1.337 5.428c-1.313 3.039-3.358 5.553-6.088 7.472l-.012.012c-.228.171-.365.262-.502.262zm-2.879-13.562c-.057 0-.08 0-.114.171a6.34 6.34 0 01-2.08 3.68c-.193.17-.205.25-.056.502 1.462 2.503 2.936 5.062 4.352 7.53l.605 1.051c.069.126.149.251.183.286.057-.012.183-.103.297-.195l.011-.011c2.685-1.885 4.696-4.353 5.975-7.324a16.56 16.56 0 001.314-5.324c.01-.149-.012-.252-.058-.309-.045-.057-.148-.08-.297-.08h-1.165c-.514 0-1.05 0-1.576.011-.297 0-.583 0-.857-.01-.434-.012-.834-.024-1.142.01h-1.394c-1.405.012-2.707.012-3.998.012zm-15.844 13.54c-.148 0-.285-.08-.411-.172-4.215-3.005-6.717-7.084-7.425-12.123-.034-.217-.046-.434-.057-.64a3.459 3.459 0 01-.023-.342c-.023-.195.023-.354.114-.457.103-.114.263-.16.48-.16.571.011 1.154.011 1.725 0h3.53v.034h4.398c.81.012.902.069 1.108.846l.011.045c.331 1.2.96 2.228 1.885 3.028.308.274.342.526.125.903a1634.105 1634.105 0 00-5.003 8.672c-.08.137-.194.308-.377.343-.034.011-.057.023-.08.023zm-7.345-13.563c-.103 0-.183.023-.206.057-.034.034-.034.126-.034.194l.035.355c.01.205.034.411.057.617.696 4.936 3.152 8.946 7.288 11.894.137.103.194.103.217.103.011 0 .068-.035.148-.183 1.61-2.81 3.29-5.724 5.003-8.672.138-.229.126-.309-.057-.469a6.36 6.36 0 01-1.987-3.199l-.012-.046c-.08-.297-.125-.468-.205-.525-.08-.057-.274-.069-.583-.069-1.074-.011-2.17-.011-3.233 0H28.212v-.034H23.31l-.023-.023zm16.724 3.84c-.012 0-.012 0 0 0-2.742 0-4.81-2.103-4.81-4.868 0-1.269.492-2.445 1.383-3.337.902-.902 2.113-1.393 3.415-1.393h.012c2.695.01 4.797 2.102 4.797 4.776a4.828 4.828 0 01-1.405 3.439 4.766 4.766 0 01-3.392 1.382zm-.023-9.256c-1.211 0-2.33.457-3.176 1.291a4.34 4.34 0 00-1.28 3.085c0 2.571 1.92 4.525 4.456 4.525H40c1.2 0 2.32-.457 3.153-1.28a4.5 4.5 0 001.302-3.199c0-2.48-1.953-4.422-4.455-4.433 0 .011-.011.011-.011.011zm2.296-1.28c-.08 0-.172-.022-.263-.045a6.134 6.134 0 00-4.044 0c-.342.114-.56.034-.742-.286a2254.54 2254.54 0 00-5.083-8.82c-.058-.103-.138-.252-.08-.412.045-.16.194-.24.33-.308 1.68-.812 3.508-1.337 5.45-1.589.72-.091 1.428-.102 2.159-.102 2.558-.035 5.094.525 7.527 1.656.16.08.332.172.389.354.057.183-.034.366-.126.515a1092.291 1092.291 0 00-5.049 8.74c-.126.195-.274.298-.468.298zM40 33.517c.708 0 1.428.126 2.136.366.183.057.229.045.309-.103 2.01-3.508 3.575-6.205 5.049-8.741.091-.16.091-.217.091-.24-.011-.023-.046-.069-.206-.149-2.387-1.108-4.866-1.656-7.379-1.622-.72 0-1.416.011-2.113.103-1.908.24-3.701.765-5.346 1.554-.137.068-.149.091-.149.102 0 0-.011.035.057.138 1.543 2.662 3.21 5.553 5.095 8.82.103.183.149.206.343.138A6.477 6.477 0 0140 33.516z" fill="#E04E39"/><path d="M40.012 36.818c1.713 0 3.164 1.463 3.175 3.176 0 1.714-1.45 3.177-3.164 3.177-1.725.011-3.21-1.474-3.187-3.2 0-1.736 1.45-3.164 3.176-3.153zm-.046 4.696a1.512 1.512 0 001.553-1.485 1.505 1.505 0 00-1.485-1.554 1.512 1.512 0 00-1.553 1.485 1.505 1.505 0 001.485 1.554z" fill="#E04E39"/><path d="M40 43.342a3.325 3.325 0 01-2.353-1.005 3.321 3.321 0 01-.982-2.366 3.364 3.364 0 013.358-3.324c1.805 0 3.336 1.53 3.347 3.347 0 1.806-1.53 3.348-3.336 3.348H40zm.012-6.353a3.028 3.028 0 00-3.016 2.983c-.012.776.32 1.553.89 2.125a2.995 2.995 0 002.126.902c1.622-.011 2.992-1.382 2.992-3.005 0-1.634-1.37-3.005-2.992-3.005zM40 41.685h-.034a1.697 1.697 0 01-1.657-1.736 1.72 1.72 0 01.515-1.189c.33-.32.754-.48 1.21-.468.937.023 1.68.8 1.657 1.737-.012.457-.194.88-.526 1.188-.308.308-.72.468-1.165.468zm0-3.05a1.342 1.342 0 00-1.348 1.325 1.34 1.34 0 001.325 1.383c.366.011.709-.126.971-.378.263-.25.411-.582.411-.948.012-.754-.56-1.37-1.325-1.382H40z" fill="#E04E39"/></svg>