<?xml version="1.0" encoding="utf-8"?><svg width="80" height="80" fill="none" xmlns="http://www.w3.org/2000/svg" viewBox="0 0 80 80"><rect width="80" height="80" rx="12" fill="#fff"/><path d="M39.987 64.791H15.909c-.273 0-.546.014-.818-.014-.505-.041-.886-.431-.873-.918a.89.89 0 01.886-.891c1.118-.014 2.25-.014 3.368-.014.845 0 .845 0 .845-.89 0-.488-.013-.975.014-1.462.04-.822.382-1.17 1.186-1.183.546-.014 1.09-.028 1.636 0 .491.027.641-.14.641-.655-.014-4.412-.014-8.838-.014-13.25 0-.14-.013-.279 0-.418.055-.682-.054-1.183-.654-1.698-1.323-1.141-1.009-3.285.518-4.204 2.795-1.67 5.604-3.312 8.399-4.969 5.48-3.243 10.975-6.472 16.456-9.715.136-.083.26-.167.395-.236.26-.126.246-.265.082-.488-.545-.78-1.09-1.559-1.622-2.352-1.323-1.976-.805-4.37 1.213-5.581a50.138 50.138 0 011.855-1.1c2.181-1.239 4.444-.487 5.494 1.823a1911.35 1911.35 0 015.454 12.082c.763 1.684.34 3.424-1.118 4.621-.273.223-.368.445-.368.793.013 9.41.013 18.819 0 28.228 0 .515.177.64.654.64 1.718-.028 3.436-.014 5.167-.014.45 0 .818.125.982.585.232.598-.164 1.21-.832 1.238-.613.028-1.227.014-1.84.014-7.663.028-15.352.028-23.028.028zm17.151-16.243v-9.813-4.12c0-.278-.013-.5-.381-.529-1.227-.111-2.168-.737-2.877-1.767-.79-1.156-1.595-2.297-2.373-3.466-.19-.279-.34-.362-.654-.167-1.404.849-2.822 1.684-4.24 2.52-.3.18-.395.389-.341.723.218 1.336.423 2.672.627 4.022l2.618 16.898c.49 3.16.982 6.319 1.459 9.479.068.473.218.682.736.668 1.582-.042 3.163-.014 4.758-.014.682 0 .682 0 .682-.696-.014-4.58-.014-9.159-.014-13.738zM24.58 51.749v6.987c0 .683 0 .683.695.683.56 0 1.118-.014 1.691 0 .71.014 1.063.375 1.077 1.1.014.64 0 1.28 0 1.934 0 .25 0 .487.355.5.34.015.559-.069.613-.445.068-.487.15-.96.218-1.447.764-4.983 1.541-9.952 2.305-14.935.313-2.032.627-4.05.94-6.069.014-.11.055-.264-.04-.348-.11-.097-.232.014-.328.07-.327.181-.654.376-.968.57a533.9 533.9 0 01-6.067 3.564c-.355.195-.49.376-.49.78v7.056zM40 47.198h6.081c.71 0 .723 0 .614-.696-.71-4.552-1.418-9.09-2.114-13.64-.054-.376-.177-.376-.45-.21a2018.187 2018.187 0 01-9.189 5.443c-.3.18-.423.418-.464.752l-1.186 7.724c-.095.571-.04.64.532.64 2.059 0 4.118-.013 6.176-.013zm7.472-28.047c0 .543.163.92.409 1.267 2.522 3.647 5.044 7.307 7.58 10.954.6.877 1.732 1.114 2.59.599.846-.515 1.146-1.56.71-2.547-.286-.655-.586-1.295-.873-1.95-1.54-3.395-3.067-6.791-4.608-10.174-.559-1.225-1.69-1.587-2.85-.946-.681.376-1.363.793-2.031 1.21-.654.377-.913.975-.927 1.587zm.3 43.789c-.082-.111-.11-.167-.15-.195-2.386-2.074-4.786-4.134-7.145-6.222-.408-.361-.627-.264-.967.028-2.291 2.005-4.582 3.995-6.872 5.985-.123.112-.286.21-.355.404h15.489zM23.994 42.326c.204.014.395-.083.586-.209a986.011 986.011 0 015.127-3.034c6.503-3.841 12.993-7.697 19.496-11.538.982-.585.982-.557.328-1.518-.219-.32-.396-.334-.71-.139-1.145.696-2.304 1.364-3.449 2.046-6.476 3.814-12.952 7.642-19.428 11.455-.805.474-1.623.96-2.427 1.462-.341.209-.491.543-.355.946.137.348.41.543.832.53zm7.008 19.125c.15-.07.19-.098.232-.126 2.372-2.06 4.744-4.106 7.13-6.166.232-.194.178-.32-.027-.487a1503.98 1503.98 0 01-5.195-4.537c-.259-.223-.368-.223-.422.167-.355 2.366-.737 4.732-1.105 7.098-.204 1.323-.395 2.645-.613 4.05zm16.21-11.58c-1.84 1.6-3.571 3.117-5.317 4.62-.49.432-.49.432 0 .863 2.046 1.782 4.09 3.563 6.15 5.345.272.237.518.529.94.724-.586-3.87-1.159-7.656-1.772-11.553zm-1.854-.808h-10.58c.041.084.055.14.096.167 1.622 1.42 3.258 2.84 4.88 4.26.205.18.355.124.533-.029 1.663-1.433 3.313-2.867 5.072-4.398zM23.721 62.968H25.248c1.132-.014.94.153.995-.988.028-.487-.122-.682-.627-.668-1.118.027-2.25.013-3.367.013-1.146 0-1.132 0-1.077 1.183.013.335.122.474.463.46.695-.014 1.39 0 2.086 0z" fill="#E04E39"/><path d="M64.078 65h-1.036-47.351c-.205 0-.423 0-.628-.014A1.122 1.122 0 0114 63.86a1.12 1.12 0 011.09-1.1c.819-.014 1.637-.014 2.428-.014h.94c.287 0 .546 0 .6-.042.055-.055.055-.334.055-.64v-.431c0-.348 0-.696.013-1.044.041-.933.464-1.364 1.377-1.378h.232c.464-.014.941-.014 1.418.014.178.014.287-.014.341-.056.055-.056.082-.18.082-.376-.014-3.396-.014-6.862-.014-10.202V45.54v-.125-.306c.041-.612-.027-1.058-.586-1.531-.64-.557-.968-1.364-.9-2.241a3.039 3.039 0 011.445-2.31 725.492 725.492 0 015.959-3.522c.817-.473 1.636-.96 2.44-1.434l16.497-9.715c.041-.028.082-.056.137-.083.095-.056.177-.112.286-.168.04-.027.068-.041.082-.041 0-.014-.027-.056-.068-.126-.587-.835-1.118-1.6-1.623-2.352-.668-1.002-.913-2.157-.668-3.243.232-1.085.927-2.018 1.95-2.63l.218-.126c.532-.32 1.09-.654 1.65-.974 1.104-.626 2.304-.78 3.34-.432 1.036.348 1.909 1.184 2.44 2.353 1.623 3.577 3.368 7.418 5.454 12.081.805 1.782.355 3.605-1.172 4.872-.218.18-.3.348-.3.626 0 8.338.013 18.22 0 28.228 0 .18.027.306.068.361.054.056.177.07.368.07 1.132-.014 2.263-.014 3.381-.014h1.786c.6 0 .982.237 1.173.71.136.348.095.71-.082 1.002-.19.306-.532.501-.927.515-.3.014-.573.014-.832.014zm-1.036-.418h.518c.423 0 .873 0 1.309-.013.26-.014.477-.126.6-.32a.715.715 0 00.054-.627c-.122-.32-.354-.445-.79-.445h-1.786c-1.105 0-2.25 0-3.368.014-.232 0-.49-.014-.654-.195-.178-.181-.191-.446-.191-.654.013-10.022.013-19.89 0-28.228 0-.403.136-.696.45-.96 1.39-1.142 1.786-2.784 1.063-4.37-2.1-4.664-3.831-8.505-5.454-12.082-.49-1.086-1.254-1.824-2.195-2.13-.94-.32-1.99-.18-3.013.404-.545.306-1.104.64-1.636.96l-.218.125c-.927.557-1.54 1.392-1.759 2.367-.218.974 0 2.004.614 2.923.49.737 1.022 1.503 1.608 2.338.096.125.191.292.137.473-.055.195-.246.293-.3.32a2.06 2.06 0 00-.232.14c-.04.027-.095.055-.15.083L31.193 34.42c-.818.487-1.636.96-2.44 1.434-1.95 1.155-3.982 2.338-5.959 3.522a2.586 2.586 0 00-1.24 1.99 2.19 2.19 0 00.75 1.879c.68.585.776 1.17.722 1.879v3.452c0 3.34 0 6.806.013 10.202 0 .223-.027.501-.204.682-.19.181-.464.181-.655.167-.45-.028-.927-.014-1.377-.014h-.231c-.696.014-.955.265-.982.975-.014.334-.014.682-.014 1.03v.431c0 1.002-.095 1.1-1.05 1.1h-.94c-.791 0-1.623 0-2.427.014a.7.7 0 00-.695.682c0 .376.286.668.681.696.191.014.382.014.587.014h24.282l23.028.027zm-11.385-1.391c-.64 0-.817-.335-.9-.836-.408-2.783-.858-5.609-1.28-8.337l-.178-1.141c-.614-3.953-1.227-7.892-1.84-11.845l-.778-5.053c-.054-.376-.109-.737-.177-1.113-.15-.947-.3-1.935-.45-2.895-.068-.432.068-.724.436-.947a273.708 273.708 0 004.24-2.52c.491-.291.737-.055.928.224.408.612.845 1.224 1.254 1.823.368.529.75 1.086 1.118 1.628.695 1.03 1.581 1.573 2.727 1.685.572.055.572.5.572.737v27.657c0 .807-.095.89-.886.905H55.04c-1.105 0-2.236-.014-3.354.014.013.014-.014.014-.028.014zm-.531-34.394c-.041 0-.096.028-.177.084-1.31.793-2.7 1.614-4.24 2.519-.219.125-.273.25-.233.515.164.974.314 1.949.45 2.909.055.376.11.738.178 1.114l.777 5.052c.613 3.953 1.227 7.892 1.84 11.845l.178 1.141c.422 2.728.859 5.554 1.281 8.338.069.417.15.5.532.487a90.785 90.785 0 013.368-.014h1.39c.205 0 .41 0 .45-.028.028-.042.028-.264.028-.445v-5.985-18.707-2.965c0-.278-.014-.306-.205-.32-1.254-.112-2.263-.738-3.027-1.851-.368-.543-.75-1.1-1.118-1.629-.409-.598-.845-1.21-1.254-1.837-.096-.167-.15-.223-.218-.223zM28.48 63.177h-.096c-.545-.028-.545-.474-.545-.71v-.599-1.336c-.014-.612-.273-.877-.887-.89-.368-.015-.736 0-1.104 0h-.586c-.805 0-.886-.098-.886-.892v-6.987-1.767c0-1.726 0-3.508-.014-5.262 0-.529.218-.751.6-.974 1.527-.863 3.054-1.782 4.54-2.659.505-.306 1.023-.598 1.527-.904l.3-.181c.232-.14.45-.265.682-.404.013-.014.027-.014.04-.028.096-.055.314-.195.519-.028.19.154.15.376.122.502l-.013.041-.41 2.659c-.176 1.141-.354 2.282-.531 3.41-.532 3.424-1.05 6.834-1.581 10.258l-.723 4.677c-.027.153-.055.306-.068.46-.055.32-.11.653-.15.973-.082.585-.505.64-.736.64zm-2.223-3.953h.71c.817.014 1.267.473 1.28 1.308.014.446.014.905 0 1.336v.599c0 .292.014.292.164.292.314.014.368-.056.396-.264.04-.334.095-.668.15-.989.027-.153.054-.306.068-.459l.722-4.677c.532-3.424 1.05-6.834 1.582-10.258l.532-3.424.409-2.658.013-.056c0-.014.014-.042.014-.07-.014.014-.027.014-.04.028-.014.014-.028.028-.055.028-.232.125-.45.264-.682.39l-.3.18c-.505.307-1.023.6-1.527.905-1.486.877-3.027 1.796-4.554 2.659-.313.18-.382.306-.382.599.014 1.753.014 3.549.014 5.275v8.754c0 .195 0 .404.027.446.041.028.246.028.464.028h.586c.136.028.273.028.41.028zm-4.65 3.953c-.408 0-.626-.223-.64-.654v-.028c-.027-.64-.04-.96.15-1.17.19-.208.505-.208 1.132-.208h.981c.777 0 1.582.014 2.373-.014.19 0 .477.014.654.195.177.194.191.459.177.682-.013.167-.013.306-.013.417-.014.682-.11.78-.805.766H21.594c.041.014.027.014.014.014zm.6-1.643c-.422 0-.722 0-.79.084-.082.083-.055.403-.04.863v.027c.013.237.054.265.245.265.49-.014.995-.014 1.486 0h2.536c.15 0 .313 0 .368-.014.013-.056.013-.209.027-.348 0-.111 0-.264.014-.431.013-.195-.014-.32-.069-.376-.054-.056-.177-.084-.354-.07-.79.028-1.609.014-2.386.014-.34-.014-.695-.014-1.036-.014zm25.974 1.615H32.01l.081-.265c.069-.222.219-.348.341-.445a.299.299 0 00.069-.056c.858-.751 1.717-1.489 2.563-2.227a905.266 905.266 0 004.308-3.744c.41-.348.736-.473 1.227-.028a716.661 716.661 0 005.222 4.566l1.922 1.67c.041.042.069.083.11.125.013.028.04.056.068.098l.259.306zM32.72 62.73H47.28c-.573-.5-1.145-.988-1.718-1.49a714.56 714.56 0 01-5.222-4.564c-.3-.265-.395-.237-.695.027-1.432 1.253-2.89 2.52-4.309 3.758-.859.738-1.718 1.49-2.563 2.227-.013.014-.04.028-.054.042zm-1.99-.904l.258-1.726c.137-.92.287-1.824.423-2.715l.327-2.06c.26-1.656.532-3.354.777-5.038.027-.209.082-.418.26-.473.177-.07.354.055.49.18 2.032 1.782 3.695 3.23 5.195 4.538.122.111.245.237.245.418 0 .18-.123.306-.218.39a751.77 751.77 0 00-5.004 4.328l-2.127 1.837c-.04.042-.082.056-.15.084-.027.014-.068.028-.122.056l-.355.18zm2.208-11.58c0 .027-.014.055-.014.096-.245 1.685-.518 3.397-.777 5.04l-.327 2.06c-.137.89-.273 1.795-.423 2.713l-.136.85 1.95-1.685c1.663-1.447 3.34-2.881 5.003-4.329.041-.041.055-.055.068-.07l-.095-.097c-1.513-1.308-3.163-2.756-5.195-4.537-.013-.014-.04-.028-.054-.042zm16.32 11.524l-.34-.153c-.37-.167-.6-.39-.819-.585-.054-.056-.123-.111-.177-.167-1.5-1.294-3.027-2.63-4.513-3.911l-1.636-1.434c-.3-.264-.45-.39-.45-.598 0-.209.15-.334.436-.585l5.59-4.871 1.909 12.304zm-7.513-6.834c.041.055.164.167.287.278l1.65 1.434c1.472 1.28 3 2.617 4.512 3.91.069.057.123.112.191.182.11.097.218.209.355.306l-1.664-10.76-5.03 4.385a1.627 1.627 0 00-.3.265zM40 53.823a.568.568 0 01-.381-.167c-1.064-.932-2.114-1.851-3.177-2.784l-1.705-1.489a.584.584 0 01-.108-.167c-.014-.014-.014-.042-.028-.07l-.163-.306h11.48l-1.555 1.35c-1.35 1.17-2.645 2.297-3.94 3.424-.068.07-.218.21-.423.21zm-4.772-4.551l1.473 1.294c1.063.919 2.127 1.851 3.177 2.784.095.084.122.097.272-.028 1.296-1.127 2.59-2.255 3.94-3.424l.71-.612h-9.572v-.014zm1.527-1.865h-2.93c-.3 0-.533-.014-.669-.181-.136-.167-.11-.39-.068-.71l.218-1.406c.327-2.102.654-4.203.968-6.305.04-.292.15-.654.573-.905a1745.31 1745.31 0 009.189-5.442c.164-.098.34-.181.505-.098.163.084.218.279.245.46.436 2.895.9 5.818 1.336 8.657l.777 4.97c.055.375.096.612-.04.779-.137.167-.369.167-.778.167h-7.84c-.504.014-.995.014-1.486.014zm7.608-14.629c-.027.014-.068.028-.109.056a1749.42 1749.42 0 01-9.19 5.442c-.217.125-.327.292-.367.598-.314 2.102-.641 4.204-.968 6.32l-.218 1.405c-.014.084-.055.32-.028.376.028.014.15.028.355.028h12.257c.19 0 .395 0 .463-.028.014-.07-.027-.278-.04-.431l-.778-4.97c-.436-2.839-.9-5.776-1.336-8.657a.46.46 0 01-.04-.139zM23.94 42.535c-.477 0-.804-.237-.954-.682-.15-.473.014-.919.45-1.183.75-.473 1.513-.919 2.263-1.364l.164-.098c4.73-2.783 9.448-5.581 14.18-8.365l5.248-3.09c.3-.18.614-.362.914-.543.831-.487 1.69-.988 2.536-1.503.3-.18.64-.292.981.209l.028.042c.34.5.504.751.45 1.016-.055.264-.328.431-.846.738l-.027.013c-4.922 2.91-9.844 5.819-14.766 8.741l-5.617 3.327c-1.418.835-2.836 1.67-4.24 2.52-.205.125-.436.25-.695.236-.041-.014-.055-.014-.069-.014zm25.224-16.577c-.055 0-.123.028-.232.097-.846.515-1.705 1.016-2.536 1.503-.3.181-.614.362-.914.543l-5.249 3.09c-4.73 2.784-9.448 5.582-14.18 8.365l-.163.098c-.736.431-1.513.89-2.25 1.35-.19.111-.395.334-.272.696.095.292.286.417.613.404h.027c.15 0 .314-.084.478-.181 1.418-.836 2.822-1.67 4.24-2.52l5.617-3.326c4.922-2.91 9.844-5.832 14.766-8.741l.027-.014c.355-.209.627-.376.641-.46.027-.097-.164-.361-.382-.695l-.027-.042c-.082-.112-.123-.167-.204-.167zm7.894 6.5c-.682 0-1.35-.334-1.773-.96-1.8-2.59-3.613-5.22-5.372-7.767-.736-1.058-1.472-2.13-2.208-3.188a2.313 2.313 0 01-.437-1.392v-.014c.028-.751.382-1.391 1.01-1.767l.136-.084a49.917 49.917 0 011.908-1.127c.628-.348 1.255-.432 1.827-.25.56.18 1.01.626 1.31 1.28 1.117 2.436 2.235 4.927 3.326 7.335.423.947.859 1.893 1.282 2.84.081.194.177.375.259.57.204.446.422.919.627 1.378.477 1.086.15 2.241-.791 2.812a1.998 1.998 0 01-1.104.334zm-9.38-13.307c0 .432.108.78.367 1.142.737 1.058 1.473 2.13 2.21 3.187 1.758 2.547 3.571 5.178 5.371 7.767.545.78 1.54 1.002 2.318.529.763-.46 1.022-1.406.627-2.283l-.614-1.378c-.081-.195-.177-.376-.259-.57-.422-.947-.858-1.894-1.281-2.84-1.09-2.408-2.209-4.9-3.327-7.335-.245-.543-.613-.905-1.063-1.058-.45-.153-.968-.084-1.5.209-.64.362-1.282.738-1.895 1.113l-.137.084a1.69 1.69 0 00-.818 1.433z" fill="#E04E39"/><path d="M43.477 40.266c-.014 1.907-1.609 3.522-3.477 3.522-1.868 0-3.517-1.684-3.49-3.577.027-1.949 1.622-3.55 3.518-3.536 1.908.014 3.463 1.629 3.449 3.591zM40 41.895a1.66 1.66 0 001.677-1.712c-.013-.877-.777-1.657-1.65-1.67-.94-.014-1.676.737-1.676 1.712 0 .96.722 1.684 1.65 1.67z" fill="#E04E39"/><path d="M39.987 43.996c-.941 0-1.895-.417-2.604-1.155-.71-.724-1.105-1.684-1.091-2.644.027-2.074 1.677-3.745 3.695-3.745h.027c2.018.014 3.667 1.727 3.654 3.8 0 2.032-1.677 3.744-3.681 3.744.013 0 .013 0 0 0zM40 36.884c-1.758 0-3.258 1.517-3.285 3.327-.014.849.34 1.698.967 2.338.628.654 1.473 1.03 2.318 1.03 1.773 0 3.273-1.517 3.273-3.313.013-1.85-1.446-3.368-3.245-3.382H40zm-.013 5.22c-.505 0-.968-.195-1.31-.543a1.892 1.892 0 01-.53-1.337c0-.528.204-1.03.558-1.391a1.87 1.87 0 011.323-.543c.968.014 1.827.89 1.84 1.879a1.912 1.912 0 01-.518 1.364 1.84 1.84 0 01-1.363.57c.013 0 .013 0 0 0zm.027-3.383c-.382 0-.75.153-1.009.418a1.497 1.497 0 00-.436 1.085c0 .404.15.78.409 1.044.259.265.627.418 1.022.418h.014c.409 0 .79-.167 1.063-.445.273-.279.41-.655.41-1.058-.014-.766-.682-1.462-1.446-1.462h-.027z" fill="#E04E39"/></svg>