<?xml version="1.0" encoding="utf-8"?><svg viewBox="0 0 31 31" xmlns="http://www.w3.org/2000/svg" width="31" height="31"><path d="M30.83 15.415c0 8.513-6.902 15.414-15.415 15.414C6.9 30.83 0 23.928 0 15.415 0 6.9 6.901 0 15.415 0c8.513 0 15.414 6.901 15.414 15.415z"/><path d="M16.053 10.026c-.99 0-1.71-.017-2.429.004-1.27.036-2.542.068-3.807.201-.878.093-1.557.648-1.786 1.468-.156.558-.222 1.13-.265 1.704-.078 1.063-.064 2.128-.04 3.191.02.825.09 1.649.287 2.458.205.843.952 1.439 1.852 1.521 1.053.097 2.107.147 3.163.19 1.743.07 3.486.049 5.228.019a38.974 38.974 0 003.494-.209c.922-.099 1.614-.631 1.837-1.483a9.169 9.169 0 00.254-1.685c.079-1.103.047-2.207.034-3.31a10.26 10.26 0 00-.262-2.261c-.223-.94-.907-1.514-1.906-1.608-1.019-.096-2.04-.13-3.063-.172-.954-.041-1.907-.005-2.591-.028zm-2.302 5.533V13.3c0-.242.004-.244.236-.13.288.144.575.29.864.432 1.233.611 2.467 1.221 3.7 1.833.059.029.145.041.145.123 0 .061-.069.078-.116.1-1.546.769-3.092 1.535-4.636 2.305-.169.084-.196.032-.195-.124.004-.758.002-1.518.002-2.279z"/></svg>