<?xml version="1.0" encoding="utf-8"?><svg xmlns="http://www.w3.org/2000/svg" fill="none" viewBox="0 0 50 50" width="50" height="50"><path d="M0 10C0 4.477 4.477 0 10 0h30c5.523 0 10 4.477 10 10v30c0 5.523-4.477 10-10 10H10C4.477 50 0 45.523 0 40V10z" fill="#F7F9FA"/><path fill-rule="evenodd" clip-rule="evenodd" d="M28.41 17.347a8.379 8.379 0 104.968 7.658v-.845a.81.81 0 111.622 0v.845a10.002 10.002 0 01-13.466 9.375 10 10 0 117.536-18.514.81.81 0 01-.66 1.48zm6.352-.267a.81.81 0 010 1.147l-9.188 9.198a.81.81 0 01-1.147 0L21.67 24.67a.81.81 0 111.146-1.147L25 25.705l8.615-8.624a.81.81 0 011.147 0z" fill="#C9D1D1"/><path fill-rule="evenodd" clip-rule="evenodd" d="M22.73 14.953a10.3 10.3 0 016.462.639 1.11 1.11 0 01-.904 2.029 8.079 8.079 0 104.79 7.384v-.845a1.11 1.11 0 012.222 0v.845a10.301 10.301 0 01-18.94 5.601 10.3 10.3 0 016.37-15.653zm6.218 1.187a9.7 9.7 0 105.752 8.865v-.845a.51.51 0 10-1.022 0v.845a8.679 8.679 0 11-5.146-7.932.51.51 0 00.416-.933zm4.455.729a1.11 1.11 0 111.572 1.57l-9.19 9.198a1.11 1.11 0 01-1.57 0l-2.757-2.756a1.11 1.11 0 111.57-1.571L25 25.28l8.403-8.411zm1.147.424a.51.51 0 00-.722 0L25 26.13l-2.396-2.396a.51.51 0 10-.722.723l2.757 2.756a.51.51 0 00.722 0l9.19-9.198a.512.512 0 000-.723z" fill="#C9D1D1"/></svg>