<?xml version="1.0" encoding="utf-8"?><svg viewBox="0 0 32 29" xmlns="http://www.w3.org/2000/svg" width="32" height="29"><path d="M28.747.968a23.48 23.48 0 00-13.346 0c-2.117.722-3.283 1.808-3.283 3.05v5.257a27.081 27.081 0 00-2.18-.094 21.145 21.145 0 00-6.673.967C1.161 10.89 0 11.981 0 13.215v11.767c0 1.23 1.161 2.325 3.265 3.05a23.495 23.495 0 0013.346 0c1.73-.606 2.816-1.43 3.154-2.394.762.068 1.527.1 2.292.098a21.1 21.1 0 006.673-.967c2.108-.726 3.27-1.812 3.27-3.055V4.002c.03-1.226-1.144-2.308-3.253-3.034zm-8.866 20.324c.676.061 1.393.09 2.18.09a21.102 21.102 0 006.673-.963c.441-.15.87-.331 1.281-.541v1.865c0 .767-3.02 2.173-7.95 2.173-.727.002-1.455-.03-2.18-.094l-.004-2.53zm2.18-1.755c-.728.003-1.455-.029-2.18-.094v-2.526c.676.062 1.393.09 2.18.09a21.1 21.1 0 006.673-.967 8.648 8.648 0 001.281-.541v1.853c-.004.77-3.025 2.19-7.954 2.19v-.005zm0-4.366a23.63 23.63 0 01-2.18-.09v-1.866c0-.227-.041-.453-.12-.668a27.68 27.68 0 002.3.098 21.1 21.1 0 006.673-.967c.441-.15.87-.332 1.281-.542v1.854c-.004.742-2.811 2.185-7.954 2.185v-.004zm7.95-8.64v2.08c0 .742-2.807 2.185-7.95 2.185-4.934 0-7.95-1.415-7.95-2.185V6.53c.41.211.837.392 1.277.542 2.147.674 4.405 1 6.673.964a21.101 21.101 0 006.673-.964 9.6 9.6 0 001.277-.541zm-7.95-.323c-4.934 0-7.95-1.419-7.95-2.19 0-.77 3.016-2.201 7.95-2.201s7.95 1.414 7.95 2.185c0 .771-3.02 2.206-7.95 2.206zm-4.168 17.47v1.337c0 .77-3.021 2.185-7.95 2.185-4.93 0-7.95-1.398-7.95-2.185v-1.337c.41.21.837.391 1.277.541a23.494 23.494 0 0013.346 0c.44-.15.866-.331 1.277-.54zm-7.95-.336c-4.93 0-7.95-1.419-7.95-2.19v-1.32c.41.21.837.392 1.277.542a23.494 23.494 0 0013.346 0c.44-.15.867-.331 1.277-.542v1.333c0 .742-2.808 2.177-7.95 2.177zm0-3.846c-4.93 0-7.95-1.418-7.95-2.19v-1.578c.41.21.837.391 1.277.542a23.568 23.568 0 0013.346 0c.44-.15.867-.331 1.277-.542v1.591c0 .742-2.808 2.19-7.95 2.19v-.013zm0-4.1c-4.93 0-7.95-1.414-7.95-2.185 0-.77 3.02-2.202 7.95-2.202 1-.006 2 .057 2.99.189a.223.223 0 00.084 0c3.18.41 4.893 1.43 4.893 1.996-.017.763-2.825 2.206-7.967 2.206v-.004z"/></svg>