<?xml version="1.0" encoding="utf-8"?><svg viewBox="0 0 60 60" xmlns="http://www.w3.org/2000/svg" width="60" height="60"><path class="erlink-card-icon__path erlink-card-icon__path--light erlink-card-icon__path--hover-pink" d="M0 24C0 12.686 0 7.03 3.515 3.515 7.029 0 12.686 0 24 0h12c11.314 0 16.97 0 20.485 3.515C60 7.029 60 12.686 60 24v12c0 11.314 0 16.97-3.515 20.485C52.971 60 47.314 60 36 60H24c-11.314 0-16.97 0-20.485-3.515C0 52.971 0 47.314 0 36V24z"/><path class="erlink-card-icon__path erlink-card-icon__path--red erlink-card-icon__path--hover-light" d="M25.552 43.2H13.844c-1.197-.043-1.833-.664-1.833-1.843-.011-2.133 0-4.256 0-6.389v-7.513c0-.236.021-.483.064-.719.119-.686.583-1.146 1.283-1.254.302-.043.615-.075.928-.075h22.749c.216 0 .431.011.647.043.938.15 1.434.697 1.434 1.64.01 1.769.01 3.537.01 5.306 0 2.958-.01 5.917-.01 8.875 0 1.308-.604 1.908-1.93 1.908-3.882.01-7.752.01-11.634.021 0-.01 0-.01 0 0zm.065-15.745c-3.676 0-7.353.01-11.03 0-.345 0-.474.085-.474.45.01 4.276.01 8.542 0 12.82 0 .32.097.45.431.45 7.353-.011 14.706-.011 22.06 0 .323 0 .453-.086.453-.43-.011-4.276-.011-8.542 0-12.819 0-.343-.098-.471-.453-.46-3.666-.011-7.321-.011-10.987-.011z"/><path class="erlink-card-icon__path erlink-card-icon__path--red erlink-card-icon__path--hover-light" d="M29.984 21.13h11.6c1.305 0 1.985.676 1.985 1.983v13.86c0 1.21-.486 1.779-1.704 1.908-.399.042-.809.021-1.207.021-.044 0-.076-.01-.119-.021-.388-.075-.54-.3-.518-.73.076-1.243.087-1.253.626-1.296.108-.01.215-.022.323-.022.54-.042.55-.042.529-.568-.108-4.148-.022-8.307-.044-12.455 0-.643 0-.643-.636-.643H19.16c-.636 0-.636 0-.647.632-.01.633-.162.783-.787.804-1.262.033-1.283 0-1.283-1.254v-.396c.01-1.19.658-1.822 1.865-1.822 3.882.01 7.774.01 11.677 0 0 .01 0 .01 0 0zM47.99 25.697c0 2.38-.033 4.77.01 7.15.021.974-.798 1.768-1.747 1.757-.377-.01-.755 0-1.132 0-.15 0-.313.01-.42-.097-.475-.428-.248-.975-.227-1.468.022-.375.335-.46.68-.472.733-.021.733-.021.733-.75V19.491c0-.59 0-.59-.583-.611-.625-.022-.84-.236-.862-.858-.043-1.061.075-1.179 1.143-1.19.366 0 .722 0 1.089.065.776.14 1.326.804 1.337 1.586-.022 2.39-.022 4.802-.022 7.214zM29.348 18.901h-5.855c-.539 0-.539 0-.55.525-.01.74-.13.858-.873.858-1.186 0-1.186 0-1.197-1.158v-.6c.022-1.018.636-1.64 1.671-1.661 4.248-.097 8.507-.043 12.755-.054.776 0 .895.14.906.922.01 1.082-.065 1.157-1.154 1.157-1.898.011-3.806.011-5.703.011zM40.345 18.848c-.399 0-.809.01-1.208 0-.399-.011-.593-.215-.571-.611a9.98 9.98 0 00.01-.804c-.02-.354.173-.568.518-.59a17.71 17.71 0 012.502 0c.496.043.603.397.517 1.447-.032.408-.205.558-.668.558-.378.01-.744 0-1.1 0z"/><path class="erlink-card-icon__path erlink-card-icon__path--red erlink-card-icon__path--hover-light" d="M25.628 29.738c2.641.01 4.68 2.015 4.68 4.62 0 2.529-2.136 4.566-4.756 4.576-2.576 0-4.733-2.122-4.711-4.63.01-2.594 2.091-4.577 4.787-4.566zm2.555 4.566c-.01-1.447-1.121-2.53-2.609-2.52-1.488 0-2.62 1.094-2.62 2.53 0 1.437 1.132 2.54 2.61 2.551 1.498-.01 2.62-1.093 2.62-2.561zM16.765 28.29c.4 0 .809-.01 1.208 0 .334.011.528.183.528.526v.922c0 .364-.194.568-.539.568a37.52 37.52 0 01-2.458 0c-.507-.022-.615-.311-.582-1.276.021-.525.172-.718.636-.74.205-.01.399 0 .604 0 .204-.01.41-.01.603 0zM34.415 38.334h1.208c.377.01.57.204.57.568v.836c0 .397-.215.6-.592.611-.787.01-1.585.01-2.372 0-.377-.01-.582-.236-.615-.61v-.044c-.01-1.34-.032-1.415 1.273-1.372.183.011.355.011.528.011z"/></svg>