<?xml version="1.0" encoding="utf-8"?><svg width="40" height="40" fill="none" xmlns="http://www.w3.org/2000/svg" viewBox="0 0 40 40"><circle cx="20" cy="20" r="20" fill="#E04E39"/><path d="M28.402 14H11.598a.65.65 0 00-.422.15.482.482 0 00-.175.365v1.035c0 .048.06.102.11.125l8.832 4.344a.165.165 0 00.075.016.166.166 0 00.075-.017l8.567-4.34c.048-.022.175-.084.223-.112.058-.034.118-.065.118-.126v-.926a.482.482 0 00-.175-.363.65.65 0 00-.422-.151zM28.925 17.111a.17.17 0 00-.15 0l-4.848 2.457a.143.143 0 00-.048.038.117.117 0 00-.024.054.11.11 0 00.005.056.125.125 0 00.033.05l4.848 4.5a.169.169 0 00.215.003.12.12 0 00.044-.09v-6.956a.115.115 0 00-.02-.065.14.14 0 00-.055-.047zM22.53 20.392a.158.158 0 00-.088-.04.17.17 0 00-.097.016l-1.943.985a.854.854 0 01-.75.004l-1.71-.841a.17.17 0 00-.175.017l-6.494 5.186a.129.129 0 00-.038.05.112.112 0 00.015.115c.012.016.03.03.05.04a.649.649 0 00.297.076H28.23c.03 0 .058-.007.082-.021a.135.135 0 00.055-.056.111.111 0 00.01-.073.122.122 0 00-.037-.066l-5.81-5.392zM16.338 19.92a.13.13 0 00.038-.05.112.112 0 00-.015-.115.142.142 0 00-.05-.041l-5.088-2.502a.169.169 0 00-.149 0 .141.141 0 00-.054.047.116.116 0 00-.02.065v6.565c0 .025.008.05.024.07a.146.146 0 00.065.048.171.171 0 00.162-.024l5.087-4.063z" fill="#fff"/></svg>