<?xml version="1.0" encoding="utf-8"?><svg width="78" height="78" fill="none" xmlns="http://www.w3.org/2000/svg" viewBox="0 0 78 78"><circle cx="39" cy="39" r="25" transform="rotate(90 39 39)" fill="#E04E39"/><circle cx="39" cy="39" r="38.5" transform="rotate(90 39 39)" stroke="#E04E39"/><path fill-rule="evenodd" clip-rule="evenodd" d="M45.4 34c-.448 0-.848.189-1.136.497L37.4 41.87l-3.664-3.943a1.542 1.542 0 00-1.136-.497c-.88 0-1.6.771-1.6 1.714 0 .48.176.908.464 1.217l4.8 5.143a1.543 1.543 0 002.272 0l8-8.572c.288-.308.464-.737.464-1.217 0-.943-.72-1.714-1.6-1.714z" fill="#fff"/></svg>