<?xml version="1.0" encoding="utf-8"?><svg width="34" height="39" fill="none" xmlns="http://www.w3.org/2000/svg" class="eyicon-svg eyhide-image" viewBox="0 0 34 39"><path d="M17.034 5.215c5.819-.029 10.828 4.206 11.622 9.97.625 4.533-.982 8.25-4.604 11.091-.415.326-.864.608-1.181 1.047-.494.683-.614 1.457-.619 2.267 0 .163.092.224.22.298.593.338.602.937.007 1.262-.197.107-.26.236-.222.417.06.297-.185.66.173.89.66.423.663.902-.017 1.32-.148.092-.155.2-.163.335-.043.768-.415 1.335-1.101 1.677-.221.11-.314.263-.387.478a3.955 3.955 0 01-6.18 1.908 3.708 3.708 0 01-1.324-1.857c-.085-.26-.209-.432-.464-.563-.626-.318-.977-.852-1.032-1.548-.02-.238-.072-.377-.305-.5-.482-.258-.51-.909-.034-1.152.318-.162.338-.37.328-.648-.012-.338.059-.652-.382-.869-.446-.22-.361-.871.113-1.118.224-.117.272-.254.27-.476-.012-1.244-.473-2.231-1.523-2.973-2.687-1.902-4.35-4.476-4.861-7.72-.567-3.6.367-6.815 2.77-9.568 2.044-2.338 4.661-3.628 7.753-3.963.378-.041.762-.005 1.143-.005zm1.954 20.441c0 1.271.006 2.541-.004 3.812-.002.275.082.395.372.382.394-.018.79-.015 1.183-.001.27.01.365-.099.353-.358a4.876 4.876 0 01.152-1.525c.33-1.197 1.114-2.02 2.089-2.754 3.198-2.41 4.646-5.654 4.172-9.6-.726-6.051-6.491-10.083-12.5-8.815C9.69 7.877 6 12.664 6.685 18.177c.363 2.931 1.799 5.29 4.19 7.059.415.306.843.595 1.172 1.001.754.935 1.127 1.995 1.06 3.195-.018.32.095.438.418.419.38-.023.762-.013 1.142-.003.233.006.349-.066.348-.322-.006-2.581-.006-5.163 0-7.744 0-.259-.121-.325-.352-.318-.326.01-.653.005-.98.001a2.609 2.609 0 01-2.437-1.717c-.376-.999-.1-2.112.707-2.855a2.634 2.634 0 012.926-.42c1.146.574 1.542 1.543 1.505 2.777-.03.979-.216.851.93.863.231.002.315-.096.31-.317-.01-.337-.005-.676 0-1.014.017-1.443 1.18-2.565 2.655-2.562 1.46.003 2.615 1.147 2.623 2.597.008 1.461-1.127 2.632-2.57 2.65-.312.003-.627.018-.938-.005-.333-.025-.418.113-.414.424.017 1.257.01 2.514.01 3.77zm-1.362.038c0-1.173.002-2.348-.001-3.522-.003-.791.08-.678-.728-.715-.41-.018-.535.1-.531.517.02 2.362.006 4.723.01 7.084.003.895-.12.767.809.793.332.01.45-.091.446-.433-.016-1.24-.005-2.482-.005-3.724zm-.668 6.747c1.059 0 2.118.004 3.175 0 .848-.004.73.101.765-.76.018-.408-.139-.491-.515-.489-2.159.015-4.317.004-6.475.009-.899.002-.773-.125-.803.798-.013.371.13.453.473.448 1.127-.016 2.253-.006 3.38-.006zm.04 1.355c-1.154 0-2.307-.003-3.461.002-.14 0-.327-.066-.397.113-.065.163.028.316.12.453.095.14.238.222.401.259 2.23.516 4.46.518 6.69-.002a.625.625 0 00.372-.233c.107-.143.21-.307.138-.484-.071-.176-.26-.106-.4-.107-1.156-.004-2.31-.001-3.463-.001zm-1.984-14.42c.003-.284.003-.566-.069-.846-.146-.56-.706-.976-1.273-.935a1.275 1.275 0 00-1.19 1.182c-.042.563.376 1.122.94 1.266.281.071.566.072.852.07.83-.008.733.09.74-.737zm4.838.738c.177.004.447-.002.715-.068.57-.142.988-.684.954-1.254a1.274 1.274 0 00-1.177-1.194c-.564-.05-1.134.36-1.283.92-.074.277-.077.56-.073.844.01.847-.1.742.864.752zm-5.054 16.141c.368.819 1.326 1.388 2.234 1.36.956-.027 1.878-.6 2.154-1.359-1.455.19-2.899.19-4.388 0zM1.992 16.22c.421 0 .842-.008 1.263.002.457.012.702.25.714.707.067 2.555.753 4.918 2.164 7.068.318.484.238.897-.169 1.112-.359.19-.693.083-.967-.325a14.088 14.088 0 01-2.05-4.775 14.914 14.914 0 01-.313-2.078c-.024-.284-.136-.369-.405-.36-.489.014-.977.009-1.467.002-.473-.006-.753-.253-.762-.657-.009-.423.278-.683.77-.693.203-.004.407 0 .611 0h.612l-.001-.003zM5.433 4.73c.247.011.428.121.587.28.566.564 1.138 1.123 1.699 1.692.338.344.358.755.07 1.04-.288.285-.703.263-1.048-.074a127.19 127.19 0 01-1.756-1.75c-.217-.22-.297-.484-.15-.779.125-.252.34-.376.598-.41zM28.535 4.73c.27.017.486.14.62.385.131.237.133.494-.048.683a60.605 60.605 0 01-2.014 2.007c-.248.234-.656.168-.889-.072-.233-.239-.282-.637-.043-.887.637-.665 1.3-1.305 1.956-1.95.108-.108.257-.15.418-.166zM5.446 29.064c-.27-.032-.483-.158-.61-.408-.125-.244-.108-.496.074-.683.65-.67 1.309-1.334 1.987-1.977.25-.237.653-.182.891.052.239.235.298.637.062.885-.645.675-1.318 1.325-1.985 1.98-.109.104-.261.14-.419.15z" fill="#E04E39"/><path d="M26.702 25.855c.22-.004.39.1.54.248.576.573 1.158 1.141 1.727 1.72.353.36.36.736.048 1.035-.3.287-.665.279-1.012-.058-.594-.574-1.174-1.162-1.76-1.745-.236-.236-.301-.513-.163-.816.117-.258.337-.378.62-.384zM17.681 1.993c0 .418.009.837-.002 1.254-.01.427-.285.698-.68.697-.394-.001-.67-.272-.675-.701-.01-.85-.01-1.698 0-2.548.005-.427.284-.696.68-.695.396.001.663.268.674.7.01.431.002.863.003 1.293zM32.018 17.572c-.42 0-.841.008-1.262-.002-.454-.01-.733-.285-.723-.694.01-.39.284-.65.722-.654.84-.007 1.682-.008 2.522.002.456.004.734.282.723.693-.01.39-.283.645-.723.654-.418.008-.838.001-1.26.001zM4.98 11.817c.006.369-.327.706-.69.702a.721.721 0 01-.69-.664c-.017-.366.3-.706.672-.72.363-.017.703.31.708.682zM30.405 20.474a.691.691 0 01-.695-.654.691.691 0 01.661-.73.677.677 0 01.692.654.688.688 0 01-.658.73zM30.293 22.25c-.003.355-.319.664-.681.67-.386.007-.712-.306-.708-.682a.686.686 0 01.72-.666.686.686 0 01.669.678zM29.042 24.514a.686.686 0 01-1.37-.001.669.669 0 01.668-.67c.406-.007.702.274.702.671zM4.227 14.29a.67.67 0 01-.693.684.672.672 0 01-.674-.664.672.672 0 01.654-.684.67.67 0 01.713.664z" fill="#E04E39"/></svg>