<svg viewBox="0 0 32 29" xmlns="http://www.w3.org/2000/svg">
    <path d="M28.7474 0.968217C24.409 -0.322739 19.7398 -0.322739 15.4014 0.968217C13.2838 1.68982 12.1182 2.77632 12.1182 4.01863V9.27484C11.2952 9.20924 10.5968 9.18054 9.93836 9.18054C7.67004 9.14499 5.41222 9.47237 3.26533 10.1481C1.16111 10.8902 0 11.9809 0 13.215V24.982C0 26.212 1.16111 27.3067 3.26533 28.0324C7.6039 29.3225 12.2728 29.3225 16.6114 28.0324C18.3419 27.4256 19.4274 26.6015 19.7655 25.638C20.5269 25.706 21.2916 25.7389 22.0566 25.7364C24.325 25.7727 26.5829 25.4453 28.7296 24.7688C30.8383 24.0431 31.9994 22.9566 31.9994 21.7143V4.00223C32.0305 2.77632 30.8561 1.69392 28.7474 0.968217ZM19.8812 21.292C20.5574 21.3535 21.2736 21.3822 22.061 21.3822C24.3292 21.4198 26.5871 21.0938 28.7341 20.4187C29.1755 20.2687 29.6038 20.0878 30.0153 19.8775V21.743C30.0153 22.5097 26.9946 23.916 22.0655 23.916C21.3376 23.9183 20.6101 23.8868 19.8856 23.8217L19.8812 21.292ZM22.061 19.5372C21.3332 19.5395 20.6056 19.508 19.8812 19.4429V16.9173C20.5574 16.9788 21.2736 17.0075 22.061 17.0075C24.3294 17.0438 26.5874 16.7164 28.7341 16.0399C29.177 15.8933 29.6057 15.7123 30.0153 15.4987V17.3519C30.0108 18.1227 26.9902 19.5413 22.061 19.5413V19.5372ZM22.061 15.1707C21.3332 15.1742 20.6057 15.1441 19.8812 15.0805V13.215C19.8804 12.9877 19.8398 12.762 19.7611 12.5467C20.5529 12.6123 21.3092 12.6451 22.061 12.6451C24.3294 12.6814 26.5874 12.354 28.7341 11.6775C29.1755 11.5275 29.6038 11.3465 30.0153 11.1363V12.9895C30.0108 13.7316 27.2037 15.1748 22.061 15.1748V15.1707ZM30.0108 6.53194V8.61064C30.0108 9.35274 27.2037 10.7959 22.061 10.7959C17.1274 10.7959 14.1112 9.38144 14.1112 8.61064V6.53194C14.5211 6.74225 14.948 6.92318 15.388 7.07314C17.5352 7.74744 19.793 8.07343 22.061 8.03664C24.3292 8.07427 26.5871 7.74825 28.7341 7.07314C29.174 6.92297 29.6008 6.74205 30.0108 6.53194ZM22.061 6.20803C17.1274 6.20803 14.1112 4.78943 14.1112 4.01863C14.1112 3.24782 17.1274 1.81692 22.061 1.81692C26.9946 1.81692 30.0108 3.23142 30.0108 4.00223C30.0108 4.77303 26.9902 6.20803 22.061 6.20803ZM17.8926 23.6782V25.0148C17.8926 25.7856 14.872 27.2001 9.94282 27.2001C5.01367 27.2001 1.99302 25.802 1.99302 25.0148V23.6782C2.40292 23.8885 2.82977 24.0694 3.26979 24.2194C7.60835 25.5095 12.2773 25.5095 16.6158 24.2194C17.0555 24.0686 17.4823 23.8877 17.8926 23.6782ZM9.94282 23.342C5.01367 23.342 1.99302 21.9234 1.99302 21.1526V19.8324C2.40292 20.0427 2.82977 20.2236 3.26979 20.3736C7.60835 21.6637 12.2773 21.6637 16.6158 20.3736C17.0559 20.2236 17.4827 20.0427 17.8926 19.8324V21.1649C17.8926 21.907 15.0855 23.342 9.94282 23.342ZM9.94282 19.4962C5.01367 19.4962 1.99302 18.0776 1.99302 17.3068V15.7283C2.40292 15.9386 2.82977 16.1195 3.26979 16.2695C7.60906 17.5554 12.2766 17.5554 16.6158 16.2695C17.0559 16.1195 17.4827 15.9386 17.8926 15.7283V17.3191C17.8926 18.0612 15.0855 19.5085 9.94282 19.5085V19.4962ZM9.94282 15.3962C5.01367 15.3962 1.99302 13.9817 1.99302 13.2109C1.99302 12.4401 5.01367 11.0091 9.94282 11.0091C10.943 11.0028 11.9424 11.0659 12.9323 11.1978C12.9602 11.2032 12.989 11.2032 13.0169 11.1978C16.1977 11.6078 17.9104 12.6287 17.9104 13.1945C17.8926 13.9571 15.0855 15.4003 9.94282 15.4003V15.3962Z" />
</svg>