<svg width="80" height="80" viewBox="0 0 80 80" fill="none" xmlns="http://www.w3.org/2000/svg">
<rect width="80" height="80" rx="12" fill="white"/>
<path d="M40.0459 16.1714C53.0568 16.1143 63.8517 26.9003 63.8288 40.0286C63.806 53.0998 53.034 63.8744 39.9088 63.8172C26.8636 63.783 16.1258 53.0084 16.1715 39.9029C16.2172 26.8775 26.9549 16.0686 40.0459 16.1714ZM40.0116 62.0234C52.0973 62.1148 62.0354 52.0715 62.0468 40.0286C62.0697 27.9858 52.1544 17.931 39.9773 17.9424C27.9145 17.9539 18.0106 27.8715 17.9649 39.8915C17.9078 52.1057 27.9602 62.1148 40.0116 62.0234Z" fill="#E04E39"/>
<path d="M40.0002 64C39.9659 64 39.943 64 39.9088 64C33.5461 63.9772 27.5489 61.4521 23.014 56.8817C18.4676 52.3114 15.9773 46.2786 16.0002 39.9029C16.023 33.5044 18.5704 27.4716 23.1739 22.9241C27.7317 18.4109 33.7174 15.9543 40.0458 16.0115C40.0801 16.0115 40.1258 16.0115 40.1601 16.0115C46.4428 16.0115 52.3828 18.4909 56.9064 23.0041C61.4985 27.5744 64.0116 33.6301 64.0002 40.0515C63.9887 46.4271 61.4642 52.4485 56.895 56.996C52.3486 61.5092 46.3514 64 40.0002 64ZM39.8631 16.3428C33.706 16.3428 27.8688 18.7651 23.4138 23.1641C18.8788 27.6544 16.3657 33.5959 16.3428 39.9029C16.2972 52.9512 26.875 63.6116 39.9088 63.6573C39.943 63.6573 39.9659 63.6573 40.0002 63.6573C46.26 63.6573 52.1658 61.2007 56.6551 56.7446C61.1672 52.2543 63.6575 46.3243 63.6689 40.04C63.6803 33.7101 61.1901 27.7458 56.6665 23.244C52.2001 18.788 46.3514 16.3428 40.1601 16.3428C40.1258 16.3428 40.0801 16.3428 40.0458 16.3428C39.9887 16.3428 39.9202 16.3428 39.8631 16.3428ZM39.8288 62.1948C34.0373 62.1948 28.5542 59.9096 24.3733 55.7392C20.1011 51.4887 17.7707 45.8558 17.7936 39.8915C17.8164 34.03 20.1468 28.4885 24.3505 24.2952C28.5542 20.1019 34.1058 17.7825 39.9773 17.7711C39.9887 17.7711 40.0002 17.7711 40.0116 17.7711C45.9059 17.7711 51.469 20.0905 55.6841 24.3066C59.9107 28.5342 62.241 34.1214 62.2296 40.0172C62.2182 45.9472 59.865 51.5459 55.6042 55.7734C51.4347 59.9096 45.963 62.1833 40.1829 62.1833C40.1258 62.1833 40.0687 62.1833 40.023 62.1833C39.943 62.1948 39.8859 62.1948 39.8288 62.1948ZM40.0002 18.1138C39.9887 18.1138 39.9773 18.1138 39.9659 18.1138C27.9716 18.1253 18.1706 27.8944 18.1249 39.8915C18.102 45.7644 20.3981 51.3059 24.6018 55.4878C28.7255 59.5897 34.1172 61.8406 39.8174 61.8406C39.8745 61.8406 39.9316 61.8406 40.0002 61.8406C40.0573 61.8406 40.1144 61.8406 40.1601 61.8406C45.8488 61.8406 51.2291 59.6011 55.3414 55.5335C59.5451 51.3745 61.864 45.8558 61.864 40.0172C61.8755 34.2014 59.5794 28.717 55.4214 24.5466C51.2862 20.399 45.8031 18.1138 40.0002 18.1138Z" fill="#E04E39"/>
<path d="M27.6974 39.1831C28.9883 39.1831 30.2905 39.1831 31.5813 39.1831C32.1982 39.1831 32.8036 39.1831 33.4204 39.1831C33.6489 39.1831 33.7631 39.0803 33.7974 38.8632C34.0601 37.4007 34.7798 36.1895 35.8878 35.2183C36.1049 35.0355 36.1163 34.8756 35.9678 34.6356C34.1629 31.5278 32.3695 28.4085 30.5646 25.2893C30.4847 25.1522 30.4047 25.015 30.3362 24.8779C30.0392 24.3066 30.1534 23.8953 30.7132 23.5868C32.8493 22.3871 35.1339 21.6101 37.5785 21.2902C41.6222 20.7761 45.449 21.5187 49.0359 23.4497C49.2643 23.5754 49.5042 23.6782 49.6641 23.8953C49.9269 24.2609 49.8126 24.6266 49.607 24.9808C48.6132 26.6946 47.6194 28.4199 46.6256 30.1338C45.7574 31.6306 44.9007 33.1274 44.0325 34.6128C43.8726 34.8756 43.9069 35.0355 44.1239 35.2298C45.2205 36.201 45.9173 37.4007 46.1915 38.8403C46.2372 39.0574 46.3286 39.1374 46.5685 39.1374C48.2819 39.1717 49.984 39.1602 51.6974 39.1374C52.9883 39.126 54.2905 39.1488 55.5813 39.1602C56.3238 39.1602 57.0663 39.1602 57.8088 39.1717C58.5513 39.1717 58.8597 39.4573 58.8483 40.2114C58.7912 42.6223 58.3343 44.9417 57.3976 47.1698C55.844 50.8489 53.3881 53.7853 50.0068 55.9334C49.8583 56.0248 49.7212 56.1162 49.5613 56.1962C48.9445 56.5275 48.5561 56.4361 48.202 55.8306C46.34 52.6199 44.478 49.4092 42.6389 46.1871C42.4676 45.8901 42.3076 45.8444 41.9992 45.9472C40.6741 46.3928 39.3262 46.3928 38.0011 45.9472C37.647 45.8329 37.4985 45.9129 37.3271 46.21C35.568 49.2836 33.7974 52.3457 32.0268 55.4192C31.3643 56.5732 31.1358 56.6646 30.0278 55.9562C25.2072 52.837 22.3171 48.4495 21.369 42.7822C21.232 41.9482 21.1634 41.1141 21.1406 40.2686C21.1177 39.4802 21.3919 39.1945 22.1686 39.1831C23.7907 39.1717 25.4128 39.1831 27.0349 39.1831C27.2748 39.1945 27.4804 39.1945 27.6974 39.1831ZM51.8459 40.8056C49.8926 40.8056 48.1791 40.8056 46.4771 40.8056C46.2715 40.8056 46.2258 40.9427 46.1915 41.1141C45.9288 42.5423 45.2434 43.742 44.1696 44.6904C43.8954 44.9303 43.9069 45.1131 44.0782 45.4102C45.7346 48.2552 47.3795 51.1117 49.0244 53.9681C49.31 54.4595 49.2986 54.4595 49.7669 54.1281C52.4742 52.2314 54.4961 49.7634 55.7983 46.7242C56.5409 45.0103 56.9864 43.2164 57.1234 41.354C57.1577 40.9313 56.9864 40.7827 56.598 40.7827C55.6841 40.7941 54.7703 40.7827 53.8678 40.7941C53.1139 40.817 52.36 40.7484 51.8459 40.8056ZM28.3828 40.8284C28.3828 40.817 28.3828 40.8056 28.3828 40.7941C27.4918 40.7941 26.5894 40.7941 25.6984 40.7941C24.8988 40.7941 24.0992 40.7941 23.2995 40.7941C22.9911 40.7941 22.8426 40.9084 22.8769 41.2283C22.9112 41.5597 22.9226 41.8796 22.9683 42.2109C23.6879 47.2726 26.1782 51.2602 30.3248 54.2195C30.6103 54.4252 30.7588 54.4138 30.9416 54.0824C32.598 51.1802 34.2657 48.2895 35.9449 45.4102C36.1163 45.1245 36.1049 44.9532 35.8536 44.7246C34.894 43.8905 34.2429 42.8394 33.9116 41.6054C33.706 40.8627 33.7174 40.8513 32.9521 40.8398C31.4328 40.817 29.9021 40.8284 28.3828 40.8284ZM40.0002 22.8556C39.2919 22.8556 38.5723 22.867 37.864 22.9584C35.9792 23.1983 34.1744 23.7125 32.4723 24.5352C32.2438 24.6494 32.141 24.7408 32.301 25.015C34.003 27.9515 35.7051 30.8879 37.3957 33.8358C37.5328 34.0757 37.6698 34.1443 37.944 34.0529C39.3262 33.573 40.7084 33.573 42.0906 34.0529C42.3305 34.1329 42.4676 34.11 42.6046 33.8701C44.2838 30.9451 45.963 28.0315 47.6537 25.1293C47.8479 24.798 47.8022 24.6608 47.4595 24.5009C45.0949 23.3926 42.6161 22.8213 40.0002 22.8556ZM44.6379 39.9715C44.6379 37.3892 42.6161 35.3783 40.0116 35.3669C37.43 35.3554 35.3852 37.3778 35.3852 39.9258C35.3852 42.588 37.3843 44.6218 40.0116 44.6218C42.6046 44.6332 44.6265 42.588 44.6379 39.9715Z" fill="#E04E39"/>
<path d="M31.0558 56.5961C30.7588 56.5961 30.4161 56.4247 29.9478 56.1162C25.1044 52.9855 22.1686 48.5066 21.2205 42.8165C21.0834 42.0281 21.0149 41.194 20.9921 40.28C20.9806 39.8229 21.072 39.5144 21.2662 39.3202C21.4604 39.126 21.7574 39.0231 22.1915 39.0231C23.3452 39.0117 24.5104 39.0117 25.6527 39.0231C26.1211 39.0231 26.6008 39.0231 27.0692 39.0231H27.5375L27.7089 39.0117H28.8169C29.7422 39.0117 30.6675 39.0117 31.5927 39.0117H31.9925C32.4609 39.0117 32.9521 39.0117 33.4319 39.0117H33.4433C33.5689 39.0117 33.6146 38.9774 33.6375 38.8289C33.9116 37.355 34.6313 36.0981 35.785 35.0926C35.9335 34.967 35.9335 34.8984 35.8307 34.727C34.3571 32.2019 32.8721 29.6197 31.4442 27.1288L30.3933 25.3007C30.3248 25.1864 30.2676 25.0722 30.1991 24.9579C29.8564 24.3066 30.0163 23.7925 30.6446 23.4383C32.8379 22.2043 35.1682 21.4273 37.567 21.1303C41.588 20.6275 45.4718 21.3588 49.1158 23.3126L49.2072 23.3583C49.4128 23.4611 49.6413 23.5868 49.8012 23.8039C50.1439 24.2724 49.9497 24.7294 49.7555 25.0722C48.8531 26.6375 47.9507 28.1914 47.0482 29.7568L46.7741 30.2252C46.5456 30.6251 46.3171 31.025 46.0887 31.4135C45.4718 32.499 44.8207 33.6073 44.181 34.7042C44.0668 34.8984 44.0782 34.967 44.2381 35.1041C45.3805 36.1095 46.0887 37.355 46.3514 38.806C46.3743 38.9317 46.3971 38.966 46.557 38.966C48.2705 39.0003 50.0297 38.9889 51.6746 38.966C52.5428 38.9546 53.4223 38.966 54.2791 38.9774C54.7132 38.9774 55.1358 38.9889 55.5699 38.9889C55.9354 38.9889 56.301 38.9889 56.6551 38.9889C57.032 38.9889 57.409 38.9889 57.786 38.9889C58.2315 38.9889 58.5285 39.0917 58.7227 39.2859C58.9169 39.4802 59.0082 39.7772 58.9968 40.2C58.9397 42.6908 58.4485 45.056 57.5347 47.2155C55.9697 50.9403 53.4566 53.911 50.0754 56.0591C49.9497 56.1391 49.7898 56.2419 49.6299 56.3333C48.933 56.7104 48.4419 56.5847 48.042 55.8991C46.3171 52.9284 44.3638 49.5463 42.479 46.2557C42.3533 46.0386 42.2962 46.0158 42.0449 46.0957C40.6741 46.5528 39.3033 46.5528 37.944 46.0957C37.6927 46.0043 37.6127 46.0386 37.4756 46.2786C36.4933 47.9924 35.488 49.7292 34.5285 51.4088C33.7403 52.7684 32.9635 54.1281 32.1867 55.4764C31.8212 56.1048 31.5699 56.4476 31.2272 56.5275C31.1701 56.5847 31.113 56.5961 31.0558 56.5961ZM24.0992 39.3545C23.4595 39.3545 22.8198 39.3545 22.1915 39.3659C21.8488 39.3659 21.6318 39.4345 21.5061 39.5602C21.3805 39.6858 21.3233 39.9144 21.3348 40.28C21.3576 41.1712 21.4261 41.9939 21.5632 42.7708C22.4999 48.3581 25.3785 52.757 30.142 55.8306C30.6789 56.1848 30.953 56.2876 31.1472 56.2419C31.3757 56.1848 31.5927 55.8763 31.8897 55.3507C32.6665 53.991 33.4547 52.6313 34.2315 51.2716C35.2024 49.592 36.2077 47.8553 37.1786 46.1414C37.3728 45.8101 37.5785 45.6387 38.0582 45.7987C39.3376 46.2328 40.6513 46.2328 41.9421 45.7987C42.3419 45.6616 42.5818 45.753 42.7874 46.1186C44.6722 49.4092 46.6256 52.7799 48.3505 55.762C48.6475 56.2876 48.933 56.3562 49.4699 56.0705C49.6299 55.9905 49.7784 55.8877 49.904 55.8077C53.2281 53.7054 55.6841 50.7803 57.2262 47.1241C58.1287 44.9989 58.6084 42.6794 58.6656 40.2343C58.677 39.9144 58.6199 39.6973 58.4942 39.5716C58.3685 39.4345 58.1401 39.3773 57.7974 39.3773C57.4204 39.3773 57.0435 39.3773 56.6665 39.3773C56.301 39.3773 55.9354 39.3773 55.5699 39.3773C55.1358 39.3773 54.7017 39.3659 54.2791 39.3659C53.4338 39.3545 52.5542 39.3431 51.686 39.3545C50.0297 39.3773 48.2705 39.3888 46.557 39.3545C46.2372 39.3431 46.0773 39.2059 46.0201 38.9089C45.7688 37.5378 45.0949 36.3495 44.0097 35.4011C43.7241 35.1498 43.6898 34.8984 43.884 34.5671C44.5237 33.4702 45.1748 32.3619 45.7917 31.2764C46.0201 30.8765 46.2486 30.4766 46.4771 30.0881L46.7512 29.6197C47.6537 28.0543 48.5561 26.5004 49.4585 24.9351C49.687 24.5466 49.6984 24.2952 49.5156 24.0438C49.4014 23.8953 49.23 23.7925 49.0473 23.7011L48.9559 23.6554C45.3805 21.7358 41.5537 21.016 37.6013 21.5187C35.2481 21.8158 32.9521 22.5813 30.8045 23.7925C30.3362 24.0553 30.2448 24.3638 30.4961 24.8551C30.5532 24.9693 30.6103 25.0722 30.6789 25.175L31.7298 27.0031C33.1691 29.494 34.6541 32.0648 36.1163 34.6013C36.2991 34.9213 36.2648 35.1612 36.0021 35.4011C34.9054 36.3609 34.2201 37.5492 33.9687 38.9432C33.9002 39.3316 33.6375 39.4116 33.4204 39.4002C32.9407 39.3888 32.4495 39.3888 31.9811 39.4002H31.5813C30.656 39.4002 29.7308 39.4002 28.8055 39.4002L27.0577 39.4116C26.5894 39.4116 26.1096 39.4116 25.6413 39.4116C25.1387 39.3545 24.6132 39.3545 24.0992 39.3545ZM49.3557 54.5394C49.3329 54.5394 49.31 54.5394 49.2872 54.528C49.1272 54.4937 49.0359 54.3452 48.8874 54.071L48.2819 53.0198C46.854 50.5518 45.3919 47.9924 43.9297 45.4902C43.7355 45.1588 43.6898 44.8732 44.0554 44.5532C45.1177 43.6163 45.7803 42.4509 46.0316 41.0684C46.0544 40.9313 46.1115 40.6228 46.4771 40.6228C47.7793 40.6228 49.0701 40.6228 50.4752 40.6228H51.8345C52.1544 40.5885 52.577 40.5999 53.0111 40.6113C53.2853 40.6228 53.5708 40.6228 53.8564 40.6228C54.3819 40.6113 54.9188 40.6113 55.4328 40.6113C55.8212 40.6113 56.2096 40.6113 56.5865 40.6113C56.8378 40.6113 57.0206 40.6685 57.1463 40.7941C57.2605 40.9198 57.3176 41.1026 57.2948 41.3654C57.1577 43.2393 56.7008 45.056 55.9583 46.7927C54.6446 49.832 52.5999 52.3457 49.8697 54.2652L49.8583 54.2766C49.6299 54.448 49.4928 54.5394 49.3557 54.5394ZM46.4771 40.977C46.42 40.977 46.3971 40.977 46.3628 41.1483C46.1001 42.5994 45.3919 43.8448 44.2838 44.8275C44.0896 44.9989 44.0782 45.0788 44.2267 45.3302C45.6889 47.8325 47.1625 50.3919 48.5789 52.8598L49.1844 53.911C49.2529 54.0367 49.3329 54.1624 49.3671 54.1967C49.4242 54.1852 49.5499 54.0938 49.6641 54.0024L49.6755 53.991C52.36 52.1057 54.3705 49.6378 55.6498 46.667C56.3809 44.9646 56.8264 43.1821 56.9635 41.3426C56.9749 41.194 56.9521 41.0912 56.9064 41.0341C56.8607 40.977 56.7579 40.9541 56.6094 40.9541C56.221 40.9541 55.8326 40.9541 55.4442 40.9541C54.9302 40.9541 54.3933 40.9541 53.8678 40.9655C53.5708 40.9655 53.2853 40.9655 53.0111 40.9541C52.577 40.9427 52.1772 40.9313 51.8688 40.9655H50.4752C49.0701 40.977 47.7679 40.977 46.4771 40.977ZM30.6332 54.5166C30.4847 54.5166 30.3476 54.4366 30.222 54.3452C26.0068 51.3402 23.5052 47.2612 22.7969 42.2224C22.7626 42.0053 22.7512 41.7882 22.7398 41.5825C22.7284 41.4683 22.717 41.354 22.717 41.2398C22.6941 41.0455 22.7398 40.8856 22.8312 40.7827C22.934 40.6685 23.0939 40.6228 23.311 40.6228C23.8821 40.6342 24.4647 40.6342 25.0359 40.6228C25.2643 40.6228 25.4814 40.6228 25.7098 40.6228H28.5656V40.657C28.954 40.657 29.3424 40.657 29.7308 40.657C30.7931 40.657 31.8897 40.657 32.9635 40.657C33.7745 40.6685 33.8659 40.7256 34.0716 41.5025L34.083 41.5483C34.4142 42.748 35.0425 43.7763 35.9678 44.5761C36.2762 44.8503 36.3105 45.1017 36.0934 45.4787C34.38 48.4266 32.7008 51.3402 31.0901 54.151C31.0102 54.2881 30.8959 54.4595 30.7132 54.4937C30.6789 54.5052 30.656 54.5166 30.6332 54.5166ZM23.2881 40.9541C23.1853 40.9541 23.1053 40.977 23.0825 41.0112C23.0482 41.0455 23.0482 41.1369 23.0482 41.2055C23.0597 41.3197 23.0711 41.434 23.0825 41.5597C23.0939 41.7653 23.1168 41.971 23.1396 42.1767C23.8364 47.1126 26.2924 51.1231 30.4276 54.071C30.5646 54.1738 30.6218 54.1738 30.6446 54.1738C30.656 54.1738 30.7132 54.1395 30.7931 53.991C32.4038 51.1802 34.083 48.2667 35.7964 45.3188C35.9335 45.0903 35.9221 45.0103 35.7393 44.8503C34.7569 43.9934 34.0944 42.9194 33.7517 41.6511L33.7403 41.6054C33.6603 41.3083 33.6146 41.1369 33.5347 41.0798C33.4547 41.0227 33.2605 41.0112 32.9521 41.0112C31.8783 40.9998 30.7817 40.9998 29.7193 41.0112C29.2738 41.0112 28.8283 41.0112 28.3828 41.0112H28.2115V40.977H25.6984C25.4699 40.977 25.2529 40.977 25.0359 40.977C24.4647 40.977 23.8821 40.977 23.311 40.977C23.2881 40.9541 23.2881 40.9541 23.2881 40.9541ZM40.0116 44.7932C40.0002 44.7932 40.0002 44.7932 40.0116 44.7932C37.27 44.7932 35.2024 42.6908 35.2024 39.9258C35.2024 38.6575 35.6936 37.4806 36.5846 36.5894C37.4871 35.6868 38.6979 35.1955 40.0002 35.1955H40.0116C42.7074 35.2069 44.8093 37.2978 44.8093 39.9715C44.8093 41.2855 44.3067 42.508 43.4042 43.4107C42.5132 44.3019 41.3024 44.7932 40.0116 44.7932ZM39.9887 35.5383C38.7779 35.5383 37.6584 35.9953 36.8131 36.8294C35.9906 37.652 35.5337 38.7489 35.5337 39.9144C35.5337 42.4852 37.4528 44.439 39.9887 44.439C39.9887 44.439 39.9887 44.439 40.0002 44.439C41.1996 44.439 42.3191 43.982 43.1529 43.1593C43.9868 42.3252 44.4552 41.1826 44.4552 39.9601C44.4552 37.4806 42.5018 35.5383 40.0002 35.5268C40.0002 35.5383 39.9887 35.5383 39.9887 35.5383ZM42.2848 34.2586C42.2048 34.2586 42.1134 34.2357 42.0221 34.2129C40.6855 33.7558 39.3262 33.7558 37.9783 34.2129C37.6356 34.3271 37.4185 34.2471 37.2358 33.9272C35.3624 30.6594 33.6946 27.7687 32.1525 25.1064C32.0953 25.0036 32.0154 24.8551 32.0725 24.6951C32.1182 24.5352 32.2667 24.4552 32.4038 24.3866C34.083 23.5754 35.9107 23.0498 37.8526 22.7984C38.5723 22.707 39.2805 22.6956 40.0116 22.6956C42.5704 22.6613 45.1063 23.2212 47.5394 24.3523C47.6993 24.4323 47.8707 24.5237 47.9278 24.7065C47.9849 24.8894 47.8935 25.0722 47.8022 25.2207C46.3171 27.7572 44.7636 30.4537 42.7531 33.9615C42.6275 34.1557 42.479 34.2586 42.2848 34.2586ZM40.0002 33.5159C40.7084 33.5159 41.428 33.6416 42.1363 33.8815C42.3191 33.9386 42.3647 33.9272 42.4447 33.7787C44.4552 30.2709 46.0201 27.5744 47.4937 25.0379C47.5851 24.8779 47.5851 24.8208 47.5851 24.798C47.5737 24.7751 47.5394 24.7294 47.3795 24.6494C44.9921 23.5411 42.5132 22.9927 40.0002 23.0269C39.2805 23.0269 38.5837 23.0384 37.8869 23.1298C35.9792 23.3697 34.1858 23.8953 32.5409 24.6837C32.4038 24.7522 32.3924 24.7751 32.3924 24.7865C32.3924 24.7865 32.3809 24.8208 32.4495 24.9236C33.9916 27.5859 35.6594 30.4766 37.5442 33.7444C37.647 33.9272 37.6927 33.9501 37.8869 33.8815C38.5837 33.6416 39.2919 33.5159 40.0002 33.5159Z" fill="#E04E39"/>
<path d="M40.0116 36.8179C41.725 36.8179 43.1758 38.2805 43.1872 39.9943C43.1872 41.7082 41.7365 43.1707 40.023 43.1707C38.2981 43.1821 36.8131 41.6968 36.8359 39.9715C36.8359 38.2348 38.2867 36.8065 40.0116 36.8179ZM39.9659 41.514C40.8112 41.5368 41.508 40.8627 41.5194 40.0286C41.5423 39.1831 40.8797 38.4861 40.0344 38.4747C39.1891 38.4518 38.4923 39.126 38.4809 39.9601C38.458 40.8056 39.1206 41.5025 39.9659 41.514Z" fill="#E04E39"/>
<path d="M40.0002 43.3421C39.132 43.3421 38.2753 42.9765 37.647 42.3366C37.0073 41.6968 36.6532 40.8284 36.6646 39.9715C36.6874 38.1319 38.1839 36.6466 40.023 36.6466C41.8279 36.6466 43.3586 38.1776 43.37 39.9943C43.37 41.7996 41.8393 43.3421 40.0344 43.3421C40.0116 43.3421 40.0002 43.3421 40.0002 43.3421ZM40.0116 36.9893C38.3666 36.9893 37.0187 38.3262 36.9959 39.9715C36.9844 40.7484 37.3157 41.5254 37.8869 42.0967C38.458 42.6794 39.2348 42.9993 40.0116 42.9993C41.6337 42.9879 43.0044 41.6168 43.0044 39.9943C43.0044 38.3604 41.6337 36.9893 40.0116 36.9893ZM40.0002 41.6854C39.9887 41.6854 39.9773 41.6854 39.9659 41.6854C39.0292 41.6625 38.2867 40.8855 38.3095 39.9486C38.321 39.4916 38.5037 39.0803 38.8236 38.7603C39.1548 38.4404 39.5775 38.2805 40.0344 38.2919C40.9711 38.3147 41.7136 39.0917 41.6908 40.0286C41.6794 40.4856 41.4966 40.9084 41.1653 41.2169C40.8569 41.5254 40.4457 41.6854 40.0002 41.6854ZM40.0002 38.6347C39.646 38.6347 39.3148 38.7718 39.0635 39.0117C38.8007 39.2631 38.6636 39.5944 38.6522 39.9601C38.6408 40.7256 39.2234 41.3312 39.9773 41.3426C40.3428 41.354 40.6855 41.2169 40.9483 40.9655C41.211 40.7142 41.3595 40.3828 41.3595 40.0172C41.3709 39.2631 40.7998 38.6461 40.0344 38.6347C40.023 38.6347 40.0116 38.6347 40.0002 38.6347Z" fill="#E04E39"/>
</svg>
