<svg viewBox="0 0 32 31" xmlns="http://www.w3.org/2000/svg">
<path d="M31.6584 15.4146C31.6584 23.9279 24.757 30.8293 16.2437 30.8293C7.73047 30.8293 0.829102 23.9279 0.829102 15.4146C0.829102 6.90137 7.73047 0 16.2437 0C24.757 0 31.6584 6.90137 31.6584 15.4146Z"/>
<path d="M14.0938 19.1972C14.0938 18.1867 14.0759 17.1762 14.1009 16.1674C14.1135 15.6676 13.99 15.4374 13.4301 15.4482C12.3942 15.468 12.3924 15.4374 12.3906 14.3586C12.3906 14.2021 12.3906 14.0439 12.3906 13.8875C12.3924 12.7439 12.3924 12.7223 13.4962 12.6989C13.9775 12.6882 14.1081 12.4868 14.1009 12.0426C14.092 11.4169 14.0598 10.7912 14.2029 10.1673C14.4981 8.86545 15.2799 8.08328 16.5805 7.84414C17.5538 7.66613 18.5377 7.71288 19.5199 7.71288C19.9547 7.71288 20.1085 7.92505 20.0942 8.34221C20.0763 8.85825 20.0692 9.3761 20.096 9.89035C20.1193 10.3507 19.935 10.5538 19.4806 10.5466C19.1013 10.5413 18.722 10.5556 18.3427 10.57C17.8848 10.5862 17.645 10.8236 17.6468 11.2911C17.6468 11.3576 17.6432 11.4259 17.6397 11.4924C17.6021 12.69 17.6021 12.69 18.7703 12.69C20.1801 12.69 20.1801 12.69 19.9797 14.1068C19.7901 15.45 19.7901 15.4788 18.4376 15.4464C17.8293 15.432 17.6146 15.6136 17.6236 16.2412C17.6558 18.2604 17.6182 20.2814 17.645 22.3007C17.6522 22.9138 17.4429 23.153 16.8292 23.1188C16.1172 23.081 15.3998 23.1026 14.686 23.108C14.2637 23.1116 14.0866 22.9228 14.092 22.4931C14.1063 21.3944 14.0974 20.294 14.0974 19.1936C14.0956 19.1972 14.0938 19.1972 14.0938 19.1972Z"/>
</svg>
