<svg width="81" height="81" viewBox="0 0 81 81" fill="none" xmlns="http://www.w3.org/2000/svg">
<rect width="81" height="81" rx="12" fill="white"/>
<path d="M21.0965 40.4557C24.2412 40.5405 27.2669 41.3203 30.2247 42.3036C30.7686 42.49 31.0746 42.4222 31.4825 42.0154C33.6244 39.8285 35.7832 37.6755 37.959 35.5395C38.3499 35.1665 38.4179 34.9631 37.925 34.5901C32.8594 30.691 27.7939 26.775 22.7113 22.8589C21.5894 21.9943 21.6234 21.2484 22.8133 20.5025C24.4452 19.4853 26.247 19.3497 28.0998 19.5701C32.9444 20.1465 37.33 22.0621 41.6816 24.1304C41.8346 24.1982 42.0046 24.266 42.1406 24.3507C42.5656 24.6559 42.9055 24.5711 43.2455 24.1812C43.7045 23.6726 44.1804 23.198 44.6904 22.7402C45.2853 22.1978 45.7783 22.1978 46.3732 22.7233C46.9852 23.2827 47.5971 23.8422 48.1581 24.4525C48.481 24.8085 48.702 24.7746 49.025 24.4355C50.9968 22.4521 52.9856 20.4855 54.9574 18.5021C56.1983 17.2646 57.6602 16.5017 59.4111 16.2474C62.5388 15.8066 65.2075 18.5021 64.7486 21.6214C64.4936 23.2997 63.7797 24.7237 62.5898 25.9104C60.5839 27.8938 58.5951 29.9112 56.5893 31.8777C56.2153 32.2337 56.1643 32.471 56.5723 32.827C57.1503 33.3526 57.6942 33.912 58.2382 34.4884C58.7991 35.0648 58.7991 35.5734 58.2382 36.1498C57.7792 36.6414 57.3032 37.133 56.7933 37.5907C56.4023 37.9298 56.3853 38.2349 56.6233 38.6926C58.1022 41.5915 59.3431 44.5752 60.295 47.6775C61.0089 50.017 61.5189 52.3904 61.3829 54.8654C61.3149 56.0182 61.0429 57.1201 60.397 58.1034C59.649 59.2223 58.9861 59.2392 58.1702 58.1881C54.2945 53.1871 50.4359 48.2031 46.5602 43.202C46.0502 42.5239 46.0502 42.5239 45.4553 43.1173C43.3475 45.2194 41.2567 47.3215 39.1319 49.4067C38.7579 49.7797 38.6389 50.1018 38.8089 50.6273C39.6588 53.0685 40.3558 55.5605 40.6447 58.1373C40.8147 59.68 40.8827 61.2227 40.3897 62.7314C40.2028 63.3078 39.9478 63.8334 39.5228 64.2741C38.8429 64.9861 38.2139 64.9861 37.602 64.2063C36.9901 63.4435 36.4121 62.6636 35.8172 61.8838C33.9473 59.4257 32.0605 56.9676 30.1907 54.4925C29.5957 53.7127 29.5957 53.7127 28.6438 54.0856C28.4398 54.1704 28.2528 54.2382 28.0488 54.323C27.6239 54.4755 27.2499 54.3908 26.9269 54.0856C26.587 53.7805 26.536 53.3906 26.655 52.9837C26.74 52.6955 26.842 52.4073 26.9779 52.153C27.3009 51.5936 27.1139 51.2715 26.621 50.9155C23.4423 48.576 20.2465 46.2027 17.0678 43.8462C15.8779 42.9647 15.9119 42.151 17.1698 41.3373C18.3767 40.5744 19.7026 40.4218 21.0965 40.4557ZM29.7317 51.1698C30.1057 51.2376 30.3266 51.0681 30.5476 50.9833C32.6554 50.1018 34.7632 49.2033 36.8881 48.3217C37.262 48.1692 37.585 47.9488 37.874 47.6606C40.5597 44.9482 43.2965 42.3036 45.9822 39.5742C50.8948 34.6071 55.8584 29.7078 60.7879 24.7915C61.8758 23.7065 62.5898 22.4521 62.4538 20.8246C62.3518 19.621 61.4849 18.7564 60.261 18.6716C58.6291 18.536 57.3712 19.2311 56.2493 20.3499C49.025 27.5717 41.7836 34.8105 34.5253 41.9984C33.4544 43.0664 32.5874 44.2022 32.0605 45.6263C31.3636 47.4741 30.5306 49.288 29.7317 51.1698ZM27.0119 21.74C26.587 21.74 26.162 21.7231 25.7371 21.74C25.5161 21.757 25.1931 21.74 25.1421 21.9774C25.0911 22.1978 25.3801 22.2995 25.5501 22.4181C30.1737 25.9443 34.7972 29.4704 39.4038 33.0135C39.8118 33.3187 40.0498 33.3017 40.4067 32.9457C42.2426 31.064 44.1294 29.2331 45.9822 27.3683C47.0192 26.3342 47.0022 26.3512 45.9483 25.334C45.6593 25.0628 45.4553 25.0119 45.1663 25.317C44.7924 25.7239 44.3844 26.0969 43.9934 26.4868C43.3305 27.131 42.9905 27.1988 42.1916 26.775C39.6758 25.4527 37.075 24.2829 34.3893 23.3336C31.9925 22.5029 29.5787 21.7739 27.0119 21.74ZM59.2751 54.2382C59.2581 53.2549 59.1221 52.2886 58.9351 51.3393C58.0852 47.2198 56.4703 43.3885 54.6175 39.642C53.6826 37.7603 53.5466 37.8789 55.1784 36.2515C56.1303 35.3191 56.1303 35.5903 55.1784 34.5901C54.7365 34.1493 54.4645 34.2002 54.0565 34.624C52.0847 36.6414 50.0789 38.6248 48.0731 40.5913C47.6651 40.9813 47.6481 41.2355 48.0051 41.6763C50.7248 45.1685 53.4276 48.6777 56.1303 52.1869C56.9633 53.2549 57.7962 54.323 58.6291 55.391C58.7311 55.5266 58.8161 55.7978 59.0371 55.73C59.2411 55.6622 59.2071 55.4079 59.2241 55.2214C59.2581 54.9163 59.2581 54.5772 59.2751 54.2382ZM38.4009 61.6295C38.6389 60.9514 38.6389 60.3411 38.5879 59.7308C38.3839 56.8658 37.67 54.1026 36.7861 51.3901C36.6501 50.9833 36.4461 50.9324 36.0721 51.102C34.8312 51.6444 33.5734 52.17 32.3155 52.6616C31.7885 52.865 31.7375 53.0685 32.0945 53.5262C33.6753 55.5266 35.2222 57.5439 36.7691 59.5444C37.296 60.2225 37.823 60.9006 38.4009 61.6295ZM19.4476 42.6257C22.3204 44.8295 25.0571 46.9486 27.8109 49.0676C28.1848 49.3558 28.2868 49.0507 28.3888 48.7964C28.8988 47.5419 29.3917 46.2874 29.9357 45.0329C30.1227 44.5922 29.9697 44.4226 29.5617 44.304C28.5248 43.9988 27.5049 43.6428 26.451 43.3716C24.2072 42.8121 21.9464 42.3544 19.4476 42.6257Z" fill="#E04E39"/>
</svg>
