<svg xmlns="http://www.w3.org/2000/svg" fill="none" viewBox="0 0 50 50" id="icon-block-link">
    <path d="M0 10C0 4.477 4.477 0 10 0h30c5.523 0 10 4.477 10 10v30c0 5.523-4.477 10-10 10H10C4.477 50 0 45.523 0 40V10z"
          fill="#F7F9FA"/>
    <path fill-rule="evenodd" clip-rule="evenodd"
          d="M25.714 15.622A6.126 6.126 0 0136.1 19.98a6.136 6.136 0 01-1.72 4.314l-.013.014-3.017 3.02a6.128 6.128 0 01-7.274 1.046 6.13 6.13 0 01-1.968-1.709 1.1 1.1 0 011.762-1.317 3.93 3.93 0 004.518 1.33 3.928 3.928 0 001.405-.905l3.01-3.013a3.936 3.936 0 00-2.797-6.66 3.925 3.925 0 00-2.758 1.098l-1.724 1.716a1.1 1.1 0 01-1.551-1.56l1.73-1.72.01-.012zm-4.871 5.64a6.123 6.123 0 017.05 2.073 1.1 1.1 0 11-1.763 1.317 3.929 3.929 0 00-4.518-1.33 3.928 3.928 0 00-1.405.905l-3.01 3.013a3.936 3.936 0 002.797 6.66 3.926 3.926 0 002.757-1.098l1.712-1.714a1.1 1.1 0 111.557 1.555l-1.72 1.721-.014.014A6.126 6.126 0 0113.9 30.02a6.136 6.136 0 011.72-4.314l.013-.014 3.017-3.02a6.128 6.128 0 012.193-1.41z"
          fill="#C9D1D1"/>
</svg>