<svg viewBox="0 0 34 32" xmlns="http://www.w3.org/2000/svg">
<path d="M21.7522 6.73856H27.8095C28.0581 6.72226 28.2909 6.61777 28.4608 6.44617C28.6308 6.27457 28.7253 6.04864 28.7253 5.81398C28.7253 5.57932 28.6308 5.35339 28.4608 5.18179C28.2909 5.01019 28.0581 4.9057 27.8095 4.8894H21.7522C21.5036 4.9057 21.2708 5.01019 21.1008 5.18179C20.9309 5.35339 20.8363 5.57932 20.8363 5.81398C20.8363 6.04864 20.9309 6.27457 21.1008 6.44617C21.2708 6.61777 21.5036 6.72226 21.7522 6.73856Z" />
<path d="M16.5602 11.6279H27.8095C28.0581 11.6116 28.2909 11.5071 28.4609 11.3355C28.6308 11.1639 28.7254 10.938 28.7254 10.7033C28.7254 10.4687 28.6308 10.2427 28.4609 10.0711C28.2909 9.89953 28.0581 9.79504 27.8095 9.77874H16.5602C16.4255 9.76991 16.2903 9.78726 16.1631 9.82973C16.0358 9.8722 15.9192 9.93887 15.8205 10.0256C15.7218 10.1123 15.6431 10.2172 15.5892 10.3338C15.5354 10.4504 15.5076 10.5762 15.5076 10.7033C15.5076 10.8305 15.5354 10.9562 15.5892 11.0728C15.6431 11.1894 15.7218 11.2943 15.8205 11.3811C15.9192 11.4678 16.0358 11.5345 16.1631 11.5769C16.2903 11.6194 16.4255 11.6367 16.5602 11.6279Z" />
<path d="M6.60882 11.6279H11.8008C12.1791 11.6279 12.5419 11.4864 12.8094 11.2345C13.0769 10.9826 13.2272 10.6409 13.2272 10.2846V6.21022C13.2256 5.85784 13.0771 5.52015 12.8135 5.26996C12.5479 5.02181 12.1893 4.88192 11.8151 4.88043H6.60882C6.23052 4.88043 5.86771 5.02194 5.60022 5.27384C5.33272 5.52575 5.18244 5.86741 5.18244 6.22365V10.2981C5.1862 10.652 5.33814 10.9902 5.60523 11.2392C5.87232 11.4882 6.23298 11.6279 6.60882 11.6279ZM7.16986 6.73855H11.2635V9.7787H7.16986V6.73855Z" />
<path d="M27.8334 22.0199H23.1407L21.7143 19.9961C21.6261 19.871 21.5068 19.7681 21.3667 19.6964C21.2267 19.6246 21.0702 19.5861 20.9108 19.5842C20.7531 19.5795 20.5967 19.6118 20.4555 19.6783C20.3144 19.7447 20.1931 19.8432 20.1025 19.9647L16.6792 24.4421L12.2384 16.7948C12.1477 16.636 12.0096 16.5058 11.8411 16.4202C11.6726 16.3346 11.4812 16.2973 11.2905 16.313C11.0998 16.3287 10.9182 16.3967 10.7681 16.5086C10.618 16.6205 10.506 16.7713 10.4459 16.9425L8.93874 21.1916H6.18583C5.99871 21.1748 5.81034 21.2079 5.64222 21.2871C5.47409 21.3662 5.33296 21.4883 5.23492 21.6393C5.14181 21.7845 5.0926 21.951 5.0926 22.1206C5.0926 22.2903 5.14181 22.4567 5.23492 22.6019C5.32797 22.749 5.46265 22.8688 5.62387 22.9478C5.78509 23.0269 5.9665 23.0622 6.1478 23.0497H9.6329C9.84225 23.054 10.0475 22.995 10.2187 22.8814C10.3898 22.7678 10.5178 22.6055 10.5838 22.4184L11.6013 19.5528L15.714 26.6316C15.7911 26.7702 15.9054 26.8874 16.0456 26.9714C16.1857 27.0555 16.3468 27.1035 16.5128 27.1107H16.5746C16.7319 27.1141 16.8876 27.0807 17.0279 27.0135C17.1681 26.9463 17.2885 26.8474 17.3781 26.7256L20.8727 22.1273L21.8236 23.4706C21.9128 23.5969 22.0336 23.7005 22.1754 23.7724C22.3172 23.8442 22.4756 23.882 22.6367 23.8825H27.8334C28.0206 23.8998 28.2092 23.8669 28.3774 23.7877C28.5457 23.7085 28.6867 23.5861 28.7843 23.4347C28.8788 23.2896 28.9288 23.1228 28.9287 22.9526C28.9287 22.7824 28.8787 22.6155 28.7842 22.4705C28.6897 22.3254 28.5544 22.2078 28.3933 22.1306C28.2322 22.0535 28.0516 22.0198 27.8715 22.0333L27.8334 22.0199Z" />
<path d="M32.0221 17.2022V28.2256C32.0208 28.7366 31.8044 29.2263 31.4202 29.5872C31.036 29.9481 30.5155 30.1508 29.9729 30.1508H4.01287C3.4702 30.1508 2.94969 29.9481 2.56552 29.5872C2.18136 29.2263 1.9649 28.7366 1.96364 28.2256V3.77447C1.9649 3.26303 2.1812 2.77287 2.56523 2.41122C2.94926 2.04958 3.46976 1.8459 4.01287 1.84471H29.9919C30.535 1.8459 31.0555 2.04958 31.4395 2.41122C31.8235 2.77287 32.0398 3.26303 32.0411 3.77447V6.73851H34V2.95958C34.0012 2.5706 33.9208 2.18522 33.7633 1.82561C33.6058 1.46601 33.3744 1.13927 33.0823 0.864217C32.7902 0.589161 32.4433 0.371213 32.0614 0.2229C31.6795 0.0745867 31.2703 -0.00116871 30.8572 1.36292e-05H3.14753C2.73442 -0.000574922 2.32523 0.0755519 1.94338 0.22402C1.56154 0.372489 1.21452 0.59039 0.922179 0.865269C0.629841 1.14015 0.397921 1.4666 0.239684 1.82597C0.0814476 2.18533 -4.72756e-07 2.57055 0 2.95958V29.0404C0.00125975 29.8258 0.333432 30.5785 0.923572 31.1334C1.51371 31.6883 2.31358 32 3.14753 32H30.8382C31.2509 32 31.6596 31.9235 32.0409 31.7747C32.4222 31.626 32.7686 31.408 33.0605 31.1332C33.3523 30.8584 33.5838 30.5321 33.7417 30.173C33.8997 29.8139 33.981 29.4291 33.981 29.0404V17.2022H32.0221Z" />
<path d="M33.943 8.87424H32.0221V13.2308H33.943V8.87424Z"/>
</svg>
