<svg width="34" height="39" viewBox="0 0 34 39" fill="none" xmlns="http://www.w3.org/2000/svg"
     class="icon-svg hide-image">
    <path d="M17.0337 5.21454C22.853 5.18642 27.8615 9.42101 28.656 15.185C29.2807 19.7182 27.6744 23.4357 24.0524 26.2761C23.6366 26.6017 23.1883 26.884 22.8705 27.3231C22.3774 28.0056 22.2566 28.7801 22.2523 29.5902C22.2512 29.7535 22.3437 29.8141 22.4721 29.8877C23.0653 30.2262 23.074 30.8254 22.4787 31.1499C22.2817 31.257 22.2196 31.3857 22.2566 31.5674C22.3165 31.8638 22.0716 32.2272 22.4297 32.4565C23.0892 32.8805 23.0925 33.3586 22.4134 33.7772C22.2653 33.8691 22.2577 33.9773 22.2501 34.1125C22.2066 34.8805 21.8355 35.4473 21.1487 35.789C20.9278 35.8994 20.8353 36.0519 20.7624 36.2671C19.8732 38.8836 16.791 39.8354 14.5817 38.1751C13.9461 37.697 13.5021 37.0719 13.2583 36.318C13.1734 36.0573 13.0494 35.8864 12.7936 35.7555C12.1678 35.4375 11.8174 34.9032 11.7619 34.2066C11.7423 33.9687 11.69 33.8302 11.4571 33.7069C10.975 33.4495 10.9467 32.7983 11.4234 32.555C11.7412 32.3927 11.7608 32.185 11.751 31.9071C11.739 31.5685 11.8098 31.2548 11.369 31.0385C10.9228 30.8189 11.0077 30.1667 11.4822 29.9201C11.7064 29.8033 11.7543 29.6659 11.7521 29.4442C11.7401 28.2003 11.2787 27.2128 10.2295 26.4708C7.54241 24.5693 5.87944 21.995 5.36793 18.7501C4.80091 15.1504 5.73469 11.9358 8.13882 9.18305C10.1816 6.84456 12.799 5.55526 15.891 5.21995C16.2686 5.17885 16.6528 5.21454 17.0337 5.21454ZM18.9884 25.6563C18.9884 26.9272 18.9938 28.1971 18.984 29.468C18.9819 29.7427 19.0657 29.8628 19.3562 29.8498C19.7502 29.8325 20.1453 29.8347 20.5393 29.8487C20.8081 29.8584 20.9038 29.7503 20.8919 29.4907C20.869 28.9758 20.906 28.4675 21.0442 27.9656C21.374 26.7693 22.1576 25.9462 23.1327 25.2118C26.3314 22.8019 27.7788 19.5581 27.3054 15.6112C26.5795 9.56054 20.8135 5.5293 14.8059 6.79697C9.68969 7.87644 6.00025 12.6637 6.68372 18.1768C7.04722 21.108 8.48273 23.4671 10.8749 25.2356C11.2895 25.5417 11.7172 25.8305 12.0459 26.2371C12.8001 27.1717 13.1734 28.2317 13.106 29.4323C13.0875 29.7514 13.2006 29.8704 13.5239 29.8509C13.9037 29.8282 14.2857 29.8379 14.6655 29.8476C14.8995 29.8541 15.0149 29.7817 15.0138 29.5264C15.0084 26.9445 15.0084 24.3627 15.0138 21.7819C15.0138 21.5234 14.893 21.4574 14.6623 21.4639C14.3358 21.4736 14.0093 21.4693 13.6828 21.465C12.5803 21.452 11.6334 20.7846 11.2449 19.7484C10.8694 18.749 11.1448 17.636 11.9523 16.8929C12.7305 16.1758 13.92 15.9941 14.8778 16.4733C16.0238 17.0465 16.4199 18.0157 16.3829 19.2498C16.3535 20.2287 16.1674 20.101 17.3134 20.1129C17.5442 20.1151 17.628 20.0167 17.6225 19.796C17.6138 19.4586 17.6182 19.12 17.6225 18.7825C17.6399 17.3386 18.8034 16.2169 20.2781 16.2202C21.7386 16.2234 22.8933 17.3667 22.9009 18.8172C22.9086 20.2784 21.7745 21.4488 20.3314 21.4661C20.019 21.4704 19.7045 21.4855 19.3932 21.4617C19.0602 21.4369 18.9753 21.5753 18.9786 21.8857C18.996 23.1426 18.9884 24.3995 18.9884 25.6563ZM17.6258 25.6942C17.6258 24.5206 17.628 23.3459 17.6247 22.1724C17.6225 21.3806 17.7042 21.4942 16.8966 21.4574C16.4874 21.439 16.3622 21.5569 16.3655 21.9744C16.3851 24.3356 16.372 26.6968 16.3764 29.058C16.3786 29.9526 16.2556 29.8249 17.185 29.8509C17.517 29.8606 17.6356 29.76 17.6312 29.4182C17.6149 28.1776 17.6258 26.9359 17.6258 25.6942ZM16.9576 32.4414C18.0165 32.4414 19.0755 32.4446 20.1333 32.4403C20.9811 32.4371 20.8625 32.542 20.8984 31.681C20.9158 31.2732 20.7591 31.1899 20.3825 31.1921C18.2244 31.2072 16.0662 31.1964 13.9081 31.2008C13.0091 31.2029 13.1353 31.0764 13.1049 31.999C13.0918 32.37 13.2344 32.4522 13.5783 32.4468C14.7047 32.4306 15.8311 32.4414 16.9576 32.4414ZM16.9978 33.7956C15.8442 33.7956 14.6906 33.7934 13.5369 33.7978C13.3976 33.7988 13.2104 33.7318 13.1397 33.9113C13.0755 34.0736 13.168 34.2272 13.2605 34.3635C13.3552 34.5041 13.4978 34.5863 13.661 34.623C15.891 35.139 18.121 35.1411 20.351 34.6209C20.499 34.5863 20.6318 34.5127 20.7232 34.3883C20.8298 34.2445 20.9332 34.0811 20.8614 33.9038C20.7896 33.7285 20.6002 33.7978 20.4609 33.7967C19.3051 33.7934 18.1515 33.7956 16.9978 33.7956ZM15.0138 19.3764C15.0171 19.0919 15.0171 18.8096 14.9452 18.5305C14.7994 17.9702 14.2389 17.5538 13.6719 17.5949C13.0298 17.6425 12.5302 18.1379 12.4823 18.7771C12.4399 19.3396 12.8578 19.8988 13.4227 20.0426C13.7035 20.114 13.9875 20.1151 14.2737 20.1129C15.1041 20.1054 15.0073 20.2027 15.0138 19.3764ZM19.8525 20.114C20.0288 20.1184 20.2987 20.1119 20.5665 20.0459C21.1378 19.9042 21.5547 19.3623 21.5209 18.7923C21.4839 18.1574 20.9898 17.6555 20.3444 17.5982C19.7796 17.5484 19.2104 17.9583 19.0613 18.5175C18.9873 18.7955 18.984 19.0778 18.9884 19.3623C18.9982 20.2092 18.8883 20.1043 19.8525 20.114ZM14.7983 36.2552C15.1662 37.074 16.1239 37.643 17.0316 37.6159C17.9882 37.5878 18.91 37.0145 19.1865 36.2563C17.7314 36.4456 16.2871 36.4456 14.7983 36.2552Z"
          fill="#E04E39"></path>
    <path d="M1.99184 16.2202C2.41302 16.2202 2.83421 16.2115 3.25539 16.2223C3.71249 16.2342 3.95736 16.4722 3.96933 16.9286C4.03572 19.4835 4.72246 21.8468 6.13294 23.9971C6.45073 24.4806 6.37128 24.8938 5.96424 25.109C5.6051 25.2983 5.27098 25.1923 4.99672 24.7845C4.01178 23.3211 3.33919 21.7246 2.94739 20.0091C2.79067 19.3245 2.69272 18.629 2.63395 17.9313C2.61001 17.6468 2.49791 17.5625 2.22909 17.5711C1.74043 17.5852 1.25177 17.5798 0.762024 17.5733C0.288601 17.5668 0.0088997 17.3202 0.000193055 16.9157C-0.00851359 16.4927 0.277717 16.2332 0.769643 16.2234C0.973161 16.2191 1.17668 16.2223 1.38128 16.2223C1.5848 16.2223 1.78832 16.2223 1.99293 16.2223C1.99184 16.2191 1.99184 16.2202 1.99184 16.2202Z"
          fill="#E04E39"></path>
    <path d="M5.43311 4.72917C5.68016 4.74106 5.86082 4.85139 6.01972 5.00931C6.58565 5.57392 7.15811 6.13312 7.7186 6.70206C8.05707 7.04602 8.07666 7.45704 7.78825 7.74259C7.50093 8.02706 7.08628 8.00543 6.74128 7.66796C6.14923 7.09037 5.5648 6.50629 4.98472 5.91788C4.76814 5.69831 4.6876 5.43439 4.83453 5.1391C4.95968 4.88708 5.17409 4.7627 5.43311 4.72917Z"
          fill="#E04E39"></path>
    <path d="M28.5352 4.72959C28.8051 4.7469 29.0206 4.8702 29.1556 5.11465C29.2862 5.35153 29.2883 5.60896 29.1066 5.79824C28.4492 6.48075 27.781 7.15461 27.0932 7.80467C26.845 8.03939 26.4369 7.97341 26.204 7.73328C25.9711 7.49424 25.9221 7.0962 26.1615 6.84635C26.7982 6.18114 27.461 5.54082 28.1173 4.89508C28.225 4.788 28.3741 4.7469 28.5352 4.72959Z"
          fill="#E04E39"></path>
    <path d="M5.44608 29.0636C5.17508 29.0322 4.96286 28.9056 4.83552 28.6558C4.71145 28.4124 4.72778 28.1604 4.90953 27.9733C5.55927 27.3027 6.21879 26.6385 6.89682 25.996C7.14714 25.7592 7.54982 25.8143 7.78817 26.048C8.02651 26.2827 8.08637 26.685 7.8502 26.9327C7.20482 27.6077 6.53223 28.2577 5.86509 28.9121C5.75625 29.017 5.60389 29.0538 5.44608 29.0636Z"
          fill="#E04E39"></path>
    <path d="M26.7023 25.8551C26.9222 25.8508 27.092 25.9547 27.2411 26.1028C27.8179 26.6761 28.4001 27.244 28.9693 27.8237C29.322 28.1828 29.3296 28.5592 29.0172 28.8578C28.7168 29.1455 28.3523 29.1368 28.0051 28.8004C27.4108 28.2261 26.8308 27.6377 26.2452 27.0547C26.0091 26.8189 25.9438 26.542 26.082 26.2391C26.1995 25.9806 26.4194 25.8606 26.7023 25.8551Z"
          fill="#E04E39"></path>
    <path d="M17.6812 1.99345C17.6812 2.41096 17.6899 2.82955 17.679 3.24706C17.6681 3.67431 17.3939 3.94472 16.9988 3.94363C16.6048 3.94255 16.3295 3.67214 16.324 3.24274C16.3142 2.39366 16.3142 1.54457 16.324 0.695493C16.3295 0.268248 16.6081 -0.00107839 17.0032 3.2458e-06C17.4004 0.00108488 17.667 0.268248 17.6779 0.699819C17.6888 1.13139 17.6801 1.56296 17.6812 1.99345Z"
          fill="#E04E39"></path>
    <path d="M32.0178 17.5724C31.5977 17.5724 31.1766 17.58 30.7565 17.5703C30.3015 17.5605 30.0229 17.2847 30.0327 16.8759C30.0425 16.4865 30.3168 16.2269 30.7554 16.2225C31.5956 16.215 32.4368 16.2139 33.277 16.2236C33.733 16.2279 34.0106 16.5059 33.9997 16.917C33.9899 17.3063 33.7167 17.5616 33.277 17.5713C32.8591 17.5789 32.439 17.5724 32.0178 17.5724Z"
          fill="#E04E39"></path>
    <path d="M4.98045 11.8169C4.9859 12.1857 4.65287 12.5232 4.28936 12.5189C3.93566 12.5146 3.6146 12.2063 3.59936 11.8548C3.58304 11.4892 3.89974 11.1495 4.27195 11.1344C4.63545 11.1182 4.97501 11.4448 4.98045 11.8169Z"
          fill="#E04E39"></path>
    <path d="M30.405 20.474C30.0437 20.4848 29.7292 20.1884 29.7096 19.8196C29.6889 19.4334 29.9893 19.1035 30.3713 19.0906C30.738 19.0787 31.046 19.3685 31.0634 19.7439C31.0809 20.1354 30.7859 20.4631 30.405 20.474Z"
          fill="#E04E39"></path>
    <path d="M30.2929 22.2501C30.2896 22.6049 29.974 22.9143 29.6116 22.9207C29.2263 22.9272 28.8998 22.6136 28.9041 22.2382C28.9085 21.8586 29.2306 21.5611 29.6246 21.5719C29.9957 21.5838 30.2961 21.8878 30.2929 22.2501Z"
          fill="#E04E39"></path>
    <path d="M29.0423 24.5143C29.0423 24.8831 28.7474 25.1838 28.3795 25.1924C27.9932 25.2011 27.6721 24.8939 27.6732 24.5132C27.6743 24.1433 27.9638 23.8512 28.3403 23.8436C28.7463 23.8361 29.0423 24.1173 29.0423 24.5143Z"
          fill="#E04E39"></path>
    <path d="M4.22733 14.2904C4.23277 14.6788 3.92804 14.9784 3.53407 14.974C3.15968 14.9697 2.86583 14.6798 2.86039 14.3099C2.85495 13.94 3.14227 13.6404 3.51448 13.6263C3.91063 13.6123 4.22298 13.9032 4.22733 14.2904Z"
          fill="#E04E39"></path>
</svg>