<svg width="70" height="49" viewBox="0 0 70 49" fill="none" xmlns="http://www.w3.org/2000/svg">
<path d="M52.3771 47.5331C50.8225 48.4397 48.9006 48.4409 47.3449 47.5362L7.44813 24.336C4.12936 22.4061 4.13359 17.6109 7.45578 15.6869L17.6307 9.79419C19.1815 8.89605 21.0944 8.89658 22.6447 9.79558L62.562 32.9429C65.8796 34.8668 65.8855 39.6555 62.5726 41.5875L52.3771 47.5331Z" fill="#CEDFE8"/>
<path d="M49.7812 18.3851L51.7951 16.8463V15.7124L49.7812 16.9273V18.3851Z" fill="#393B38"/>
<path d="M49.7812 16.9271V18.385L49.459 18.142V16.7651L49.7812 16.9271Z" fill="#4A4D49"/>
<path d="M49.459 16.7652L51.3922 15.6313L51.795 15.7123L49.7812 16.9272L49.459 16.7652Z" fill="#636661"/>
<path d="M13.8544 8.58521L4.75195 13.8497V21.0579L13.8544 15.7935V8.58521Z" fill="#4A0A0C"/>
<path d="M13.4516 24.2976C13.4516 26.6464 11.5184 27.4563 9.18236 26.0794C6.84634 24.7026 4.91309 21.7059 4.91309 19.3571C4.91309 17.0083 6.84634 16.1984 9.18236 17.5753C11.5184 18.9521 13.4516 21.9488 13.4516 24.2976Z" fill="#393B38"/>
<path d="M16.1096 22.7586C16.1096 20.4099 14.1763 17.4132 11.8403 16.0363C10.5514 15.3074 9.42371 15.2264 8.61819 15.6314L5.95996 17.1702C6.76548 16.6843 7.89322 16.7653 9.18205 17.5752C11.5181 18.952 13.4513 21.9487 13.4513 24.2975C13.4513 25.3504 13.0486 26.0793 12.4041 26.4843L15.0624 24.9454C15.7068 24.5405 16.1096 23.8115 16.1096 22.7586Z" fill="#474743"/>
<path d="M12.2431 23.6497C12.2431 25.3505 10.8737 25.9174 9.18208 24.9455C7.49048 23.9736 6.12109 21.7868 6.12109 20.005C6.12109 18.2232 7.49048 17.7373 9.18208 18.7092C10.8737 19.7621 12.2431 21.9488 12.2431 23.6497Z" fill="url(#paint0_radial_4126_15967)"/>
<path d="M11.8408 25.0265L10.552 22.6777L12.1631 23.0017C12.0825 22.5157 11.9214 21.9488 11.6797 21.4628L10.0687 21.1389V19.438C9.74648 19.1951 9.42427 18.9521 9.10206 18.7091C8.94096 18.6281 8.8604 18.5471 8.6993 18.5471V20.4099L6.76604 18.5471C6.52439 18.7901 6.36328 19.1141 6.36328 19.6L8.29654 21.3818L7.0077 22.2727C7.32991 22.7587 7.65212 23.2446 8.05488 23.7306L9.42427 22.7587L10.7937 25.2694C11.1964 25.2694 11.5186 25.2694 11.8408 25.0265C11.7603 25.0265 11.7603 25.0265 11.8408 25.0265Z" fill="#B9ADA5"/>
<path d="M11.5987 25.1883L10.3098 22.8396L12.2431 23.2445C12.1625 22.7586 12.082 22.2726 11.8403 21.7057L9.90708 21.3007V19.1949C9.66543 19.0329 9.50432 18.871 9.26266 18.709C9.02101 18.547 8.77935 18.466 8.61824 18.385V20.4908L6.68499 18.628C6.44333 18.871 6.28223 19.1949 6.28223 19.6809L8.21548 21.4627L6.92665 22.3536C7.24885 22.8396 7.57106 23.3255 7.97383 23.8115L9.34322 22.8396L10.7126 25.3503C10.9543 25.4313 11.2765 25.3503 11.5987 25.1883Z" fill="url(#paint1_radial_4126_15967)"/>
<path d="M9.42377 21.3817C9.42377 21.4627 9.34322 21.5437 9.26267 21.4627C9.18211 21.3817 9.10156 21.3007 9.10156 21.1387C9.10156 21.0577 9.18211 20.9767 9.26267 21.0577C9.34322 21.1387 9.42377 21.3007 9.42377 21.3817Z" fill="#393B38"/>
<path d="M8.77974 21.1387C8.86029 21.2197 8.8603 21.3817 8.8603 21.4627C8.77974 21.5437 8.69919 21.4627 8.61864 21.3817C8.53809 21.3007 8.53809 21.1387 8.53809 21.0577C8.61864 20.9767 8.69919 21.0577 8.77974 21.1387Z" fill="#393B38"/>
<path d="M8.6188 21.6248C8.69935 21.6248 8.77991 21.7057 8.86046 21.8677C8.94101 21.9487 8.86046 22.1107 8.77991 22.1107C8.69935 22.1107 8.6188 22.0297 8.53825 21.8677C8.4577 21.7867 8.53825 21.6248 8.6188 21.6248Z" fill="#393B38"/>
<path d="M9.02148 22.3538C9.02148 22.2728 9.10204 22.1918 9.18259 22.2728C9.26314 22.3538 9.34369 22.4348 9.34369 22.5968C9.34369 22.6778 9.26314 22.7588 9.18259 22.6778C9.10204 22.5968 9.02148 22.5158 9.02148 22.3538Z" fill="#393B38"/>
<path d="M9.66551 22.5968C9.58496 22.5158 9.58496 22.3538 9.58496 22.2728C9.66551 22.1918 9.74607 22.2728 9.82662 22.3538C9.90717 22.4348 9.90717 22.5968 9.90717 22.6778C9.90717 22.7588 9.74607 22.6778 9.66551 22.5968Z" fill="#393B38"/>
<path d="M9.82678 22.1107C9.74623 22.1107 9.66568 22.0297 9.58512 21.8677C9.50457 21.7867 9.58512 21.6248 9.66568 21.6248C9.74623 21.6248 9.82678 21.7057 9.90733 21.8677C9.98789 22.0297 9.90733 22.1107 9.82678 22.1107Z" fill="#393B38"/>
<path d="M9.42441 22.1916C9.2633 22.1916 9.1022 22.0297 9.02165 21.8677C8.94109 21.7057 9.02165 21.5437 9.1022 21.5437C9.2633 21.5437 9.42441 21.7057 9.50496 21.8677C9.58551 22.0297 9.50496 22.1916 9.42441 22.1916Z" fill="#393B38"/>
<path d="M10.7126 25.5123C10.2292 25.5123 9.66537 25.3503 9.1015 25.0263C7.32935 24.0544 5.95996 21.7866 5.95996 20.0048C5.95996 19.1949 6.28217 18.628 6.76548 18.304C7.4099 17.98 8.29598 18.061 9.18205 18.547C10.9542 19.5189 12.3236 21.7866 12.3236 23.5685C12.3236 24.3784 12.0014 24.9453 11.5181 25.2693C11.357 25.5123 11.0348 25.5123 10.7126 25.5123ZM7.65156 18.385C7.4099 18.385 7.08769 18.466 6.92659 18.547C6.44328 18.7899 6.20162 19.3569 6.20162 20.0858C6.20162 21.7866 7.57101 23.8924 9.26261 24.8643C10.1487 25.3503 10.9542 25.4313 11.5181 25.1073C12.0014 24.8643 12.243 24.2974 12.243 23.5685C12.243 21.8676 10.8737 19.7619 9.18205 18.79C8.61819 18.547 8.05432 18.385 7.65156 18.385Z" fill="#FFF3EC"/>
<path d="M47.0419 27.9421L37.9395 33.2066V40.4149L47.0419 35.1504V27.9421Z" fill="#4A0A0C"/>
<path d="M46.6391 43.6548C46.6391 46.0035 44.7059 46.8135 42.3699 45.4366C40.0338 44.0597 38.1006 41.063 38.1006 38.7143C38.1006 36.3655 40.0338 35.5556 42.3699 36.9325C44.7059 38.2283 46.6391 41.306 46.6391 43.6548Z" fill="#393B38"/>
<path d="M49.2971 42.1158C49.2971 39.7671 47.3638 36.7704 45.0278 35.3935C43.7389 34.6646 42.6112 34.5836 41.8057 34.9885L39.1475 36.5274C39.953 36.0414 41.0807 36.1224 42.3696 36.9323C44.7056 38.3092 46.6388 41.3059 46.6388 43.6547C46.6388 44.7076 46.2361 45.4365 45.5916 45.8414L48.2499 44.3026C48.8943 43.8976 49.2971 43.1687 49.2971 42.1158Z" fill="#474743"/>
<path d="M45.5116 42.9257C45.5116 44.6265 44.1422 45.1935 42.4506 44.2216C40.759 43.2497 39.3896 41.0629 39.3896 39.2811C39.3896 37.5803 40.759 37.0133 42.4506 37.9852C44.0617 39.0381 45.5116 41.2249 45.5116 42.9257Z" fill="url(#paint2_radial_4126_15967)"/>
<path d="M45.0279 44.3026L43.8196 42.0348L45.4306 42.3588C45.3501 41.8728 45.189 41.3059 44.9473 40.8199L43.3363 40.496V38.7951C43.0141 38.5522 42.6918 38.3092 42.3696 38.0662C42.2085 37.9852 42.128 37.9042 41.9669 37.9042V39.6861L40.0336 37.8232C39.792 38.0662 39.6309 38.3902 39.6309 38.8761L41.5641 40.658L40.2753 41.5489C40.5975 42.0348 40.9197 42.5208 41.3225 43.0067L42.6918 42.0348L44.0612 44.5456C44.3834 44.6265 44.7057 44.5456 45.0279 44.3026C44.9473 44.3836 45.0279 44.3026 45.0279 44.3026Z" fill="#B9ADA5"/>
<path d="M44.7862 44.5455L43.4973 42.1967L45.4306 42.6017C45.35 42.1157 45.2695 41.6298 45.0278 41.0629L43.0946 40.6579V38.5521C42.8529 38.3901 42.6918 38.2281 42.4502 38.0662C42.2085 37.9042 41.9669 37.8232 41.8057 37.7422V39.848L39.8725 37.9852C39.6308 38.2281 39.4697 38.5521 39.4697 39.0381L41.403 40.8199L40.1141 41.7108C40.4364 42.1967 40.7586 42.6827 41.1613 43.1686L42.5307 42.1967L43.9001 44.7075C44.1418 44.7885 44.464 44.7075 44.7862 44.5455Z" fill="url(#paint3_radial_4126_15967)"/>
<path d="M42.6113 40.6581C42.6113 40.739 42.5307 40.82 42.4502 40.739C42.3696 40.6581 42.2891 40.5771 42.2891 40.4151C42.2891 40.3341 42.3696 40.2531 42.4502 40.3341C42.5307 40.4151 42.6113 40.5771 42.6113 40.6581Z" fill="#393B38"/>
<path d="M41.9672 40.496C42.0478 40.577 42.0478 40.739 42.0478 40.82C41.9672 40.901 41.8867 40.82 41.8061 40.739C41.7256 40.658 41.7256 40.496 41.7256 40.415C41.8061 40.334 41.8867 40.334 41.9672 40.496Z" fill="#393B38"/>
<path d="M41.8061 40.9819C41.8867 40.9819 41.9672 41.0629 42.0478 41.2249C42.1283 41.3059 42.0478 41.4679 41.9672 41.4679C41.8867 41.4679 41.8061 41.3869 41.7256 41.2249C41.7256 41.0629 41.7256 40.9819 41.8061 40.9819Z" fill="#393B38"/>
<path d="M42.2891 41.711C42.2891 41.63 42.3696 41.549 42.4502 41.63C42.5307 41.711 42.6113 41.792 42.6113 41.9539C42.6113 42.0349 42.5307 42.1159 42.4502 42.0349C42.3696 41.954 42.2891 41.792 42.2891 41.711Z" fill="#393B38"/>
<path d="M42.853 41.8729C42.7725 41.7919 42.7725 41.6299 42.7725 41.5489C42.853 41.4679 42.9336 41.5489 43.0141 41.6299C43.0947 41.7109 43.0947 41.8729 43.0947 41.9539C43.0947 42.0349 42.9336 42.0349 42.853 41.8729Z" fill="#393B38"/>
<path d="M43.0944 41.3868C43.0138 41.3868 42.9333 41.3058 42.8527 41.1439C42.7721 41.0629 42.8527 40.9009 42.9333 40.9009C43.0138 40.9009 43.0944 40.9819 43.1749 41.1439C43.1749 41.3058 43.1749 41.3868 43.0944 41.3868Z" fill="#393B38"/>
<path d="M42.6119 41.5488C42.4508 41.5488 42.2897 41.3868 42.2091 41.2248C42.1286 41.0629 42.2091 40.9009 42.2897 40.9009C42.4508 40.9009 42.6119 41.0629 42.6925 41.2248C42.773 41.3868 42.6925 41.5488 42.6119 41.5488Z" fill="#393B38"/>
<path d="M43.9001 44.8694C43.4167 44.8694 42.8529 44.7075 42.289 44.3835C40.5169 43.4116 39.1475 41.1438 39.1475 39.362C39.1475 38.5521 39.4697 37.9851 39.953 37.6612C40.5974 37.3372 41.4835 37.4182 42.3696 37.9042C44.1417 38.8761 45.5111 41.1438 45.5111 42.9256C45.5111 43.7356 45.1889 44.3025 44.7056 44.6265C44.5445 44.7884 44.2223 44.8694 43.9001 44.8694ZM40.8391 37.6612C40.5974 37.6612 40.2752 37.7422 40.1141 37.8232C39.6308 38.0661 39.3891 38.6331 39.3891 39.362C39.3891 41.0628 40.7585 43.1686 42.4501 44.1405C43.3362 44.6265 44.1417 44.7075 44.7056 44.3835C45.1889 44.1405 45.4305 43.5736 45.4305 42.8446C45.4305 41.1438 44.0612 39.038 42.3696 38.0661C41.8057 37.8232 41.3224 37.6612 40.8391 37.6612Z" fill="#FFF3EC"/>
<path d="M48.0089 37.8232L35.7649 29.238L32.2206 17.3323L17.8017 9.39507L7.73269 10.8529L0.885742 9.1521V17.0893L4.75226 21.0579V18.7901C4.75226 16.1984 6.84662 15.3075 9.34374 16.8463C11.9214 18.3042 13.9352 21.6248 13.9352 24.2166V26.5653L37.8593 40.4149V38.0661C37.8593 35.4744 39.9536 34.5835 42.4508 36.1223C45.0284 37.5802 47.0422 40.9009 47.0422 43.4926V45.7604L47.9283 45.9223L48.3311 38.8761L48.0089 37.8232Z" fill="#CF4344"/>
<path d="M48.0089 45.9223L47.6061 45.5983V43.5736C47.6061 40.6578 45.7534 37.4992 42.9341 35.7983C42.048 35.3124 41.0814 34.8264 40.1953 34.8264C39.2287 34.8264 38.5037 34.9074 37.9399 35.5554C37.376 36.2033 37.0538 37.0942 37.0538 38.0661V38.957L14.8213 26.0793V24.2165C14.8213 21.3008 12.6464 17.8182 9.74653 16.1983C8.7799 15.6314 7.89383 15.3884 7.00775 15.3884C6.04112 15.3884 5.31615 15.7124 4.75229 16.3603C4.18842 17.0083 3.86621 17.8992 3.86621 18.8711V20.2479L4.67173 21.0578V18.7901C4.67173 17.0893 5.63836 16.1174 7.00775 16.1174C7.65217 16.1174 8.4577 16.3603 9.34377 16.8463C11.9214 18.3041 13.9353 21.6248 13.9353 24.2165V26.5653L37.8593 40.4149V38.0661C37.8593 36.3653 38.8259 35.3934 40.1953 35.3934C40.8397 35.3934 41.6453 35.6364 42.5313 36.1223C45.109 37.5802 47.1228 40.9008 47.1228 43.4926V45.7603L48.0089 45.9223Z" fill="#EF3D42"/>
<path d="M1.44958 10.6908L0.724609 10.2859V12.7156L1.61069 13.1206V10.7718L1.44958 10.6908Z" fill="#FFD35E"/>
<path d="M1.61069 10.61L0.885714 10.2051L0.724609 10.2861L1.44958 10.691L1.61069 10.772L1.77179 10.691L1.61069 10.61Z" fill="#F8B859"/>
<path d="M1.61035 10.7719V13.1207L1.77146 12.9587V10.6909L1.61035 10.7719Z" fill="#FFD35E"/>
<path d="M48.0086 37.8231L52.6806 36.3653C56.6277 35.1504 60.0915 32.8826 62.8302 29.8049L63.8774 28.5901L51.6335 20.0859L51.0696 20.5719C48.3308 23.0826 45.1087 25.1074 41.7255 26.6463L35.7646 29.319L48.0086 37.8231Z" fill="#F56E75"/>
<path d="M44.7864 10.043L44.142 10.7719C41.6449 13.5256 38.4228 15.4694 34.959 16.5223L32.3008 17.3322L35.8451 29.238L41.806 26.5653C45.1892 25.0264 48.3307 23.0016 51.15 20.4909L51.7139 20.005L44.7864 10.043Z" fill="#C71B1F"/>
<path d="M44.7065 11.4199C44.6259 11.5009 44.5454 11.5819 44.4648 11.5819L50.1841 19.9241H50.5063L44.7065 11.4199Z" fill="#CF4344"/>
<path d="M50.1836 19.9241C47.4448 22.3538 44.3838 24.3786 41.0812 25.8365L36.248 27.9423V28.1042L41.3228 25.8365C44.6255 24.3786 47.6865 22.3538 50.4253 19.9241H50.1836Z" fill="#F56E75"/>
<path d="M50.1836 19.9239L44.4644 11.5818C41.8867 14.2545 38.6646 16.2793 35.1203 17.3322L33.2676 17.8991L36.248 28.0231L41.0812 25.9173C44.3838 24.3785 47.4448 22.4347 50.1836 19.9239Z" fill="#4D5259"/>
<path d="M50.1836 19.9239L44.4644 11.5818C41.8867 14.2545 38.6646 16.2793 35.1203 17.3322L33.2676 17.8991L36.248 28.0231L41.0812 25.9173C44.3838 24.3785 47.4448 22.4347 50.1836 19.9239Z" fill="#4D5259"/>
<path d="M44.5453 11.5818C43.4981 12.7157 42.2898 13.6876 41.001 14.5785L50.2645 20.0049L44.5453 11.5818Z" fill="#71757A"/>
<path d="M49.5395 18.9521L46.8813 18.3042L42.6926 20.572L41.9676 22.4348L35.5234 25.3505L36.329 27.9422L41.1621 25.8364C44.4647 24.3786 47.5257 22.3538 50.2645 19.924L49.5395 18.9521Z" fill="#5E6F71"/>
<path d="M16.7546 0L16.2712 0.242975C11.8409 2.02479 7.57159 4.45455 3.62452 7.20826L0.885742 9.15207L7.73269 10.8529L9.26319 9.71901C13.0491 6.8843 17.1573 4.53554 21.4266 2.59174L23.521 1.61983L16.7546 0Z" fill="#F56E75"/>
<path d="M30.3679 2.10571L29.1596 2.42968C24.9709 3.72555 21.185 5.99332 18.0434 9.071L17.8018 9.31398L32.2206 17.2512L34.8789 16.4412C38.4232 15.3884 41.5647 13.3636 44.0618 10.6908L44.7062 9.96191L30.3679 2.10571Z" fill="#F56E75"/>
<path d="M29.1593 2.42979L30.3676 2.02483L23.5207 1.61987L21.4263 2.59177C17.157 4.53558 13.0489 6.88434 9.26292 9.71905L7.73242 10.8529L17.882 9.31409L18.1237 9.07111C21.1847 5.99343 24.9706 3.72566 29.1593 2.42979Z" fill="#FF9CA1"/>
<path d="M21.7483 2.91563C18.0429 4.53546 13.9347 6.80323 10.6321 9.23299L9.2627 10.2049L9.5849 10.1239L10.6321 9.39497C13.8542 6.96522 18.0429 4.69745 21.7483 3.07761L23.601 2.2677V2.10571L21.7483 2.91563Z" fill="#F56E75"/>
<path d="M23.6006 2.10571V2.2677L28.3532 2.42968L28.917 2.2677L23.6006 2.10571Z" fill="#CF4344"/>
<path d="M17.8814 8.74692C20.5396 6.07419 24.3256 3.64444 27.9504 2.59155L28.3532 2.42956L23.52 2.26758L21.6673 3.0775C17.9619 4.69733 13.8538 6.9651 10.5511 9.39485L9.66504 10.2048L17.7203 8.98989L17.8814 8.74692Z" fill="#4D5259"/>
<path d="M23.6006 2.26758L21.7479 3.0775C18.0425 4.69733 13.9343 6.9651 10.6317 9.39485L9.66504 10.2048L13.2093 9.63783L25.1311 2.34857L23.6006 2.26758Z" fill="#5E6F71"/>
<path d="M48.4916 38.9569L48.0889 46.0032L52.7609 44.5454C56.708 43.3305 60.1717 41.0627 62.9105 37.985L63.9577 36.7702L64.1993 32.3156L63.9577 31.7487L64.3604 30.0479C60.0912 37.0131 48.4916 38.9569 48.4916 38.9569Z" fill="#C71B1F"/>
<path d="M52.5195 37.9042V41.4678L52.8417 41.3868C56.5472 40.2529 60.0109 38.3091 62.7497 35.4744V32.0728C59.8498 35.0694 55.6611 36.9323 52.5195 37.9042Z" fill="#393B38"/>
<path d="M62.5889 32.1537V35.3124L62.75 35.3934V31.9917C62.6694 32.0727 62.5889 32.0727 62.5889 32.1537Z" fill="#CF4344"/>
<path d="M62.5886 35.3123C59.9303 38.147 56.4666 40.0908 52.6806 41.2247H52.5195V41.3866L52.8417 41.3056C56.5472 40.1718 60.0109 38.228 62.7497 35.3932L62.5886 35.3123Z" fill="#F56E75"/>
<path d="M52.3584 37.985V39.7669L52.5195 39.8479V37.9041C52.5195 37.9041 52.439 37.9041 52.3584 37.985Z" fill="#CF4344"/>
<path d="M62.8304 29.805C60.0916 32.8826 56.6279 35.1504 52.6808 36.3653L48.0088 37.8231L48.4116 38.876C48.4116 38.876 60.0111 37.0132 64.2804 29.886L63.8776 28.5901L62.8304 29.805Z" fill="#EF3D42"/>
<path d="M53.8079 35.9604L49.9414 37.1752V37.3372L53.8079 36.1223C57.3522 34.9885 60.2521 32.8017 62.7492 30.048V29.886C60.2521 32.6397 57.3522 34.9075 53.8079 35.9604Z" fill="#EF3D42"/>
<path d="M50.8281 20.8149L50.667 20.8959L62.7498 29.967V29.805L50.8281 20.8149Z" fill="#CF4344"/>
<path d="M50.425 20.7339C47.8473 23.0017 44.8669 24.8645 41.7254 26.2413L37.6172 28.0231L49.8611 37.2562L53.7277 36.0413C57.272 34.9074 60.1719 32.7207 62.669 29.9669L50.425 20.7339Z" fill="#F56E75"/>
<path d="M37.6973 28.0232V28.4282L49.8607 37.3372V37.1753L37.6973 28.0232Z" fill="#CF4344"/>
<path d="M47.8477 42.6827L48.6532 43.1687C48.6532 43.1687 60.3333 40.5769 64.6831 33.7736L64.0387 33.3687C64.0387 33.3687 63.9581 33.6926 63.9581 33.7736C59.6083 40.6579 47.8477 42.6827 47.8477 42.6827Z" fill="#F56E75"/>
<path d="M48.7334 43.1685V46.0842C48.7334 46.0842 60.4135 43.4924 64.7633 36.6891V33.7734C60.4135 40.6577 48.7334 43.1685 48.7334 43.1685Z" fill="#A6171A"/>
<path d="M57.1914 40.3339V42.6827C58.4802 42.0348 59.7691 41.3058 60.8968 40.4149V38.0662C59.6885 38.9571 58.3997 39.686 57.1914 40.3339Z" fill="#EBDBCE"/>
<path d="M47.8477 42.6826V45.7603L48.7337 46.0843V43.1686L47.8477 42.6826Z" fill="#EF3D42"/>
<path d="M7.73242 10.8529L35.7646 29.238L32.3009 17.3322L17.882 9.39502L7.73242 10.8529Z" fill="#EF3D42"/>
<path d="M0.885742 9.23315L48.4922 38.9571L48.0089 37.8232L35.7649 29.2381L34.3955 28.0232L8.69932 11.4199L7.73269 10.853L0.885742 9.23315Z" fill="#EF3D42"/>
<path d="M0.402316 14.0116C0.482868 13.9307 0.482868 13.9307 0.56342 13.8497C0.643973 13.7687 0.805077 13.6877 0.88563 13.6067V14.2546L3.94662 16.6844V20.248L3.70496 20.41V20.329C3.70496 20.248 3.62441 20.248 3.62441 20.167C3.54386 20.086 3.54386 20.005 3.46331 19.924C3.38275 19.7621 3.3022 19.6811 3.22165 19.5191C3.1411 19.3571 3.06054 19.1951 2.97999 19.1141C2.89944 18.9521 2.81889 18.7902 2.73833 18.6282C2.65778 18.4662 2.57723 18.3042 2.41612 18.0612C2.33557 17.8993 2.17447 17.6563 2.09392 17.4943C2.01336 17.3323 1.85226 17.0893 1.77171 16.9274C1.69115 16.7654 1.53005 16.5224 1.4495 16.3604C1.36894 16.1984 1.28839 16.0364 1.12729 15.8745C1.04673 15.7125 0.966182 15.5505 0.88563 15.3885C0.805077 15.2265 0.724525 15.0645 0.643973 14.9835C0.56342 14.9026 0.482868 14.7406 0.482868 14.6596C0.402316 14.5786 0.402316 14.4976 0.321763 14.4166C0.321763 14.3356 0.241211 14.3356 0.241211 14.1736V14.0926C0.321763 14.0926 0.321763 14.0116 0.402316 14.0116Z" fill="#F56E75"/>
<path d="M0.241211 14.1736L0.88563 14.7405L3.70496 17.0083V20.4909L0.56342 17.1703C0.321763 16.9273 0.241211 16.6033 0.241211 16.2794V14.1736Z" fill="#EF3D42"/>
<path d="M18.2845 10.1241L17.8012 9.8811L8.7793 11.015L9.74593 11.258L23.4398 20.0861V12.9588L18.2845 10.1241Z" fill="#4D5259"/>
<path d="M9.34316 10.9341L8.7793 11.0151L23.4398 20.5721V20.0861L9.34316 10.9341Z" fill="#F56E75"/>
<path d="M34.6364 27.5373L24.5673 20.896L24.2451 21.139L34.7975 28.0233L34.6364 27.5373Z" fill="#F56E75"/>
<path d="M24.2451 13.4448V21.139L24.5673 20.8961V13.6878L24.2451 13.4448Z" fill="#C71B1F"/>
<path d="M34.6364 27.5373L31.656 17.5753L24.5674 13.6877V20.896L34.6364 27.5373Z" fill="#4D5259"/>
<path d="M52.3583 37.9851C50.9084 38.4711 49.7001 38.714 49.0557 38.876V40.6578L52.3583 39.8479V37.9851Z" fill="#EBDBCE"/>
<path d="M49.056 40.577V38.7952C48.6533 38.8762 48.4116 38.8762 48.4116 38.8762L48.3311 40.739V40.9009L49.2171 40.658L49.056 40.577Z" fill="#FFD35E"/>
<path d="M47.7676 38.4712L47.6064 40.334V40.415L48.3314 40.9009V40.739L48.4925 38.9571L47.7676 38.4712Z" fill="#FFD35E"/>
<path d="M52.5204 39.686L49.0566 40.5769V40.6579L52.5204 39.848V39.686Z" fill="#F56E75"/>
<path d="M62.75 31.9918V33.6926C62.8306 33.6116 62.9111 33.5306 62.9917 33.4496L63.8777 32.3967V30.5339C63.5555 31.0199 63.1528 31.5058 62.75 31.9918Z" fill="#EBDBCE"/>
<path d="M64.3608 29.967C64.2802 30.048 64.0386 30.453 63.958 30.534V32.6398L64.3608 32.1538V29.967Z" fill="#FFD35E"/>
<path d="M63.7969 30.6959L63.8774 30.5339V32.6397L63.7969 32.5587V30.6959Z" fill="#F8B859"/>
<path d="M63.7972 32.5586C63.7972 32.5586 62.8306 33.6925 62.75 33.7735V34.0164C62.9111 33.8545 63.8777 32.6396 63.8777 32.6396L63.7972 32.5586Z" fill="#F56E75"/>
<path d="M41.2422 15.8744V15.2265C41.2422 15.0645 41.1617 15.0645 41.0006 15.1455L40.195 15.6314V15.1455C40.0339 15.2265 39.7923 15.3885 39.6312 15.4695V16.0364L38.8256 16.5223C38.6645 16.6033 38.584 16.7653 38.584 16.9273V17.5752C38.584 17.7372 38.6645 17.7372 38.8256 17.6562L41.0006 16.3604C41.0811 16.1984 41.2422 16.0364 41.2422 15.8744Z" fill="#4E5D5E"/>
<path d="M35.0396 27.618L32.7842 28.6709V27.456L35.0396 26.1602V27.618Z" fill="#393B38"/>
<path d="M32.3818 27.2131V28.428L32.7846 28.671V27.4561L32.3818 27.2131Z" fill="#4A4D49"/>
<path d="M34.6373 25.9172L32.3818 27.2131L32.7846 27.4561L35.0401 26.1602L34.6373 25.9172Z" fill="#636661"/>
<defs>
<radialGradient id="paint0_radial_4126_15967" cx="0" cy="0" r="1" gradientUnits="userSpaceOnUse" gradientTransform="translate(9.18369 21.8581) rotate(30.1373) scale(3.57641 2.68947)">
<stop offset="0.374" stop-color="#7D746F"/>
<stop offset="0.628" stop-color="#9E938C"/>
<stop offset="0.8559" stop-color="#B5A8A1"/>
<stop offset="1" stop-color="#BDB0A8"/>
</radialGradient>
<radialGradient id="paint1_radial_4126_15967" cx="0" cy="0" r="1" gradientUnits="userSpaceOnUse" gradientTransform="translate(9.18372 21.6971) rotate(30.1373) scale(3.46464 2.60541)">
<stop offset="0.5407" stop-color="#FFF3EC"/>
<stop offset="0.7366" stop-color="#FDF1EA"/>
<stop offset="0.8072" stop-color="#F6EBE4"/>
<stop offset="0.8576" stop-color="#EBDFD8"/>
<stop offset="0.8982" stop-color="#DACEC8"/>
<stop offset="0.9331" stop-color="#C4B9B3"/>
<stop offset="0.9639" stop-color="#A89E99"/>
<stop offset="0.9912" stop-color="#89807A"/>
<stop offset="1" stop-color="#7D746F"/>
</radialGradient>
<radialGradient id="paint2_radial_4126_15967" cx="0" cy="0" r="1" gradientUnits="userSpaceOnUse" gradientTransform="translate(42.3839 41.1672) rotate(30.1373) scale(3.57641 2.68947)">
<stop offset="0.374" stop-color="#7D746F"/>
<stop offset="0.628" stop-color="#9E938C"/>
<stop offset="0.8559" stop-color="#B5A8A1"/>
<stop offset="1" stop-color="#BDB0A8"/>
</radialGradient>
<radialGradient id="paint3_radial_4126_15967" cx="0" cy="0" r="1" gradientUnits="userSpaceOnUse" gradientTransform="translate(42.3834 41.0062) rotate(30.1373) scale(3.46464 2.60542)">
<stop offset="0.5407" stop-color="#FFF3EC"/>
<stop offset="0.7366" stop-color="#FDF1EA"/>
<stop offset="0.8072" stop-color="#F6EBE4"/>
<stop offset="0.8576" stop-color="#EBDFD8"/>
<stop offset="0.8982" stop-color="#DACEC8"/>
<stop offset="0.9331" stop-color="#C4B9B3"/>
<stop offset="0.9639" stop-color="#A89E99"/>
<stop offset="0.9912" stop-color="#89807A"/>
<stop offset="1" stop-color="#7D746F"/>
</radialGradient>
</defs>
</svg>
