<svg width="52" height="49" viewBox="0 0 52 49" fill="none" xmlns="http://www.w3.org/2000/svg">
<g clip-path="url(#clip0_4128_16081)">
<path d="M43.5771 13.3119C43.5771 13.3119 43.5771 13.2976 43.5771 13.3119C43.5631 13.2549 43.5631 13.1979 43.5491 13.1409C43.535 13.1409 43.521 13.1551 43.507 13.1551C43.535 13.1979 43.5631 13.2549 43.5771 13.3119Z" fill="#F5F3E8"/>
<path d="M37.0771 16.1909C37.0491 16.0911 37.021 15.9628 36.9929 15.8203C36.9789 15.8203 36.9789 15.8203 36.9648 15.8346C37.007 15.9486 37.0491 16.0626 37.0771 16.1909Z" fill="#F5F3E8"/>
<path d="M26.8563 19.5972H26.8423C26.8563 19.6684 26.8844 19.7254 26.8984 19.7967C26.8844 19.7254 26.8704 19.6684 26.8563 19.5972Z" fill="#F5F3E8"/>
<path d="M34.1842 23.5449C34.1842 23.5449 30.6465 23.8442 30.3797 25.2267C30.113 26.595 31.559 31.398 29.2145 32.7805C26.87 34.163 20.005 35.631 15.8635 34.5193C11.722 33.4076 10.0374 28.5618 6.51362 29.1176C2.97583 29.6735 2.28792 30.999 2.59678 32.7235C2.89159 34.4481 3.18641 35.8163 3.3268 36.4292C3.46719 37.042 7.8052 38.7096 10.5709 40.9757C13.3365 43.2418 25.2836 49.3134 31.2642 48.9998C37.2447 48.672 42.6778 48.2587 46.9035 46.4914C51.1292 44.7241 51.3398 43.7264 51.5644 42.857C51.775 41.9734 51.8171 39.2511 51.9715 38.5528C52.14 37.8687 51.5503 36.7712 51.1151 36.5289C51.1151 36.5289 52.9963 30.3861 46.1173 27.6211C39.2382 24.8704 34.1842 23.5449 34.1842 23.5449Z" fill="#F28D80"/>
<path opacity="0.6" d="M51.1288 36.7998C50.9884 36.9994 50.9743 37.2559 50.848 37.4697C50.5111 38.0683 49.9635 38.2678 49.3458 38.3819C48.8966 38.4674 48.6439 38.952 48.307 39.2085C47.8858 39.5363 47.3242 39.7929 46.7767 39.6503C46.4959 39.5791 46.1871 39.3653 45.8782 39.3795C45.7659 39.3795 45.6677 39.5078 45.6115 39.6076C45.3588 40.0494 45.078 40.363 44.6007 40.591C43.9128 40.9045 43.0564 41.0613 42.4247 40.5197C42.0737 40.2204 41.7929 39.9211 41.3156 40.0209C41.1612 40.0494 41.0208 40.2204 40.8944 40.3915C40.6137 40.5625 40.389 40.8333 40.0521 40.8903C39.5467 40.9901 39.0273 40.9616 38.5219 40.819C38.0445 40.6908 37.6936 40.477 37.497 40.0066C37.3988 39.7786 37.2864 39.3653 37.0337 39.2513C36.5283 39.009 36.2055 39.6076 36.0089 40.0066C35.8404 40.3345 35.5597 40.9045 35.2087 41.3321C34.4506 41.8595 33.3415 41.9307 32.794 41.0328C32.5834 40.6908 32.4711 39.6788 31.9797 39.6076C31.727 39.5791 31.5445 39.7073 31.3901 39.9069C31.0111 40.3772 30.618 40.876 30.0143 41.0898C29.4808 41.2751 28.821 41.3036 28.3016 41.0328C27.8102 40.7763 27.7821 40.363 27.4592 39.9639C26.9538 39.3368 26.3782 39.6788 25.8728 40.1207C25.0726 40.8333 24.1601 40.9188 23.4862 39.9781C23.2195 39.5933 22.9808 38.6242 22.4333 38.5671C21.9981 38.5101 21.7033 39.0375 21.2962 39.2228C21.1979 39.237 21.0996 39.2655 21.0013 39.2798C20.9873 39.2798 20.9733 39.2798 20.9592 39.294C20.51 39.3653 20.0186 39.408 19.5975 39.2513C18.7271 38.9235 18.5586 38.1681 18.0813 37.4697C17.3512 36.4008 16.1158 37.3414 15.091 37.2702C14.1363 37.1989 13.4204 36.6003 12.915 35.8022C12.6623 35.4031 12.4657 34.9043 12.0305 34.7047C11.4409 34.4197 10.6968 34.8472 10.0651 34.6762C9.55966 34.5479 9.04023 34.3627 8.73137 33.9493C8.70329 33.8638 8.67522 33.7783 8.6331 33.707C8.46463 33.365 8.25405 33.0372 8.04346 32.7094C7.67846 32.125 7.31345 31.6832 6.6115 31.4979C6.21841 31.3981 5.82532 31.3696 5.43224 31.2841C4.99703 31.1844 4.81453 30.8993 4.54779 30.5858C4.23893 30.2152 3.87392 30.1154 3.46679 30.1724C4.0845 29.7164 5.05318 29.36 6.49919 29.132C10.037 28.5762 11.7217 33.4363 15.8491 34.5337C17.6741 35.0183 20.0327 35.004 22.2929 34.719C22.3772 34.9043 22.4614 35.0895 22.5737 35.2606C22.8685 35.7024 23.2335 36.0445 23.767 36.1442C24.469 36.2725 25.213 36.2155 25.8869 36.4578C27.4031 37.0136 28.7929 37.8118 30.4074 38.0398C31.1655 38.1538 31.9517 38.0255 32.6957 38.2678C33.3696 38.4959 34.0154 38.8094 34.7454 38.7382C35.2508 38.6812 35.6439 38.3534 36.0089 38.0255C36.2335 37.826 36.5283 37.5267 36.8512 37.5125C37.2724 37.4982 37.6093 37.6692 37.9743 37.8688C39.2098 38.5529 40.7821 38.4389 42.1439 38.3391C43.9409 38.1966 45.7098 37.8403 47.4646 37.4127C48.672 37.1276 49.9214 36.7001 51.1849 36.5861C51.213 36.6146 51.2411 36.6288 51.2832 36.6573C51.227 36.6858 51.1709 36.7286 51.1288 36.7998Z" fill="#F19899"/>
<path opacity="0.6" d="M6.51316 29.1034C10.051 28.5476 11.7356 33.4077 15.8631 34.5051C19.7799 35.5456 26.1255 34.2913 28.7788 32.9944C29.6352 33.3222 30.5056 33.6072 31.2216 34.1631C31.6568 34.5051 32.092 34.947 32.106 35.5598C32.1201 36.1014 31.9657 36.6145 31.741 37.0991C31.376 37.9115 30.8285 38.6526 30.4916 39.465C30.295 39.9638 30.1827 40.5767 30.5618 41.0185C30.8706 41.3748 31.727 41.8452 31.3339 42.4295C31.1795 42.6718 30.9268 42.8143 30.8004 43.0709C30.7022 43.2847 30.7302 43.5412 30.7302 43.7692C30.7583 44.4249 30.5196 45.052 30.5618 45.6933C30.632 46.805 31.727 47.1898 32.6395 47.4606C34.0013 47.8597 35.3631 48.045 36.781 48.0165C39.7713 47.9595 42.8037 47.4606 45.7097 46.691C46.4257 46.5057 47.1698 46.2919 47.8857 46.0211C47.5769 46.1637 47.24 46.3062 46.8749 46.463C42.6492 48.216 37.2162 48.6436 31.2356 48.9714C25.2551 49.2992 13.308 43.2276 10.5423 40.9472C7.77666 38.6811 3.43865 37.0136 3.29826 36.4007C3.15788 35.7878 2.86306 34.4339 2.56824 32.6951C2.28746 30.9848 2.97537 29.6593 6.51316 29.1034Z" fill="#EC7261"/>
<path opacity="0.5" d="M6.51337 29.1035C6.5976 29.0892 6.68183 29.075 6.78011 29.075C6.66779 29.474 6.82222 29.9871 6.99069 30.3292C7.32762 30.9848 7.81898 31.5834 8.1138 32.2533C8.42265 32.9374 7.81898 32.7948 7.3557 32.6951C7.04685 32.6238 6.80818 32.6238 6.48529 32.7093C5.95181 32.8519 5.89566 33.3792 6.05009 33.8495C6.38702 34.9185 6.31682 35.9874 6.52741 37.0848C6.6678 37.8117 6.96261 38.4246 7.46801 38.8949C5.36218 37.6834 3.41078 36.814 3.31251 36.4007C3.17212 35.7879 2.8773 34.4339 2.58248 32.6951C2.28767 30.9848 2.97557 29.6593 6.51337 29.1035Z" fill="#E55C49"/>
<path d="M47.3243 36.6572C45.2044 35.4172 43.225 36.4862 40.0522 36.8995C36.8794 37.3128 34.4226 37.0848 30.1267 36.5717C28.3438 36.3579 26.6029 35.3317 25.171 34.2058C26.8837 33.8067 28.3438 33.2936 29.2001 32.7805C31.5446 31.398 30.0986 26.595 30.3654 25.2267C30.6321 23.8442 34.1699 23.5449 34.1699 23.5449C34.1699 23.5449 39.2239 24.8704 46.1029 27.6211C52.982 30.3719 51.1008 36.5289 51.1008 36.5289C51.1008 36.5289 49.4442 37.8829 47.3243 36.6572Z" fill="#F19899"/>
<path d="M47.3243 36.6572C45.2044 35.4172 43.225 36.4862 40.0522 36.8995C36.8794 37.3128 34.4226 37.0848 30.1267 36.5717C28.3438 36.3579 26.6029 35.3317 25.171 34.2058C26.8837 33.8067 28.3438 33.2936 29.2001 32.7805C31.5446 31.398 30.0986 26.595 30.3654 25.2267C30.6321 23.8442 34.1699 23.5449 34.1699 23.5449C34.1699 23.5449 39.2239 24.8704 46.1029 27.6211C52.982 30.3719 51.1008 36.5289 51.1008 36.5289C51.1008 36.5289 49.4442 37.8829 47.3243 36.6572Z" fill="#F28D80"/>
<path d="M47.2684 34.8329C47.4649 34.4196 47.5773 34.0347 47.493 33.5787C47.4649 33.4504 47.3807 33.2936 47.2824 33.2081C46.9876 32.9516 46.8753 32.6523 46.763 32.2674C46.6507 31.8969 46.412 31.7971 46.0891 31.6261C45.7943 31.4693 45.7522 31.17 45.6399 30.8849C45.6118 30.8279 45.5557 30.7282 45.4855 30.7139C45.1205 30.5714 44.7835 30.7852 44.4466 30.4431C44.0956 30.0868 43.9131 29.6307 43.506 29.3314C43.0989 29.0321 42.5794 28.9894 42.1583 28.7328C41.709 28.462 41.358 28.1057 40.8246 27.9774C40.1647 27.8207 39.4207 27.7494 38.803 27.4786C38.2976 27.2506 37.7922 26.994 37.2727 26.8372C36.7112 26.6662 36.3462 26.7802 35.7986 26.8943C35.0405 27.051 34.3526 26.9513 33.6507 26.652C33.033 26.3812 32.1205 26.1104 31.8537 25.412C31.6572 24.8989 31.7835 24.4001 32.0643 23.9582C33.0891 23.6304 34.1982 23.5449 34.1982 23.5449C34.1982 23.5449 39.2522 24.8704 46.1313 27.6211C53.0103 30.3719 51.1291 36.5289 51.1291 36.5289C51.1291 36.5289 49.4585 37.8829 47.3386 36.6572C47.0297 36.4719 46.7209 36.3436 46.412 36.2581C46.7068 35.802 47.0438 35.346 47.2684 34.8329Z" fill="#F19899"/>
<path d="M29.2142 32.7806C30.8006 31.8542 30.6602 29.36 30.4777 27.4216C30.7023 28.234 30.955 29.0322 30.9831 29.9016C31.0112 30.6854 30.941 31.7544 31.4464 32.4242C31.9378 33.0941 33.3417 31.3126 34.0998 31.3838C36.7391 31.6404 41.2596 32.9943 43.6602 34.1631C44.3622 34.5051 42.4529 35.7878 43.0004 36.3437C42.13 36.5147 41.1753 36.7427 40.0663 36.8853C36.8935 37.2986 34.4367 37.0706 30.1408 36.5575C28.3579 36.3437 26.617 35.3175 25.1851 34.1916C26.8838 33.7925 28.3579 33.2794 29.2142 32.7806Z" fill="#E04E39"/>
<path d="M6.63974 29.4598C6.68186 29.075 6.97668 28.9324 7.28553 28.7757C7.55227 28.6331 7.73478 28.3766 7.97344 28.1913C8.15594 28.0488 8.38056 27.9633 8.60519 27.9063C9.06847 27.778 9.64407 27.7067 10.1073 27.8493C10.711 28.0345 11.1603 28.4906 11.7639 28.6759C12.2553 28.8184 12.8309 28.7472 13.2801 29.0037C13.5328 29.1462 13.6592 29.4313 13.9119 29.5881C14.1225 29.7021 14.3331 29.7591 14.5296 29.8874C14.6559 29.9729 14.7402 30.1439 14.7542 30.3007C14.8525 30.6285 14.8244 31.0133 14.8244 31.3696C14.8244 31.8542 14.5436 32.1535 14.2629 32.5098C13.9119 32.9231 13.4205 33.2652 12.9853 33.5645C12.4799 33.9066 12.0868 34.2771 11.5112 34.5052C10.4583 34.9042 9.37732 34.6334 8.73154 33.6785C8.40864 33.1939 8.1419 32.6523 7.83305 32.1535C7.53823 31.6547 7.28553 31.1416 7.03284 30.6285C6.87841 30.2864 6.59763 29.8731 6.63974 29.4598Z" fill="#E8E7DC"/>
<path d="M6.63999 29.4598C6.65403 29.3031 6.71018 29.189 6.79442 29.1035C6.76634 29.1748 6.76634 29.2603 6.78038 29.3316C6.87865 29.7306 7.35597 29.7734 7.6929 29.8589C8.46504 30.0584 9.18103 30.4147 9.9672 30.5573C10.5288 30.657 11.0482 30.7283 11.5817 30.9136C11.9888 31.0561 12.1573 30.5858 12.4661 30.429C12.9013 30.2152 13.3085 30.2437 13.7717 30.2152C14.1087 30.201 14.4456 30.1439 14.6281 29.9302C14.7123 30.0157 14.7685 30.1582 14.7825 30.2865C14.8808 30.6143 14.8527 30.9991 14.8527 31.3554C14.8527 31.84 14.572 32.1393 14.2912 32.4956C13.9402 32.9089 13.4488 33.251 13.0136 33.5503C12.5082 33.8923 12.1152 34.2629 11.5396 34.491C10.4866 34.89 9.40565 34.6192 8.75986 33.6643C8.43697 33.1797 8.17023 32.6381 7.86137 32.1393C7.56656 31.6405 7.31385 31.1274 7.06115 30.6143C6.87865 30.2865 6.59787 29.8731 6.63999 29.4598Z" fill="#F5F3E8"/>
<path d="M12.2415 32.8803C12.1853 32.3388 11.8625 31.4836 12.059 30.9563C12.1292 30.7567 12.2696 30.6142 12.424 30.4717C12.438 30.4574 12.4521 30.4574 12.4661 30.4432C12.9013 30.2294 13.3085 30.2579 13.7717 30.2294C14.1087 30.2151 14.4456 30.1581 14.6281 29.9443C14.7123 30.0299 14.7685 30.1724 14.7825 30.3006C14.8808 30.6285 14.8527 31.0133 14.8527 31.3696C14.8527 31.8542 14.572 32.1535 14.2912 32.5098C13.9402 32.9231 13.4488 33.2652 13.0136 33.5645C12.6907 33.7783 12.424 34.0063 12.1292 34.1916C12.3398 33.8353 12.3117 33.4932 12.2415 32.8803Z" fill="#CBCAC2"/>
<path d="M31.7979 24.6567C31.84 24.3147 31.8962 23.9584 31.9243 23.6163C31.9383 23.3312 31.8681 23.0604 31.9523 22.7897C32.0927 22.3336 32.5139 22.1768 32.921 22.0485C33.5247 21.8632 34.0582 21.6637 34.6197 21.3787C35.1111 21.1364 35.5884 20.9653 36.15 20.9796C36.7958 21.0081 37.4135 21.0509 38.0171 21.2504C38.6489 21.4642 39.2526 21.6067 39.8983 21.7492C40.3335 21.8347 40.4739 22.191 40.5301 22.5759C40.5441 22.7041 40.5301 22.8039 40.4739 22.9037C40.4459 23.0034 40.4037 23.089 40.3616 23.1602C40.2072 23.488 40.2212 23.8301 40.1791 24.1721C40.0528 25.2126 39.421 25.9252 38.5085 26.3813C37.975 26.6378 37.4275 26.31 36.88 26.3385C36.5992 26.3528 36.3886 26.5523 36.1219 26.6093C35.7709 26.6948 35.448 26.7946 35.083 26.8089C34.6478 26.8231 34.0862 26.5523 33.6932 26.3813C33.1456 26.1532 32.542 25.9822 32.0225 25.6687C31.7418 25.4834 31.7698 24.9703 31.7979 24.6567Z" fill="#EAE8DE"/>
<path d="M31.7973 24.6566C31.8394 24.3146 31.8956 23.9583 31.9237 23.6162C31.9377 23.3312 31.8675 23.0604 31.9517 22.7896C32.0219 22.5758 32.1483 22.419 32.3167 22.3192C32.5554 22.8181 33.4539 22.3477 33.9593 22.7183C34.2541 22.9463 34.4506 23.2599 34.8297 23.3454C35.1947 23.4309 35.8265 23.7017 36.1915 23.5449C36.4301 23.4452 36.5565 23.2742 36.7811 23.1316C37.1742 22.8751 37.5954 22.8323 38.0446 22.8466C38.4798 22.8751 38.8308 22.8608 39.2379 22.7183C39.5608 22.6043 40.1785 22.3192 40.2347 21.9202C40.4031 22.0769 40.4874 22.3192 40.5154 22.5758C40.5295 22.7041 40.5154 22.8038 40.4593 22.9036C40.4312 23.0034 40.3891 23.0889 40.347 23.1601C40.1926 23.4879 40.2066 23.83 40.1645 24.1721C40.0381 25.2125 39.4064 25.9251 38.4938 26.3812C37.9604 26.6377 37.4129 26.3099 36.8653 26.3384C36.5846 26.3527 36.374 26.5522 36.1072 26.6092C35.7563 26.6947 35.4334 26.7945 35.0684 26.8088C34.6332 26.823 34.0716 26.5522 33.6785 26.3812C33.131 26.1532 32.5273 25.9821 32.0079 25.6686C31.7411 25.4833 31.7692 24.9702 31.7973 24.6566Z" fill="#DEDDD3"/>
<path d="M36.374 24.3575C36.3599 23.9442 36.3459 23.5593 36.5846 23.2885C36.6407 23.2315 36.7109 23.1888 36.7811 23.1318C36.8232 23.1033 36.8513 23.089 36.8934 23.0605C36.9075 23.0605 36.9215 23.0463 36.9355 23.0463C36.9496 23.0463 36.9496 23.032 36.9496 23.032C37.1742 22.918 37.3988 22.8752 37.6375 22.8467C38.4938 22.9037 40.1926 22.9322 40.347 22.0486C40.4453 22.1911 40.4874 22.3764 40.5154 22.5617C40.5295 22.6899 40.5154 22.7897 40.4593 22.8895C40.4312 22.9892 40.3891 23.0748 40.347 23.146C40.1926 23.4738 40.2066 23.8159 40.1645 24.158C40.0381 25.1984 39.4064 25.911 38.4938 26.3671C37.9604 26.6236 37.4129 26.2958 36.8653 26.3243C36.6828 26.3386 36.5144 26.4241 36.3599 26.5096C36.374 26.4954 36.374 26.4811 36.388 26.4669C36.4722 26.2388 36.2757 25.9538 36.2476 25.74C36.2055 25.2981 36.388 24.8278 36.374 24.3575Z" fill="#CBCAC2"/>
<path d="M36.4583 25.127C36.5707 24.5854 36.346 23.9726 36.5707 23.4737C36.711 23.1459 37.1182 23.0177 37.413 22.9464C38.1149 22.7896 38.8028 22.9036 39.4907 22.6471C39.94 22.4761 40.2769 22.1198 40.7823 22.077C41.1333 22.0485 41.4421 22.134 41.737 22.2765C41.8493 22.305 41.9616 22.3478 42.0739 22.3763C42.7197 22.5901 43.2812 22.9464 43.8849 23.2314C44.2359 23.4025 44.5728 23.602 44.6992 23.9726C44.7413 24.0866 44.6851 24.2149 44.629 24.3004C44.5869 24.3574 44.5026 24.4287 44.4465 24.4714C44.2499 24.6567 44.2218 24.9417 44.1797 25.184C43.9691 26.196 43.4918 27.2506 42.5512 27.7637C42.116 27.9918 41.737 28.0345 41.2737 27.8778C40.9929 27.7922 40.7262 27.6497 40.4454 27.5785C40.0804 27.4787 39.6873 27.4787 39.3223 27.4074C38.7888 27.3077 38.3396 27.0226 37.8482 26.8373C37.427 26.6805 36.8514 26.6235 36.5847 26.196C36.3741 25.9394 36.3881 25.4976 36.4583 25.127Z" fill="#EAE8DE"/>
<path d="M36.4586 25.127C36.571 24.5854 36.3463 23.9725 36.571 23.4737C36.585 23.4452 36.599 23.4167 36.6271 23.3882C36.5569 23.6162 36.6411 23.8585 36.936 24.001C37.0342 24.0438 37.2027 24.0153 37.301 24.0153C37.6379 24.0295 37.9748 24.058 38.3118 24.1008C38.6627 24.1721 38.9856 24.3146 39.3085 24.4856C39.7578 24.7279 40.2211 24.9845 40.7124 25.127C41.2038 25.2553 41.7092 25.2695 42.2146 25.3123C42.5656 25.3408 43.0008 25.013 43.2675 24.8277C43.7027 24.5141 44.0958 24.3431 44.5731 24.1293C44.6293 24.1008 44.6714 24.0866 44.7275 24.058C44.7275 24.1436 44.6854 24.2433 44.6433 24.3146C44.6012 24.3716 44.517 24.4429 44.4608 24.4856C44.2643 24.6709 44.2362 24.956 44.1941 25.1982C43.9835 26.2102 43.5062 27.2649 42.5656 27.7779C42.1303 28.006 41.7513 28.0487 41.288 27.892C41.0072 27.8064 40.7405 27.6639 40.4597 27.5927C40.0947 27.4929 39.7016 27.4929 39.3366 27.4216C38.8031 27.3219 38.3539 27.0368 37.8625 26.8515C37.4414 26.6948 36.8658 26.6377 36.599 26.2102C36.3744 25.9394 36.3884 25.4975 36.4586 25.127Z" fill="#DEDDD3"/>
<path d="M41.4284 27.6498C41.4284 27.5215 41.4284 27.379 41.4284 27.2507C41.4424 26.9657 41.653 26.7376 41.653 26.4383C41.653 26.025 41.653 25.6544 42.1163 25.4549C42.2286 25.4122 42.3269 25.3551 42.4252 25.3124C42.734 25.2411 43.0569 24.9988 43.2675 24.8563C43.7027 24.5427 44.0958 24.3717 44.5731 24.1579C44.6293 24.1294 44.6714 24.1152 44.7275 24.0867C44.7275 24.1722 44.6854 24.272 44.6433 24.3432C44.6012 24.4002 44.517 24.4715 44.4608 24.5142C44.2643 24.6995 44.2362 24.9846 44.1941 25.2269C43.9835 26.2388 43.5062 27.2935 42.5656 27.8066C42.1725 28.0204 41.8075 28.0631 41.4003 27.9491C41.4144 27.8493 41.4284 27.7353 41.4284 27.6498Z" fill="#CBCAC2"/>
<path d="M41.7656 26.1961C41.7516 25.7685 41.8639 25.626 42.257 25.4265C42.5799 25.2697 42.8045 25.1842 43.0712 24.9134C43.2818 24.6711 43.4784 24.4003 43.7451 24.2293C44.1522 23.9585 44.6295 23.7732 45.1209 23.8444C45.5421 23.9157 45.865 24.1295 46.1738 24.386C46.8898 24.6426 48.027 24.8564 47.69 25.8683C47.6198 26.0678 47.4654 26.1818 47.2969 26.2959C46.96 26.5239 46.8336 26.7092 46.7213 27.1083C46.5669 27.6641 46.5669 28.2342 46.3844 28.7758C46.23 29.1891 46.0896 29.7022 45.7667 30.0158C45.514 30.2438 45.1069 30.5574 44.7419 30.3721C44.2786 30.1298 44.1522 29.8305 43.8434 29.4314C43.4222 28.8756 42.7764 28.9041 42.2008 28.6333C41.8639 28.4765 41.555 28.1629 41.527 27.7639C41.4989 27.2223 41.7797 26.7519 41.7656 26.1961Z" fill="#EAE8DE"/>
<path d="M41.7652 26.1959C41.7511 25.7683 41.8634 25.6258 42.2565 25.4262C42.3127 25.3977 42.3688 25.3692 42.411 25.355C42.425 25.4975 42.5233 25.6258 42.7479 25.7113C43.0287 25.8111 43.3375 25.8253 43.6183 25.9393C43.7868 26.0106 43.9552 26.0819 44.1377 26.1104C44.6291 26.2101 45.1626 26.1104 45.6259 26.3384C45.8645 26.4524 46.0891 26.5237 46.3278 26.3527C46.4682 26.2386 46.6086 26.0961 46.763 25.9963C47.0297 25.8253 47.4088 25.8396 47.6755 25.6543C47.7036 25.6258 47.7317 25.6115 47.7598 25.583C47.7598 25.6685 47.7457 25.7541 47.7036 25.8681C47.6334 26.0676 47.479 26.1816 47.3105 26.2956C46.9736 26.5237 46.8472 26.709 46.7349 27.108C46.5805 27.6639 46.5805 28.234 46.398 28.7756C46.2436 29.1889 46.1032 29.702 45.7803 30.0155C45.5276 30.2436 45.1205 30.5571 44.7554 30.3719C44.2922 30.1296 44.1658 29.8303 43.857 29.4312C43.4358 28.8753 42.79 28.9038 42.2144 28.633C41.8775 28.4763 41.5686 28.1627 41.5405 27.7636C41.4984 27.2221 41.7792 26.7517 41.7652 26.1959Z" fill="#DEDDD3"/>
<path d="M45.8786 28.7899C45.8364 28.006 45.7803 27.1651 46.1313 26.4667C46.2015 26.4525 46.2576 26.424 46.3278 26.3812C46.4682 26.2672 46.6086 26.1247 46.763 26.0249C47.0297 25.8539 47.4088 25.8681 47.6755 25.6828C47.7036 25.6543 47.7317 25.6401 47.7598 25.6116C47.7598 25.6971 47.7457 25.7826 47.7036 25.8966C47.6334 26.0962 47.479 26.2102 47.3105 26.3242C46.9736 26.5522 46.8472 26.7375 46.7349 27.1366C46.5805 27.6924 46.5805 28.2625 46.398 28.8041C46.2436 29.2174 46.1032 29.7305 45.7803 30.0441C45.7382 30.0868 45.682 30.1296 45.6399 30.1724C45.8645 29.759 45.9066 29.2887 45.8786 28.7899Z" fill="#CBCAC2"/>
<path d="M45.949 30.7852C46.0753 30.2151 46.0051 29.645 45.9911 29.0749C45.977 28.2767 45.8366 27.3503 46.1174 26.5807C46.3561 25.9251 47.3388 25.4262 47.9986 25.4975C48.2373 25.526 48.4479 25.6543 48.6725 25.7541C49.2481 26.0106 50.0904 26.3099 50.1606 27.051C50.2449 27.9062 49.7395 28.8183 49.3604 29.5452C48.9533 30.3433 48.4338 31.056 47.6898 31.5406C47.1703 31.8826 46.4824 31.9254 46.0191 31.4693C45.8366 31.2983 45.9068 30.999 45.949 30.7852Z" fill="#EAE8DE"/>
<path d="M45.9489 30.7853C46.0752 30.2152 46.0051 29.6451 45.991 29.075C45.977 28.2769 45.8366 27.3505 46.1174 26.5808C46.1735 26.4241 46.2858 26.2673 46.4262 26.1248C46.4122 26.2673 46.4683 26.4383 46.6087 26.4953C46.7632 26.5666 46.9035 26.5808 47.058 26.6093C47.423 26.7091 47.5914 26.9799 47.802 27.2364C47.9705 27.4502 48.1249 27.5215 48.3917 27.5357C48.6444 27.55 48.8971 27.3647 49.1498 27.3647C49.3463 27.3647 49.5569 27.3932 49.7534 27.3505C49.9219 27.3077 50.0482 27.2507 50.1746 27.1652C50.2027 27.9918 49.7254 28.847 49.3744 29.5453C48.9673 30.3435 48.4478 31.0561 47.7038 31.5407C47.1843 31.8828 46.4964 31.9255 46.0331 31.4694C45.8366 31.2984 45.9068 30.9991 45.9489 30.7853Z" fill="#DEDDD3"/>
<path d="M47.8445 29.7021C47.9849 29.2746 48.0411 28.8327 48.1674 28.4052C48.2797 28.0203 48.3639 27.6783 48.8132 27.5215C48.9395 27.4787 49.0378 27.436 49.1501 27.379C49.3326 27.379 49.5573 27.4075 49.7398 27.3647C49.9082 27.322 50.0346 27.265 50.1609 27.1794C50.189 28.0061 49.7117 28.8612 49.3607 29.5596C48.9536 30.3577 48.4341 31.0704 47.6901 31.555C47.4795 31.6832 47.2549 31.783 47.0162 31.8115C47.1706 31.0704 47.6199 30.429 47.8445 29.7021Z" fill="#CBCAC2"/>
<path d="M46.9879 32.1107C47.0721 31.7116 47.2827 31.3268 47.4793 30.9705C47.7179 30.5144 47.9145 30.0441 48.0548 29.5595C48.2093 29.0321 48.1952 28.4335 48.476 27.949C48.8551 27.2791 49.543 27.3361 50.2028 27.2363C50.9469 27.1366 51.2276 27.8207 51.4663 28.405C51.6207 28.7756 51.733 29.1604 51.7471 29.5737C51.7471 29.8873 51.5505 30.2008 51.4101 30.4716C51.2276 30.8279 50.8907 31.1843 50.6099 31.4551C50.3011 31.7686 49.9641 32.0964 49.6132 32.353C49.0376 32.752 48.3637 33.1654 47.6337 33.1796C47.016 33.1939 46.8896 32.5668 46.9879 32.1107Z" fill="#EAE8DE"/>
<path d="M46.9879 32.1108C47.0721 31.7117 47.2827 31.3269 47.4793 30.9706C47.7179 30.5145 47.9145 30.0442 48.0549 29.5596C48.2093 29.0323 48.1952 28.4337 48.476 27.9491C48.5322 27.8493 48.5883 27.778 48.6445 27.7068C48.5462 27.9633 48.5603 28.2626 48.7989 28.4479C49.192 28.7757 49.2201 29.132 49.4728 29.5169C49.557 29.6451 49.7395 29.7876 49.894 29.7734C50.0765 29.7591 50.2309 29.6879 50.3994 29.6451C50.7924 29.5739 50.9328 29.8874 51.1855 30.0727C51.2978 30.1582 51.4101 30.1867 51.5225 30.1867C51.4803 30.2722 51.4242 30.372 51.3821 30.4433C51.1996 30.7996 50.8626 31.1559 50.5819 31.4267C50.273 31.7402 49.9361 32.068 49.5851 32.3246C49.0095 32.7237 48.3356 33.137 47.6056 33.1512C47.016 33.194 46.8896 32.5669 46.9879 32.1108Z" fill="#DEDDD3"/>
<path d="M47.7318 32.8518C48.2372 32.5383 48.7005 32.1392 49.1779 31.7972C49.5569 31.5406 49.7534 31.2271 49.8938 30.7852C50.0202 30.3719 50.315 29.4027 51.0169 29.9016C51.0731 29.9586 51.1433 30.0156 51.1994 30.0726C51.2135 30.0869 51.2275 30.0869 51.2416 30.1011C51.3118 30.1724 51.382 30.2579 51.4521 30.3434C51.4381 30.3719 51.41 30.4147 51.396 30.4432C51.2135 30.7995 50.8766 31.1558 50.5958 31.4266C50.2869 31.7401 49.95 32.068 49.599 32.3245C49.0234 32.7236 48.3496 33.1369 47.6195 33.1511C47.3809 33.1654 47.2264 33.0656 47.1282 32.9231C47.3107 32.9944 47.5213 32.9801 47.7318 32.8518Z" fill="#CBCAC2"/>
<path d="M48.63 33.6928C48.6581 33.3079 48.6441 32.9374 48.7985 32.5811C49.0793 31.9682 49.5987 31.8399 49.8514 31.2128C50.076 30.6285 50.5533 29.4028 51.2553 30.0441C52.0836 30.8138 51.9292 32.5811 51.8449 33.536C51.7466 34.5622 51.508 35.5598 51.1149 36.5148C50.8482 37.1419 50.3006 38.0825 49.5285 38.1538C48.7142 38.2251 48.6019 37.4982 48.5879 36.8426C48.5598 35.8021 48.5739 34.7332 48.63 33.6928Z" fill="#F5F3E8"/>
<path d="M48.6303 33.6929C48.6583 33.3081 48.6443 32.9375 48.7987 32.5812C48.897 32.3674 49.0233 32.2106 49.1637 32.0681C50.357 32.1536 50.0061 33.8354 49.9359 34.6906C49.8516 35.5885 49.6411 36.4009 49.4305 37.2703C49.3322 37.6551 49.3603 37.9544 49.7253 38.1112C49.6551 38.1254 49.5989 38.1397 49.5287 38.1539C48.7145 38.2252 48.6022 37.4983 48.5881 36.8427C48.5601 35.8023 48.5741 34.7333 48.6303 33.6929Z" fill="#DEDDD3"/>
<path d="M46.0191 36.3722C46.0332 36.2296 46.0472 36.1014 46.0612 35.9588C46.1174 35.0894 45.7945 33.8637 46.6649 33.2936C47.058 33.0371 47.5072 32.9231 47.9003 32.6808C48.2232 32.4812 48.518 32.0394 48.9111 31.9966C49.585 31.9254 49.9079 32.3957 49.9219 33.0228C49.95 34.2485 49.8237 35.5028 49.571 36.7C49.3744 37.5979 48.9532 38.7666 48.0548 39.1656C47.8442 39.3367 47.6055 39.4649 47.3669 39.5505C47.072 39.6645 46.7351 39.7072 46.4824 39.4649C46.1314 39.1229 45.9489 38.6668 45.8928 38.1822C45.8085 37.5836 45.9349 36.985 46.0191 36.3722Z" fill="#F5F3E8"/>
<path d="M46.2861 33.6929C46.2019 34.0777 46.244 34.5053 46.2581 34.9328C46.2721 36.0018 46.2019 37.1562 45.879 38.1967C45.8088 37.5838 45.9492 36.9852 46.0194 36.3866C46.0334 36.2441 46.0475 36.1158 46.0615 35.9733C46.1036 35.2749 45.9071 34.3342 46.2861 33.6929Z" fill="#DEDDD3"/>
<path d="M41.7789 35.3034C41.7929 34.9899 41.6104 34.9186 41.807 34.605C42.0456 34.2345 42.7616 34.3485 43.1968 34.263C43.6882 34.1632 44.1515 33.9779 44.6428 33.8782C44.9376 33.8212 45.443 33.5504 45.7519 33.6786C46.2854 33.8924 46.1169 34.2202 46.1309 34.9329C46.159 36.2583 45.9625 37.8546 45.7098 39.0233C45.5132 39.907 44.9797 40.5056 44.1374 40.8049C43.0283 41.2039 41.9754 40.1635 41.6947 39.1373C41.3718 37.9544 41.7227 36.5149 41.7789 35.3034Z" fill="#F5F3E8"/>
<path d="M41.8351 34.8188C41.8351 35.3461 41.8632 35.8592 41.821 36.3865C41.7508 37.0992 41.6245 37.8688 41.5964 38.6242C41.456 37.5552 41.7228 36.3438 41.7789 35.3034C41.793 34.9898 41.6105 34.9185 41.807 34.605C41.8351 34.5622 41.8632 34.5195 41.9053 34.491C41.8632 34.605 41.8351 34.7048 41.8351 34.8188Z" fill="#DEDDD3"/>
<path d="M37.4838 34.89C37.6944 34.8473 37.933 34.9328 38.1436 34.9613C38.4806 35.0183 38.7894 34.9898 39.1263 34.9755C39.716 34.947 40.2495 34.7617 40.825 34.605C41.162 34.5052 41.4708 34.4909 41.6814 34.7902C41.7937 34.9613 41.7937 35.2036 41.7657 35.4459C41.7937 36.1157 41.7516 36.7856 41.6955 37.4555C41.6393 38.1396 41.6112 38.8664 41.3866 39.5221C41.0356 40.5197 40.0389 40.9758 39.0421 41.0043C37.5821 41.0471 37.1047 39.2085 36.9503 38.0541C36.8801 37.4697 36.838 36.8569 36.824 36.2725C36.824 35.7594 36.8801 35.004 37.4838 34.89Z" fill="#F5F3E8"/>
<path d="M12.2693 30.7425C12.4518 30.3862 12.7607 30.1867 13.1538 30.1724C13.7013 30.1582 14.1927 30.0299 14.7121 29.8731C15.2596 29.7021 15.7089 29.6023 16.2704 29.7449C16.8741 29.9016 17.2812 30.315 17.8147 30.6143C18.0674 30.7568 18.4605 30.6998 18.7413 30.7425C18.9518 30.771 19.1484 30.828 19.3309 30.9421C19.4994 31.0418 19.6257 31.1844 19.6959 31.3411C19.9065 31.6119 19.9346 31.897 19.8503 32.2675C19.7099 32.8946 19.5695 33.5218 19.3449 34.1204C18.9238 35.2035 18.0955 36.13 17.1408 36.7571C16.2564 37.3414 15.1613 37.3842 14.2629 36.8283C13.2942 36.2297 12.873 35.0753 12.6203 33.9921C12.494 33.4362 12.3676 32.8519 12.2974 32.2818C12.2553 31.954 12.2272 31.6262 12.1851 31.2841C12.1289 31.0703 12.1711 30.9278 12.2693 30.7425Z" fill="#E8E7DC"/>
<path d="M12.2695 30.7425C12.3818 30.5288 12.5362 30.372 12.7327 30.2722C12.5924 30.4432 12.5362 30.657 12.6485 30.9563C12.7608 31.2699 13.1539 31.3412 13.4347 31.3839C14.0243 31.4552 14.5016 31.4409 14.979 31.897C15.5265 32.4386 16.4109 33.1085 17.2392 32.9659C17.5762 32.9089 17.871 32.7521 18.1237 32.5241C18.587 32.0965 19.317 31.84 19.8926 32.1393C19.8926 32.182 19.8785 32.2248 19.8645 32.2676C19.7241 32.8947 19.5837 33.5218 19.3591 34.1204C18.9379 35.2036 18.1096 36.13 17.155 36.7571C16.2705 37.3414 15.1755 37.3842 14.277 36.8284C13.3083 36.2298 12.8872 35.0753 12.6345 33.9921C12.5081 33.4363 12.3818 32.8519 12.3116 32.2818C12.2695 31.954 12.2414 31.6262 12.1993 31.2841C12.1291 31.0704 12.1712 30.9278 12.2695 30.7425Z" fill="#F5F3E8"/>
<path d="M17.8854 35.3603C17.8573 34.7759 17.8713 34.1773 17.8994 33.5929C17.9275 33.1226 17.9837 32.7093 18.2925 32.3815C18.7558 32.0537 19.3595 31.8826 19.8789 32.1392C19.8789 32.1819 19.8649 32.2247 19.8508 32.2675C19.7104 32.8946 19.5701 33.5217 19.3454 34.1203C19.0085 35.0182 18.3767 35.7878 17.6327 36.3864C17.8152 36.1156 17.8994 35.8021 17.8854 35.3603Z" fill="#CBCAC2"/>
<path d="M17.9973 33.08C18.0394 32.7237 18.2359 32.2533 18.5729 32.0823C19.0502 31.84 19.4714 31.8828 19.9908 31.9398C20.5383 32.011 21.0858 31.9398 21.6333 31.9968C22.0966 32.0538 22.4897 32.2533 22.9109 32.4529C23.0653 32.5241 23.304 32.6809 23.4163 32.8234C23.4865 32.8804 23.5426 32.9375 23.5988 32.9945V32.9802C23.5988 32.966 23.6269 32.966 23.6269 32.9802C23.6269 32.9945 23.6409 33.0087 23.6409 33.0087C23.6549 33.023 23.6549 33.0515 23.6269 33.0372C23.669 33.1085 23.7111 33.1797 23.7111 33.2795C23.7392 33.4648 23.683 33.6643 23.6549 33.8496C23.6128 34.1347 23.6409 34.4197 23.6128 34.7048C23.5567 35.2036 23.3742 35.6312 23.1636 36.073C22.9109 36.6003 22.6722 37.1562 22.3914 37.6835C21.9141 38.5529 21.3385 39.3226 20.2856 39.4081C19.359 39.4793 18.6431 38.6242 18.3482 37.7975C18.1798 37.3415 18.1657 36.8569 18.1096 36.3723C18.0534 35.8592 17.9832 35.3461 17.9552 34.833C17.9552 34.2487 17.9411 33.6643 17.9973 33.08Z" fill="#E8E7DC"/>
<path d="M17.9973 33.0799C18.0254 32.8661 18.1096 32.5953 18.25 32.3958C18.25 32.467 18.2781 32.524 18.3061 32.5953C18.3904 32.7663 18.615 32.8376 18.7835 32.8803C19.4152 33.0086 19.5556 33.4932 20.0048 33.821C20.5102 34.1773 21.0718 34.1203 21.6053 33.821C21.872 33.6642 22.1247 33.4647 22.3914 33.3079C22.7845 33.0799 23.1776 33.0514 23.5988 33.0086C23.6128 33.0086 23.6128 33.0086 23.6269 33.0086C23.6269 33.0229 23.6409 33.0229 23.6409 33.0371C23.6549 33.0514 23.6549 33.0799 23.6269 33.0656C23.669 33.1369 23.7111 33.2081 23.7111 33.3079C23.7392 33.4932 23.683 33.6927 23.6549 33.878C23.6128 34.1631 23.6409 34.4481 23.6128 34.7332C23.5567 35.232 23.3742 35.6596 23.1636 36.1014C22.9109 36.6287 22.6722 37.1846 22.3914 37.7119C21.9141 38.5813 21.3385 39.351 20.2856 39.4365C19.359 39.5077 18.6431 38.6526 18.3482 37.8259C18.1798 37.3699 18.1657 36.8853 18.1096 36.4007C18.0534 35.8876 17.9832 35.3745 17.9552 34.8614C17.9552 34.2486 17.9411 33.6642 17.9973 33.0799Z" fill="#F5F3E8"/>
<path d="M22.4201 37.5838C22.5044 36.9852 22.3499 36.4151 22.3359 35.8165C22.3219 35.2749 22.3078 34.7048 22.378 34.1775C22.4342 33.7642 22.5324 33.3508 22.9957 33.2083C23.1642 33.1513 23.3186 33.1086 23.473 33.023C23.5152 33.023 23.5573 33.0088 23.6134 33.0088C23.6275 33.0088 23.6275 33.0088 23.6415 33.0088C23.6415 33.023 23.6556 33.023 23.6556 33.0373C23.6696 33.0515 23.6696 33.0801 23.6415 33.0658C23.6836 33.1371 23.7257 33.2083 23.7257 33.3081C23.7538 33.4934 23.6977 33.6929 23.6696 33.8782C23.6275 34.1632 23.6556 34.4483 23.6275 34.7333C23.5713 35.2322 23.3888 35.6597 23.1782 36.1016C22.9255 36.6289 22.6869 37.1848 22.4061 37.7121C22.4061 37.7121 22.4061 37.7264 22.3921 37.7264C22.4061 37.6551 22.4061 37.6123 22.4201 37.5838Z" fill="#CBCAC2"/>
<path d="M22.5464 33.8211C22.5745 33.6358 22.6868 33.4078 22.8553 33.251C22.8834 33.2083 22.9114 33.1798 22.9395 33.1513C23.0799 33.023 23.2484 32.966 23.4309 32.9375C23.7397 32.8805 24.0346 32.8235 24.3294 32.6952C24.7505 32.5099 25.0734 32.5527 25.4244 32.8235C25.8596 33.1513 26.5054 33.1655 27.0248 33.2225C27.3898 33.251 27.7549 33.2083 27.9374 33.5931C28.0918 33.9351 27.8391 34.4625 27.7549 34.7903C27.446 36.0873 27.4179 37.4413 26.9968 38.7097C26.8283 39.2228 26.4914 39.6219 26.1404 40.021C25.9158 40.2775 25.4665 40.6623 25.1015 40.6481C24.6523 40.6338 24.2732 40.534 23.9082 40.2347C23.5713 39.9639 23.3747 39.4651 23.1922 39.066C22.7009 38.0256 22.5605 36.8141 22.4482 35.6739C22.392 35.0468 22.4341 34.434 22.5464 33.8211Z" fill="#E8E7DC"/>
<path d="M22.5464 33.821C22.5745 33.6357 22.6868 33.4077 22.8553 33.2509C22.8834 33.2081 22.9114 33.1796 22.9395 33.1511C23.0799 33.0229 23.2484 32.9659 23.4309 32.9373C23.459 32.9373 23.487 32.9231 23.5151 32.9231C23.4028 32.9801 23.3045 33.0656 23.2624 33.1796C22.9957 33.821 23.6134 34.1346 24.1469 34.1346C24.554 34.1346 24.8488 34.2058 25.1717 34.4624C25.3261 34.5906 25.5367 34.6476 25.7332 34.6334C26.2246 34.5906 26.6037 34.4339 26.9687 34.1061C27.2775 33.821 27.5723 33.7497 27.9514 33.6215C28.0918 33.9635 27.8391 34.4766 27.7689 34.7902C27.46 36.0871 27.432 37.4411 27.0108 38.7096C26.8423 39.2227 26.5054 39.6218 26.1544 40.0208C25.9298 40.2774 25.4806 40.6622 25.1155 40.6479C24.6663 40.6337 24.2872 40.5339 23.9222 40.2346C23.5853 39.9638 23.3888 39.465 23.2063 39.0659C22.7149 38.0255 22.5745 36.814 22.4622 35.6738C22.392 35.0467 22.4341 34.4339 22.5464 33.821Z" fill="#F5F3E8"/>
<path d="M26.9684 38.5385C26.9263 38.0397 26.8 37.5551 26.814 37.042C26.8421 36.3722 26.7438 35.7165 26.7719 35.0467C26.8 34.4766 26.9965 34.1488 27.3334 33.821C27.5159 33.7354 27.7125 33.6784 27.9231 33.6072C28.0635 33.9492 27.8108 34.4623 27.7406 34.7759C27.4317 36.0729 27.4036 37.4268 26.9825 38.6953C26.9684 38.7238 26.9684 38.7523 26.9544 38.7808C26.9684 38.7096 26.9825 38.624 26.9684 38.5385Z" fill="#CBCAC2"/>
<path d="M26.9687 36.3151C26.9968 35.4172 26.5475 34.163 27.5443 33.6784C27.5724 33.6642 27.6145 33.6784 27.6285 33.6927C27.8812 33.5644 28.3866 33.5359 28.6112 33.6357C28.8639 33.7639 29.0464 33.992 29.3132 34.0775C29.6361 34.1773 29.9449 34.334 30.2678 34.4196C30.5486 34.4908 30.8294 34.5621 31.1242 34.6191C31.3769 34.6619 31.6156 34.6476 31.8683 34.7046C32.1631 34.7901 32.3877 34.7901 32.4719 35.1322C32.5702 35.517 32.4017 36.1014 32.3315 36.4862C32.2052 37.1418 32.0508 37.7974 31.9104 38.453C31.8121 38.9661 31.6577 39.4222 31.405 39.8783C31.1804 40.2631 30.9978 40.6479 30.6048 40.8759C30.2538 41.0755 29.8326 41.3463 29.4115 41.2893C28.4568 41.1752 27.6566 40.2203 27.3197 39.3509C26.9547 38.3675 26.9266 37.3698 26.9687 36.3151Z" fill="#E8E7DC"/>
<path d="M26.9681 36.3152C26.9962 35.4173 26.5469 34.163 27.5437 33.6785C27.5577 33.6642 27.5718 33.6785 27.5858 33.6785C27.4594 33.8067 27.3612 33.9778 27.305 34.163C27.1646 34.6476 27.5718 35.0609 27.9648 35.2462C28.737 35.6025 29.5793 35.6453 30.3936 35.4458C31.0113 35.289 31.8396 34.8472 32.4432 35.118C32.4432 35.1322 32.4573 35.1322 32.4573 35.1465C32.5556 35.5313 32.3871 36.1156 32.3169 36.5004C32.1905 37.1561 32.0361 37.8117 31.8957 38.4673C31.7975 38.9804 31.643 39.4365 31.3903 39.8925C31.1657 40.2773 30.9832 40.6622 30.5901 40.8902C30.2391 41.0897 29.818 41.3605 29.3968 41.3035C28.4422 41.1895 27.6419 40.2346 27.305 39.3652C26.954 38.3675 26.926 37.3698 26.9681 36.3152Z" fill="#F5F3E8"/>
<path d="M32.0227 37.2702C32.0788 36.6573 32.0227 35.6454 32.4719 35.1323C32.4719 35.1323 32.4719 35.1323 32.4719 35.1466C32.5702 35.5314 32.4017 36.1157 32.3315 36.5006C32.2333 37.0422 32.1069 37.5837 31.9946 38.1253C31.9946 37.8403 31.9946 37.5552 32.0227 37.2702Z" fill="#CBCAC2"/>
<path d="M9.11101 29.4457C9.39178 29.4314 9.65852 29.5027 9.92526 29.5455C10.1499 29.5882 10.4728 29.4742 10.7395 29.4029C10.6693 29.3317 10.6412 29.2319 10.6132 29.1321C10.4728 28.7758 10.0235 28.7616 9.70064 28.7331C9.70064 28.7331 9.6866 28.7188 9.70064 28.7188C9.95334 28.7046 10.2341 28.6903 10.4587 28.7901C10.5149 28.8186 10.5991 28.8756 10.6412 28.9469C10.6974 29.0324 10.7395 29.3174 10.8378 29.3602C10.908 29.3459 10.9782 29.3174 11.0343 29.3032C11.3011 29.2462 11.6942 29.1892 11.9469 29.3032C12.1996 29.4172 12.3961 29.631 12.6348 29.7592C12.6348 29.7592 12.6348 29.7735 12.6348 29.7592C12.4242 29.688 12.2417 29.5312 12.0451 29.4457C11.6661 29.2747 11.1466 29.4029 10.7536 29.4885C10.5289 29.5312 10.3183 29.631 10.0797 29.6452C10.0235 29.6452 9.96738 29.6452 9.91122 29.6167C9.64449 29.517 9.40582 29.4029 9.11101 29.4172C9.09697 29.4742 9.09697 29.4599 9.11101 29.4457Z" fill="#E6E5DB"/>
<path d="M15.2037 31.5266C15.6248 31.5266 16.0039 31.3555 16.3829 31.2415C16.3127 31.1845 16.2987 31.0562 16.2566 30.9565C16.1443 30.7427 15.8775 30.6144 15.667 30.5289V30.5146C15.8635 30.5717 16.0741 30.6572 16.2285 30.7997C16.3549 30.9137 16.3689 31.0847 16.4531 31.213C16.6497 31.156 16.8462 31.1133 17.0568 31.099C17.5482 31.0847 18.0115 31.27 18.4326 31.5123V31.5266C17.9413 31.3128 17.3376 31.213 16.8041 31.2273C16.4812 31.2415 16.1724 31.4268 15.8635 31.5123C15.6389 31.5836 15.4002 31.5693 15.1756 31.5551C15.2037 31.5408 15.1896 31.5266 15.2037 31.5266Z" fill="#E6E5DB"/>
<path d="M20.1315 33.1085C20.328 33.0515 20.5105 33.0088 20.7071 32.9803C20.693 32.966 20.6649 32.966 20.6509 32.9518C20.5667 32.8948 20.4965 32.8378 20.4684 32.738C20.4684 32.7237 20.4824 32.7237 20.4824 32.738C20.5386 32.8092 20.6509 32.8663 20.7351 32.8805C20.7913 32.8948 20.8474 32.9233 20.9036 32.9518C21.0019 32.9375 21.1001 32.9375 21.1984 32.9375C21.5775 32.9518 21.8723 33.1228 22.2233 32.8805C22.2233 32.8805 22.2373 32.8805 22.2233 32.8805C22.1109 33.08 21.9846 33.1656 21.76 33.1656C21.5353 33.1513 21.2967 33.0515 21.0721 33.023C20.7632 32.9803 20.4544 33.08 20.1455 33.1371C20.1315 33.1513 20.1174 33.1085 20.1315 33.1085Z" fill="#E6E5DB"/>
<path d="M24.3149 33.7498C24.5255 33.7498 24.7501 33.7356 24.9748 33.7071C24.8765 33.6501 24.8063 33.536 24.8063 33.4363H24.8203C24.8484 33.5788 25.0028 33.6358 25.1292 33.6786C25.2977 33.6501 25.4661 33.6216 25.6346 33.6073C25.9996 33.5503 26.2663 33.7926 26.5752 33.9209V33.9351C26.2102 33.8211 25.9294 33.6643 25.5363 33.7213C25.1432 33.7783 24.7221 33.8211 24.3149 33.7641C24.3149 33.7641 24.3009 33.7498 24.3149 33.7498Z" fill="#E6E5DB"/>
<path d="M28.133 34.6478C28.3155 34.6192 28.484 34.662 28.6665 34.719C28.8069 34.7618 28.9332 34.8045 29.0455 34.833C29.0315 34.8188 29.0175 34.8045 29.0175 34.7903C28.9613 34.719 28.9051 34.662 28.8349 34.605C28.7367 34.5337 28.6103 34.4767 28.5261 34.3912C28.5261 34.3912 28.5261 34.377 28.5401 34.377C28.6524 34.4482 28.7788 34.491 28.9051 34.5622C29.0034 34.6192 29.1017 34.7475 29.1578 34.8473C29.4527 34.9185 29.7334 34.9613 30.0844 34.8758C30.4635 34.776 30.8987 34.833 31.2637 34.9471V34.9613C30.7162 34.833 30.2388 35.0041 29.7054 35.0468C29.4948 35.0611 29.2702 34.9756 29.0736 34.9043C28.7648 34.8045 28.4699 34.7903 28.1611 34.7475C28.1049 34.7333 28.0768 34.662 28.133 34.6478Z" fill="#E6E5DB"/>
<path d="M50.0902 28.0632C50.1604 28.0062 50.2306 27.9492 50.3148 27.9065C50.357 27.878 50.3991 27.8495 50.4412 27.8495C50.4974 27.8352 50.5535 27.8495 50.6237 27.8352C50.6377 27.8352 50.6518 27.8495 50.6377 27.8495C50.5956 27.8637 50.5675 27.878 50.5254 27.878C50.4552 27.8922 50.385 27.935 50.3289 27.992C50.2587 28.049 50.2166 28.106 50.1183 28.1203C50.0902 28.1203 50.0621 28.0775 50.0902 28.0632Z" fill="#E6E5DB"/>
<path d="M49.5004 27.9348C49.5846 27.9918 49.7391 28.0203 49.8373 28.0631C49.9216 28.0916 49.9918 28.1629 50.0479 28.2341C50.1322 28.3196 50.1602 28.4479 50.2023 28.5477C50.2585 28.6759 50.3147 28.8042 50.3708 28.9325C50.3849 28.9752 50.3287 28.9752 50.3147 28.9467C50.2585 28.8612 50.1883 28.7615 50.1322 28.6759C50.076 28.5904 49.9918 28.5334 49.9637 28.4337C49.9216 28.3339 49.8654 28.2484 49.7952 28.1629C49.6969 28.0631 49.5706 28.0346 49.5004 27.9348C49.4864 27.9491 49.4864 27.9348 49.5004 27.9348Z" fill="#E6E5DB"/>
<path d="M47.4365 26.3672C47.7874 26.467 48.2086 26.3529 48.5455 26.467C48.7842 26.5525 49.0509 26.6807 49.2334 26.8518C49.2475 26.866 49.2334 26.8803 49.2194 26.866C49.2054 26.8518 49.1913 26.8375 49.1773 26.8233C48.8965 26.7092 48.5736 26.5952 48.2788 26.524C47.998 26.4527 47.6892 26.4812 47.4224 26.3814C47.4224 26.3957 47.4224 26.3672 47.4365 26.3672Z" fill="#E6E5DB"/>
<path d="M43.6325 25.3125C44.0537 25.2982 44.4047 25.512 44.8258 25.4407C45.0364 25.398 45.3031 25.3267 45.5278 25.3552C45.6822 25.3695 45.963 25.5262 46.1174 25.512C46.1314 25.512 46.1314 25.5262 46.1174 25.5262C45.977 25.5547 45.9068 25.4977 45.7664 25.4835C45.4716 25.4407 45.1487 25.5547 44.8539 25.5405C44.4468 25.5262 44.0256 25.4407 43.6325 25.3552C43.6325 25.341 43.6185 25.3125 43.6325 25.3125Z" fill="#E6E5DB"/>
<path d="M39.2799 23.7019C39.7292 23.9442 40.1925 23.7019 40.6698 23.7875C40.7259 23.8017 40.7681 23.8017 40.8242 23.8017C40.7961 23.7447 40.8102 23.6734 40.7961 23.6164C40.7821 23.4882 40.6838 23.4169 40.5855 23.3456C40.5154 23.3029 40.4171 23.2744 40.3609 23.2031C40.3609 23.2031 40.3609 23.1889 40.3609 23.2031C40.4311 23.2601 40.5575 23.2886 40.6417 23.3314C40.7119 23.3599 40.7681 23.4026 40.8102 23.4597C40.8523 23.5167 40.8663 23.5879 40.8804 23.6449C40.8944 23.7162 40.8663 23.759 40.9365 23.8017C41.119 23.8017 41.3015 23.7875 41.484 23.8302C41.6525 23.873 41.849 24.0298 42.0035 24.1153C42.0175 24.1295 42.0175 24.158 41.9894 24.1438C41.6806 24.0155 41.47 23.8302 41.105 23.8445C40.8242 23.8587 40.5294 23.93 40.2627 23.987C39.8976 24.0583 39.5747 23.9015 39.2799 23.7019C39.2659 23.7019 39.2799 23.7019 39.2799 23.7019Z" fill="#E6E5DB"/>
<path d="M34.8159 22.69C35.1668 22.4619 35.5599 22.5189 35.939 22.4334C35.8688 22.3907 35.7986 22.3194 35.7424 22.2624C35.6301 22.1341 35.4476 22.1199 35.3213 22.0201V22.0059C35.4617 22.0771 35.6442 22.0344 35.7705 22.1199C35.8828 22.1911 35.8969 22.3337 35.9951 22.4192C36.4865 22.3052 36.8094 22.2624 37.2727 22.5332C37.2867 22.5332 37.2867 22.5617 37.2727 22.5475C36.8094 22.3764 36.4163 22.4762 35.953 22.4762C35.7986 22.4762 35.602 22.5617 35.4336 22.5617C35.1949 22.576 35.0545 22.6187 34.8439 22.7327C34.8159 22.7612 34.7738 22.7042 34.8159 22.69Z" fill="#E6E5DB"/>
<path d="M32.2473 36.2439C32.2894 35.8591 32.3175 35.3033 32.6264 35.0325C32.9212 34.7617 33.4547 35.0182 33.7776 35.004C34.3532 34.9897 34.9288 35.061 35.5184 35.0325C35.8413 35.0182 36.4309 34.7902 36.7257 35.0325C37.0346 35.289 36.9784 35.6881 36.9784 36.0587C36.9784 36.2297 36.9644 36.3865 36.9644 36.5575C36.9644 36.586 36.9644 36.6145 36.9644 36.6288C37.0065 37.7832 36.7678 38.9519 36.1782 39.9638C35.743 40.7192 34.9288 41.6171 33.9601 41.5459C32.865 41.4461 32.486 40.1776 32.2473 39.2655C31.9946 38.282 32.121 37.2274 32.2473 36.2439Z" fill="#F5F3E8"/>
<path d="M31.2221 24.899C31.2361 24.8705 31.2782 24.899 31.2782 24.9275C30.9693 26.5951 33.1454 26.8801 34.3246 27.1652C34.9704 27.3219 35.546 27.6355 36.1918 27.2079C36.4305 27.0511 36.5428 27.0084 36.8095 27.0511C36.8376 27.0511 36.8516 27.1081 36.8236 27.1224C36.276 27.1794 36.3884 27.5785 35.9812 27.7068C35.6724 27.8065 35.4478 27.8208 35.1249 27.7638C34.2966 27.6355 33.4963 27.3932 32.6681 27.2079C31.4046 26.9229 30.6324 26.1247 31.2221 24.899Z" fill="#F19899"/>
<path d="M41.6396 28.9325C42.2012 29.189 42.7768 29.1463 43.3243 29.4741C44.0403 29.9159 44.307 31.1986 45.402 30.6855C45.4161 30.6713 45.4301 30.6998 45.4161 30.714C44.9668 31.1416 44.4053 31.0989 43.942 30.7283C43.4787 30.3435 43.3243 29.8304 42.7627 29.5311C42.3696 29.3315 41.9344 29.3173 41.5975 29.0465C41.5554 28.9895 41.5834 28.8897 41.6396 28.9325Z" fill="#F19899"/>
<path d="M37.2728 27.4075C37.5255 27.4217 37.708 27.493 37.9467 27.5642C38.3257 27.6783 38.6907 27.7353 39.0838 27.8065C39.7296 27.9206 40.3192 27.9063 40.8668 28.3339C40.8808 28.3481 40.8808 28.3909 40.8527 28.3766C40.1929 28.1629 39.4769 28.3624 38.8311 28.1486C38.3117 27.9633 37.7642 27.778 37.2588 27.55C37.1886 27.5072 37.1886 27.4075 37.2728 27.4075Z" fill="#F19899"/>
<path d="M45.5562 31.6833C45.5562 31.669 45.5842 31.669 45.5842 31.6833C45.6123 31.8401 45.6966 31.9826 45.8369 32.0539C45.9633 32.1109 46.1037 32.1109 46.216 32.1964C46.4266 32.3532 46.5249 32.5812 46.4406 32.8235C46.4125 32.8805 46.3423 32.8663 46.3143 32.8235C46.2581 32.6952 46.1879 32.5242 46.0756 32.4387C45.9773 32.3532 45.8229 32.3532 45.7246 32.2391C45.5842 32.0824 45.5421 31.8828 45.5562 31.6833Z" fill="#F19899"/>
<path d="M50.1604 37.2843C50.4131 35.7166 50.4973 34.2343 50.3008 32.6523C50.2446 32.2532 50.4412 32.0109 50.6518 31.6974C50.9466 31.2555 50.9747 30.8707 51.0589 30.3576C51.0729 30.2721 51.0589 30.3006 51.1291 30.2436C51.1431 30.2293 51.1572 30.2293 51.1572 30.2436C51.3256 30.3291 51.3958 30.5286 51.452 30.7424C51.9293 31.6974 51.8451 32.8375 51.7047 33.878C51.5362 34.9897 51.2274 36.6145 50.3289 37.3841C50.2306 37.4411 50.1464 37.3556 50.1604 37.2843Z" fill="white"/>
<path d="M46.9733 37.8545C47.1418 37.1561 47.1558 36.4292 47.1979 35.7166C47.24 34.8615 47.0295 34.0918 47.7876 33.5075C48.1526 33.2224 48.5176 33.1084 48.8405 32.7236C49.037 32.4956 49.1914 32.2675 49.5003 32.3245C49.7109 32.3673 49.7811 32.6238 49.7951 32.9231C50.0619 33.8923 49.5284 36.0872 49.4441 36.4863C49.2336 37.4697 48.9107 38.5386 47.9841 39.0517C47.5068 39.3082 46.9031 39.5363 46.7908 38.8379C46.7206 38.5244 46.8891 38.1538 46.9733 37.8545Z" fill="white"/>
<path d="M42.8326 39.1229C42.9168 38.4815 43.001 37.8687 43.0291 37.2273C43.0572 36.5004 42.7764 35.3745 43.2959 34.7901C43.5486 34.5051 44.068 34.4338 44.3909 34.334C44.8121 34.2058 45.135 33.9207 45.5842 33.8495C45.9913 33.7782 46.0054 34.4196 45.9773 34.8614C45.9913 35.2177 45.9352 35.6168 45.9352 35.9018C45.9211 36.9422 45.7948 38.0682 45.5 39.0659C45.2753 39.8498 43.4222 41.4603 42.9028 40.035C42.7764 39.7357 42.7905 39.4507 42.8326 39.1229Z" fill="white"/>
<path d="M38.5925 36.5005C38.6206 35.9019 38.3679 35.3888 39.0838 35.232C39.6033 35.1037 40.0946 35.2035 40.6281 35.0325C40.8387 34.9755 41.1195 34.7617 41.3441 34.8044C41.667 34.8614 41.5968 35.3888 41.5266 35.7309C41.5126 35.9161 41.4705 36.1299 41.4705 36.3865C41.4424 37.3556 41.4283 38.4673 41.1476 39.408C40.937 40.1064 40.3895 40.5339 39.7016 40.6765C39.1681 40.7905 38.6346 40.4912 38.5644 39.9353C38.424 38.8094 38.5504 37.6834 38.5925 36.5005Z" fill="white"/>
<path d="M33.3838 37.8117C33.3697 37.2131 33.4118 35.6881 34.1419 35.46C34.5209 35.3318 34.8579 35.3745 35.2369 35.3317C35.5036 35.3032 35.9388 35.1465 36.2056 35.1892C36.7671 35.289 36.7812 35.7308 36.6829 36.2154C36.6829 36.2297 36.6829 36.2439 36.6829 36.2724C36.6268 37.2986 36.5846 38.282 36.3039 39.2797C36.009 40.2774 34.3384 42.2157 33.468 40.7477C33.0047 39.9923 33.3978 38.6383 33.3838 37.8117Z" fill="white"/>
<path d="M28.1615 36.0729C28.2037 35.7023 28.5687 35.7451 28.8775 35.8164C29.8883 35.6738 31.7555 35.1322 31.7695 36.1299C31.7695 36.472 31.6011 36.8283 31.5449 37.1561C31.4466 37.7119 31.4045 38.2678 31.3203 38.8094C31.222 39.5648 30.8851 40.1776 30.2393 40.5909C29.0039 41.3606 28.5125 39.1942 28.2739 38.3961C28.0633 37.6407 28.0773 36.8283 28.1615 36.0729Z" fill="white"/>
<path d="M23.6975 35.6026C23.6975 35.5883 23.6975 35.5883 23.6975 35.5741C23.6554 35.118 23.9502 34.6049 24.4275 34.89C24.5117 34.9327 24.596 34.9897 24.6802 35.0325C24.975 35.1608 25.2417 35.1465 25.5506 35.2035C25.9016 35.2605 26.07 35.4173 26.1823 35.6453C26.4772 37.0136 26.5193 38.4958 25.7471 39.7073C24.989 40.9045 24.4836 39.2227 24.259 38.5386C24.0063 37.7119 23.8379 36.871 23.7396 36.0016C23.7255 35.8591 23.7115 35.7309 23.6975 35.6026Z" fill="white"/>
<path d="M18.7417 33.5787C18.7417 33.5217 18.7698 33.479 18.8119 33.4505C19.4436 33.1227 19.8227 34.0633 20.2158 34.4481C20.6089 34.4624 21.367 33.9636 21.6758 34.3341C21.9566 34.6619 21.8022 35.3175 21.8303 35.7024C21.9005 36.415 21.8864 37.4269 21.6478 38.111C21.5354 38.4388 21.1283 38.8522 20.7773 38.9234C20.2017 39.0374 19.8789 38.5244 19.584 38.0968C18.6715 36.7713 18.7838 35.118 18.7417 33.5787Z" fill="white"/>
<path d="M13.3362 31.9255C13.3643 31.8542 13.4205 31.8115 13.5047 31.8257C13.9118 31.897 14.319 31.897 14.698 32.1108C15.0349 32.2961 15.3157 32.7379 15.6246 33.0942C16.144 33.2937 16.5511 33.5218 17.1267 33.3792C17.1969 33.365 17.2531 33.4505 17.239 33.5075C17.0425 34.3912 16.9302 35.2463 16.7758 36.13C16.6775 36.7428 15.9615 36.9994 15.4421 36.7998C14.5015 36.4293 14.1926 35.6881 13.9539 34.7617C13.7995 34.1631 13.7293 33.5503 13.5609 32.9517C13.4766 32.6524 13.2099 32.2391 13.3362 31.9255Z" fill="white"/>
<path d="M8.11382 30.4574C8.5771 30.2864 9.13866 30.6285 9.51771 30.9563C9.8406 31.0275 10.1635 31.0846 10.5004 31.1273C10.725 31.1558 11.2866 31.0846 11.441 31.3411C11.6937 31.7544 11.5533 32.3815 11.6235 32.8519C11.6937 33.3222 11.778 33.7213 11.4551 34.0918C11.2305 34.3484 10.6829 34.2914 10.3881 34.2486C9.98099 34.1916 9.67213 33.9208 9.39136 33.6357C8.97019 33.2224 8.78769 32.6523 8.63326 32.0965C8.53499 31.7687 8.50691 31.4551 8.35248 31.1416C8.26825 30.9848 8.1419 30.8423 8.05766 30.6855C8.00151 30.6285 8.01555 30.486 8.11382 30.4574Z" fill="white"/>
<path d="M8.1838 28.7188C8.42246 28.1344 9.96674 28.0346 10.4721 28.2342C11.0899 28.4765 11.4829 28.8328 12.1849 28.904C12.5499 28.9896 12.9711 29.1463 13.0693 29.5169C13.0553 29.5169 13.0413 29.5169 13.0272 29.5026C13.0132 29.4884 12.9991 29.4884 12.9851 29.4884C12.7886 29.3459 12.5499 29.2603 12.3112 29.1891C11.9181 29.0893 11.5391 29.2318 11.16 29.2176C11.0056 29.0608 10.8793 28.847 10.6687 28.7473C10.43 28.6332 9.93866 28.5762 9.71404 28.7473C9.65789 28.79 9.79828 28.8755 9.88251 28.8898C10.0229 28.9325 10.1914 28.961 10.3037 29.0751C10.3318 29.1036 10.4441 29.3031 10.4441 29.4171C10.416 29.4314 10.3739 29.4456 10.3318 29.4314C9.62981 29.2318 8.85767 29.4171 8.254 28.9325C8.16976 28.8613 8.14169 28.79 8.1838 28.7188Z" fill="#E6E5DB"/>
<path d="M9.05448 29.531C9.30718 29.5453 9.54584 29.6878 9.81258 29.7305C9.967 29.7448 10.1074 29.759 10.2618 29.759C10.3461 29.7305 10.4443 29.7305 10.5286 29.7448C10.7532 29.7163 10.9918 29.6735 11.2165 29.6165C11.3569 29.5738 11.5253 29.5453 11.6797 29.5453C11.8622 29.5168 12.0448 29.5453 12.1711 29.6735C12.5642 30.0441 12.3255 30.2579 11.9886 30.5429C11.6376 30.8422 10.9076 30.5857 10.5286 30.4717C10.0372 30.3291 9.36333 30.0726 8.99832 29.6878C8.92813 29.6308 8.97024 29.531 9.05448 29.531Z" fill="#E6E5DB"/>
<path d="M13.3224 30.4432C13.4347 30.3149 13.5751 30.3149 13.7155 30.2864C13.9962 30.2579 14.263 30.2294 14.5297 30.1581C14.8105 30.0869 15.1193 29.8446 15.4142 29.8731C16.06 29.7163 16.804 29.9728 17.2813 30.4004C17.8569 30.9278 19.0643 30.5002 19.3591 31.3126C19.5556 31.8542 18.5168 31.4123 18.4466 31.3696C17.9692 31.0988 17.4498 31.1558 16.9584 30.999C16.6496 30.8992 16.4671 30.657 16.2425 30.4717C16.1863 30.4432 16.1301 30.4147 16.074 30.3862C15.8213 30.3434 15.5546 30.3291 15.3019 30.3719C15.2878 30.3862 15.2597 30.4004 15.2457 30.4147C15.5826 30.4574 15.8915 30.6142 15.9757 30.9135C16.1021 31.3981 14.5157 31.2841 14.277 31.2128C13.9682 31.1558 12.7889 31.0418 13.3224 30.4432Z" fill="#E6E5DB"/>
<path d="M15.4704 31.6547C15.709 31.555 15.9758 31.5122 16.2285 31.4552C16.425 31.3982 16.6637 31.2557 16.8742 31.2414C17.1269 31.2129 17.3656 31.2414 17.6183 31.2984C17.6183 31.2984 17.6183 31.2984 17.6323 31.2984C18.0395 31.3269 18.4326 31.4837 18.601 31.7687C18.6431 31.84 18.6291 31.9398 18.5449 31.9683C18.1799 32.0966 17.9412 32.3388 17.6043 32.5099C17.3094 32.6667 16.8883 32.6667 16.5794 32.6096C16.2425 32.5384 15.4282 32.1678 15.4142 31.7402C15.4142 31.7117 15.4282 31.6832 15.4704 31.6547Z" fill="#E6E5DB"/>
<path d="M19.949 33.3651C20.1034 33.194 20.3421 33.1513 20.5807 33.1513C20.7492 33.1228 20.9177 33.1085 21.044 33.1228C21.2406 33.137 21.7319 33.137 21.8021 33.3936C21.8161 33.4221 21.8021 33.4506 21.774 33.4791C21.5073 33.7356 21.1704 33.8497 20.8194 33.9067C20.5386 33.9494 20.0753 33.7926 19.9349 33.5076C19.9069 33.4648 19.9069 33.4078 19.949 33.3651Z" fill="#E6E5DB"/>
<path d="M18.7691 32.4672C18.9656 31.8971 20.3274 32.0966 20.7345 32.1394C20.9451 32.1679 21.6049 32.1109 22.0682 32.2106C22.2788 32.1821 22.6438 32.4814 22.7421 32.5385C22.8404 32.5955 23.0088 32.7237 22.9527 32.8663C22.9106 32.9803 22.6157 33.0373 22.5175 33.0088C22.4613 32.9945 22.4332 32.966 22.4192 32.909C22.4052 32.8663 22.4192 32.8378 22.4332 32.795C22.4332 32.7807 22.4473 32.7807 22.4473 32.7665C22.4332 32.7665 22.4192 32.7665 22.3911 32.7665C22.349 32.7665 22.2928 32.7522 22.2507 32.7522C22.0542 32.8093 21.8296 32.8663 21.633 32.8378C21.1136 32.7665 20.6503 32.5385 20.1309 32.5242C20.2011 32.5812 20.2712 32.6525 20.3274 32.7095C20.3976 32.7807 20.3695 32.909 20.2713 32.9375C20.173 32.966 20.0607 32.9518 19.9484 32.9375C19.5553 32.9233 19.1622 32.7522 18.8112 32.6382C18.7972 32.5955 18.7551 32.5242 18.7691 32.4672Z" fill="#E6E5DB"/>
<path d="M23.7957 32.9658C24.1607 32.9088 24.4836 32.866 24.8065 32.695C24.9469 32.6237 25.1575 32.7948 25.2558 32.866C25.6067 33.1226 26.0139 33.1796 26.4069 33.2508C26.5052 33.2508 26.5894 33.2508 26.6877 33.2508C26.8983 33.2508 27.2493 33.2794 27.4177 33.4219C27.4879 33.4789 27.502 33.5644 27.4458 33.6214C27.3897 33.6927 27.2914 33.7354 27.2072 33.7639C26.9966 33.9492 26.6175 33.7497 26.435 33.6642C26.0419 33.4789 25.6488 33.6214 25.2698 33.5787C25.2417 33.5787 25.2136 33.5502 25.1996 33.5359C24.975 33.3079 24.7784 33.2936 24.5398 33.3079C24.5678 33.3364 24.61 33.3791 24.638 33.4219C24.7082 33.4931 24.6802 33.5929 24.5819 33.6214C24.3573 33.6784 23.6974 33.7069 23.557 33.4931C23.3745 33.2366 23.4447 33.0086 23.7957 32.9658Z" fill="#E6E5DB"/>
<path d="M24.6376 33.878C24.9745 33.8495 25.3536 33.7498 25.6905 33.7783C25.9572 33.7925 26.4345 33.8923 26.5609 34.1488C26.5749 34.1773 26.5609 34.2058 26.5328 34.2201C26.5328 34.2343 26.5188 34.2486 26.5047 34.2628C26.3644 34.3626 26.1959 34.4054 26.0134 34.4196C25.8449 34.4766 25.6343 34.4766 25.4939 34.4196C25.2132 34.2914 24.8622 34.2343 24.6095 34.0633C24.5533 34.0206 24.5253 33.8923 24.6376 33.878Z" fill="#E6E5DB"/>
<path d="M27.8382 33.7499C28.1752 33.6644 28.4981 33.6929 28.7789 33.8782C28.9894 34.0207 29.1298 34.1917 29.3685 34.32C29.6633 34.4768 30.0564 34.5338 30.3793 34.5623C30.4495 34.5623 30.4916 34.7191 30.3933 34.7048C30.3091 34.7191 30.2108 34.7191 30.1125 34.7333C29.8598 34.7761 29.565 34.8474 29.3544 34.7761C29.1439 34.6906 29.186 34.6906 28.9894 34.5053C28.821 34.3485 28.6104 34.2915 28.3858 34.2915C28.4279 34.3343 28.47 34.377 28.4981 34.434C28.5121 34.4768 28.484 34.5195 28.4419 34.5195C28.2594 34.5623 27.7961 34.5766 27.6557 34.4055C27.5154 34.2487 27.5855 33.8212 27.8382 33.7499Z" fill="#E6E5DB"/>
<path d="M28.8491 34.9897C29.0878 35.0752 29.3264 35.1465 29.5651 35.118C29.7195 35.118 29.874 35.0895 30.0284 35.0467C30.0284 35.0467 30.0284 35.0467 30.0424 35.0467C30.0424 35.0467 30.0424 35.0467 30.0565 35.0467C30.1126 35.0325 30.1688 35.0182 30.2249 35.004C30.3372 34.9897 30.4355 34.9755 30.5478 34.9755C30.7444 34.9897 30.9269 35.061 31.1094 35.1322C30.604 35.3318 29.902 35.4173 29.3966 35.3888C28.8632 35.3603 28.4841 35.1893 28.091 34.9185C28.3578 34.9185 28.5964 34.947 28.8491 34.9897Z" fill="#E6E5DB"/>
<path d="M50.3152 28.2769C50.3573 28.1058 50.4556 28.0346 50.5679 28.0061C50.6241 27.9348 50.7224 27.892 50.8066 27.9063C51.0172 27.9348 51.1435 28.1913 51.2137 28.3624C51.326 28.6189 51.4383 28.9467 51.3962 29.2318C51.3681 29.3743 51.2839 29.6023 51.0874 29.5738C50.8908 29.5453 50.7504 29.189 50.6522 29.0322C50.5679 28.8897 50.4977 28.7472 50.4135 28.6047C50.3714 28.5049 50.2871 28.3909 50.3152 28.2769Z" fill="#E6E5DB"/>
<path d="M49.1355 27.6356C49.1355 27.6356 49.1496 27.6213 49.1636 27.6213C49.3882 27.4788 49.7252 27.4646 49.9919 27.4503C50.2446 27.436 50.4271 27.2935 50.6658 27.4646C50.7219 27.5073 50.75 27.6356 50.6517 27.6498C50.5114 27.6641 50.399 27.6641 50.2867 27.6926C50.2587 27.7068 50.2306 27.7353 50.2165 27.7781C50.1885 27.8351 50.1042 27.9349 50.0481 27.9349C49.7954 27.9634 49.5286 27.7639 49.2759 27.8351C49.1636 27.8494 49.0373 27.7068 49.1355 27.6356Z" fill="#E6E5DB"/>
<path d="M48.9253 27.9491C49.0516 27.7639 49.2903 27.8921 49.5009 28.0917C49.5711 28.1202 49.6413 28.1629 49.6834 28.1914C49.908 28.334 49.9922 28.6475 50.0203 28.8898C50.0344 28.9753 50.1186 29.1464 50.0344 29.2176C49.922 29.3174 49.7957 29.1321 49.7536 29.0608C49.5991 28.8328 49.3886 28.6475 49.178 28.4907C49.0095 28.391 48.7849 28.1487 48.9253 27.9491Z" fill="#E6E5DB"/>
<path d="M46.8755 26.0394C47.3949 25.3838 48.0968 25.6831 48.7286 25.9966C49.0094 26.1391 49.4305 26.1249 49.5428 26.5097C49.5709 26.5952 49.6552 26.8233 49.5428 26.8945C49.5288 26.9088 49.5148 26.8803 49.5148 26.8803C49.4165 26.5097 48.7847 26.4669 48.4899 26.3244C48.4197 26.2959 48.3495 26.2532 48.2794 26.2104C47.9003 26.2532 47.2826 26.4099 46.9457 26.2247C46.8895 26.1819 46.8333 26.0964 46.8755 26.0394Z" fill="#E6E5DB"/>
<path d="M47.7178 26.6236C47.774 26.6093 47.8301 26.5951 47.9003 26.5951C48.0126 26.5523 48.0547 26.5808 48.1671 26.5951C48.2934 26.6093 48.4619 26.6521 48.5882 26.6806C48.7848 26.7234 49.0375 26.8231 49.1919 26.9799C49.248 27.0369 49.234 27.1367 49.1498 27.1367C48.9532 27.1652 48.8409 27.2222 48.6725 27.3077C48.518 27.379 48.4338 27.4217 48.2653 27.379C47.9986 27.2935 47.9284 26.9799 47.7459 26.8089C47.6757 26.7804 47.6336 26.6521 47.7178 26.6236Z" fill="#E6E5DB"/>
<path d="M45.2051 24.1009C45.3455 24.1151 45.4859 24.2576 45.5982 24.3289C45.8509 24.5142 46.0896 24.6424 46.4265 24.6424C46.7775 24.6567 46.974 24.9417 47.1846 25.1698C47.1987 25.184 47.1846 25.2125 47.1706 25.1983C46.8617 25.0558 46.5248 24.9703 46.1738 25.0273C46.0755 25.0415 45.893 25.013 45.8088 24.9417C45.514 25.0415 45.2332 25.2696 44.9665 25.241C44.6015 25.2125 44.2224 24.899 43.8855 24.899C43.8012 24.899 43.717 24.8277 43.717 24.7422C43.6749 24.2006 44.8542 24.0581 45.2051 24.1009Z" fill="#E6E5DB"/>
<path d="M44.0399 25.7115C44.2645 25.4835 44.8542 25.5975 45.149 25.6118C45.3876 25.626 45.5842 25.5548 45.8228 25.5263C46.0054 25.512 46.2019 25.5548 46.3844 25.5833C46.5108 25.5975 46.5669 25.8113 46.4265 25.8398C46.3844 25.8541 46.3423 25.8683 46.3002 25.8826C46.2159 25.9823 46.0194 26.1961 45.9071 26.2104C45.6684 26.2246 45.4157 26.0251 45.1771 25.9823C44.9384 25.9396 44.6857 25.8968 44.447 25.9253C44.3488 25.9396 44.1663 25.9396 44.068 25.8683C44.0118 25.8256 43.9978 25.7543 44.0399 25.7115Z" fill="#E6E5DB"/>
<path d="M41.864 22.6614C42.3133 23.032 42.959 23.089 43.4785 23.2743C43.5908 23.317 43.7171 23.3598 43.8014 23.4453C43.9277 23.4881 44.026 23.5878 44.04 23.7304C44.04 24.0011 43.6329 24.0867 43.4504 24.2007C43.31 24.3005 43.0012 24.4715 42.8046 24.386C42.7204 24.4145 42.6362 24.4002 42.58 24.3147C42.3975 24.0867 42.2571 23.9156 41.9763 23.8016C41.9623 23.8016 41.9482 23.7874 41.9342 23.7874C41.9061 23.7731 41.8781 23.7731 41.864 23.7731C41.6394 23.7446 41.3867 23.7589 41.1761 23.6591C40.783 23.4881 40.9655 22.9607 40.5444 22.7897C40.4882 22.7612 40.418 22.6899 40.432 22.6187C40.4882 22.0201 41.5973 22.4476 41.864 22.6614Z" fill="#E6E5DB"/>
<path d="M38.3683 23.1461C38.4806 22.9465 38.7192 22.9323 38.9579 22.9323C39.0702 22.8895 39.1825 22.861 39.2948 22.8468C39.5896 22.8183 39.7441 22.8468 39.9968 22.975C40.095 23.0178 40.1933 23.1176 40.2495 23.2316C40.3337 23.3456 40.4039 23.5166 40.2495 23.5736C39.9827 23.6734 39.5896 23.6164 39.2948 23.5736C39.0421 23.5309 38.649 23.5309 38.4384 23.3741C38.3683 23.3456 38.3261 23.2316 38.3683 23.1461Z" fill="#E6E5DB"/>
<path d="M38.7894 23.6733C38.9158 23.6733 39.0562 23.6876 39.1825 23.7589C39.8143 24.1294 40.1793 24.1579 40.8672 24.0154C41.1901 23.9441 42.0043 24.1579 42.1868 24.4857C42.3132 24.5427 42.4255 24.614 42.5238 24.6853C42.608 24.7565 42.6501 24.9133 42.5238 24.9703C41.8078 25.2839 40.9093 25.0986 40.2495 24.7708C39.9547 24.6283 39.716 24.4145 39.4352 24.2434C39.2246 24.1152 38.9298 24.0296 38.7473 23.8586C38.6912 23.8159 38.6912 23.6733 38.7894 23.6733Z" fill="#E6E5DB"/>
<path d="M35.6729 21.3217C35.7852 21.2219 35.9537 21.1792 36.1503 21.1649C36.1924 21.1507 36.2345 21.1364 36.2906 21.1507C36.3047 21.1507 36.3047 21.1507 36.3187 21.1507C36.768 21.1507 37.3014 21.279 37.5822 21.336C38.1157 21.4357 38.6632 21.6353 39.1967 21.7493C39.4213 21.792 39.5196 21.8063 39.6459 22.0058C39.674 22.0343 39.674 22.0913 39.6459 22.1341C39.4354 22.5047 38.8457 22.5902 38.4667 22.6472C38.228 22.6757 38.0455 22.6329 37.8209 22.5474C37.498 22.4334 37.5682 22.3194 37.1189 22.2196C36.9364 22.1769 36.9084 22.2054 36.8241 22.1911C36.7399 22.2054 36.6557 22.2054 36.5714 22.2054C36.2204 22.2054 35.9397 21.7065 35.701 21.507C35.6449 21.4785 35.6027 21.3787 35.6729 21.3217Z" fill="#E6E5DB"/>
<path d="M33.9461 21.8205C34.1707 21.7635 34.5498 21.7207 34.8025 21.849C35.0833 21.8917 35.4062 22.0343 35.336 22.2908C35.2939 22.4761 35.0411 22.4761 34.9008 22.4618C34.6481 22.4333 34.3954 22.4191 34.1427 22.4048C33.9742 22.3906 33.7215 22.3336 33.6653 22.1483C33.5951 21.9487 33.7777 21.8632 33.9461 21.8205Z" fill="#E6E5DB"/>
<path d="M35.1256 22.8466C35.3081 22.7611 35.5187 22.7184 35.7152 22.7041C35.8556 22.6613 35.996 22.6186 36.1364 22.5901C36.347 22.5473 36.712 22.4618 36.8945 22.6186C36.9507 22.6613 36.9928 22.7469 36.9507 22.8039C36.8945 22.8894 36.7822 22.9321 36.698 22.9892C36.5295 23.0889 36.3751 23.2172 36.1785 23.3027C35.8416 23.4452 35.5327 23.4025 35.1958 23.2457C35.0414 23.1602 34.901 22.9464 35.1256 22.8466Z" fill="#E6E5DB"/>
<path opacity="0.7" d="M51.354 40.2915C51.3259 39.3936 51.8032 38.1679 51.4101 37.3698C51.3961 37.3555 51.4241 37.3413 51.4382 37.3555C52.1542 38.1679 51.733 38.9518 51.6628 39.9495C51.6067 40.9614 51.6909 42.0588 51.2557 42.9995C51.2416 43.028 51.2136 42.9995 51.2136 42.971C51.5224 42.1016 51.382 41.1894 51.354 40.2915Z" fill="#F19899"/>
<path opacity="0.7" d="M48.1949 39.5503C48.4476 39.4363 48.6021 39.3081 48.7565 39.08C48.8548 38.9232 48.9952 38.7665 49.1355 38.6382C49.3461 38.4387 49.7252 38.4387 49.8515 38.7237C49.8515 38.7237 49.8515 38.7094 49.8515 38.7237C49.8515 38.7237 49.8515 38.7237 49.8656 38.7237C49.8936 38.7094 49.9217 38.7665 49.8936 38.7665C49.8234 38.7807 49.7533 38.7807 49.6831 38.7665C49.3882 38.7522 49.2338 39.023 49.0653 39.2083C48.8267 39.4506 48.5599 39.6216 48.223 39.6216C48.1949 39.6359 48.1528 39.5646 48.1949 39.5503Z" fill="#F19899"/>
<path opacity="0.7" d="M44.9386 40.6622C45.2194 40.5624 45.3878 40.4199 45.5703 40.1918C45.6686 40.0778 45.7528 39.9781 45.8792 39.8925C46.1319 39.7358 46.3706 39.75 46.5811 39.9638C46.6092 39.9923 46.5811 40.0208 46.5531 40.0066C46.2021 39.8783 45.9775 40.1348 45.7107 40.3201C45.4721 40.4911 45.2474 40.6479 44.9667 40.7192C44.9386 40.7334 44.8965 40.6764 44.9386 40.6622Z" fill="#F19899"/>
<path opacity="0.7" d="M39.3648 41.2322C39.8842 41.1467 40.3054 41.0327 40.7546 40.7476C40.9371 40.6336 41.0915 40.4483 41.3302 40.4341C41.976 40.3771 42.1866 41.0042 42.7903 41.1324C42.8043 41.1324 42.8043 41.1609 42.7903 41.1609C42.1023 41.1182 41.6952 40.3913 40.9512 40.9757C40.5019 41.332 39.9263 41.3747 39.3788 41.332C39.3226 41.3177 39.3086 41.2465 39.3648 41.2322Z" fill="#F19899"/>
<path opacity="0.7" d="M35.1952 41.3748C35.5181 41.1895 35.7568 41.0042 35.9954 40.7192C36.1218 40.5624 36.4587 40.3914 36.6553 40.3914C37.2589 40.4056 37.4134 40.7762 37.8345 41.1467C37.8486 41.161 37.8486 41.1752 37.8205 41.1752C37.3432 40.9757 37.0484 40.6764 36.4868 40.8902C36.0376 41.0612 35.7147 41.389 35.2373 41.5031C35.1812 41.5173 35.1391 41.4175 35.1952 41.3748Z" fill="#F19899"/>
<path opacity="0.7" d="M31.4609 40.648C31.6574 40.4769 31.9242 40.4199 32.1488 40.5339C32.2611 40.5909 32.3594 40.6907 32.4436 40.7762C32.5559 40.8902 32.4998 41.0755 32.584 41.1895V41.2038C32.5419 41.1895 32.5138 41.1895 32.4857 41.1468C32.4155 41.0613 32.3313 41.0043 32.2471 40.933C32.0365 40.7762 31.7557 40.762 31.517 40.762C31.4749 40.762 31.4047 40.6907 31.4609 40.648Z" fill="#F19899"/>
<path opacity="0.7" d="M24.4272 40.7761C25.0168 40.9899 25.6064 40.8901 26.1259 40.5481C26.3224 40.4198 26.533 40.206 26.7997 40.2345C27.5157 40.3058 27.5298 40.9757 28.0352 41.3462V41.3605C27.8246 41.2607 27.6842 41.0612 27.4876 40.9186C26.9822 40.5196 26.6172 40.7049 26.0697 40.8759C25.5222 41.0612 24.9185 41.1182 24.3991 40.8189C24.385 40.8046 24.3991 40.7619 24.4272 40.7761Z" fill="#F19899"/>
<path opacity="0.7" d="M21.9141 39.2227C22.1106 39.0375 22.3774 38.9519 22.616 39.123C22.7985 39.2512 22.9811 39.465 22.967 39.6931C22.967 39.7073 22.953 39.7073 22.953 39.6931C22.8687 39.5363 22.6862 39.408 22.5318 39.351C22.3774 39.2797 22.1528 39.351 21.9843 39.3653C21.9141 39.3653 21.8579 39.2797 21.9141 39.2227Z" fill="#F19899"/>
<path opacity="0.7" d="M16.8745 37.3983C17.3518 37.1702 17.787 37.4695 18.0958 37.8543C18.2924 38.1109 18.4187 38.4529 18.5732 38.738C18.7697 39.0943 19.0926 39.3651 19.4436 39.5361C19.4576 39.5361 19.4576 39.5646 19.4436 39.5504C19.0364 39.4079 18.7276 39.1513 18.4468 38.8093C17.9695 38.2107 17.7589 37.5978 16.9025 37.5123C16.8464 37.498 16.8183 37.4268 16.8745 37.3983Z" fill="#F19899"/>
<path opacity="0.7" d="M13.1402 36.372C13.3508 36.5431 13.5052 36.7854 13.6736 36.9849C13.8702 37.2414 14.4037 37.4837 14.7266 37.441C13.9965 37.7403 13.3648 36.9991 13.0419 36.4433C12.9998 36.3863 13.084 36.315 13.1402 36.372Z" fill="#F19899"/>
<path opacity="0.7" d="M7.65047 32.8232C7.94529 33.2936 8.21202 33.8351 8.63319 34.2057C9.0684 34.5763 9.78438 34.9183 10.36 34.8613C10.36 34.8613 10.374 34.8756 10.36 34.8756C9.7563 35.0751 9.08243 34.8756 8.60511 34.505C8.0576 34.0917 7.81894 33.4788 7.58028 32.8517C7.58028 32.809 7.62239 32.809 7.65047 32.8232Z" fill="#F19899"/>
<path opacity="0.7" d="M5.99395 31.7543C6.14838 31.5976 6.40108 31.7401 6.56955 31.8113C6.79417 31.9111 6.97667 32.0679 7.15918 32.2104C6.97667 32.1249 6.82224 32.0394 6.6257 32.0109C6.41512 31.9681 6.20454 32.0679 6.02203 31.9396C5.96587 31.8969 5.93779 31.7971 5.99395 31.7543Z" fill="#F19899"/>
<path opacity="0.7" d="M4.47806 31.0702C4.53421 31.1272 4.59037 31.1985 4.66056 31.2413C4.71672 31.284 4.77287 31.3125 4.82903 31.3695C4.87114 31.4123 4.8571 31.4835 4.80095 31.4978C4.6044 31.5406 4.50613 31.2128 4.44998 31.0845C4.43594 31.056 4.46402 31.0417 4.47806 31.0702Z" fill="#F19899"/>
<g opacity="0.6">
<path opacity="0.6" d="M32.2329 24.4288C32.261 24.0724 32.2048 23.6734 32.2048 23.3171C32.1908 22.804 32.5839 22.8752 33.0191 22.804C33.6368 22.7185 34.0439 23.2743 34.4511 23.6449C34.774 23.8444 34.8441 23.7304 34.8722 24.2577C34.9003 24.8278 35.0547 25.6687 34.8441 26.1961C34.7178 26.5239 34.0439 26.1818 33.9035 26.082C33.6508 25.9253 33.4122 25.7685 33.1033 25.6972C32.977 25.6687 32.8225 25.6687 32.6962 25.6117C32.4856 25.5119 32.3873 25.4264 32.275 25.2126C32.1487 25.0131 32.2048 24.6853 32.2329 24.4288Z" fill="#E6E5DB"/>
<path opacity="0.6" d="M36.6979 24.3433C36.712 24.3006 36.7541 24.2578 36.7962 24.2578C37.0629 24.2578 37.3297 24.3433 37.5964 24.3433C37.9614 24.3576 38.2562 24.2863 38.6072 24.4431C39.0284 24.6284 39.3232 24.8707 39.6882 25.1415C39.9128 25.3125 40.2498 25.341 40.4323 25.569C40.4744 25.6118 40.4744 25.6688 40.4604 25.7258C40.32 26.0679 40.4463 26.9658 40.0392 27.1226C39.8426 27.2081 39.3794 27.0513 39.1126 27.0798C38.8459 27.0941 38.523 26.8375 38.3124 26.7235C37.9334 26.5097 37.0629 26.5097 36.8383 26.0536C36.7962 25.9681 36.7681 25.8826 36.7401 25.7828C36.6277 25.341 36.5716 24.6854 36.6979 24.3433Z" fill="#E6E5DB"/>
<path opacity="0.6" d="M42.0047 26.9656C42.0047 26.9513 42.0047 26.9513 41.9907 26.9371C41.9345 26.595 41.8784 26.0677 42.2855 25.9394C42.482 25.8824 42.7347 26.0534 42.9172 26.1247C43.2401 26.2672 43.6613 26.1532 44.0123 26.253C44.4334 26.3812 44.7423 26.5523 44.6159 26.9798C44.4054 27.7067 44.3773 28.6474 44.3632 29.4028C44.3632 29.4883 44.279 29.5168 44.2088 29.474C44.0544 29.3458 43.9561 29.2317 43.8298 29.075C43.549 28.7044 43.2121 28.5619 42.8049 28.4051C42.5943 28.3196 42.0749 28.2341 42.0047 27.9348C41.9064 27.6355 41.9626 27.2934 42.0047 26.9656Z" fill="#E6E5DB"/>
<path opacity="0.6" d="M46.2721 28.9611C46.2862 28.3198 46.1177 27.6784 46.2581 27.037C46.3704 26.5667 46.8197 26.923 47.1004 27.2508C47.1145 27.2508 47.1285 27.2508 47.1285 27.2651C48.0551 28.1772 47.7181 30.8852 46.2441 31.1418C46.1739 31.156 46.1318 31.0847 46.1458 31.0277C46.2441 30.3294 46.2581 29.6595 46.2721 28.9611Z" fill="#E6E5DB"/>
<path opacity="0.6" d="M47.2549 32.0395C47.3111 31.7402 47.5216 31.4836 47.7041 31.2128C47.8586 30.7283 48.0551 30.2579 48.1955 29.7733C48.3078 29.417 48.3359 28.961 48.5184 28.6331L48.5324 28.6189C48.6869 28.6189 48.8413 29.0037 48.8974 29.1035C49.1361 29.5738 49.2063 30.0441 49.1221 30.5572C49.0378 31.0418 48.6728 31.5977 48.2517 31.8542C48.013 32.011 47.6199 32.3103 47.3251 32.1535C47.2689 32.125 47.2409 32.0822 47.2549 32.0395Z" fill="#E6E5DB"/>
</g>
<path d="M47.3954 7.93871C46.9321 6.72725 46.5671 5.47303 46.0617 4.26157C45.5984 3.16413 45.065 2.05244 44.2647 1.15453C44.012 0.86948 43.7172 0.570178 43.3803 0.299381C43.7734 0.128352 44.6157 -0.11394 45.2896 0.384896C46.1319 0.997752 48.5606 5.34476 48.9678 9.99106C48.4343 10.2334 47.5077 8.2095 47.3954 7.93871Z" fill="#BE6872"/>
<path d="M42.9022 0.342079C42.9022 0.342079 44.1096 -0.384797 45.0362 0.270817C45.9768 0.92643 48.953 6.11433 48.9951 11.2595C48.9951 11.2595 26.4487 22.0058 6.45732 26.1961C6.45732 26.1961 3.84608 26.9087 3.05991 25.1271C2.27373 23.3456 2.23162 22.1769 1.45948 21.0794C0.68734 19.982 -0.870975 16.932 0.631184 16.2621C2.13335 15.5922 5.32017 15.6777 9.06855 12.2001C12.8169 8.72253 17.0005 5.85779 22.2932 4.93138C27.5858 4.01922 34.2683 6.27111 37.9746 3.54889C41.6809 0.812411 42.9022 0.342079 42.9022 0.342079Z" fill="#F28D80"/>
<path opacity="0.6" d="M0.631641 16.262C2.1338 15.5922 5.32063 15.6777 9.06901 12.2001C12.8174 8.72247 17.001 5.85773 22.2936 4.93132C27.5863 4.01916 34.2688 6.27105 37.9751 3.54883C38.2278 3.36354 38.4664 3.19251 38.7051 3.02148C36.8941 4.77454 33.637 5.23062 31.3768 5.31613C29.0323 5.40165 26.7018 5.03108 24.3714 5.4159C23.4729 5.55842 21.6619 5.92899 21.9286 7.25447C22.0269 7.76756 22.3498 8.18088 22.4481 8.69397C22.5884 9.40659 22.8131 10.048 23.0377 10.7321C23.5571 12.2998 23.866 13.9246 24.4697 15.4496C24.7224 16.091 25.0874 16.7466 25.5787 17.2312C25.7191 17.3595 26.0982 17.9011 26.3649 17.7443C26.7861 17.4877 26.9124 16.8464 27.3195 16.5186C27.6424 16.262 28.0496 16.1195 28.4427 16.2905C29.271 16.6326 29.8185 17.5448 30.2537 18.2859C30.38 18.4997 30.4923 18.7135 30.6046 18.9415C23.2764 21.678 14.6565 24.5 6.45778 26.2103C6.45778 26.2103 3.84655 26.9229 3.06037 25.1413C2.27419 23.3598 2.23208 22.1911 1.45994 21.0936C0.687801 19.9962 -0.870518 16.9319 0.631641 16.262Z" fill="#E95F4C"/>
<path opacity="0.6" d="M0.631454 16.2622C2.13362 15.5923 5.32044 15.6778 9.06882 12.2002C12.4101 9.09316 16.1163 6.4707 20.6369 5.302C19.7945 5.58705 18.9803 5.91486 18.2222 6.34243C16.8183 7.14057 15.4565 8.05273 14.193 9.06465C12.9436 10.0766 11.7643 11.1883 10.6412 12.3285C9.58826 13.3974 8.46515 14.8084 6.96299 15.2502C6.1347 15.4925 5.27832 15.5638 4.45003 15.7776C3.98674 15.8916 3.42519 16.0769 3.13037 16.5044C2.8496 16.9178 2.7794 17.3453 3.00402 17.8014C3.22865 18.2718 3.7902 18.4713 4.18329 18.7706C5.01158 19.3977 5.32044 20.3241 5.61526 21.2933C5.76968 21.8064 5.88199 22.4335 6.21893 22.861C6.52778 23.2601 6.87876 23.4026 7.37012 23.4597C8.11418 23.5452 8.70381 23.7447 9.26536 24.2578C9.29344 24.2863 9.3496 24.2863 9.37767 24.2435C9.86903 23.5737 9.88307 22.405 10.7254 22.0487C11.4695 21.7208 12.1995 22.0059 12.9155 22.2909C13.1682 22.3907 13.4068 22.4762 13.6595 22.405C13.8982 22.348 14.0667 22.0629 14.179 21.8634C14.3896 21.4786 14.6563 20.994 15.1055 20.8657C15.9759 20.6377 16.4673 21.5783 17.2675 21.4643C17.9274 21.3645 17.9835 20.8087 18.1379 20.2528C18.2783 19.7683 18.6012 19.0699 19.2049 19.2409C19.5137 19.3264 19.7805 19.469 20.0472 19.6257C20.4263 19.8395 21.1142 20.2671 21.5634 19.982C21.9565 19.7255 21.9986 19.2267 22.2232 18.8561C22.2232 19.1554 22.4619 19.4262 22.7286 19.697C22.8129 19.7825 22.9813 19.6257 22.8971 19.5402C22.7286 19.3834 22.2934 18.9986 22.4619 18.7136C22.5181 18.6281 22.5742 18.5568 22.6585 18.4855H22.6725C22.7006 18.4713 22.7146 18.457 22.7146 18.4428C23.1217 18.1292 23.7816 18.0295 24.2589 18.1292C24.666 18.2147 24.9749 18.4143 25.3399 18.5853C25.4522 18.6423 25.5926 18.6851 25.7189 18.6708C26.4911 18.6138 26.6174 17.3168 27.4738 17.4451C28.3021 17.5734 28.6952 18.7706 29.0321 19.4262C29.0461 19.4547 29.0602 19.469 29.0742 19.4975C22.0969 22.0487 14.1088 24.5998 6.47163 26.1961C6.47163 26.1961 3.8604 26.9088 3.07422 25.1272C2.28804 23.3456 2.24593 22.1769 1.47379 21.0795C0.687611 19.9963 -0.870705 16.932 0.631454 16.2622Z" fill="#E04E39"/>
<path opacity="0.5" d="M44.3622 9.93404C45.4011 10.1051 46.1451 11.3165 46.6084 12.357C45.5976 12.813 44.306 13.3831 42.7758 14.0387C42.495 13.2976 42.5512 12.3997 42.7477 11.6443C42.9443 10.9887 43.4777 9.79151 44.3622 9.93404Z" fill="#F19899"/>
<path opacity="0.5" d="M47.507 10.1763C47.9984 9.649 48.4897 9.70601 48.9249 10.0196C48.967 10.4329 48.9951 10.8462 48.9951 11.2738C48.9951 11.2738 48.237 11.6301 46.8893 12.2429C46.9314 11.4876 46.9454 10.7749 47.507 10.1763Z" fill="#F19899"/>
<path opacity="0.5" d="M39.7436 11.4591C40.2771 11.6443 40.7123 11.9864 41.0773 12.4282C41.5406 12.9983 41.8916 13.6397 42.2285 14.2953C40.5298 15.0222 38.5784 15.8346 36.4305 16.6897C36.262 15.1789 36.4585 13.4401 37.3991 12.2857C37.9888 11.5588 38.8311 11.1455 39.7436 11.4591Z" fill="#F19899"/>
<path opacity="0.5" d="M31.2643 14.6088C31.517 14.053 31.9943 13.4971 32.6401 13.4829C33.3982 13.4543 33.9738 13.9532 34.4371 14.5233C34.5073 14.6088 34.7038 14.5233 34.6336 14.4235C34.5494 14.3095 34.4511 14.2097 34.3388 14.11C34.9144 14.4378 35.139 15.4639 35.2654 16.0198C35.3496 16.3619 35.4198 16.7039 35.4619 17.0602C34.1423 17.5876 32.7524 18.1292 31.3064 18.6708C30.9695 17.3738 30.7168 15.7918 31.2643 14.6088Z" fill="#F19899"/>
<path d="M32.3032 13.4543C32.3032 13.4543 33.8194 12.6562 35.0127 13.6111C36.206 14.566 36.7535 16.3903 37.1466 18.3714C37.4695 20.0105 36.9641 20.5093 36.0235 20.9369C35.0829 21.3644 33.0613 21.8348 32.1909 20.1815C31.3205 18.5424 30.5062 14.9508 32.3032 13.4543Z" fill="#F5F3E8"/>
<path d="M9.26557 24.1722C9.26557 24.1722 8.11438 23.4169 6.99127 23.8729C5.86816 24.329 5.96643 25.1272 6.17702 25.9681C6.3876 26.7947 6.99127 28.334 7.93188 28.3055C8.87248 28.277 10.2062 28.4765 10.6273 27.5643C11.0625 26.6379 9.26557 24.1722 9.26557 24.1722Z" fill="#DEDDD3"/>
<path d="M9.49019 27.0084C9.13922 26.5381 8.85844 25.7827 8.77421 25.1983C8.73209 24.8705 8.73209 24.6852 8.73209 24.3432C8.73209 23.7446 7.81957 23.6591 7.08954 23.8301C8.17054 23.4595 9.26557 24.1579 9.26557 24.1579C9.26557 24.1579 11.0625 26.6236 10.6273 27.5357C10.5431 27.7353 10.4027 27.8778 10.2483 27.9776C10.15 27.6212 9.71482 27.2934 9.49019 27.0084Z" fill="#CBCAC2"/>
<path d="M46.8756 12.0433C46.8756 12.0433 47.4653 9.5064 48.448 9.53491C49.4307 9.56341 50.624 13.4116 50.1046 16.4331C50.1046 16.4331 49.6272 17.6303 47.746 17.4878C47.746 17.502 46.6229 14.7228 46.8756 12.0433Z" fill="#F5F3E8"/>
<path d="M46.8752 12.0434C46.8752 12.0434 46.9454 11.7299 47.0858 11.3308C47.184 12.243 47.7737 13.1551 47.9421 14.053C48.0966 14.8939 48.2229 15.9201 47.9983 16.7753C47.9 17.1458 47.9141 17.3311 48.0545 17.5164C47.9562 17.5164 47.8579 17.5164 47.7596 17.5021C47.7456 17.5021 46.6225 14.7229 46.8752 12.0434Z" fill="#DEDDD3"/>
<path d="M43.5205 10.4755C43.5205 10.4755 44.2786 9.42085 45.4578 9.94819C46.6371 10.4755 47.3952 12.2713 47.7602 13.9104C48.1252 15.5494 47.9989 17.502 47.4935 17.9011C47.4935 17.9011 45.6544 18.6422 44.7278 18.5852C44.7278 18.5852 44.2084 18.6707 43.9416 17.7443C43.6609 16.8036 42.1868 12.5421 43.5205 10.4755Z" fill="#F5F3E8"/>
<path d="M43.4359 10.6323C43.1692 11.3022 43.0709 12.0006 43.1271 12.7702C43.2113 13.8819 43.5482 14.8368 43.7729 15.92C43.9273 16.6326 44.0817 17.8583 44.7275 18.3429C44.8679 18.4569 45.0223 18.5139 45.1768 18.5567C45.0083 18.571 44.8539 18.5852 44.7275 18.571C44.7275 18.571 44.2081 18.6565 43.9413 17.7301C43.6746 16.8321 42.2567 12.7417 43.4359 10.6323Z" fill="#DEDDD3"/>
<path d="M38.2557 11.4019C38.2557 11.4019 39.2665 10.4327 41.0214 11.5872C42.7762 12.7417 43.1833 14.1811 43.7028 16.2478C44.2222 18.3286 44.0257 18.6849 43.5764 19.0127C43.1272 19.3405 39.4069 20.552 38.382 20.1102C37.3572 19.6826 37.2449 18.8417 36.8799 17.1742C36.8799 17.1884 35.5883 12.8129 38.2557 11.4019Z" fill="#F5F3E8"/>
<path d="M9.56025 22.5617C9.82699 22.2339 10.192 21.9774 10.6412 21.9346C11.4976 21.8491 13.1261 22.1912 13.5332 23.0463C13.9404 23.9015 15.3723 26.7092 14.9371 27.4076C14.5019 28.1059 13.6315 28.6903 12.2838 28.619C10.9361 28.5335 9.58832 27.5928 9.04081 25.8968C8.78811 25.1129 8.71791 24.272 9.02677 23.5024C9.15312 23.1746 9.33563 22.8325 9.56025 22.5617Z" fill="#EAE8DE"/>
<path d="M14.3619 25.9964C14.0671 25.5546 13.8284 25.0843 13.6459 24.5854C13.4915 24.1436 13.4775 23.6733 13.3651 23.2172C13.2669 22.7896 12.9861 22.5046 12.6492 22.2908C13.0423 22.4761 13.3651 22.7183 13.5196 23.0462C13.9267 23.9013 15.3587 26.709 14.9235 27.4074C14.8813 27.4787 14.8252 27.5499 14.769 27.6212C14.9235 26.9941 14.741 26.5808 14.3619 25.9964Z" fill="#CBCAC2"/>
<path d="M14.3755 21.1078C14.3755 21.1078 14.6703 20.6232 15.4424 20.78C16.2145 20.9368 17.3938 21.9915 17.7167 22.9036C18.0396 23.8158 19.261 25.8396 17.6886 26.7518C16.1303 27.6782 14.8528 26.9656 14.0947 25.2268C13.3085 23.488 13.3085 22.1482 14.3755 21.1078Z" fill="#EAE8DE"/>
<path d="M18.1664 24.1723C17.9277 23.4882 17.6469 22.8326 17.2258 22.2482C16.6923 21.5071 15.85 20.8657 14.9374 20.766C15.0778 20.7375 15.2322 20.7375 15.4288 20.7802C16.2009 20.937 17.3802 21.9917 17.7031 22.9038C17.8575 23.3457 18.2085 24.0298 18.377 24.7424C18.3068 24.5571 18.2366 24.3576 18.1664 24.1723Z" fill="#CBCAC2"/>
<path d="M17.8997 19.6685C17.8997 19.6685 18.3068 19.0414 19.0508 19.1696C19.7949 19.2979 21.999 20.8087 22.4904 21.5926C22.9817 22.3622 22.9536 25.4692 21.2409 26.3671C21.2409 26.3671 20.3424 26.866 19.6124 26.1391C18.8824 25.4122 17.8295 23.987 17.5908 22.3907C17.3662 20.7802 17.6189 20.3241 17.8997 19.6685Z" fill="#EAE8DE"/>
<path d="M21.5919 20.8656C20.9601 20.4238 20.3284 19.9392 19.6826 19.5116C19.472 19.3691 19.2614 19.2551 19.0508 19.1838C19.7949 19.3121 21.999 20.8229 22.4903 21.6068C22.5605 21.735 22.6307 21.9061 22.6729 22.1198C22.4623 21.5497 22.0973 21.2219 21.5919 20.8656Z" fill="#CBCAC2"/>
<path d="M22.4898 17.6018C22.4898 17.6018 23.5848 16.6041 24.8904 17.4023C26.2101 18.2004 26.898 19.5971 27.1226 21.0224C27.3472 22.4476 27.0524 23.9441 26.1258 24.3432C25.1852 24.7423 23.8796 24.0154 22.4196 21.4785C20.9736 18.9558 21.507 18.3144 22.4898 17.6018Z" fill="#F5F3E8"/>
<path d="M28.0216 15.6493C28.0216 15.6493 28.7938 15.0792 29.7765 15.9343C30.7452 16.7752 32.1912 18.8418 32.0087 20.8657C32.0087 20.8657 32.107 22.2339 30.8996 22.7328C29.6923 23.2316 28.1901 23.3171 27.7549 22.8325C27.3057 22.348 26.8003 19.697 26.8003 18.7991C26.8143 17.8869 26.7301 16.2479 28.0216 15.6493Z" fill="#F5F3E8"/>
<path opacity="0.5" d="M37.1604 10.9317C37.5534 10.3331 38.3396 9.83423 39.0696 9.83423C39.5048 9.83423 39.94 9.9625 40.3612 10.0908C40.7683 10.219 42.1161 11.345 42.3688 10.4756H42.3828C42.3407 11.1455 41.8634 11.1312 41.3159 10.9744C40.0243 10.6039 38.48 10.048 37.2586 11.0029C37.2025 11.0457 37.1182 10.9744 37.1604 10.9317Z" fill="#F19899"/>
<path opacity="0.5" d="M44.0678 9.42081C44.2503 9.27828 44.4609 8.97898 44.6996 8.90772C45.0365 8.8222 45.2611 8.85071 45.6121 8.92197C45.8507 8.96473 46.1456 9.06449 46.3281 9.20702C46.5808 9.3923 46.9598 9.97665 47.3248 9.72011C47.3248 9.72011 47.3389 9.72011 47.3389 9.73436C47.1844 10.0622 46.9598 10.4327 46.5527 10.1334C46.1877 9.84838 45.9069 9.62034 45.4296 9.53483C44.9803 9.44931 44.6153 9.53483 44.1801 9.60609C44.0818 9.60609 43.9976 9.47782 44.0678 9.42081Z" fill="#F19899"/>
<path opacity="0.5" d="M31.5449 13.4544C31.952 12.585 32.4574 12.2287 33.4121 12.1574C34.1842 12.0861 34.7598 12.5707 35.2793 13.0553C35.3073 13.0838 35.3073 13.1408 35.2652 13.1408C34.816 13.0981 34.3808 12.7988 33.9456 12.6847C33.005 12.4424 32.3451 13.041 31.6993 13.5969C31.6151 13.6539 31.5168 13.5256 31.5449 13.4544Z" fill="#F19899"/>
<path opacity="0.5" d="M26.3651 16.1053C26.6318 15.4354 26.9266 14.9081 27.5864 14.5518C28.134 14.2525 28.6674 14.5375 29.1588 14.794C29.1588 14.794 29.1728 14.8083 29.1588 14.8083C28.5271 14.6943 28.0918 14.7228 27.5584 15.1219C27.1512 15.4354 26.8845 15.8915 26.5055 16.2335C26.4353 16.3191 26.337 16.1908 26.3651 16.1053Z" fill="#F19899"/>
<path opacity="0.5" d="M20.6787 18.2004C20.8612 17.6303 21.2403 17.445 21.6755 17.1172C21.6895 17.1172 21.7035 17.1172 21.6895 17.1314C21.507 17.5163 21.2683 17.8013 21.1701 18.2431C21.1139 18.4712 21.0437 18.6565 21.0858 18.8987C21.1139 19.1125 21.1841 19.3121 21.1841 19.5259C21.1841 19.6114 21.0858 19.6256 21.0297 19.5686C20.6927 19.1268 20.4962 18.7562 20.6787 18.2004Z" fill="#F19899"/>
<path opacity="0.5" d="M16.4537 20.7089C16.5519 20.6091 16.6783 20.6234 16.7625 20.4951C16.8468 20.3526 16.8468 20.1388 16.8889 19.982C16.917 19.8395 17.0012 19.6257 17.0995 19.5117C17.1697 19.4404 17.2258 19.3692 17.296 19.3121C17.3802 19.2266 17.4785 19.2266 17.5768 19.1411C17.5768 19.1411 17.5908 19.1411 17.5908 19.1554C17.5347 19.2551 17.4504 19.2979 17.3943 19.3977C17.296 19.5544 17.2539 19.7112 17.2398 19.8965C17.2118 20.1245 17.2258 20.3526 17.1697 20.5664C17.0854 20.8799 16.7344 21.165 16.4677 20.8657C16.4116 20.8229 16.4116 20.7659 16.4537 20.7089Z" fill="#F19899"/>
<path opacity="0.5" d="M12.9019 21.8062C13.0563 21.7207 13.1826 21.7064 13.295 21.5639C13.4073 21.4214 13.4494 21.2361 13.5336 21.0651C13.7161 20.6803 14.0811 20.4807 14.4742 20.3667C14.4742 20.3667 14.4883 20.3667 14.4742 20.381C14.025 20.6945 13.8986 21.1221 13.6881 21.6067C13.5477 21.9202 13.2528 22.248 12.9019 22.0057C12.8317 21.963 12.8317 21.849 12.9019 21.8062Z" fill="#F19899"/>
<path opacity="0.5" d="M8.00228 23.2457C8.17074 23.1459 8.35325 23.0747 8.50768 22.9464C8.63403 22.8466 8.69018 22.6328 8.78845 22.5046C8.985 22.2338 9.22366 22.0342 9.54655 21.9487C9.56059 21.9487 9.57463 21.9772 9.56059 21.9772C9.32193 22.077 9.1675 22.248 9.04115 22.4761C8.94288 22.6614 8.94288 22.8751 8.85865 23.0747C8.71826 23.4025 8.35325 23.545 8.04439 23.4452C7.93208 23.4167 7.91804 23.3027 8.00228 23.2457Z" fill="#F19899"/>
<path opacity="0.5" d="M5.64317 24.785C5.65721 24.671 5.69933 24.557 5.74144 24.4572C5.7976 24.3432 5.90991 24.2862 5.95203 24.1722C5.96606 24.1579 5.99414 24.1722 5.99414 24.1864C5.9801 24.2862 5.99414 24.2577 5.95203 24.3432C5.89587 24.4857 5.88183 24.5855 5.86779 24.7423C5.83971 25.0131 5.95202 25.3124 5.86779 25.5689C5.83971 25.6544 5.74144 25.6259 5.71336 25.5689C5.60105 25.3266 5.61509 25.0558 5.64317 24.785Z" fill="#F19899"/>
<path opacity="0.5" d="M41.092 1.86709C42.187 1.46802 43.0293 0.156793 44.2928 0.384833C45.2756 0.570115 46.1881 2.00961 46.4268 2.89327C46.4268 2.90752 46.4127 2.90752 46.3987 2.89327C45.9494 1.93835 44.7561 0.755397 43.6611 0.883669C42.7345 0.997689 42.0326 1.72457 41.1341 1.9526C41.0779 1.96686 41.0358 1.88134 41.092 1.86709Z" fill="#F19899"/>
<path d="M39.1265 18.4854C38.8317 17.388 38.4667 16.3333 38.3263 15.1931C38.214 14.2952 37.9613 13.0267 38.5509 12.2429C39.0423 11.573 39.6319 11.4447 40.3058 11.5587C40.4321 11.6015 40.5725 11.6728 40.7129 11.744C41.8501 12.4139 42.6643 13.4828 43.0434 14.9793C43.4224 16.4758 43.8717 18.3429 43.4365 18.6137C43.0855 18.8275 41.471 19.4831 40.2356 19.6684C39.5758 19.5401 39.309 19.1268 39.1265 18.4854Z" fill="white"/>
<path d="M45.3316 10.1336C45.3316 10.1336 46.3284 10.3902 46.8618 11.7157C46.8618 11.7157 47.5357 13.1979 47.6761 14.8512C47.8165 16.4902 47.7603 17.4452 47.3111 17.716C46.8618 17.9868 45.7528 18.3003 45.3316 18.1008C44.9104 17.9012 44.6297 16.1909 44.5033 15.3358C44.405 14.4664 43.5066 9.6063 45.3316 10.1336Z" fill="white"/>
<path d="M47.9569 10.4756C47.9569 10.4756 48.3219 9.57769 48.7571 9.90549C49.2064 10.2333 49.796 11.63 49.9364 13.3403C50.0768 15.0506 50.161 16.2763 49.5152 16.7324C48.8695 17.1885 48.4764 17.046 48.4764 17.046C48.4764 17.046 48.5185 14.3095 48.0131 12.6562C47.5217 11.0314 47.7744 10.8177 47.9569 10.4756Z" fill="white"/>
<path d="M33.7217 13.4401C33.7217 13.4401 34.929 13.212 35.8415 15.0648C36.7681 16.9177 37.2033 19.1838 36.9927 19.6399C36.7821 20.0817 36.3329 20.6661 35.0413 20.8941C33.7357 21.1221 33.132 19.7967 32.8653 18.6279C32.6126 17.445 32.1914 13.7536 33.7217 13.4401Z" fill="white"/>
<path d="M28.5832 15.8059C28.5832 15.8059 29.0605 15.4638 29.8888 16.3618C30.7171 17.2597 31.405 18.2003 31.77 19.5828C32.1491 20.9653 31.5875 22.1768 30.6469 22.4761C30.6469 22.4761 29.243 23.0034 29.1447 22.5188C29.0605 22.0627 27.2635 16.1337 28.5832 15.8059Z" fill="white"/>
<path d="M22.392 18.0151C22.392 18.0151 23.4449 17.0317 24.2592 17.3738C25.0874 17.7158 26.2527 19.0556 26.6177 20.2528C26.9827 21.45 26.9967 23.2743 26.4773 23.8444C26.4773 23.8444 26.3229 24.1009 26.0281 24.0154C25.7332 23.9157 21.4795 18.8703 22.392 18.0151Z" fill="white"/>
<path d="M19.0646 19.8964C19.0646 19.8964 19.0787 19.7396 19.4718 19.8821C19.8649 20.0389 21.9847 21.0223 22.069 21.9772C22.1392 22.9321 22.2234 24.9275 21.4091 25.6544C20.5808 26.3812 20.4545 26.1104 19.8368 24.9988C19.205 23.9013 18.2223 20.4522 19.0646 19.8964Z" fill="white"/>
<path d="M14.8109 21.2791C14.9513 20.88 15.569 21.3218 15.7375 21.4216C16.1306 21.6496 16.4254 21.9917 16.6781 22.3622C16.8185 22.5048 16.9448 22.6615 17.0852 22.8326C17.4783 23.3599 17.8012 24.3148 17.8854 24.9562C17.9837 25.7686 17.8433 26.3102 17.0852 26.6807C16.664 26.8803 16.2008 26.9658 15.934 26.5382C15.0777 25.1842 14.2213 22.8611 14.8109 21.2791Z" fill="white"/>
<path d="M10.1781 23.5025C10.2483 22.0487 11.4276 22.234 12.1857 22.9324C12.9297 23.5595 13.1263 24.8564 13.6457 25.7686C13.8984 26.2247 14.6425 27.1226 14.3056 27.6927C14.0669 28.0918 12.8596 28.3626 12.4665 28.1773C10.9362 27.4504 10.0939 25.0987 10.1781 23.5025Z" fill="white"/>
<path d="M6.8786 24.7994C6.8786 24.0868 7.6367 24.1011 8.0719 24.4004C8.6475 24.7994 8.67557 25.6118 8.78789 26.3102C8.9002 26.638 9.02655 26.9516 9.19501 27.2509C9.32136 27.4646 9.61618 27.6357 9.54598 27.9065C9.53194 27.9492 9.50387 27.9777 9.46175 27.9777C7.6367 28.3055 6.8786 26.353 6.8786 24.7994Z" fill="white"/>
</g>
<defs>
<clipPath id="clip0_4128_16081">
<rect width="52" height="49" fill="white" transform="matrix(-1 0 0 1 52 0)"/>
</clipPath>
</defs>
</svg>
